%TF.GenerationSoftware,KiCad,Pcbnew,8.0.5*%
%TF.CreationDate,2024-11-17T15:10:29-05:00*%
%TF.ProjectId,kb-usb-to-coco,6b622d75-7362-42d7-946f-2d636f636f2e,rev?*%
%TF.SameCoordinates,Original*%
%TF.FileFunction,Copper,L2,Bot*%
%TF.FilePolarity,Positive*%
%FSLAX46Y46*%
G04 Gerber Fmt 4.6, Leading zero omitted, Abs format (unit mm)*
G04 Created by KiCad (PCBNEW 8.0.5) date 2024-11-17 15:10:29*
%MOMM*%
%LPD*%
G01*
G04 APERTURE LIST*
%TA.AperFunction,ComponentPad*%
%ADD10R,2.400000X1.600000*%
%TD*%
%TA.AperFunction,ComponentPad*%
%ADD11O,2.400000X1.600000*%
%TD*%
%TA.AperFunction,ComponentPad*%
%ADD12O,1.700000X1.700000*%
%TD*%
%TA.AperFunction,ComponentPad*%
%ADD13R,1.700000X1.700000*%
%TD*%
%TA.AperFunction,ComponentPad*%
%ADD14C,1.600000*%
%TD*%
%TA.AperFunction,ComponentPad*%
%ADD15O,1.600000X1.600000*%
%TD*%
%TA.AperFunction,ViaPad*%
%ADD16C,0.600000*%
%TD*%
%TA.AperFunction,Conductor*%
%ADD17C,0.200000*%
%TD*%
G04 APERTURE END LIST*
D10*
%TO.P,U2,1,NC*%
%TO.N,unconnected-(U2-NC-Pad1)*%
X137500000Y-66420000D03*
D11*
%TO.P,U2,2,A*%
%TO.N,UART_{TX}*%
X137500000Y-68960000D03*
%TO.P,U2,3,C*%
%TO.N,Net-(U2-C)*%
X137500000Y-71500000D03*
%TO.P,U2,4,NC*%
%TO.N,unconnected-(U2-NC-Pad4)*%
X137500000Y-74040000D03*
%TO.P,U2,5,GND*%
%TO.N,UART_{GND}*%
X145120000Y-74040000D03*
%TO.P,U2,6,VO*%
%TO.N,UART_{RXD}*%
X145120000Y-71500000D03*
%TO.P,U2,7,EN*%
%TO.N,UART_{+5V}*%
X145120000Y-68960000D03*
%TO.P,U2,8,VCC*%
X145120000Y-66420000D03*
%TD*%
D12*
%TO.P,U1,1,GPIO0*%
%TO.N,UART_{TX}*%
X129665000Y-115130000D03*
%TO.P,U1,2,GPIO1*%
%TO.N,unconnected-(U1-GPIO1-Pad2)*%
X129665000Y-112590000D03*
D13*
%TO.P,U1,3,GND*%
%TO.N,GND*%
X129665000Y-110050000D03*
D12*
%TO.P,U1,4,GPIO2*%
%TO.N,RESET_{P}*%
X129665000Y-107510000D03*
%TO.P,U1,5,GPIO3*%
%TO.N,STROBE_{P}*%
X129665000Y-104970000D03*
%TO.P,U1,6,GPIO4*%
%TO.N,DATA_{P}*%
X129665000Y-102430000D03*
%TO.P,U1,7,GPIO5*%
%TO.N,AX0_{P}*%
X129665000Y-99890000D03*
D13*
%TO.P,U1,8,GND*%
%TO.N,GND*%
X129665000Y-97350000D03*
D12*
%TO.P,U1,9,GPIO6*%
%TO.N,AX1_{P}*%
X129665000Y-94810000D03*
%TO.P,U1,10,GPIO7*%
%TO.N,AX2_{P}*%
X129665000Y-92270000D03*
%TO.P,U1,11,GPIO8*%
%TO.N,AY0_{P}*%
X129665000Y-89730000D03*
%TO.P,U1,12,GPIO9*%
%TO.N,AY1_{P}*%
X129665000Y-87190000D03*
D13*
%TO.P,U1,13,GND*%
%TO.N,GND*%
X129665000Y-84650000D03*
D12*
%TO.P,U1,14,GPIO10*%
%TO.N,AY2_{P}*%
X129665000Y-82110000D03*
%TO.P,U1,15,GPIO11*%
%TO.N,unconnected-(U1-GPIO11-Pad15)_1*%
X129665000Y-79570000D03*
%TO.P,U1,16,GPIO12*%
%TO.N,SDA*%
X129665000Y-77030000D03*
%TO.P,U1,17,GPIO13*%
%TO.N,SCL*%
X129665000Y-74490000D03*
D13*
%TO.P,U1,18,GND*%
%TO.N,GND*%
X129665000Y-71950000D03*
D12*
%TO.P,U1,19,GPIO14*%
%TO.N,unconnected-(U1-GPIO14-Pad19)*%
X129665000Y-69410000D03*
%TO.P,U1,20,GPIO15*%
%TO.N,unconnected-(U1-GPIO15-Pad20)_1*%
X129665000Y-66870000D03*
%TO.P,U1,21,GPIO16*%
%TO.N,unconnected-(U1-GPIO16-Pad21)_1*%
X111885000Y-66870000D03*
%TO.P,U1,22,GPIO17*%
%TO.N,unconnected-(U1-GPIO17-Pad22)_1*%
X111885000Y-69410000D03*
D13*
%TO.P,U1,23,GND*%
%TO.N,GND*%
X111885000Y-71950000D03*
D12*
%TO.P,U1,24,GPIO18*%
%TO.N,unconnected-(U1-GPIO18-Pad24)_1*%
X111885000Y-74490000D03*
%TO.P,U1,25,GPIO19*%
%TO.N,unconnected-(U1-GPIO19-Pad25)_1*%
X111885000Y-77030000D03*
%TO.P,U1,26,GPIO20*%
%TO.N,unconnected-(U1-GPIO20-Pad26)*%
X111885000Y-79570000D03*
%TO.P,U1,27,GPIO21*%
%TO.N,unconnected-(U1-GPIO21-Pad27)*%
X111885000Y-82110000D03*
D13*
%TO.P,U1,28,GND*%
%TO.N,GND*%
X111885000Y-84650000D03*
D12*
%TO.P,U1,29,GPIO22*%
%TO.N,unconnected-(U1-GPIO22-Pad29)_1*%
X111885000Y-87190000D03*
%TO.P,U1,30,RUN*%
%TO.N,unconnected-(U1-RUN-Pad30)_1*%
X111885000Y-89730000D03*
%TO.P,U1,31,GPIO26_ADC0*%
%TO.N,unconnected-(U1-GPIO26_ADC0-Pad31)*%
X111885000Y-92270000D03*
%TO.P,U1,32,GPIO27_ADC1*%
%TO.N,unconnected-(U1-GPIO27_ADC1-Pad32)_1*%
X111885000Y-94810000D03*
D13*
%TO.P,U1,33,AGND*%
%TO.N,unconnected-(U1-AGND-Pad33)_1*%
X111885000Y-97350000D03*
D12*
%TO.P,U1,34,GPIO28_ADC2*%
%TO.N,unconnected-(U1-GPIO28_ADC2-Pad34)*%
X111885000Y-99890000D03*
%TO.P,U1,35,ADC_VREF*%
%TO.N,unconnected-(U1-ADC_VREF-Pad35)_1*%
X111885000Y-102430000D03*
%TO.P,U1,36,3V3*%
%TO.N,+3V3*%
X111885000Y-104970000D03*
%TO.P,U1,37,3V3_EN*%
%TO.N,unconnected-(U1-3V3_EN-Pad37)*%
X111885000Y-107510000D03*
D13*
%TO.P,U1,38,GND*%
%TO.N,GND*%
X111885000Y-110050000D03*
D12*
%TO.P,U1,39,VSYS*%
%TO.N,unconnected-(U1-VSYS-Pad39)_1*%
X111885000Y-112590000D03*
%TO.P,U1,40,VBUS*%
%TO.N,+5V*%
X111885000Y-115130000D03*
%TO.P,U1,41,SWCLK*%
%TO.N,unconnected-(U1-SWCLK-Pad41)*%
X123315000Y-67100000D03*
D13*
%TO.P,U1,42,GND*%
%TO.N,unconnected-(U1-GND-Pad42)_1*%
X120775000Y-67100000D03*
D12*
%TO.P,U1,43,SWDIO*%
%TO.N,unconnected-(U1-SWDIO-Pad43)*%
X118235000Y-67100000D03*
%TD*%
D14*
%TO.P,R19,1*%
%TO.N,GND*%
X156000000Y-77500000D03*
D15*
%TO.P,R19,2*%
%TO.N,Net-(U2-C)*%
X148380000Y-77500000D03*
%TD*%
D13*
%TO.P,J4,1,Pin_1*%
%TO.N,+5V*%
X166500000Y-73960000D03*
D12*
%TO.P,J4,2,Pin_2*%
%TO.N,GND*%
X166500000Y-76500000D03*
%TD*%
D13*
%TO.P,J3,1,Pin_1*%
%TO.N,Net-(J3-Pin_1)*%
X174500000Y-77180000D03*
D12*
%TO.P,J3,2,Pin_2*%
%TO.N,Net-(J3-Pin_2)*%
X174500000Y-79720000D03*
%TO.P,J3,3,Pin_3*%
%TO.N,GND*%
X174500000Y-82260000D03*
%TO.P,J3,4,Pin_4*%
%TO.N,Net-(J3-Pin_4)*%
X174500000Y-84800000D03*
%TO.P,J3,5,Pin_5*%
%TO.N,Net-(J3-Pin_5)*%
X174500000Y-87340000D03*
%TO.P,J3,6,Pin_6*%
%TO.N,Net-(J3-Pin_6)*%
X174500000Y-89880000D03*
%TO.P,J3,7,Pin_7*%
%TO.N,Net-(J3-Pin_7)*%
X174500000Y-92420000D03*
%TO.P,J3,8,Pin_8*%
%TO.N,Net-(J3-Pin_8)*%
X174500000Y-94960000D03*
%TO.P,J3,9,Pin_9*%
%TO.N,Net-(J3-Pin_9)*%
X174500000Y-97500000D03*
%TO.P,J3,10,Pin_10*%
%TO.N,Net-(J3-Pin_10)*%
X174500000Y-100040000D03*
%TO.P,J3,11,Pin_11*%
%TO.N,Net-(J3-Pin_11)*%
X174500000Y-102580000D03*
%TO.P,J3,12,Pin_12*%
%TO.N,Net-(J3-Pin_12)*%
X174500000Y-105120000D03*
%TO.P,J3,13,Pin_13*%
%TO.N,Net-(J3-Pin_13)*%
X174500000Y-107660000D03*
%TO.P,J3,14,Pin_14*%
%TO.N,Net-(J3-Pin_14)*%
X174500000Y-110200000D03*
%TO.P,J3,15,Pin_15*%
%TO.N,Net-(J3-Pin_15)*%
X174500000Y-112740000D03*
%TO.P,J3,16,Pin_16*%
%TO.N,Net-(J3-Pin_16)*%
X174500000Y-115280000D03*
%TD*%
D13*
%TO.P,J2,1,Pin_1*%
%TO.N,UART_{RXD}*%
X154000000Y-72525000D03*
D12*
%TO.P,J2,2,Pin_2*%
%TO.N,UART_{GND}*%
X154000000Y-69985000D03*
%TO.P,J2,3,Pin_3*%
%TO.N,UART_{+5V}*%
X154000000Y-67445000D03*
%TD*%
D13*
%TO.P,J1,1,Pin_1*%
%TO.N,SDA*%
X163420000Y-66500000D03*
D12*
%TO.P,J1,2,Pin_2*%
%TO.N,SCL*%
X165960000Y-66500000D03*
%TO.P,J1,3,Pin_3*%
%TO.N,+3V3*%
X168500000Y-66500000D03*
%TO.P,J1,4,Pin_4*%
%TO.N,GND*%
X171040000Y-66500000D03*
%TD*%
D14*
%TO.P,C2,1*%
%TO.N,UART_{+5V}*%
X149000000Y-67500000D03*
%TO.P,C2,2*%
%TO.N,UART_{GND}*%
X149000000Y-72500000D03*
%TD*%
%TO.P,C1,1*%
%TO.N,GND*%
X168500000Y-100500000D03*
%TO.P,C1,2*%
%TO.N,+5V*%
X168500000Y-105500000D03*
%TD*%
D10*
%TO.P,U3,1,AY2*%
%TO.N,AY2_{MT}*%
X147760000Y-82480000D03*
D11*
%TO.P,U3,2,STROBE*%
%TO.N,STROBE_{MT}*%
X147760000Y-85020000D03*
%TO.P,U3,3,V_{EE}*%
%TO.N,GND*%
X147760000Y-87560000D03*
%TO.P,U3,4,DATA*%
%TO.N,DATA_{MT}*%
X147760000Y-90100000D03*
%TO.P,U3,5,V_{SS}*%
%TO.N,GND*%
X147760000Y-92640000D03*
%TO.P,U3,6,X0*%
%TO.N,Net-(J3-Pin_1)*%
X147760000Y-95180000D03*
%TO.P,U3,7,X2*%
%TO.N,Net-(J3-Pin_4)*%
X147760000Y-97720000D03*
%TO.P,U3,8,X4*%
%TO.N,Net-(J3-Pin_6)*%
X147760000Y-100260000D03*
%TO.P,U3,9,X6*%
%TO.N,Net-(J3-Pin_8)*%
X147760000Y-102800000D03*
%TO.P,U3,10,RESET*%
%TO.N,RESET_{MT}*%
X147760000Y-105340000D03*
%TO.P,U3,11,Y7*%
%TO.N,Net-(J3-Pin_16)*%
X147760000Y-107880000D03*
%TO.P,U3,12,Y6*%
%TO.N,Net-(J3-Pin_15)*%
X147760000Y-110420000D03*
%TO.P,U3,13,Y5*%
%TO.N,Net-(J3-Pin_14)*%
X147760000Y-112960000D03*
%TO.P,U3,14,Y4*%
%TO.N,Net-(J3-Pin_13)*%
X147760000Y-115500000D03*
%TO.P,U3,15,Y3*%
%TO.N,Net-(J3-Pin_12)*%
X163000000Y-115500000D03*
%TO.P,U3,16,Y2*%
%TO.N,Net-(J3-Pin_11)*%
X163000000Y-112960000D03*
%TO.P,U3,17,Y1*%
%TO.N,Net-(J3-Pin_10)*%
X163000000Y-110420000D03*
%TO.P,U3,18,Y0*%
%TO.N,Net-(J3-Pin_9)*%
X163000000Y-107880000D03*
%TO.P,U3,19,V_{DD}*%
%TO.N,+5V*%
X163000000Y-105340000D03*
%TO.P,U3,20,X7*%
%TO.N,unconnected-(U3-X7-Pad20)*%
X163000000Y-102800000D03*
%TO.P,U3,21,X5*%
%TO.N,Net-(J3-Pin_7)*%
X163000000Y-100260000D03*
%TO.P,U3,22,X3*%
%TO.N,Net-(J3-Pin_5)*%
X163000000Y-97720000D03*
%TO.P,U3,23,X1*%
%TO.N,Net-(J3-Pin_2)*%
X163000000Y-95180000D03*
%TO.P,U3,24,AX0*%
%TO.N,AX0_{MT}*%
X163000000Y-92640000D03*
%TO.P,U3,25,AX1*%
%TO.N,AX1_{MT}*%
X163000000Y-90100000D03*
%TO.P,U3,26,AX2*%
%TO.N,AX2_{MT}*%
X163000000Y-87560000D03*
%TO.P,U3,27,AY0*%
%TO.N,AY0_{MT}*%
X163000000Y-85020000D03*
%TO.P,U3,28,AY1*%
%TO.N,AY1_{MT}*%
X163000000Y-82480000D03*
%TD*%
D16*
%TO.N,SCL*%
X164000000Y-71000000D03*
X162500000Y-71000000D03*
%TO.N,Net-(J3-Pin_13)*%
X151000000Y-115500000D03*
%TO.N,Net-(J3-Pin_14)*%
X152960000Y-112960000D03*
%TO.N,Net-(J3-Pin_15)*%
X151000000Y-110500000D03*
%TO.N,DATA_{MT}*%
X145000000Y-90500000D03*
X145000000Y-103000000D03*
%TO.N,STROBE_{MT}*%
X144000000Y-85000000D03*
X144000000Y-107000000D03*
%TO.N,+5V*%
X111500000Y-118000000D03*
%TO.N,+3V3*%
X138500000Y-79000000D03*
%TO.N,+5V*%
X141500000Y-77500000D03*
%TO.N,+3V3*%
X138500000Y-83000000D03*
%TO.N,+5V*%
X141515100Y-81484900D03*
%TO.N,+3V3*%
X138500000Y-87000000D03*
%TO.N,+5V*%
X141500000Y-85500000D03*
%TO.N,+3V3*%
X138500000Y-91000000D03*
%TO.N,+5V*%
X141515100Y-89484900D03*
%TO.N,+3V3*%
X138500000Y-95000000D03*
%TO.N,+5V*%
X141500000Y-93500000D03*
%TO.N,+3V3*%
X138500000Y-99000000D03*
%TO.N,+5V*%
X141515100Y-97484900D03*
%TO.N,+3V3*%
X138500000Y-103000000D03*
%TO.N,+5V*%
X141500000Y-101500000D03*
X141290100Y-105709900D03*
%TO.N,+3V3*%
X138275000Y-107225000D03*
%TO.N,+5V*%
X141275000Y-109725000D03*
%TO.N,+3V3*%
X138275000Y-111225000D03*
%TO.N,Net-(J3-Pin_16)*%
X149981272Y-107981273D03*
%TD*%
D17*
%TO.N,+3V3*%
X138275000Y-111225000D02*
X138275000Y-116625000D01*
X138275000Y-116625000D02*
X137450000Y-117450000D01*
%TO.N,Net-(U2-C)*%
X137500000Y-71500000D02*
X143000000Y-71500000D01*
X143500000Y-76000000D02*
X145000000Y-77500000D01*
X143000000Y-71500000D02*
X143500000Y-72000000D01*
X143500000Y-72000000D02*
X143500000Y-76000000D01*
X145000000Y-77500000D02*
X148380000Y-77500000D01*
%TO.N,UART_{RXD}*%
X147000000Y-71500000D02*
X147500000Y-71000000D01*
X145120000Y-71500000D02*
X147000000Y-71500000D01*
X147500000Y-71000000D02*
X152475000Y-71000000D01*
X152475000Y-71000000D02*
X154000000Y-72525000D01*
%TO.N,+3V3*%
X163500000Y-79000000D02*
X163500000Y-75000000D01*
X163500000Y-75000000D02*
X165000000Y-73500000D01*
X163000000Y-79500000D02*
X163500000Y-79000000D01*
X165000000Y-73500000D02*
X165000000Y-72500000D01*
X144500000Y-79500000D02*
X163000000Y-79500000D01*
X144000000Y-79000000D02*
X144500000Y-79500000D01*
X144000000Y-77000000D02*
X144000000Y-79000000D01*
X143500000Y-76500000D02*
X144000000Y-77000000D01*
X141050000Y-76950000D02*
X141500000Y-76500000D01*
X139050000Y-76950000D02*
X141050000Y-76950000D01*
X138500000Y-77500000D02*
X139050000Y-76950000D01*
X165500000Y-72000000D02*
X167000000Y-72000000D01*
X141500000Y-76500000D02*
X143500000Y-76500000D01*
X138500000Y-79000000D02*
X138500000Y-77500000D01*
X167000000Y-72000000D02*
X168500000Y-70500000D01*
X165000000Y-72500000D02*
X165500000Y-72000000D01*
X168500000Y-70500000D02*
X168500000Y-66500000D01*
%TO.N,+5V*%
X164000000Y-79000000D02*
X164000000Y-75000000D01*
X143000000Y-80000000D02*
X163000000Y-80000000D01*
X165040000Y-73960000D02*
X166500000Y-73960000D01*
X141515100Y-81484900D02*
X143000000Y-80000000D01*
X163000000Y-80000000D02*
X164000000Y-79000000D01*
X164000000Y-75000000D02*
X165040000Y-73960000D01*
%TO.N,SCL*%
X162500000Y-71000000D02*
X164000000Y-71000000D01*
%TO.N,UART_{TX}*%
X137500000Y-68960000D02*
X135500000Y-70960000D01*
X135500000Y-70960000D02*
X135500000Y-114500000D01*
X135500000Y-114500000D02*
X134870000Y-115130000D01*
X134870000Y-115130000D02*
X129665000Y-115130000D01*
%TO.N,Net-(J3-Pin_16)*%
X174500000Y-115280000D02*
X173230000Y-116550000D01*
X150550000Y-116550000D02*
X149981272Y-115981272D01*
X173230000Y-116550000D02*
X150550000Y-116550000D01*
X149981272Y-115981272D02*
X149981272Y-107981273D01*
%TO.N,Net-(J3-Pin_15)*%
X151000000Y-110500000D02*
X151000000Y-113900000D01*
X151000000Y-113900000D02*
X151550000Y-114450000D01*
X151550000Y-114450000D02*
X173050000Y-114450000D01*
X173050000Y-114450000D02*
X174500000Y-113000000D01*
X174500000Y-113000000D02*
X174500000Y-112740000D01*
%TO.N,Net-(J3-Pin_14)*%
X174500000Y-110200000D02*
X173150000Y-111550000D01*
X173150000Y-111550000D02*
X161450000Y-111550000D01*
X161450000Y-111550000D02*
X160000000Y-113000000D01*
X160000000Y-113000000D02*
X153000000Y-113000000D01*
X153000000Y-113000000D02*
X152960000Y-112960000D01*
%TO.N,Net-(J3-Pin_13)*%
X174500000Y-107660000D02*
X172790000Y-109370000D01*
X172790000Y-109370000D02*
X151130000Y-109370000D01*
X151130000Y-109370000D02*
X150450000Y-110050000D01*
X150450000Y-110050000D02*
X150450000Y-114950000D01*
X150450000Y-114950000D02*
X151000000Y-115500000D01*
%TO.N,DATA_{MT}*%
X145000000Y-103000000D02*
X145000000Y-90500000D01*
%TO.N,STROBE_{MT}*%
X144000000Y-107000000D02*
X144000000Y-85000000D01*
%TO.N,+3V3*%
X137450000Y-117450000D02*
X108550000Y-117450000D01*
X108500000Y-117500000D02*
X108000000Y-117000000D01*
X108000000Y-117000000D02*
X108000000Y-105500000D01*
X108550000Y-117450000D02*
X108500000Y-117500000D01*
X108000000Y-105500000D02*
X108500000Y-105000000D01*
X108500000Y-105000000D02*
X109000000Y-105000000D01*
X109000000Y-105000000D02*
X109030000Y-104970000D01*
X109030000Y-104970000D02*
X111885000Y-104970000D01*
%TO.N,+5V*%
X141275000Y-109725000D02*
X141275000Y-117725000D01*
X141275000Y-117725000D02*
X141000000Y-118000000D01*
X141000000Y-118000000D02*
X111500000Y-118000000D01*
%TO.N,+3V3*%
X138275000Y-107225000D02*
X138275000Y-111225000D01*
X138500000Y-103000000D02*
X138500000Y-107000000D01*
X138500000Y-107000000D02*
X138275000Y-107225000D01*
X138500000Y-99000000D02*
X138500000Y-103000000D01*
X138500000Y-95000000D02*
X138500000Y-99000000D01*
X138500000Y-91000000D02*
X138500000Y-95000000D01*
X138500000Y-87000000D02*
X138500000Y-91000000D01*
X138500000Y-83000000D02*
X138500000Y-87000000D01*
X138500000Y-79000000D02*
X138500000Y-83000000D01*
%TO.N,+5V*%
X141290100Y-105709900D02*
X141290100Y-109709900D01*
X141290100Y-109709900D02*
X141275000Y-109725000D01*
X141500000Y-101500000D02*
X141500000Y-105500000D01*
X141500000Y-105500000D02*
X141290100Y-105709900D01*
X141515100Y-97484900D02*
X141515100Y-101484900D01*
X141515100Y-101484900D02*
X141500000Y-101500000D01*
X141500000Y-93500000D02*
X141500000Y-97469800D01*
X141500000Y-97469800D02*
X141515100Y-97484900D01*
X141515100Y-89484900D02*
X141515100Y-93484900D01*
X141515100Y-93484900D02*
X141500000Y-93500000D01*
X141500000Y-85500000D02*
X141500000Y-89469800D01*
X141500000Y-89469800D02*
X141515100Y-89484900D01*
X141515100Y-81484900D02*
X141515100Y-85484900D01*
X141515100Y-85484900D02*
X141500000Y-85500000D01*
X141500000Y-77500000D02*
X141500000Y-81469800D01*
X141500000Y-81469800D02*
X141515100Y-81484900D01*
%TD*%
%TA.AperFunction,Conductor*%
%TO.N,GND*%
G36*
X177942539Y-62520185D02*
G01*
X177988294Y-62572989D01*
X177999500Y-62624500D01*
X177999500Y-118875500D01*
X177979815Y-118942539D01*
X177927011Y-118988294D01*
X177875500Y-118999500D01*
X111797114Y-118999500D01*
X111730075Y-118979815D01*
X111684320Y-118927011D01*
X111674376Y-118857853D01*
X111703401Y-118794297D01*
X111756160Y-118758458D01*
X111792531Y-118745730D01*
X111849522Y-118725789D01*
X112002262Y-118629816D01*
X112002267Y-118629810D01*
X112005097Y-118627555D01*
X112007275Y-118626665D01*
X112008158Y-118626111D01*
X112008255Y-118626265D01*
X112069783Y-118601145D01*
X112082412Y-118600500D01*
X140913331Y-118600500D01*
X140913347Y-118600501D01*
X140920943Y-118600501D01*
X141079054Y-118600501D01*
X141079057Y-118600501D01*
X141231785Y-118559577D01*
X141281904Y-118530639D01*
X141368716Y-118480520D01*
X141480520Y-118368716D01*
X141480520Y-118368714D01*
X141755520Y-118093716D01*
X141834577Y-117956784D01*
X141875501Y-117804057D01*
X141875501Y-117645942D01*
X141875501Y-117638347D01*
X141875500Y-117638329D01*
X141875500Y-110307412D01*
X141895185Y-110240373D01*
X141902555Y-110230097D01*
X141904810Y-110227267D01*
X141904816Y-110227262D01*
X142000789Y-110074522D01*
X142060368Y-109904255D01*
X142060904Y-109899500D01*
X142080565Y-109725003D01*
X142080565Y-109724996D01*
X142060369Y-109545750D01*
X142060368Y-109545745D01*
X142000788Y-109375476D01*
X141909606Y-109230361D01*
X141890600Y-109164389D01*
X141890600Y-106292312D01*
X141910285Y-106225273D01*
X141917655Y-106214997D01*
X141919910Y-106212167D01*
X141919916Y-106212162D01*
X142015889Y-106059422D01*
X142075468Y-105889155D01*
X142080849Y-105841402D01*
X142095665Y-105709902D01*
X142095665Y-105709899D01*
X142094609Y-105700534D01*
X142089344Y-105653807D01*
X142092791Y-105607823D01*
X142094754Y-105600501D01*
X142100500Y-105579058D01*
X142100500Y-105420943D01*
X142100500Y-102082412D01*
X142120185Y-102015373D01*
X142127555Y-102005097D01*
X142129810Y-102002267D01*
X142129816Y-102002262D01*
X142225789Y-101849522D01*
X142285368Y-101679255D01*
X142285369Y-101679249D01*
X142305565Y-101500003D01*
X142305565Y-101499996D01*
X142285369Y-101320750D01*
X142285368Y-101320745D01*
X142265163Y-101263002D01*
X142225789Y-101150478D01*
X142217634Y-101137500D01*
X142134606Y-101005361D01*
X142115600Y-100939389D01*
X142115600Y-98067312D01*
X142135285Y-98000273D01*
X142142655Y-97989997D01*
X142144910Y-97987167D01*
X142144916Y-97987162D01*
X142240889Y-97834422D01*
X142300468Y-97664155D01*
X142305708Y-97617648D01*
X142320665Y-97484903D01*
X142320665Y-97484896D01*
X142300469Y-97305650D01*
X142300468Y-97305645D01*
X142270771Y-97220776D01*
X142240889Y-97135378D01*
X142144916Y-96982638D01*
X142136819Y-96974541D01*
X142103334Y-96913218D01*
X142100500Y-96886860D01*
X142100500Y-94082412D01*
X142120185Y-94015373D01*
X142127555Y-94005097D01*
X142129810Y-94002267D01*
X142129816Y-94002262D01*
X142225789Y-93849522D01*
X142285368Y-93679255D01*
X142285369Y-93679249D01*
X142305565Y-93500003D01*
X142305565Y-93499996D01*
X142285369Y-93320750D01*
X142285368Y-93320745D01*
X142225788Y-93150476D01*
X142134606Y-93005361D01*
X142115600Y-92939389D01*
X142115600Y-90067312D01*
X142135285Y-90000273D01*
X142142655Y-89989997D01*
X142144910Y-89987167D01*
X142144916Y-89987162D01*
X142240889Y-89834422D01*
X142300468Y-89664155D01*
X142302672Y-89644596D01*
X142320665Y-89484903D01*
X142320665Y-89484896D01*
X142300469Y-89305650D01*
X142300468Y-89305645D01*
X142286716Y-89266344D01*
X142240889Y-89135378D01*
X142144916Y-88982638D01*
X142136819Y-88974541D01*
X142103334Y-88913218D01*
X142100500Y-88886860D01*
X142100500Y-86082412D01*
X142120185Y-86015373D01*
X142127555Y-86005097D01*
X142129810Y-86002267D01*
X142129816Y-86002262D01*
X142225789Y-85849522D01*
X142285368Y-85679255D01*
X142286254Y-85671395D01*
X142305565Y-85500003D01*
X142305565Y-85499996D01*
X142285369Y-85320750D01*
X142285368Y-85320745D01*
X142265391Y-85263655D01*
X142225789Y-85150478D01*
X142134606Y-85005361D01*
X142133060Y-84999996D01*
X143194435Y-84999996D01*
X143194435Y-85000003D01*
X143214630Y-85179249D01*
X143214631Y-85179254D01*
X143274211Y-85349523D01*
X143334515Y-85445496D01*
X143368760Y-85499996D01*
X143370185Y-85502263D01*
X143372445Y-85505097D01*
X143373334Y-85507275D01*
X143373889Y-85508158D01*
X143373734Y-85508255D01*
X143398855Y-85569783D01*
X143399500Y-85582412D01*
X143399500Y-106417587D01*
X143379815Y-106484626D01*
X143372450Y-106494896D01*
X143370186Y-106497734D01*
X143274211Y-106650476D01*
X143214631Y-106820745D01*
X143214630Y-106820750D01*
X143194435Y-106999996D01*
X143194435Y-107000003D01*
X143214630Y-107179249D01*
X143214631Y-107179254D01*
X143274211Y-107349523D01*
X143321383Y-107424596D01*
X143370184Y-107502262D01*
X143497738Y-107629816D01*
X143650478Y-107725789D01*
X143738468Y-107756578D01*
X143820745Y-107785368D01*
X143820750Y-107785369D01*
X143999996Y-107805565D01*
X144000000Y-107805565D01*
X144000004Y-107805565D01*
X144179249Y-107785369D01*
X144179252Y-107785368D01*
X144179255Y-107785368D01*
X144349522Y-107725789D01*
X144502262Y-107629816D01*
X144629816Y-107502262D01*
X144725789Y-107349522D01*
X144785368Y-107179255D01*
X144788442Y-107151971D01*
X144805565Y-107000003D01*
X144805565Y-106999996D01*
X144785369Y-106820750D01*
X144785368Y-106820745D01*
X144766811Y-106767713D01*
X144725789Y-106650478D01*
X144629816Y-106497738D01*
X144629814Y-106497736D01*
X144629813Y-106497734D01*
X144627550Y-106494896D01*
X144626659Y-106492715D01*
X144626111Y-106491842D01*
X144626264Y-106491745D01*
X144601144Y-106430209D01*
X144600500Y-106417587D01*
X144600500Y-103883062D01*
X144620185Y-103816023D01*
X144672989Y-103770268D01*
X144742147Y-103760324D01*
X144765448Y-103766018D01*
X144820745Y-103785368D01*
X144820748Y-103785368D01*
X144820750Y-103785369D01*
X144999996Y-103805565D01*
X145000000Y-103805565D01*
X145000004Y-103805565D01*
X145179249Y-103785369D01*
X145179252Y-103785368D01*
X145179255Y-103785368D01*
X145349522Y-103725789D01*
X145502262Y-103629816D01*
X145629816Y-103502262D01*
X145725789Y-103349522D01*
X145785368Y-103179255D01*
X145793787Y-103104534D01*
X145805565Y-103000003D01*
X145805565Y-102999996D01*
X145785369Y-102820750D01*
X145785367Y-102820742D01*
X145725788Y-102650476D01*
X145629813Y-102497734D01*
X145627550Y-102494896D01*
X145626659Y-102492715D01*
X145626111Y-102491842D01*
X145626264Y-102491745D01*
X145601144Y-102430209D01*
X145600500Y-102417587D01*
X145600500Y-91082412D01*
X145620185Y-91015373D01*
X145627555Y-91005097D01*
X145629810Y-91002267D01*
X145629816Y-91002262D01*
X145725789Y-90849522D01*
X145785368Y-90679255D01*
X145785369Y-90679249D01*
X145805565Y-90500003D01*
X145805565Y-90499996D01*
X145785369Y-90320750D01*
X145785368Y-90320745D01*
X145725788Y-90150476D01*
X145641591Y-90016478D01*
X145629816Y-89997738D01*
X145502262Y-89870184D01*
X145445349Y-89834423D01*
X145349523Y-89774211D01*
X145179254Y-89714631D01*
X145179249Y-89714630D01*
X145000004Y-89694435D01*
X144999996Y-89694435D01*
X144820750Y-89714630D01*
X144820739Y-89714633D01*
X144765453Y-89733978D01*
X144695674Y-89737539D01*
X144635047Y-89702809D01*
X144602821Y-89640816D01*
X144600500Y-89616936D01*
X144600500Y-85582412D01*
X144620185Y-85515373D01*
X144627555Y-85505097D01*
X144629810Y-85502267D01*
X144629816Y-85502262D01*
X144725789Y-85349522D01*
X144785368Y-85179255D01*
X144785369Y-85179249D01*
X144805565Y-85000003D01*
X144805565Y-84999996D01*
X144785369Y-84820750D01*
X144785368Y-84820745D01*
X144725788Y-84650476D01*
X144644295Y-84520781D01*
X144629816Y-84497738D01*
X144502262Y-84370184D01*
X144349523Y-84274211D01*
X144179254Y-84214631D01*
X144179249Y-84214630D01*
X144000004Y-84194435D01*
X143999996Y-84194435D01*
X143820750Y-84214630D01*
X143820745Y-84214631D01*
X143650476Y-84274211D01*
X143497737Y-84370184D01*
X143370184Y-84497737D01*
X143274211Y-84650476D01*
X143214631Y-84820745D01*
X143214630Y-84820750D01*
X143194435Y-84999996D01*
X142133060Y-84999996D01*
X142115600Y-84939389D01*
X142115600Y-82067312D01*
X142135285Y-82000273D01*
X142142655Y-81989997D01*
X142144910Y-81987167D01*
X142144916Y-81987162D01*
X142240889Y-81834422D01*
X142300468Y-81664155D01*
X142304075Y-81632135D01*
X146059500Y-81632135D01*
X146059500Y-83327870D01*
X146059501Y-83327876D01*
X146065908Y-83387483D01*
X146116202Y-83522328D01*
X146116206Y-83522335D01*
X146202452Y-83637544D01*
X146202455Y-83637547D01*
X146317664Y-83723793D01*
X146317671Y-83723797D01*
X146362618Y-83740561D01*
X146452517Y-83774091D01*
X146489441Y-83778060D01*
X146553989Y-83804796D01*
X146593838Y-83862188D01*
X146596333Y-83932013D01*
X146560681Y-83992102D01*
X146549071Y-84001666D01*
X146512784Y-84028030D01*
X146368028Y-84172786D01*
X146247715Y-84338386D01*
X146154781Y-84520776D01*
X146091522Y-84715465D01*
X146059500Y-84917648D01*
X146059500Y-85122351D01*
X146091522Y-85324534D01*
X146154781Y-85519223D01*
X146186978Y-85582412D01*
X146236319Y-85679249D01*
X146247715Y-85701613D01*
X146368028Y-85867213D01*
X146512786Y-86011971D01*
X146657346Y-86116998D01*
X146678390Y-86132287D01*
X146744487Y-86165965D01*
X146771629Y-86179795D01*
X146822425Y-86227770D01*
X146839220Y-86295591D01*
X146816682Y-86361726D01*
X146771629Y-86400765D01*
X146678650Y-86448140D01*
X146513105Y-86568417D01*
X146513104Y-86568417D01*
X146368417Y-86713104D01*
X146368417Y-86713105D01*
X146248140Y-86878650D01*
X146155244Y-87060970D01*
X146092009Y-87255586D01*
X146083391Y-87310000D01*
X147444314Y-87310000D01*
X147439920Y-87314394D01*
X147387259Y-87405606D01*
X147360000Y-87507339D01*
X147360000Y-87612661D01*
X147387259Y-87714394D01*
X147439920Y-87805606D01*
X147444314Y-87810000D01*
X146083391Y-87810000D01*
X146092009Y-87864413D01*
X146155244Y-88059029D01*
X146248140Y-88241349D01*
X146368417Y-88406894D01*
X146368417Y-88406895D01*
X146513104Y-88551582D01*
X146678652Y-88671861D01*
X146771628Y-88719234D01*
X146822425Y-88767208D01*
X146839220Y-88835029D01*
X146816683Y-88901164D01*
X146771630Y-88940203D01*
X146678388Y-88987713D01*
X146512786Y-89108028D01*
X146368028Y-89252786D01*
X146247715Y-89418386D01*
X146154781Y-89600776D01*
X146091522Y-89795465D01*
X146059500Y-89997648D01*
X146059500Y-90202351D01*
X146091522Y-90404534D01*
X146154781Y-90599223D01*
X146247715Y-90781613D01*
X146368028Y-90947213D01*
X146512786Y-91091971D01*
X146632925Y-91179255D01*
X146678390Y-91212287D01*
X146744487Y-91245965D01*
X146771629Y-91259795D01*
X146822425Y-91307770D01*
X146839220Y-91375591D01*
X146816682Y-91441726D01*
X146771629Y-91480765D01*
X146678650Y-91528140D01*
X146513105Y-91648417D01*
X146513104Y-91648417D01*
X146368417Y-91793104D01*
X146368417Y-91793105D01*
X146248140Y-91958650D01*
X146155244Y-92140970D01*
X146092009Y-92335586D01*
X146083391Y-92390000D01*
X147444314Y-92390000D01*
X147439920Y-92394394D01*
X147387259Y-92485606D01*
X147360000Y-92587339D01*
X147360000Y-92692661D01*
X147387259Y-92794394D01*
X147439920Y-92885606D01*
X147444314Y-92890000D01*
X146083391Y-92890000D01*
X146092009Y-92944413D01*
X146155244Y-93139029D01*
X146248140Y-93321349D01*
X146368417Y-93486894D01*
X146368417Y-93486895D01*
X146513104Y-93631582D01*
X146678652Y-93751861D01*
X146771628Y-93799234D01*
X146822425Y-93847208D01*
X146839220Y-93915029D01*
X146816683Y-93981164D01*
X146771630Y-94020203D01*
X146678388Y-94067713D01*
X146512786Y-94188028D01*
X146368028Y-94332786D01*
X146247715Y-94498386D01*
X146154781Y-94680776D01*
X146091522Y-94875465D01*
X146059500Y-95077648D01*
X146059500Y-95282351D01*
X146091522Y-95484534D01*
X146154781Y-95679223D01*
X146247715Y-95861613D01*
X146368028Y-96027213D01*
X146512786Y-96171971D01*
X146657346Y-96276998D01*
X146678390Y-96292287D01*
X146744487Y-96325965D01*
X146771080Y-96339515D01*
X146821876Y-96387490D01*
X146838671Y-96455311D01*
X146816134Y-96521446D01*
X146771080Y-96560485D01*
X146678386Y-96607715D01*
X146512786Y-96728028D01*
X146368028Y-96872786D01*
X146247715Y-97038386D01*
X146154781Y-97220776D01*
X146091522Y-97415465D01*
X146059500Y-97617648D01*
X146059500Y-97822351D01*
X146091522Y-98024534D01*
X146154781Y-98219223D01*
X146247715Y-98401613D01*
X146368028Y-98567213D01*
X146512786Y-98711971D01*
X146667749Y-98824556D01*
X146678390Y-98832287D01*
X146744487Y-98865965D01*
X146771080Y-98879515D01*
X146821876Y-98927490D01*
X146838671Y-98995311D01*
X146816134Y-99061446D01*
X146771080Y-99100485D01*
X146678386Y-99147715D01*
X146512786Y-99268028D01*
X146368028Y-99412786D01*
X146247715Y-99578386D01*
X146154781Y-99760776D01*
X146091522Y-99955465D01*
X146059500Y-100157648D01*
X146059500Y-100362351D01*
X146091522Y-100564534D01*
X146154781Y-100759223D01*
X146212622Y-100872741D01*
X146246581Y-100939389D01*
X146247715Y-100941613D01*
X146368028Y-101107213D01*
X146512786Y-101251971D01*
X146623627Y-101332500D01*
X146678390Y-101372287D01*
X146744487Y-101405965D01*
X146771080Y-101419515D01*
X146821876Y-101467490D01*
X146838671Y-101535311D01*
X146816134Y-101601446D01*
X146771080Y-101640485D01*
X146678386Y-101687715D01*
X146512786Y-101808028D01*
X146368028Y-101952786D01*
X146247715Y-102118386D01*
X146154781Y-102300776D01*
X146091522Y-102495465D01*
X146059500Y-102697648D01*
X146059500Y-102902351D01*
X146091522Y-103104534D01*
X146154781Y-103299223D01*
X146247715Y-103481613D01*
X146368028Y-103647213D01*
X146512786Y-103791971D01*
X146623627Y-103872500D01*
X146678390Y-103912287D01*
X146744487Y-103945965D01*
X146771080Y-103959515D01*
X146821876Y-104007490D01*
X146838671Y-104075311D01*
X146816134Y-104141446D01*
X146771080Y-104180485D01*
X146678386Y-104227715D01*
X146512786Y-104348028D01*
X146368028Y-104492786D01*
X146247715Y-104658386D01*
X146154781Y-104840776D01*
X146091522Y-105035465D01*
X146059500Y-105237648D01*
X146059500Y-105442351D01*
X146091522Y-105644534D01*
X146154781Y-105839223D01*
X146247715Y-106021613D01*
X146368028Y-106187213D01*
X146512786Y-106331971D01*
X146623627Y-106412500D01*
X146678390Y-106452287D01*
X146769840Y-106498883D01*
X146771080Y-106499515D01*
X146821876Y-106547490D01*
X146838671Y-106615311D01*
X146816134Y-106681446D01*
X146771080Y-106720485D01*
X146678386Y-106767715D01*
X146512786Y-106888028D01*
X146368028Y-107032786D01*
X146247715Y-107198386D01*
X146154781Y-107380776D01*
X146091522Y-107575465D01*
X146059500Y-107777648D01*
X146059500Y-107982351D01*
X146091522Y-108184534D01*
X146154781Y-108379223D01*
X146247715Y-108561613D01*
X146368028Y-108727213D01*
X146512786Y-108871971D01*
X146657346Y-108976998D01*
X146678390Y-108992287D01*
X146744487Y-109025965D01*
X146771080Y-109039515D01*
X146821876Y-109087490D01*
X146838671Y-109155311D01*
X146816134Y-109221446D01*
X146771080Y-109260485D01*
X146678386Y-109307715D01*
X146512786Y-109428028D01*
X146368028Y-109572786D01*
X146247715Y-109738386D01*
X146154781Y-109920776D01*
X146091522Y-110115465D01*
X146059500Y-110317648D01*
X146059500Y-110522351D01*
X146091522Y-110724534D01*
X146154781Y-110919223D01*
X146203773Y-111015373D01*
X146231342Y-111069481D01*
X146247715Y-111101613D01*
X146368028Y-111267213D01*
X146512786Y-111411971D01*
X146657346Y-111516998D01*
X146678390Y-111532287D01*
X146744487Y-111565965D01*
X146771080Y-111579515D01*
X146821876Y-111627490D01*
X146838671Y-111695311D01*
X146816134Y-111761446D01*
X146771080Y-111800485D01*
X146678386Y-111847715D01*
X146512786Y-111968028D01*
X146368028Y-112112786D01*
X146247715Y-112278386D01*
X146154781Y-112460776D01*
X146091522Y-112655465D01*
X146059500Y-112857648D01*
X146059500Y-113062351D01*
X146091522Y-113264534D01*
X146154781Y-113459223D01*
X146205915Y-113559577D01*
X146239892Y-113626261D01*
X146247715Y-113641613D01*
X146368028Y-113807213D01*
X146512786Y-113951971D01*
X146657346Y-114056998D01*
X146678390Y-114072287D01*
X146744487Y-114105965D01*
X146771080Y-114119515D01*
X146821876Y-114167490D01*
X146838671Y-114235311D01*
X146816134Y-114301446D01*
X146771080Y-114340485D01*
X146678386Y-114387715D01*
X146512786Y-114508028D01*
X146368028Y-114652786D01*
X146247715Y-114818386D01*
X146154781Y-115000776D01*
X146091522Y-115195465D01*
X146059500Y-115397648D01*
X146059500Y-115602351D01*
X146091522Y-115804534D01*
X146154781Y-115999223D01*
X146247715Y-116181613D01*
X146368028Y-116347213D01*
X146512786Y-116491971D01*
X146632959Y-116579280D01*
X146678390Y-116612287D01*
X146794607Y-116671503D01*
X146860776Y-116705218D01*
X146860778Y-116705218D01*
X146860781Y-116705220D01*
X146965137Y-116739127D01*
X147055465Y-116768477D01*
X147156557Y-116784488D01*
X147257648Y-116800500D01*
X147257649Y-116800500D01*
X148262351Y-116800500D01*
X148262352Y-116800500D01*
X148464534Y-116768477D01*
X148659219Y-116705220D01*
X148661504Y-116704056D01*
X148669656Y-116699902D01*
X148841610Y-116612287D01*
X148934590Y-116544732D01*
X149007213Y-116491971D01*
X149007215Y-116491968D01*
X149007219Y-116491966D01*
X149151966Y-116347219D01*
X149233188Y-116235424D01*
X149288516Y-116192759D01*
X149358130Y-116186779D01*
X149419925Y-116219385D01*
X149440893Y-116246310D01*
X149500749Y-116349984D01*
X149500753Y-116349989D01*
X149619621Y-116468857D01*
X149619627Y-116468862D01*
X150065139Y-116914374D01*
X150065149Y-116914385D01*
X150069479Y-116918715D01*
X150069480Y-116918716D01*
X150181284Y-117030520D01*
X150181286Y-117030521D01*
X150181290Y-117030524D01*
X150265352Y-117079057D01*
X150265353Y-117079057D01*
X150318215Y-117109577D01*
X150470943Y-117150501D01*
X150470946Y-117150501D01*
X150636653Y-117150501D01*
X150636669Y-117150500D01*
X173143331Y-117150500D01*
X173143347Y-117150501D01*
X173150943Y-117150501D01*
X173309054Y-117150501D01*
X173309057Y-117150501D01*
X173461785Y-117109577D01*
X173514647Y-117079057D01*
X173514648Y-117079057D01*
X173598709Y-117030524D01*
X173598708Y-117030524D01*
X173598716Y-117030520D01*
X173710520Y-116918716D01*
X173710520Y-116918714D01*
X173720724Y-116908511D01*
X173720728Y-116908506D01*
X174016470Y-116612763D01*
X174077791Y-116579280D01*
X174136238Y-116580670D01*
X174264592Y-116615063D01*
X174452918Y-116631539D01*
X174499999Y-116635659D01*
X174500000Y-116635659D01*
X174500001Y-116635659D01*
X174539234Y-116632226D01*
X174735408Y-116615063D01*
X174963663Y-116553903D01*
X175177830Y-116454035D01*
X175371401Y-116318495D01*
X175538495Y-116151401D01*
X175674035Y-115957830D01*
X175773903Y-115743663D01*
X175835063Y-115515408D01*
X175855659Y-115280000D01*
X175835063Y-115044592D01*
X175773903Y-114816337D01*
X175674035Y-114602171D01*
X175657851Y-114579057D01*
X175538494Y-114408597D01*
X175371402Y-114241506D01*
X175371396Y-114241501D01*
X175185842Y-114111575D01*
X175142217Y-114056998D01*
X175135023Y-113987500D01*
X175166546Y-113925145D01*
X175185842Y-113908425D01*
X175290462Y-113835169D01*
X175371401Y-113778495D01*
X175538495Y-113611401D01*
X175674035Y-113417830D01*
X175773903Y-113203663D01*
X175835063Y-112975408D01*
X175855659Y-112740000D01*
X175835063Y-112504592D01*
X175782010Y-112306594D01*
X175773905Y-112276344D01*
X175773904Y-112276343D01*
X175773903Y-112276337D01*
X175674035Y-112062171D01*
X175609497Y-111970000D01*
X175538494Y-111868597D01*
X175371402Y-111701506D01*
X175371396Y-111701501D01*
X175185842Y-111571575D01*
X175142217Y-111516998D01*
X175135023Y-111447500D01*
X175166546Y-111385145D01*
X175185842Y-111368425D01*
X175275221Y-111305841D01*
X175371401Y-111238495D01*
X175538495Y-111071401D01*
X175674035Y-110877830D01*
X175773903Y-110663663D01*
X175835063Y-110435408D01*
X175855659Y-110200000D01*
X175835063Y-109964592D01*
X175773903Y-109736337D01*
X175674035Y-109522171D01*
X175571319Y-109375476D01*
X175538494Y-109328597D01*
X175371402Y-109161506D01*
X175371396Y-109161501D01*
X175185842Y-109031575D01*
X175142217Y-108976998D01*
X175135023Y-108907500D01*
X175166546Y-108845145D01*
X175185842Y-108828425D01*
X175275221Y-108765841D01*
X175371401Y-108698495D01*
X175538495Y-108531401D01*
X175674035Y-108337830D01*
X175773903Y-108123663D01*
X175835063Y-107895408D01*
X175855659Y-107660000D01*
X175853187Y-107631751D01*
X175848263Y-107575465D01*
X175835063Y-107424592D01*
X175773903Y-107196337D01*
X175674035Y-106982171D01*
X175569005Y-106832171D01*
X175538494Y-106788597D01*
X175371402Y-106621506D01*
X175371396Y-106621501D01*
X175185842Y-106491575D01*
X175142217Y-106436998D01*
X175135023Y-106367500D01*
X175166546Y-106305145D01*
X175185842Y-106288425D01*
X175276032Y-106225273D01*
X175371401Y-106158495D01*
X175538495Y-105991401D01*
X175674035Y-105797830D01*
X175773903Y-105583663D01*
X175835063Y-105355408D01*
X175855659Y-105120000D01*
X175835063Y-104884592D01*
X175773903Y-104656337D01*
X175674035Y-104442171D01*
X175672814Y-104440426D01*
X175538494Y-104248597D01*
X175371402Y-104081506D01*
X175371396Y-104081501D01*
X175185842Y-103951575D01*
X175142217Y-103896998D01*
X175135023Y-103827500D01*
X175166546Y-103765145D01*
X175185842Y-103748425D01*
X175287133Y-103677500D01*
X175371401Y-103618495D01*
X175538495Y-103451401D01*
X175674035Y-103257830D01*
X175773903Y-103043663D01*
X175835063Y-102815408D01*
X175855659Y-102580000D01*
X175835063Y-102344592D01*
X175773903Y-102116337D01*
X175674035Y-101902171D01*
X175569005Y-101752171D01*
X175538494Y-101708597D01*
X175371402Y-101541506D01*
X175371396Y-101541501D01*
X175185842Y-101411575D01*
X175142217Y-101356998D01*
X175135023Y-101287500D01*
X175166546Y-101225145D01*
X175185842Y-101208425D01*
X175265742Y-101152478D01*
X175371401Y-101078495D01*
X175538495Y-100911401D01*
X175674035Y-100717830D01*
X175773903Y-100503663D01*
X175835063Y-100275408D01*
X175855659Y-100040000D01*
X175835063Y-99804592D01*
X175773903Y-99576337D01*
X175674035Y-99362171D01*
X175665179Y-99349522D01*
X175538494Y-99168597D01*
X175371402Y-99001506D01*
X175371396Y-99001501D01*
X175185842Y-98871575D01*
X175142217Y-98816998D01*
X175135023Y-98747500D01*
X175166546Y-98685145D01*
X175185842Y-98668425D01*
X175260574Y-98616097D01*
X175371401Y-98538495D01*
X175538495Y-98371401D01*
X175674035Y-98177830D01*
X175773903Y-97963663D01*
X175835063Y-97735408D01*
X175855659Y-97500000D01*
X175835063Y-97264592D01*
X175773903Y-97036337D01*
X175674035Y-96822171D01*
X175538495Y-96628599D01*
X175538494Y-96628597D01*
X175371402Y-96461506D01*
X175371396Y-96461501D01*
X175185842Y-96331575D01*
X175142217Y-96276998D01*
X175135023Y-96207500D01*
X175166546Y-96145145D01*
X175185842Y-96128425D01*
X175249426Y-96083903D01*
X175371401Y-95998495D01*
X175538495Y-95831401D01*
X175674035Y-95637830D01*
X175773903Y-95423663D01*
X175835063Y-95195408D01*
X175855659Y-94960000D01*
X175835063Y-94724592D01*
X175774452Y-94498386D01*
X175773905Y-94496344D01*
X175773904Y-94496343D01*
X175773903Y-94496337D01*
X175674035Y-94282171D01*
X175569005Y-94132171D01*
X175538494Y-94088597D01*
X175371402Y-93921506D01*
X175371396Y-93921501D01*
X175185842Y-93791575D01*
X175142217Y-93736998D01*
X175135023Y-93667500D01*
X175166546Y-93605145D01*
X175185842Y-93588425D01*
X175312121Y-93500003D01*
X175371401Y-93458495D01*
X175538495Y-93291401D01*
X175674035Y-93097830D01*
X175773903Y-92883663D01*
X175835063Y-92655408D01*
X175855659Y-92420000D01*
X175835063Y-92184592D01*
X175773903Y-91956337D01*
X175674035Y-91742171D01*
X175569005Y-91592171D01*
X175538494Y-91548597D01*
X175371402Y-91381506D01*
X175371396Y-91381501D01*
X175185842Y-91251575D01*
X175142217Y-91196998D01*
X175135023Y-91127500D01*
X175166546Y-91065145D01*
X175185842Y-91048425D01*
X175233045Y-91015373D01*
X175371401Y-90918495D01*
X175538495Y-90751401D01*
X175674035Y-90557830D01*
X175773903Y-90343663D01*
X175835063Y-90115408D01*
X175855659Y-89880000D01*
X175835063Y-89644592D01*
X175773903Y-89416337D01*
X175674035Y-89202171D01*
X175627267Y-89135378D01*
X175538494Y-89008597D01*
X175371402Y-88841506D01*
X175371396Y-88841501D01*
X175185842Y-88711575D01*
X175142217Y-88656998D01*
X175135023Y-88587500D01*
X175166546Y-88525145D01*
X175185842Y-88508425D01*
X175287133Y-88437500D01*
X175371401Y-88378495D01*
X175538495Y-88211401D01*
X175674035Y-88017830D01*
X175773903Y-87803663D01*
X175835063Y-87575408D01*
X175855659Y-87340000D01*
X175835063Y-87104592D01*
X175773903Y-86876337D01*
X175674035Y-86662171D01*
X175665847Y-86650476D01*
X175538494Y-86468597D01*
X175371402Y-86301506D01*
X175371396Y-86301501D01*
X175185842Y-86171575D01*
X175142217Y-86116998D01*
X175135023Y-86047500D01*
X175166546Y-85985145D01*
X175185842Y-85968425D01*
X175260574Y-85916097D01*
X175371401Y-85838495D01*
X175538495Y-85671401D01*
X175674035Y-85477830D01*
X175773903Y-85263663D01*
X175835063Y-85035408D01*
X175855659Y-84800000D01*
X175835063Y-84564592D01*
X175773903Y-84336337D01*
X175674035Y-84122171D01*
X175540886Y-83932013D01*
X175538494Y-83928597D01*
X175371402Y-83761506D01*
X175371401Y-83761505D01*
X175185405Y-83631269D01*
X175141781Y-83576692D01*
X175134588Y-83507193D01*
X175166110Y-83444839D01*
X175185405Y-83428119D01*
X175371082Y-83298105D01*
X175538105Y-83131082D01*
X175673600Y-82937578D01*
X175773429Y-82723492D01*
X175773432Y-82723486D01*
X175830636Y-82510000D01*
X174933012Y-82510000D01*
X174965925Y-82452993D01*
X175000000Y-82325826D01*
X175000000Y-82194174D01*
X174965925Y-82067007D01*
X174933012Y-82010000D01*
X175830636Y-82010000D01*
X175830635Y-82009999D01*
X175773432Y-81796513D01*
X175773429Y-81796507D01*
X175673600Y-81582422D01*
X175673599Y-81582420D01*
X175538113Y-81388926D01*
X175538108Y-81388920D01*
X175371078Y-81221890D01*
X175185405Y-81091879D01*
X175141780Y-81037302D01*
X175134588Y-80967804D01*
X175166110Y-80905449D01*
X175185406Y-80888730D01*
X175187880Y-80886998D01*
X175371401Y-80758495D01*
X175538495Y-80591401D01*
X175674035Y-80397830D01*
X175773903Y-80183663D01*
X175835063Y-79955408D01*
X175855659Y-79720000D01*
X175835063Y-79484592D01*
X175773903Y-79256337D01*
X175674035Y-79042171D01*
X175583826Y-78913339D01*
X175538496Y-78848600D01*
X175495364Y-78805468D01*
X175416567Y-78726671D01*
X175383084Y-78665351D01*
X175388068Y-78595659D01*
X175429939Y-78539725D01*
X175460915Y-78522810D01*
X175592331Y-78473796D01*
X175707546Y-78387546D01*
X175793796Y-78272331D01*
X175844091Y-78137483D01*
X175850500Y-78077873D01*
X175850499Y-76282128D01*
X175844091Y-76222517D01*
X175841234Y-76214858D01*
X175793797Y-76087671D01*
X175793793Y-76087664D01*
X175707547Y-75972455D01*
X175707544Y-75972452D01*
X175592335Y-75886206D01*
X175592328Y-75886202D01*
X175457482Y-75835908D01*
X175457483Y-75835908D01*
X175397883Y-75829501D01*
X175397881Y-75829500D01*
X175397873Y-75829500D01*
X175397864Y-75829500D01*
X173602129Y-75829500D01*
X173602123Y-75829501D01*
X173542516Y-75835908D01*
X173407671Y-75886202D01*
X173407664Y-75886206D01*
X173292455Y-75972452D01*
X173292452Y-75972455D01*
X173206206Y-76087664D01*
X173206202Y-76087671D01*
X173155908Y-76222517D01*
X173150453Y-76273261D01*
X173149501Y-76282123D01*
X173149500Y-76282135D01*
X173149500Y-78077870D01*
X173149501Y-78077876D01*
X173155908Y-78137483D01*
X173206202Y-78272328D01*
X173206206Y-78272335D01*
X173292452Y-78387544D01*
X173292455Y-78387547D01*
X173407664Y-78473793D01*
X173407671Y-78473797D01*
X173539081Y-78522810D01*
X173595015Y-78564681D01*
X173619432Y-78630145D01*
X173604580Y-78698418D01*
X173583430Y-78726673D01*
X173461503Y-78848600D01*
X173325965Y-79042169D01*
X173325964Y-79042171D01*
X173226098Y-79256335D01*
X173226094Y-79256344D01*
X173164938Y-79484586D01*
X173164936Y-79484596D01*
X173144341Y-79719999D01*
X173144341Y-79720000D01*
X173164936Y-79955403D01*
X173164938Y-79955413D01*
X173226094Y-80183655D01*
X173226096Y-80183659D01*
X173226097Y-80183663D01*
X173312389Y-80368716D01*
X173325965Y-80397830D01*
X173325967Y-80397834D01*
X173383865Y-80480520D01*
X173461505Y-80591401D01*
X173628599Y-80758495D01*
X173777133Y-80862500D01*
X173814594Y-80888730D01*
X173858219Y-80943307D01*
X173865413Y-81012805D01*
X173833890Y-81075160D01*
X173814595Y-81091880D01*
X173628922Y-81221890D01*
X173628920Y-81221891D01*
X173461891Y-81388920D01*
X173461886Y-81388926D01*
X173326400Y-81582420D01*
X173326399Y-81582422D01*
X173226570Y-81796507D01*
X173226567Y-81796513D01*
X173169364Y-82009999D01*
X173169364Y-82010000D01*
X174066988Y-82010000D01*
X174034075Y-82067007D01*
X174000000Y-82194174D01*
X174000000Y-82325826D01*
X174034075Y-82452993D01*
X174066988Y-82510000D01*
X173169364Y-82510000D01*
X173226567Y-82723486D01*
X173226570Y-82723492D01*
X173326399Y-82937578D01*
X173461894Y-83131082D01*
X173628917Y-83298105D01*
X173814595Y-83428119D01*
X173858219Y-83482696D01*
X173865412Y-83552195D01*
X173833890Y-83614549D01*
X173814595Y-83631269D01*
X173628594Y-83761508D01*
X173461505Y-83928597D01*
X173325965Y-84122169D01*
X173325964Y-84122171D01*
X173226098Y-84336335D01*
X173226094Y-84336344D01*
X173164938Y-84564586D01*
X173164936Y-84564596D01*
X173144341Y-84799999D01*
X173144341Y-84800000D01*
X173164936Y-85035403D01*
X173164938Y-85035413D01*
X173226094Y-85263655D01*
X173226096Y-85263659D01*
X173226097Y-85263663D01*
X173325965Y-85477830D01*
X173325967Y-85477834D01*
X173461501Y-85671395D01*
X173461506Y-85671402D01*
X173628597Y-85838493D01*
X173628603Y-85838498D01*
X173814158Y-85968425D01*
X173857783Y-86023002D01*
X173864977Y-86092500D01*
X173833454Y-86154855D01*
X173814158Y-86171575D01*
X173628597Y-86301505D01*
X173461505Y-86468597D01*
X173325965Y-86662169D01*
X173325964Y-86662171D01*
X173226098Y-86876335D01*
X173226094Y-86876344D01*
X173164938Y-87104586D01*
X173164936Y-87104596D01*
X173144341Y-87339999D01*
X173144341Y-87340000D01*
X173164936Y-87575403D01*
X173164938Y-87575413D01*
X173226094Y-87803655D01*
X173226096Y-87803659D01*
X173226097Y-87803663D01*
X173254482Y-87864534D01*
X173325965Y-88017830D01*
X173325967Y-88017834D01*
X173461501Y-88211395D01*
X173461506Y-88211402D01*
X173628597Y-88378493D01*
X173628603Y-88378498D01*
X173814158Y-88508425D01*
X173857783Y-88563002D01*
X173864977Y-88632500D01*
X173833454Y-88694855D01*
X173814158Y-88711575D01*
X173628597Y-88841505D01*
X173461505Y-89008597D01*
X173325965Y-89202169D01*
X173325964Y-89202171D01*
X173226098Y-89416335D01*
X173226094Y-89416344D01*
X173164938Y-89644586D01*
X173164936Y-89644596D01*
X173144341Y-89879999D01*
X173144341Y-89880000D01*
X173164936Y-90115403D01*
X173164938Y-90115413D01*
X173226094Y-90343655D01*
X173226096Y-90343659D01*
X173226097Y-90343663D01*
X173298998Y-90500000D01*
X173325965Y-90557830D01*
X173325967Y-90557834D01*
X173461501Y-90751395D01*
X173461506Y-90751402D01*
X173628597Y-90918493D01*
X173628603Y-90918498D01*
X173814158Y-91048425D01*
X173857783Y-91103002D01*
X173864977Y-91172500D01*
X173833454Y-91234855D01*
X173814158Y-91251575D01*
X173628597Y-91381505D01*
X173461505Y-91548597D01*
X173325965Y-91742169D01*
X173325964Y-91742171D01*
X173226098Y-91956335D01*
X173226094Y-91956344D01*
X173164938Y-92184586D01*
X173164936Y-92184596D01*
X173144341Y-92419999D01*
X173144341Y-92420000D01*
X173164936Y-92655403D01*
X173164938Y-92655413D01*
X173226094Y-92883655D01*
X173226096Y-92883659D01*
X173226097Y-92883663D01*
X173279291Y-92997737D01*
X173325965Y-93097830D01*
X173325967Y-93097834D01*
X173461501Y-93291395D01*
X173461506Y-93291402D01*
X173628597Y-93458493D01*
X173628603Y-93458498D01*
X173814158Y-93588425D01*
X173857783Y-93643002D01*
X173864977Y-93712500D01*
X173833454Y-93774855D01*
X173814158Y-93791575D01*
X173628597Y-93921505D01*
X173461505Y-94088597D01*
X173325965Y-94282169D01*
X173325964Y-94282171D01*
X173226098Y-94496335D01*
X173226094Y-94496344D01*
X173164938Y-94724586D01*
X173164936Y-94724596D01*
X173144341Y-94959999D01*
X173144341Y-94960000D01*
X173164936Y-95195403D01*
X173164938Y-95195413D01*
X173226094Y-95423655D01*
X173226096Y-95423659D01*
X173226097Y-95423663D01*
X173276419Y-95531578D01*
X173325965Y-95637830D01*
X173325967Y-95637834D01*
X173461501Y-95831395D01*
X173461506Y-95831402D01*
X173628597Y-95998493D01*
X173628603Y-95998498D01*
X173814158Y-96128425D01*
X173857783Y-96183002D01*
X173864977Y-96252500D01*
X173833454Y-96314855D01*
X173814158Y-96331575D01*
X173628597Y-96461505D01*
X173461505Y-96628597D01*
X173325965Y-96822169D01*
X173325964Y-96822171D01*
X173226098Y-97036335D01*
X173226094Y-97036344D01*
X173164938Y-97264586D01*
X173164936Y-97264596D01*
X173144341Y-97499999D01*
X173144341Y-97500000D01*
X173164936Y-97735403D01*
X173164938Y-97735413D01*
X173226094Y-97963655D01*
X173226096Y-97963659D01*
X173226097Y-97963663D01*
X173325965Y-98177830D01*
X173325967Y-98177834D01*
X173461501Y-98371395D01*
X173461506Y-98371402D01*
X173628597Y-98538493D01*
X173628603Y-98538498D01*
X173814158Y-98668425D01*
X173857783Y-98723002D01*
X173864977Y-98792500D01*
X173833454Y-98854855D01*
X173814158Y-98871575D01*
X173628597Y-99001505D01*
X173461505Y-99168597D01*
X173325965Y-99362169D01*
X173325964Y-99362171D01*
X173226098Y-99576335D01*
X173226094Y-99576344D01*
X173164938Y-99804586D01*
X173164936Y-99804596D01*
X173144341Y-100039999D01*
X173144341Y-100040000D01*
X173164936Y-100275403D01*
X173164938Y-100275413D01*
X173226094Y-100503655D01*
X173226096Y-100503659D01*
X173226097Y-100503663D01*
X173254482Y-100564534D01*
X173325965Y-100717830D01*
X173325967Y-100717834D01*
X173461501Y-100911395D01*
X173461506Y-100911402D01*
X173628597Y-101078493D01*
X173628603Y-101078498D01*
X173814158Y-101208425D01*
X173857783Y-101263002D01*
X173864977Y-101332500D01*
X173833454Y-101394855D01*
X173814158Y-101411575D01*
X173628597Y-101541505D01*
X173461505Y-101708597D01*
X173325965Y-101902169D01*
X173325964Y-101902171D01*
X173226098Y-102116335D01*
X173226094Y-102116344D01*
X173164938Y-102344586D01*
X173164936Y-102344596D01*
X173144341Y-102579999D01*
X173144341Y-102580000D01*
X173164936Y-102815403D01*
X173164938Y-102815413D01*
X173226094Y-103043655D01*
X173226096Y-103043659D01*
X173226097Y-103043663D01*
X173254482Y-103104534D01*
X173325965Y-103257830D01*
X173325967Y-103257834D01*
X173461501Y-103451395D01*
X173461506Y-103451402D01*
X173628597Y-103618493D01*
X173628603Y-103618498D01*
X173814158Y-103748425D01*
X173857783Y-103803002D01*
X173864977Y-103872500D01*
X173833454Y-103934855D01*
X173814158Y-103951575D01*
X173628597Y-104081505D01*
X173461505Y-104248597D01*
X173325965Y-104442169D01*
X173325964Y-104442171D01*
X173226098Y-104656335D01*
X173226094Y-104656344D01*
X173164938Y-104884586D01*
X173164936Y-104884596D01*
X173144341Y-105119999D01*
X173144341Y-105120000D01*
X173164936Y-105355403D01*
X173164938Y-105355413D01*
X173226094Y-105583655D01*
X173226096Y-105583659D01*
X173226097Y-105583663D01*
X173284964Y-105709903D01*
X173325965Y-105797830D01*
X173325967Y-105797834D01*
X173461501Y-105991395D01*
X173461506Y-105991402D01*
X173628597Y-106158493D01*
X173628603Y-106158498D01*
X173814158Y-106288425D01*
X173857783Y-106343002D01*
X173864977Y-106412500D01*
X173833454Y-106474855D01*
X173814158Y-106491575D01*
X173628597Y-106621505D01*
X173461505Y-106788597D01*
X173325965Y-106982169D01*
X173325964Y-106982171D01*
X173234065Y-107179249D01*
X173226299Y-107195905D01*
X173226098Y-107196335D01*
X173226094Y-107196344D01*
X173164938Y-107424586D01*
X173164936Y-107424596D01*
X173144341Y-107659999D01*
X173144341Y-107660000D01*
X173164936Y-107895403D01*
X173164938Y-107895413D01*
X173199327Y-108023756D01*
X173197664Y-108093606D01*
X173167233Y-108143530D01*
X172577584Y-108733181D01*
X172516261Y-108766666D01*
X172489903Y-108769500D01*
X164604610Y-108769500D01*
X164537571Y-108749815D01*
X164491816Y-108697011D01*
X164481872Y-108627853D01*
X164504292Y-108572614D01*
X164512287Y-108561610D01*
X164605220Y-108379219D01*
X164668477Y-108184534D01*
X164700500Y-107982352D01*
X164700500Y-107777648D01*
X164677392Y-107631751D01*
X164668477Y-107575465D01*
X164605218Y-107380776D01*
X164551111Y-107274586D01*
X164512287Y-107198390D01*
X164495808Y-107175708D01*
X164391971Y-107032786D01*
X164247213Y-106888028D01*
X164081614Y-106767715D01*
X164075006Y-106764348D01*
X163988917Y-106720483D01*
X163938123Y-106672511D01*
X163921328Y-106604690D01*
X163943865Y-106538555D01*
X163988917Y-106499516D01*
X164081610Y-106452287D01*
X164136373Y-106412500D01*
X164247213Y-106331971D01*
X164247215Y-106331968D01*
X164247219Y-106331966D01*
X164391966Y-106187219D01*
X164391968Y-106187215D01*
X164391971Y-106187213D01*
X164484815Y-106059422D01*
X164512287Y-106021610D01*
X164605220Y-105839219D01*
X164668477Y-105644534D01*
X164691370Y-105499998D01*
X167194532Y-105499998D01*
X167194532Y-105500001D01*
X167214364Y-105726686D01*
X167214366Y-105726697D01*
X167273258Y-105946488D01*
X167273261Y-105946497D01*
X167369431Y-106152732D01*
X167369432Y-106152734D01*
X167499954Y-106339141D01*
X167660858Y-106500045D01*
X167660861Y-106500047D01*
X167847266Y-106630568D01*
X168053504Y-106726739D01*
X168273308Y-106785635D01*
X168435230Y-106799801D01*
X168499998Y-106805468D01*
X168500000Y-106805468D01*
X168500002Y-106805468D01*
X168556673Y-106800509D01*
X168726692Y-106785635D01*
X168946496Y-106726739D01*
X169152734Y-106630568D01*
X169339139Y-106500047D01*
X169500047Y-106339139D01*
X169630568Y-106152734D01*
X169726739Y-105946496D01*
X169785635Y-105726692D01*
X169805468Y-105500000D01*
X169785635Y-105273308D01*
X169726739Y-105053504D01*
X169630568Y-104847266D01*
X169500047Y-104660861D01*
X169500045Y-104660858D01*
X169339141Y-104499954D01*
X169152734Y-104369432D01*
X169152732Y-104369431D01*
X168946497Y-104273261D01*
X168946488Y-104273258D01*
X168726697Y-104214366D01*
X168726693Y-104214365D01*
X168726692Y-104214365D01*
X168726691Y-104214364D01*
X168726686Y-104214364D01*
X168500002Y-104194532D01*
X168499998Y-104194532D01*
X168273313Y-104214364D01*
X168273302Y-104214366D01*
X168053511Y-104273258D01*
X168053502Y-104273261D01*
X167847267Y-104369431D01*
X167847265Y-104369432D01*
X167660858Y-104499954D01*
X167499954Y-104660858D01*
X167369432Y-104847265D01*
X167369431Y-104847267D01*
X167273261Y-105053502D01*
X167273258Y-105053511D01*
X167214366Y-105273302D01*
X167214364Y-105273313D01*
X167194532Y-105499998D01*
X164691370Y-105499998D01*
X164700500Y-105442352D01*
X164700500Y-105237648D01*
X164668477Y-105035466D01*
X164665579Y-105026548D01*
X164607327Y-104847266D01*
X164605220Y-104840781D01*
X164605218Y-104840778D01*
X164605218Y-104840776D01*
X164551111Y-104734586D01*
X164512287Y-104658390D01*
X164504556Y-104647749D01*
X164391971Y-104492786D01*
X164247213Y-104348028D01*
X164081614Y-104227715D01*
X164055411Y-104214364D01*
X163988917Y-104180483D01*
X163938123Y-104132511D01*
X163921328Y-104064690D01*
X163943865Y-103998555D01*
X163988917Y-103959516D01*
X164081610Y-103912287D01*
X164136373Y-103872500D01*
X164247213Y-103791971D01*
X164247215Y-103791968D01*
X164247219Y-103791966D01*
X164391966Y-103647219D01*
X164391968Y-103647215D01*
X164391971Y-103647213D01*
X164475983Y-103531578D01*
X164512287Y-103481610D01*
X164605220Y-103299219D01*
X164668477Y-103104534D01*
X164700500Y-102902352D01*
X164700500Y-102697648D01*
X164668477Y-102495466D01*
X164667299Y-102491842D01*
X164605218Y-102300776D01*
X164551111Y-102194586D01*
X164512287Y-102118390D01*
X164486148Y-102082412D01*
X164391971Y-101952786D01*
X164247213Y-101808028D01*
X164081614Y-101687715D01*
X164064998Y-101679249D01*
X163988917Y-101640483D01*
X163938123Y-101592511D01*
X163921328Y-101524690D01*
X163943865Y-101458555D01*
X163988917Y-101419516D01*
X164081610Y-101372287D01*
X164152552Y-101320745D01*
X164247213Y-101251971D01*
X164247215Y-101251968D01*
X164247219Y-101251966D01*
X164391966Y-101107219D01*
X164391968Y-101107215D01*
X164391971Y-101107213D01*
X164444732Y-101034590D01*
X164512287Y-100941610D01*
X164605220Y-100759219D01*
X164668477Y-100564534D01*
X164678699Y-100499997D01*
X167195034Y-100499997D01*
X167195034Y-100500002D01*
X167214858Y-100726599D01*
X167214860Y-100726610D01*
X167273730Y-100946317D01*
X167273735Y-100946331D01*
X167369863Y-101152478D01*
X167420974Y-101225472D01*
X168100000Y-100546446D01*
X168100000Y-100552661D01*
X168127259Y-100654394D01*
X168179920Y-100745606D01*
X168254394Y-100820080D01*
X168345606Y-100872741D01*
X168447339Y-100900000D01*
X168453553Y-100900000D01*
X167774526Y-101579025D01*
X167847513Y-101630132D01*
X167847521Y-101630136D01*
X168053668Y-101726264D01*
X168053682Y-101726269D01*
X168273389Y-101785139D01*
X168273400Y-101785141D01*
X168499998Y-101804966D01*
X168500002Y-101804966D01*
X168726599Y-101785141D01*
X168726610Y-101785139D01*
X168946317Y-101726269D01*
X168946331Y-101726264D01*
X169152478Y-101630136D01*
X169225471Y-101579024D01*
X168546447Y-100900000D01*
X168552661Y-100900000D01*
X168654394Y-100872741D01*
X168745606Y-100820080D01*
X168820080Y-100745606D01*
X168872741Y-100654394D01*
X168900000Y-100552661D01*
X168900000Y-100546447D01*
X169579024Y-101225471D01*
X169630136Y-101152478D01*
X169726264Y-100946331D01*
X169726269Y-100946317D01*
X169785139Y-100726610D01*
X169785141Y-100726599D01*
X169804966Y-100500002D01*
X169804966Y-100499997D01*
X169785141Y-100273400D01*
X169785139Y-100273389D01*
X169726269Y-100053682D01*
X169726264Y-100053668D01*
X169630136Y-99847521D01*
X169630132Y-99847513D01*
X169579025Y-99774526D01*
X168900000Y-100453551D01*
X168900000Y-100447339D01*
X168872741Y-100345606D01*
X168820080Y-100254394D01*
X168745606Y-100179920D01*
X168654394Y-100127259D01*
X168552661Y-100100000D01*
X168546448Y-100100000D01*
X169225472Y-99420974D01*
X169152478Y-99369863D01*
X168946331Y-99273735D01*
X168946317Y-99273730D01*
X168726610Y-99214860D01*
X168726599Y-99214858D01*
X168500002Y-99195034D01*
X168499998Y-99195034D01*
X168273400Y-99214858D01*
X168273389Y-99214860D01*
X168053682Y-99273730D01*
X168053673Y-99273734D01*
X167847516Y-99369866D01*
X167847512Y-99369868D01*
X167774526Y-99420973D01*
X167774526Y-99420974D01*
X168453553Y-100100000D01*
X168447339Y-100100000D01*
X168345606Y-100127259D01*
X168254394Y-100179920D01*
X168179920Y-100254394D01*
X168127259Y-100345606D01*
X168100000Y-100447339D01*
X168100000Y-100453552D01*
X167420974Y-99774526D01*
X167420973Y-99774526D01*
X167369868Y-99847512D01*
X167369866Y-99847516D01*
X167273734Y-100053673D01*
X167273730Y-100053682D01*
X167214860Y-100273389D01*
X167214858Y-100273400D01*
X167195034Y-100499997D01*
X164678699Y-100499997D01*
X164700500Y-100362352D01*
X164700500Y-100157648D01*
X164668477Y-99955466D01*
X164647205Y-99889999D01*
X164639127Y-99865137D01*
X164605220Y-99760781D01*
X164605218Y-99760778D01*
X164605218Y-99760776D01*
X164551111Y-99654586D01*
X164512287Y-99578390D01*
X164504556Y-99567749D01*
X164391971Y-99412786D01*
X164247213Y-99268028D01*
X164081614Y-99147715D01*
X164075006Y-99144348D01*
X163988917Y-99100483D01*
X163938123Y-99052511D01*
X163921328Y-98984690D01*
X163943865Y-98918555D01*
X163988917Y-98879516D01*
X164081610Y-98832287D01*
X164125850Y-98800145D01*
X164247213Y-98711971D01*
X164247215Y-98711968D01*
X164247219Y-98711966D01*
X164391966Y-98567219D01*
X164391968Y-98567215D01*
X164391971Y-98567213D01*
X164451973Y-98484626D01*
X164512287Y-98401610D01*
X164605220Y-98219219D01*
X164668477Y-98024534D01*
X164700500Y-97822352D01*
X164700500Y-97617648D01*
X164679475Y-97484903D01*
X164668477Y-97415465D01*
X164605218Y-97220776D01*
X164561704Y-97135376D01*
X164512287Y-97038390D01*
X164477320Y-96990261D01*
X164391971Y-96872786D01*
X164247213Y-96728028D01*
X164081614Y-96607715D01*
X164075006Y-96604348D01*
X163988917Y-96560483D01*
X163938123Y-96512511D01*
X163921328Y-96444690D01*
X163943865Y-96378555D01*
X163988917Y-96339516D01*
X164081610Y-96292287D01*
X164136373Y-96252500D01*
X164247213Y-96171971D01*
X164247215Y-96171968D01*
X164247219Y-96171966D01*
X164391966Y-96027219D01*
X164391968Y-96027215D01*
X164391971Y-96027213D01*
X164484502Y-95899853D01*
X164512287Y-95861610D01*
X164605220Y-95679219D01*
X164668477Y-95484534D01*
X164700500Y-95282352D01*
X164700500Y-95077648D01*
X164668477Y-94875466D01*
X164647205Y-94809999D01*
X164605218Y-94680776D01*
X164551111Y-94574586D01*
X164512287Y-94498390D01*
X164490514Y-94468422D01*
X164391971Y-94332786D01*
X164247213Y-94188028D01*
X164081614Y-94067715D01*
X164075006Y-94064348D01*
X163988917Y-94020483D01*
X163938123Y-93972511D01*
X163921328Y-93904690D01*
X163943865Y-93838555D01*
X163988917Y-93799516D01*
X164081610Y-93752287D01*
X164136373Y-93712500D01*
X164247213Y-93631971D01*
X164247215Y-93631968D01*
X164247219Y-93631966D01*
X164391966Y-93487219D01*
X164391968Y-93487215D01*
X164391971Y-93487213D01*
X164444732Y-93414590D01*
X164512287Y-93321610D01*
X164605220Y-93139219D01*
X164668477Y-92944534D01*
X164700500Y-92742352D01*
X164700500Y-92537648D01*
X164681866Y-92419999D01*
X164668477Y-92335465D01*
X164605218Y-92140776D01*
X164512419Y-91958650D01*
X164512287Y-91958390D01*
X164504556Y-91947749D01*
X164391971Y-91792786D01*
X164247213Y-91648028D01*
X164081614Y-91527715D01*
X164057391Y-91515373D01*
X163988917Y-91480483D01*
X163938123Y-91432511D01*
X163921328Y-91364690D01*
X163943865Y-91298555D01*
X163988917Y-91259516D01*
X164081610Y-91212287D01*
X164127075Y-91179255D01*
X164247213Y-91091971D01*
X164247215Y-91091968D01*
X164247219Y-91091966D01*
X164391966Y-90947219D01*
X164391968Y-90947215D01*
X164391971Y-90947213D01*
X164444732Y-90874590D01*
X164512287Y-90781610D01*
X164605220Y-90599219D01*
X164668477Y-90404534D01*
X164700500Y-90202352D01*
X164700500Y-89997648D01*
X164668477Y-89795466D01*
X164647205Y-89729999D01*
X164625811Y-89664154D01*
X164605220Y-89600781D01*
X164605218Y-89600778D01*
X164605218Y-89600776D01*
X164546177Y-89484903D01*
X164512287Y-89418390D01*
X164504556Y-89407749D01*
X164391971Y-89252786D01*
X164247213Y-89108028D01*
X164081614Y-88987715D01*
X164071648Y-88982637D01*
X163988917Y-88940483D01*
X163938123Y-88892511D01*
X163921328Y-88824690D01*
X163943865Y-88758555D01*
X163988917Y-88719516D01*
X164081610Y-88672287D01*
X164136373Y-88632500D01*
X164247213Y-88551971D01*
X164247215Y-88551968D01*
X164247219Y-88551966D01*
X164391966Y-88407219D01*
X164391968Y-88407215D01*
X164391971Y-88407213D01*
X164444732Y-88334590D01*
X164512287Y-88241610D01*
X164605220Y-88059219D01*
X164668477Y-87864534D01*
X164700500Y-87662352D01*
X164700500Y-87457648D01*
X164681866Y-87339999D01*
X164668477Y-87255465D01*
X164605218Y-87060776D01*
X164512419Y-86878650D01*
X164512287Y-86878390D01*
X164504556Y-86867749D01*
X164391971Y-86712786D01*
X164247213Y-86568028D01*
X164081614Y-86447715D01*
X164075006Y-86444348D01*
X163988917Y-86400483D01*
X163938123Y-86352511D01*
X163921328Y-86284690D01*
X163943865Y-86218555D01*
X163988917Y-86179516D01*
X164081610Y-86132287D01*
X164102770Y-86116913D01*
X164247213Y-86011971D01*
X164247215Y-86011968D01*
X164247219Y-86011966D01*
X164391966Y-85867219D01*
X164391968Y-85867215D01*
X164391971Y-85867213D01*
X164444732Y-85794590D01*
X164512287Y-85701610D01*
X164605220Y-85519219D01*
X164668477Y-85324534D01*
X164700500Y-85122352D01*
X164700500Y-84917648D01*
X164668477Y-84715466D01*
X164647360Y-84650476D01*
X164605218Y-84520776D01*
X164570759Y-84453147D01*
X164512287Y-84338390D01*
X164465659Y-84274211D01*
X164391971Y-84172786D01*
X164247213Y-84028028D01*
X164081614Y-83907715D01*
X164075006Y-83904348D01*
X163988917Y-83860483D01*
X163938123Y-83812511D01*
X163921328Y-83744690D01*
X163943865Y-83678555D01*
X163988917Y-83639516D01*
X164081610Y-83592287D01*
X164128932Y-83557906D01*
X164247213Y-83471971D01*
X164247215Y-83471968D01*
X164247219Y-83471966D01*
X164391966Y-83327219D01*
X164391968Y-83327215D01*
X164391971Y-83327213D01*
X164499467Y-83179255D01*
X164512287Y-83161610D01*
X164605220Y-82979219D01*
X164668477Y-82784534D01*
X164700500Y-82582352D01*
X164700500Y-82377648D01*
X164668477Y-82175466D01*
X164647205Y-82109999D01*
X164633336Y-82067312D01*
X164605220Y-81980781D01*
X164605218Y-81980778D01*
X164605218Y-81980776D01*
X164543628Y-81859901D01*
X164512287Y-81798390D01*
X164504556Y-81787749D01*
X164391971Y-81632786D01*
X164247213Y-81488028D01*
X164081613Y-81367715D01*
X164081612Y-81367714D01*
X164081610Y-81367713D01*
X164024653Y-81338691D01*
X163899223Y-81274781D01*
X163704534Y-81211522D01*
X163529995Y-81183878D01*
X163502352Y-81179500D01*
X162497648Y-81179500D01*
X162473329Y-81183351D01*
X162295465Y-81211522D01*
X162100776Y-81274781D01*
X161918386Y-81367715D01*
X161752786Y-81488028D01*
X161608028Y-81632786D01*
X161487715Y-81798386D01*
X161394781Y-81980776D01*
X161331522Y-82175465D01*
X161299500Y-82377648D01*
X161299500Y-82582351D01*
X161331522Y-82784534D01*
X161394781Y-82979223D01*
X161487715Y-83161613D01*
X161608028Y-83327213D01*
X161752786Y-83471971D01*
X161896925Y-83576692D01*
X161918390Y-83592287D01*
X162007212Y-83637544D01*
X162011080Y-83639515D01*
X162061876Y-83687490D01*
X162078671Y-83755311D01*
X162056134Y-83821446D01*
X162011080Y-83860485D01*
X161918386Y-83907715D01*
X161752786Y-84028028D01*
X161608028Y-84172786D01*
X161487715Y-84338386D01*
X161394781Y-84520776D01*
X161331522Y-84715465D01*
X161299500Y-84917648D01*
X161299500Y-85122351D01*
X161331522Y-85324534D01*
X161394781Y-85519223D01*
X161426978Y-85582412D01*
X161476319Y-85679249D01*
X161487715Y-85701613D01*
X161608028Y-85867213D01*
X161752786Y-86011971D01*
X161897346Y-86116998D01*
X161918390Y-86132287D01*
X161984487Y-86165965D01*
X162011080Y-86179515D01*
X162061876Y-86227490D01*
X162078671Y-86295311D01*
X162056134Y-86361446D01*
X162011080Y-86400485D01*
X161918386Y-86447715D01*
X161752786Y-86568028D01*
X161608028Y-86712786D01*
X161487715Y-86878386D01*
X161394781Y-87060776D01*
X161331522Y-87255465D01*
X161299500Y-87457648D01*
X161299500Y-87662351D01*
X161331522Y-87864534D01*
X161394781Y-88059223D01*
X161487715Y-88241613D01*
X161608028Y-88407213D01*
X161752786Y-88551971D01*
X161863627Y-88632500D01*
X161918390Y-88672287D01*
X161984487Y-88705965D01*
X162011080Y-88719515D01*
X162061876Y-88767490D01*
X162078671Y-88835311D01*
X162056134Y-88901446D01*
X162011080Y-88940485D01*
X161918386Y-88987715D01*
X161752786Y-89108028D01*
X161608028Y-89252786D01*
X161487715Y-89418386D01*
X161394781Y-89600776D01*
X161331522Y-89795465D01*
X161299500Y-89997648D01*
X161299500Y-90202351D01*
X161331522Y-90404534D01*
X161394781Y-90599223D01*
X161487715Y-90781613D01*
X161608028Y-90947213D01*
X161752786Y-91091971D01*
X161872925Y-91179255D01*
X161918390Y-91212287D01*
X161984487Y-91245965D01*
X162011080Y-91259515D01*
X162061876Y-91307490D01*
X162078671Y-91375311D01*
X162056134Y-91441446D01*
X162011080Y-91480485D01*
X161918386Y-91527715D01*
X161752786Y-91648028D01*
X161608028Y-91792786D01*
X161487715Y-91958386D01*
X161394781Y-92140776D01*
X161331522Y-92335465D01*
X161299500Y-92537648D01*
X161299500Y-92742351D01*
X161331522Y-92944534D01*
X161394781Y-93139223D01*
X161458691Y-93264653D01*
X161487272Y-93320745D01*
X161487715Y-93321613D01*
X161608028Y-93487213D01*
X161752786Y-93631971D01*
X161863627Y-93712500D01*
X161918390Y-93752287D01*
X161984487Y-93785965D01*
X162011080Y-93799515D01*
X162061876Y-93847490D01*
X162078671Y-93915311D01*
X162056134Y-93981446D01*
X162011080Y-94020485D01*
X161918386Y-94067715D01*
X161752786Y-94188028D01*
X161608028Y-94332786D01*
X161487715Y-94498386D01*
X161394781Y-94680776D01*
X161331522Y-94875465D01*
X161299500Y-95077648D01*
X161299500Y-95282351D01*
X161331522Y-95484534D01*
X161394781Y-95679223D01*
X161487715Y-95861613D01*
X161608028Y-96027213D01*
X161752786Y-96171971D01*
X161897346Y-96276998D01*
X161918390Y-96292287D01*
X161984487Y-96325965D01*
X162011080Y-96339515D01*
X162061876Y-96387490D01*
X162078671Y-96455311D01*
X162056134Y-96521446D01*
X162011080Y-96560485D01*
X161918386Y-96607715D01*
X161752786Y-96728028D01*
X161608028Y-96872786D01*
X161487715Y-97038386D01*
X161394781Y-97220776D01*
X161331522Y-97415465D01*
X161299500Y-97617648D01*
X161299500Y-97822351D01*
X161331522Y-98024534D01*
X161394781Y-98219223D01*
X161487715Y-98401613D01*
X161608028Y-98567213D01*
X161752786Y-98711971D01*
X161907749Y-98824556D01*
X161918390Y-98832287D01*
X161984487Y-98865965D01*
X162011080Y-98879515D01*
X162061876Y-98927490D01*
X162078671Y-98995311D01*
X162056134Y-99061446D01*
X162011080Y-99100485D01*
X161918386Y-99147715D01*
X161752786Y-99268028D01*
X161608028Y-99412786D01*
X161487715Y-99578386D01*
X161394781Y-99760776D01*
X161331522Y-99955465D01*
X161299500Y-100157648D01*
X161299500Y-100362351D01*
X161331522Y-100564534D01*
X161394781Y-100759223D01*
X161452622Y-100872741D01*
X161486581Y-100939389D01*
X161487715Y-100941613D01*
X161608028Y-101107213D01*
X161752786Y-101251971D01*
X161863627Y-101332500D01*
X161918390Y-101372287D01*
X161984487Y-101405965D01*
X162011080Y-101419515D01*
X162061876Y-101467490D01*
X162078671Y-101535311D01*
X162056134Y-101601446D01*
X162011080Y-101640485D01*
X161918386Y-101687715D01*
X161752786Y-101808028D01*
X161608028Y-101952786D01*
X161487715Y-102118386D01*
X161394781Y-102300776D01*
X161331522Y-102495465D01*
X161299500Y-102697648D01*
X161299500Y-102902351D01*
X161331522Y-103104534D01*
X161394781Y-103299223D01*
X161487715Y-103481613D01*
X161608028Y-103647213D01*
X161752786Y-103791971D01*
X161863627Y-103872500D01*
X161918390Y-103912287D01*
X161984487Y-103945965D01*
X162011080Y-103959515D01*
X162061876Y-104007490D01*
X162078671Y-104075311D01*
X162056134Y-104141446D01*
X162011080Y-104180485D01*
X161918386Y-104227715D01*
X161752786Y-104348028D01*
X161608028Y-104492786D01*
X161487715Y-104658386D01*
X161394781Y-104840776D01*
X161331522Y-105035465D01*
X161299500Y-105237648D01*
X161299500Y-105442351D01*
X161331522Y-105644534D01*
X161394781Y-105839223D01*
X161487715Y-106021613D01*
X161608028Y-106187213D01*
X161752786Y-106331971D01*
X161863627Y-106412500D01*
X161918390Y-106452287D01*
X162009840Y-106498883D01*
X162011080Y-106499515D01*
X162061876Y-106547490D01*
X162078671Y-106615311D01*
X162056134Y-106681446D01*
X162011080Y-106720485D01*
X161918386Y-106767715D01*
X161752786Y-106888028D01*
X161608028Y-107032786D01*
X161487715Y-107198386D01*
X161394781Y-107380776D01*
X161331522Y-107575465D01*
X161299500Y-107777648D01*
X161299500Y-107982351D01*
X161331522Y-108184534D01*
X161394781Y-108379223D01*
X161487713Y-108561610D01*
X161495708Y-108572614D01*
X161519188Y-108638420D01*
X161503363Y-108706474D01*
X161453257Y-108755169D01*
X161395390Y-108769500D01*
X151209057Y-108769500D01*
X151050942Y-108769500D01*
X150898215Y-108810423D01*
X150898214Y-108810423D01*
X150898212Y-108810424D01*
X150898209Y-108810425D01*
X150857319Y-108834034D01*
X150857318Y-108834035D01*
X150842121Y-108842809D01*
X150767771Y-108885734D01*
X150699870Y-108902205D01*
X150633844Y-108879353D01*
X150590654Y-108824431D01*
X150581772Y-108778346D01*
X150581772Y-108563685D01*
X150601457Y-108496646D01*
X150608827Y-108486370D01*
X150611082Y-108483540D01*
X150611088Y-108483535D01*
X150707061Y-108330795D01*
X150766640Y-108160528D01*
X150766641Y-108160522D01*
X150786837Y-107981276D01*
X150786837Y-107981269D01*
X150766641Y-107802023D01*
X150766640Y-107802018D01*
X150746831Y-107745408D01*
X150707061Y-107631751D01*
X150611088Y-107479011D01*
X150483534Y-107351457D01*
X150464000Y-107339183D01*
X150330795Y-107255484D01*
X150160526Y-107195904D01*
X150160521Y-107195903D01*
X149981276Y-107175708D01*
X149981268Y-107175708D01*
X149802022Y-107195903D01*
X149802017Y-107195904D01*
X149631748Y-107255484D01*
X149496365Y-107340551D01*
X149429128Y-107359551D01*
X149362293Y-107339183D01*
X149319908Y-107291852D01*
X149311114Y-107274592D01*
X149272287Y-107198390D01*
X149272285Y-107198387D01*
X149272284Y-107198385D01*
X149151971Y-107032786D01*
X149007213Y-106888028D01*
X148841614Y-106767715D01*
X148835006Y-106764348D01*
X148748917Y-106720483D01*
X148698123Y-106672511D01*
X148681328Y-106604690D01*
X148703865Y-106538555D01*
X148748917Y-106499516D01*
X148841610Y-106452287D01*
X148896373Y-106412500D01*
X149007213Y-106331971D01*
X149007215Y-106331968D01*
X149007219Y-106331966D01*
X149151966Y-106187219D01*
X149151968Y-106187215D01*
X149151971Y-106187213D01*
X149244815Y-106059422D01*
X149272287Y-106021610D01*
X149365220Y-105839219D01*
X149428477Y-105644534D01*
X149460500Y-105442352D01*
X149460500Y-105237648D01*
X149428477Y-105035466D01*
X149425579Y-105026548D01*
X149367327Y-104847266D01*
X149365220Y-104840781D01*
X149365218Y-104840778D01*
X149365218Y-104840776D01*
X149311111Y-104734586D01*
X149272287Y-104658390D01*
X149264556Y-104647749D01*
X149151971Y-104492786D01*
X149007213Y-104348028D01*
X148841614Y-104227715D01*
X148815411Y-104214364D01*
X148748917Y-104180483D01*
X148698123Y-104132511D01*
X148681328Y-104064690D01*
X148703865Y-103998555D01*
X148748917Y-103959516D01*
X148841610Y-103912287D01*
X148896373Y-103872500D01*
X149007213Y-103791971D01*
X149007215Y-103791968D01*
X149007219Y-103791966D01*
X149151966Y-103647219D01*
X149151968Y-103647215D01*
X149151971Y-103647213D01*
X149235983Y-103531578D01*
X149272287Y-103481610D01*
X149365220Y-103299219D01*
X149428477Y-103104534D01*
X149460500Y-102902352D01*
X149460500Y-102697648D01*
X149428477Y-102495466D01*
X149427299Y-102491842D01*
X149365218Y-102300776D01*
X149311111Y-102194586D01*
X149272287Y-102118390D01*
X149246148Y-102082412D01*
X149151971Y-101952786D01*
X149007213Y-101808028D01*
X148841614Y-101687715D01*
X148824998Y-101679249D01*
X148748917Y-101640483D01*
X148698123Y-101592511D01*
X148681328Y-101524690D01*
X148703865Y-101458555D01*
X148748917Y-101419516D01*
X148841610Y-101372287D01*
X148912552Y-101320745D01*
X149007213Y-101251971D01*
X149007215Y-101251968D01*
X149007219Y-101251966D01*
X149151966Y-101107219D01*
X149151968Y-101107215D01*
X149151971Y-101107213D01*
X149204732Y-101034590D01*
X149272287Y-100941610D01*
X149365220Y-100759219D01*
X149428477Y-100564534D01*
X149460500Y-100362352D01*
X149460500Y-100157648D01*
X149428477Y-99955466D01*
X149407205Y-99889999D01*
X149399127Y-99865137D01*
X149365220Y-99760781D01*
X149365218Y-99760778D01*
X149365218Y-99760776D01*
X149311111Y-99654586D01*
X149272287Y-99578390D01*
X149264556Y-99567749D01*
X149151971Y-99412786D01*
X149007213Y-99268028D01*
X148841614Y-99147715D01*
X148835006Y-99144348D01*
X148748917Y-99100483D01*
X148698123Y-99052511D01*
X148681328Y-98984690D01*
X148703865Y-98918555D01*
X148748917Y-98879516D01*
X148841610Y-98832287D01*
X148885850Y-98800145D01*
X149007213Y-98711971D01*
X149007215Y-98711968D01*
X149007219Y-98711966D01*
X149151966Y-98567219D01*
X149151968Y-98567215D01*
X149151971Y-98567213D01*
X149211973Y-98484626D01*
X149272287Y-98401610D01*
X149365220Y-98219219D01*
X149428477Y-98024534D01*
X149460500Y-97822352D01*
X149460500Y-97617648D01*
X149439475Y-97484903D01*
X149428477Y-97415465D01*
X149365218Y-97220776D01*
X149321704Y-97135376D01*
X149272287Y-97038390D01*
X149237320Y-96990261D01*
X149151971Y-96872786D01*
X149007213Y-96728028D01*
X148841614Y-96607715D01*
X148835006Y-96604348D01*
X148748917Y-96560483D01*
X148698123Y-96512511D01*
X148681328Y-96444690D01*
X148703865Y-96378555D01*
X148748917Y-96339516D01*
X148841610Y-96292287D01*
X148896373Y-96252500D01*
X149007213Y-96171971D01*
X149007215Y-96171968D01*
X149007219Y-96171966D01*
X149151966Y-96027219D01*
X149151968Y-96027215D01*
X149151971Y-96027213D01*
X149244502Y-95899853D01*
X149272287Y-95861610D01*
X149365220Y-95679219D01*
X149428477Y-95484534D01*
X149460500Y-95282352D01*
X149460500Y-95077648D01*
X149428477Y-94875466D01*
X149407205Y-94809999D01*
X149365218Y-94680776D01*
X149311111Y-94574586D01*
X149272287Y-94498390D01*
X149250514Y-94468422D01*
X149151971Y-94332786D01*
X149007213Y-94188028D01*
X148841611Y-94067713D01*
X148748369Y-94020203D01*
X148697574Y-93972229D01*
X148680779Y-93904407D01*
X148703317Y-93838273D01*
X148748371Y-93799234D01*
X148841347Y-93751861D01*
X149006894Y-93631582D01*
X149006895Y-93631582D01*
X149151582Y-93486895D01*
X149151582Y-93486894D01*
X149271859Y-93321349D01*
X149364755Y-93139029D01*
X149427990Y-92944413D01*
X149436609Y-92890000D01*
X148075686Y-92890000D01*
X148080080Y-92885606D01*
X148132741Y-92794394D01*
X148160000Y-92692661D01*
X148160000Y-92587339D01*
X148132741Y-92485606D01*
X148080080Y-92394394D01*
X148075686Y-92390000D01*
X149436609Y-92390000D01*
X149427990Y-92335586D01*
X149364755Y-92140970D01*
X149271859Y-91958650D01*
X149151582Y-91793105D01*
X149151582Y-91793104D01*
X149006895Y-91648417D01*
X148841349Y-91528140D01*
X148748370Y-91480765D01*
X148697574Y-91432790D01*
X148680779Y-91364969D01*
X148703316Y-91298835D01*
X148748370Y-91259795D01*
X148748920Y-91259515D01*
X148841610Y-91212287D01*
X148887075Y-91179255D01*
X149007213Y-91091971D01*
X149007215Y-91091968D01*
X149007219Y-91091966D01*
X149151966Y-90947219D01*
X149151968Y-90947215D01*
X149151971Y-90947213D01*
X149204732Y-90874590D01*
X149272287Y-90781610D01*
X149365220Y-90599219D01*
X149428477Y-90404534D01*
X149460500Y-90202352D01*
X149460500Y-89997648D01*
X149428477Y-89795466D01*
X149407205Y-89729999D01*
X149385811Y-89664154D01*
X149365220Y-89600781D01*
X149365218Y-89600778D01*
X149365218Y-89600776D01*
X149306177Y-89484903D01*
X149272287Y-89418390D01*
X149264556Y-89407749D01*
X149151971Y-89252786D01*
X149007213Y-89108028D01*
X148841611Y-88987713D01*
X148748369Y-88940203D01*
X148697574Y-88892229D01*
X148680779Y-88824407D01*
X148703317Y-88758273D01*
X148748371Y-88719234D01*
X148841347Y-88671861D01*
X149006894Y-88551582D01*
X149006895Y-88551582D01*
X149151582Y-88406895D01*
X149151582Y-88406894D01*
X149271859Y-88241349D01*
X149364755Y-88059029D01*
X149427990Y-87864413D01*
X149436609Y-87810000D01*
X148075686Y-87810000D01*
X148080080Y-87805606D01*
X148132741Y-87714394D01*
X148160000Y-87612661D01*
X148160000Y-87507339D01*
X148132741Y-87405606D01*
X148080080Y-87314394D01*
X148075686Y-87310000D01*
X149436609Y-87310000D01*
X149427990Y-87255586D01*
X149364755Y-87060970D01*
X149271859Y-86878650D01*
X149151582Y-86713105D01*
X149151582Y-86713104D01*
X149006895Y-86568417D01*
X148841349Y-86448140D01*
X148748370Y-86400765D01*
X148697574Y-86352790D01*
X148680779Y-86284969D01*
X148703316Y-86218835D01*
X148748370Y-86179795D01*
X148748920Y-86179515D01*
X148841610Y-86132287D01*
X148862770Y-86116913D01*
X149007213Y-86011971D01*
X149007215Y-86011968D01*
X149007219Y-86011966D01*
X149151966Y-85867219D01*
X149151968Y-85867215D01*
X149151971Y-85867213D01*
X149204732Y-85794590D01*
X149272287Y-85701610D01*
X149365220Y-85519219D01*
X149428477Y-85324534D01*
X149460500Y-85122352D01*
X149460500Y-84917648D01*
X149428477Y-84715466D01*
X149407360Y-84650476D01*
X149365218Y-84520776D01*
X149330759Y-84453147D01*
X149272287Y-84338390D01*
X149225659Y-84274211D01*
X149151971Y-84172786D01*
X149007219Y-84028034D01*
X148970930Y-84001669D01*
X148928264Y-83946339D01*
X148922285Y-83876726D01*
X148954890Y-83814931D01*
X149015728Y-83780573D01*
X149030562Y-83778060D01*
X149067483Y-83774091D01*
X149126251Y-83752172D01*
X149202331Y-83723796D01*
X149317546Y-83637546D01*
X149403796Y-83522331D01*
X149454091Y-83387483D01*
X149460500Y-83327873D01*
X149460499Y-81632128D01*
X149454091Y-81572517D01*
X149428324Y-81503433D01*
X149403797Y-81437671D01*
X149403793Y-81437664D01*
X149317547Y-81322455D01*
X149317544Y-81322452D01*
X149202335Y-81236206D01*
X149202328Y-81236202D01*
X149067482Y-81185908D01*
X149067483Y-81185908D01*
X149007883Y-81179501D01*
X149007881Y-81179500D01*
X149007873Y-81179500D01*
X149007864Y-81179500D01*
X146512129Y-81179500D01*
X146512123Y-81179501D01*
X146452516Y-81185908D01*
X146317671Y-81236202D01*
X146317664Y-81236206D01*
X146202455Y-81322452D01*
X146202452Y-81322455D01*
X146116206Y-81437664D01*
X146116202Y-81437671D01*
X146065908Y-81572517D01*
X146059501Y-81632116D01*
X146059501Y-81632123D01*
X146059500Y-81632135D01*
X142304075Y-81632135D01*
X142310261Y-81577229D01*
X142337326Y-81512818D01*
X142345790Y-81503443D01*
X143212417Y-80636819D01*
X143273740Y-80603334D01*
X143300098Y-80600500D01*
X162913331Y-80600500D01*
X162913347Y-80600501D01*
X162920943Y-80600501D01*
X163079054Y-80600501D01*
X163079057Y-80600501D01*
X163231785Y-80559577D01*
X163281904Y-80530639D01*
X163368716Y-80480520D01*
X163480520Y-80368716D01*
X163480520Y-80368714D01*
X163490728Y-80358507D01*
X163490729Y-80358504D01*
X164480520Y-79368716D01*
X164559577Y-79231784D01*
X164600501Y-79079057D01*
X164600501Y-78920942D01*
X164600501Y-78913339D01*
X164600500Y-78913329D01*
X164600500Y-75300096D01*
X164620185Y-75233057D01*
X164636815Y-75212419D01*
X164958580Y-74890653D01*
X165019903Y-74857169D01*
X165089595Y-74862153D01*
X165145528Y-74904025D01*
X165162443Y-74935002D01*
X165206202Y-75052328D01*
X165206206Y-75052335D01*
X165292452Y-75167544D01*
X165292455Y-75167547D01*
X165407664Y-75253793D01*
X165407671Y-75253797D01*
X165469902Y-75277007D01*
X165539598Y-75303002D01*
X165595531Y-75344873D01*
X165619949Y-75410337D01*
X165605098Y-75478610D01*
X165583947Y-75506865D01*
X165461886Y-75628926D01*
X165326400Y-75822420D01*
X165326399Y-75822422D01*
X165226570Y-76036507D01*
X165226567Y-76036513D01*
X165169364Y-76249999D01*
X165169364Y-76250000D01*
X166066988Y-76250000D01*
X166034075Y-76307007D01*
X166000000Y-76434174D01*
X166000000Y-76565826D01*
X166034075Y-76692993D01*
X166066988Y-76750000D01*
X165169364Y-76750000D01*
X165226567Y-76963486D01*
X165226570Y-76963492D01*
X165326399Y-77177578D01*
X165461894Y-77371082D01*
X165628917Y-77538105D01*
X165822421Y-77673600D01*
X166036507Y-77773429D01*
X166036516Y-77773433D01*
X166250000Y-77830634D01*
X166250000Y-76933012D01*
X166307007Y-76965925D01*
X166434174Y-77000000D01*
X166565826Y-77000000D01*
X166692993Y-76965925D01*
X166750000Y-76933012D01*
X166750000Y-77830633D01*
X166963483Y-77773433D01*
X166963492Y-77773429D01*
X167177578Y-77673600D01*
X167371082Y-77538105D01*
X167538105Y-77371082D01*
X167673600Y-77177578D01*
X167773429Y-76963492D01*
X167773432Y-76963486D01*
X167830636Y-76750000D01*
X166933012Y-76750000D01*
X166965925Y-76692993D01*
X167000000Y-76565826D01*
X167000000Y-76434174D01*
X166965925Y-76307007D01*
X166933012Y-76250000D01*
X167830636Y-76250000D01*
X167830635Y-76249999D01*
X167773432Y-76036513D01*
X167773429Y-76036507D01*
X167673600Y-75822422D01*
X167673599Y-75822420D01*
X167538113Y-75628926D01*
X167538108Y-75628920D01*
X167416053Y-75506865D01*
X167382568Y-75445542D01*
X167387552Y-75375850D01*
X167429424Y-75319917D01*
X167460400Y-75303002D01*
X167549847Y-75269641D01*
X167592326Y-75253798D01*
X167592326Y-75253797D01*
X167592331Y-75253796D01*
X167707546Y-75167546D01*
X167793796Y-75052331D01*
X167844091Y-74917483D01*
X167850500Y-74857873D01*
X167850499Y-73062128D01*
X167844091Y-73002517D01*
X167808604Y-72907372D01*
X167793797Y-72867671D01*
X167793793Y-72867664D01*
X167707547Y-72752455D01*
X167707544Y-72752452D01*
X167592335Y-72666206D01*
X167592328Y-72666202D01*
X167475003Y-72622443D01*
X167419069Y-72580572D01*
X167394652Y-72515108D01*
X167409504Y-72446835D01*
X167430649Y-72418586D01*
X167480520Y-72368716D01*
X167480521Y-72368713D01*
X168858506Y-70990728D01*
X168858511Y-70990724D01*
X168868714Y-70980520D01*
X168868716Y-70980520D01*
X168980520Y-70868716D01*
X169059577Y-70731784D01*
X169100500Y-70579057D01*
X169100500Y-67789090D01*
X169120185Y-67722051D01*
X169172101Y-67676706D01*
X169177830Y-67674035D01*
X169371401Y-67538495D01*
X169538495Y-67371401D01*
X169668730Y-67185405D01*
X169723307Y-67141781D01*
X169792805Y-67134587D01*
X169855160Y-67166110D01*
X169871879Y-67185405D01*
X170001890Y-67371078D01*
X170168917Y-67538105D01*
X170362421Y-67673600D01*
X170576507Y-67773429D01*
X170576516Y-67773433D01*
X170790000Y-67830634D01*
X170790000Y-66933012D01*
X170847007Y-66965925D01*
X170974174Y-67000000D01*
X171105826Y-67000000D01*
X171232993Y-66965925D01*
X171290000Y-66933012D01*
X171290000Y-67830633D01*
X171503483Y-67773433D01*
X171503492Y-67773429D01*
X171717578Y-67673600D01*
X171911082Y-67538105D01*
X172078105Y-67371082D01*
X172213600Y-67177578D01*
X172313429Y-66963492D01*
X172313432Y-66963486D01*
X172370636Y-66750000D01*
X171473012Y-66750000D01*
X171505925Y-66692993D01*
X171540000Y-66565826D01*
X171540000Y-66434174D01*
X171505925Y-66307007D01*
X171473012Y-66250000D01*
X172370636Y-66250000D01*
X172370635Y-66249999D01*
X172313432Y-66036513D01*
X172313429Y-66036507D01*
X172213600Y-65822422D01*
X172213599Y-65822420D01*
X172078113Y-65628926D01*
X172078108Y-65628920D01*
X171911082Y-65461894D01*
X171717578Y-65326399D01*
X171503492Y-65226570D01*
X171503486Y-65226567D01*
X171290000Y-65169364D01*
X171290000Y-66066988D01*
X171232993Y-66034075D01*
X171105826Y-66000000D01*
X170974174Y-66000000D01*
X170847007Y-66034075D01*
X170790000Y-66066988D01*
X170790000Y-65169364D01*
X170789999Y-65169364D01*
X170576513Y-65226567D01*
X170576507Y-65226570D01*
X170362422Y-65326399D01*
X170362420Y-65326400D01*
X170168926Y-65461886D01*
X170168920Y-65461891D01*
X170001891Y-65628920D01*
X170001890Y-65628922D01*
X169871880Y-65814595D01*
X169817303Y-65858219D01*
X169747804Y-65865412D01*
X169685450Y-65833890D01*
X169668730Y-65814594D01*
X169538494Y-65628597D01*
X169371402Y-65461506D01*
X169371395Y-65461501D01*
X169177834Y-65325967D01*
X169177830Y-65325965D01*
X169138693Y-65307715D01*
X168963663Y-65226097D01*
X168963659Y-65226096D01*
X168963655Y-65226094D01*
X168735413Y-65164938D01*
X168735403Y-65164936D01*
X168500001Y-65144341D01*
X168499999Y-65144341D01*
X168264596Y-65164936D01*
X168264586Y-65164938D01*
X168036344Y-65226094D01*
X168036335Y-65226098D01*
X167822171Y-65325964D01*
X167822169Y-65325965D01*
X167628597Y-65461505D01*
X167461505Y-65628597D01*
X167331575Y-65814158D01*
X167276998Y-65857783D01*
X167207500Y-65864977D01*
X167145145Y-65833454D01*
X167128425Y-65814158D01*
X166998494Y-65628597D01*
X166831402Y-65461506D01*
X166831395Y-65461501D01*
X166637834Y-65325967D01*
X166637830Y-65325965D01*
X166598693Y-65307715D01*
X166423663Y-65226097D01*
X166423659Y-65226096D01*
X166423655Y-65226094D01*
X166195413Y-65164938D01*
X166195403Y-65164936D01*
X165960001Y-65144341D01*
X165959999Y-65144341D01*
X165724596Y-65164936D01*
X165724586Y-65164938D01*
X165496344Y-65226094D01*
X165496335Y-65226098D01*
X165282171Y-65325964D01*
X165282169Y-65325965D01*
X165088600Y-65461503D01*
X164966673Y-65583430D01*
X164905350Y-65616914D01*
X164835658Y-65611930D01*
X164779725Y-65570058D01*
X164762810Y-65539081D01*
X164713797Y-65407671D01*
X164713793Y-65407664D01*
X164627547Y-65292455D01*
X164627544Y-65292452D01*
X164512335Y-65206206D01*
X164512328Y-65206202D01*
X164377482Y-65155908D01*
X164377483Y-65155908D01*
X164317883Y-65149501D01*
X164317881Y-65149500D01*
X164317873Y-65149500D01*
X164317864Y-65149500D01*
X162522129Y-65149500D01*
X162522123Y-65149501D01*
X162462516Y-65155908D01*
X162327671Y-65206202D01*
X162327664Y-65206206D01*
X162212455Y-65292452D01*
X162212452Y-65292455D01*
X162126206Y-65407664D01*
X162126202Y-65407671D01*
X162075908Y-65542517D01*
X162069501Y-65602116D01*
X162069500Y-65602135D01*
X162069500Y-67397870D01*
X162069501Y-67397876D01*
X162075908Y-67457483D01*
X162126202Y-67592328D01*
X162126206Y-67592335D01*
X162212452Y-67707544D01*
X162212455Y-67707547D01*
X162327664Y-67793793D01*
X162327671Y-67793797D01*
X162462517Y-67844091D01*
X162462516Y-67844091D01*
X162469444Y-67844835D01*
X162522127Y-67850500D01*
X164317872Y-67850499D01*
X164377483Y-67844091D01*
X164512331Y-67793796D01*
X164627546Y-67707546D01*
X164713796Y-67592331D01*
X164762810Y-67460916D01*
X164804681Y-67404984D01*
X164870145Y-67380566D01*
X164938418Y-67395417D01*
X164966673Y-67416569D01*
X165088599Y-67538495D01*
X165185384Y-67606265D01*
X165282165Y-67674032D01*
X165282167Y-67674033D01*
X165282170Y-67674035D01*
X165496337Y-67773903D01*
X165724592Y-67835063D01*
X165901034Y-67850500D01*
X165959999Y-67855659D01*
X165960000Y-67855659D01*
X165960001Y-67855659D01*
X166018966Y-67850500D01*
X166195408Y-67835063D01*
X166423663Y-67773903D01*
X166637830Y-67674035D01*
X166831401Y-67538495D01*
X166998495Y-67371401D01*
X167128425Y-67185842D01*
X167183002Y-67142217D01*
X167252500Y-67135023D01*
X167314855Y-67166546D01*
X167331575Y-67185842D01*
X167461281Y-67371082D01*
X167461505Y-67371401D01*
X167628599Y-67538495D01*
X167725384Y-67606265D01*
X167822165Y-67674032D01*
X167822167Y-67674033D01*
X167822170Y-67674035D01*
X167827898Y-67676706D01*
X167880339Y-67722872D01*
X167899500Y-67789090D01*
X167899500Y-70199903D01*
X167879815Y-70266942D01*
X167863181Y-70287584D01*
X166787584Y-71363181D01*
X166726261Y-71396666D01*
X166699903Y-71399500D01*
X165586670Y-71399500D01*
X165586654Y-71399499D01*
X165579058Y-71399499D01*
X165420943Y-71399499D01*
X165344579Y-71419961D01*
X165268214Y-71440423D01*
X165268209Y-71440426D01*
X165131290Y-71519475D01*
X165131282Y-71519481D01*
X164624217Y-72026546D01*
X164624214Y-72026548D01*
X164624215Y-72026549D01*
X164519478Y-72131286D01*
X164490426Y-72181608D01*
X164490425Y-72181610D01*
X164440423Y-72268214D01*
X164440423Y-72268215D01*
X164399499Y-72420943D01*
X164399499Y-72420945D01*
X164399499Y-72589046D01*
X164399500Y-72589059D01*
X164399500Y-73199902D01*
X164379815Y-73266941D01*
X164363181Y-73287583D01*
X163019481Y-74631282D01*
X163019479Y-74631285D01*
X162969361Y-74718094D01*
X162969359Y-74718096D01*
X162940425Y-74768209D01*
X162940424Y-74768210D01*
X162940423Y-74768215D01*
X162899499Y-74920943D01*
X162899499Y-74920945D01*
X162899499Y-75089046D01*
X162899500Y-75089059D01*
X162899500Y-78699901D01*
X162879815Y-78766940D01*
X162863182Y-78787582D01*
X162787584Y-78863181D01*
X162726261Y-78896666D01*
X162699902Y-78899500D01*
X156634154Y-78899500D01*
X156567115Y-78879815D01*
X156521360Y-78827011D01*
X156511416Y-78757853D01*
X156540441Y-78694297D01*
X156581749Y-78663118D01*
X156652480Y-78630135D01*
X156725471Y-78579024D01*
X156046447Y-77900000D01*
X156052661Y-77900000D01*
X156154394Y-77872741D01*
X156245606Y-77820080D01*
X156320080Y-77745606D01*
X156372741Y-77654394D01*
X156400000Y-77552661D01*
X156400000Y-77546447D01*
X157079024Y-78225471D01*
X157130136Y-78152478D01*
X157226264Y-77946331D01*
X157226269Y-77946317D01*
X157285139Y-77726610D01*
X157285141Y-77726599D01*
X157304966Y-77500002D01*
X157304966Y-77499997D01*
X157285141Y-77273400D01*
X157285139Y-77273389D01*
X157226269Y-77053682D01*
X157226264Y-77053668D01*
X157130136Y-76847521D01*
X157130132Y-76847513D01*
X157079025Y-76774526D01*
X156400000Y-77453551D01*
X156400000Y-77447339D01*
X156372741Y-77345606D01*
X156320080Y-77254394D01*
X156245606Y-77179920D01*
X156154394Y-77127259D01*
X156052661Y-77100000D01*
X156046448Y-77100000D01*
X156725472Y-76420974D01*
X156652478Y-76369863D01*
X156446331Y-76273735D01*
X156446317Y-76273730D01*
X156226610Y-76214860D01*
X156226599Y-76214858D01*
X156000002Y-76195034D01*
X155999998Y-76195034D01*
X155773400Y-76214858D01*
X155773389Y-76214860D01*
X155553682Y-76273730D01*
X155553673Y-76273734D01*
X155347516Y-76369866D01*
X155347512Y-76369868D01*
X155274526Y-76420973D01*
X155274526Y-76420974D01*
X155953553Y-77100000D01*
X155947339Y-77100000D01*
X155845606Y-77127259D01*
X155754394Y-77179920D01*
X155679920Y-77254394D01*
X155627259Y-77345606D01*
X155600000Y-77447339D01*
X155600000Y-77453552D01*
X154920974Y-76774526D01*
X154920973Y-76774526D01*
X154869868Y-76847512D01*
X154869866Y-76847516D01*
X154773734Y-77053673D01*
X154773730Y-77053682D01*
X154714860Y-77273389D01*
X154714858Y-77273400D01*
X154695034Y-77499997D01*
X154695034Y-77500002D01*
X154714858Y-77726599D01*
X154714860Y-77726610D01*
X154773730Y-77946317D01*
X154773735Y-77946331D01*
X154869863Y-78152478D01*
X154920974Y-78225472D01*
X155600000Y-77546446D01*
X155600000Y-77552661D01*
X155627259Y-77654394D01*
X155679920Y-77745606D01*
X155754394Y-77820080D01*
X155845606Y-77872741D01*
X155947339Y-77900000D01*
X155953553Y-77900000D01*
X155274526Y-78579025D01*
X155347513Y-78630132D01*
X155347517Y-78630134D01*
X155418251Y-78663118D01*
X155470690Y-78709290D01*
X155489842Y-78776484D01*
X155469626Y-78843365D01*
X155416461Y-78888699D01*
X155365846Y-78899500D01*
X149015335Y-78899500D01*
X148948296Y-78879815D01*
X148902541Y-78827011D01*
X148892597Y-78757853D01*
X148921622Y-78694297D01*
X148962928Y-78663118D01*
X149032734Y-78630568D01*
X149219139Y-78500047D01*
X149380047Y-78339139D01*
X149510568Y-78152734D01*
X149606739Y-77946496D01*
X149665635Y-77726692D01*
X149685468Y-77500000D01*
X149665635Y-77273308D01*
X149606739Y-77053504D01*
X149510568Y-76847266D01*
X149380047Y-76660861D01*
X149380045Y-76660858D01*
X149219141Y-76499954D01*
X149032734Y-76369432D01*
X149032732Y-76369431D01*
X148826497Y-76273261D01*
X148826488Y-76273258D01*
X148606697Y-76214366D01*
X148606693Y-76214365D01*
X148606692Y-76214365D01*
X148606691Y-76214364D01*
X148606686Y-76214364D01*
X148380002Y-76194532D01*
X148379998Y-76194532D01*
X148153313Y-76214364D01*
X148153302Y-76214366D01*
X147933511Y-76273258D01*
X147933502Y-76273261D01*
X147727267Y-76369431D01*
X147727265Y-76369432D01*
X147540858Y-76499954D01*
X147379954Y-76660858D01*
X147317538Y-76750000D01*
X147249881Y-76846624D01*
X147195307Y-76890248D01*
X147148308Y-76899500D01*
X145300097Y-76899500D01*
X145233058Y-76879815D01*
X145212416Y-76863181D01*
X144136819Y-75787584D01*
X144103334Y-75726261D01*
X144100500Y-75699903D01*
X144100500Y-75376809D01*
X144120185Y-75309770D01*
X144172989Y-75264015D01*
X144242147Y-75254071D01*
X144262808Y-75258875D01*
X144377343Y-75296090D01*
X144415465Y-75308477D01*
X144487694Y-75319917D01*
X144617648Y-75340500D01*
X144617649Y-75340500D01*
X145622351Y-75340500D01*
X145622352Y-75340500D01*
X145824534Y-75308477D01*
X146019219Y-75245220D01*
X146201610Y-75152287D01*
X146302403Y-75079057D01*
X146367213Y-75031971D01*
X146367215Y-75031968D01*
X146367219Y-75031966D01*
X146511966Y-74887219D01*
X146511968Y-74887215D01*
X146511971Y-74887213D01*
X146564732Y-74814590D01*
X146632287Y-74721610D01*
X146725220Y-74539219D01*
X146788477Y-74344534D01*
X146820500Y-74142352D01*
X146820500Y-73937648D01*
X146810656Y-73875498D01*
X146788477Y-73735465D01*
X146725218Y-73540776D01*
X146688151Y-73468029D01*
X146632287Y-73358390D01*
X146618302Y-73339141D01*
X146511971Y-73192786D01*
X146367213Y-73048028D01*
X146201614Y-72927715D01*
X146161702Y-72907379D01*
X146108917Y-72880483D01*
X146058123Y-72832511D01*
X146041328Y-72764690D01*
X146063865Y-72698555D01*
X146108917Y-72659516D01*
X146201610Y-72612287D01*
X146245262Y-72580572D01*
X146367213Y-72491971D01*
X146367215Y-72491968D01*
X146367219Y-72491966D01*
X146511966Y-72347219D01*
X146511968Y-72347215D01*
X146511971Y-72347213D01*
X146632284Y-72181614D01*
X146632283Y-72181614D01*
X146632287Y-72181610D01*
X146639117Y-72168204D01*
X146687091Y-72117409D01*
X146749602Y-72100500D01*
X146913331Y-72100500D01*
X146913347Y-72100501D01*
X146920943Y-72100501D01*
X147079054Y-72100501D01*
X147079057Y-72100501D01*
X147231785Y-72059577D01*
X147281904Y-72030639D01*
X147368716Y-71980520D01*
X147480520Y-71868716D01*
X147480521Y-71868714D01*
X147712418Y-71636816D01*
X147773740Y-71603334D01*
X147800098Y-71600500D01*
X147804018Y-71600500D01*
X147871057Y-71620185D01*
X147916812Y-71672989D01*
X147926756Y-71742147D01*
X147905593Y-71795621D01*
X147898631Y-71805565D01*
X147869432Y-71847265D01*
X147869431Y-71847267D01*
X147773261Y-72053502D01*
X147773258Y-72053511D01*
X147714366Y-72273302D01*
X147714364Y-72273313D01*
X147694532Y-72499998D01*
X147694532Y-72500001D01*
X147714364Y-72726686D01*
X147714366Y-72726697D01*
X147773258Y-72946488D01*
X147773261Y-72946497D01*
X147869431Y-73152732D01*
X147869432Y-73152734D01*
X147999954Y-73339141D01*
X148160858Y-73500045D01*
X148160861Y-73500047D01*
X148347266Y-73630568D01*
X148553504Y-73726739D01*
X148553509Y-73726740D01*
X148553511Y-73726741D01*
X148575176Y-73732546D01*
X148773308Y-73785635D01*
X148935230Y-73799801D01*
X148999998Y-73805468D01*
X149000000Y-73805468D01*
X149000002Y-73805468D01*
X149056673Y-73800509D01*
X149226692Y-73785635D01*
X149446496Y-73726739D01*
X149652734Y-73630568D01*
X149839139Y-73500047D01*
X150000047Y-73339139D01*
X150130568Y-73152734D01*
X150226739Y-72946496D01*
X150285635Y-72726692D01*
X150305468Y-72500000D01*
X150301968Y-72460000D01*
X150293088Y-72358501D01*
X150285635Y-72273308D01*
X150226739Y-72053504D01*
X150130568Y-71847266D01*
X150094406Y-71795621D01*
X150072080Y-71729417D01*
X150089090Y-71661650D01*
X150140038Y-71613837D01*
X150195982Y-71600500D01*
X152174903Y-71600500D01*
X152241942Y-71620185D01*
X152262584Y-71636819D01*
X152613181Y-71987416D01*
X152646666Y-72048739D01*
X152649500Y-72075097D01*
X152649500Y-73422870D01*
X152649501Y-73422876D01*
X152655908Y-73482483D01*
X152706202Y-73617328D01*
X152706206Y-73617335D01*
X152792452Y-73732544D01*
X152792455Y-73732547D01*
X152907664Y-73818793D01*
X152907671Y-73818797D01*
X153042517Y-73869091D01*
X153042516Y-73869091D01*
X153049444Y-73869835D01*
X153102127Y-73875500D01*
X154897872Y-73875499D01*
X154957483Y-73869091D01*
X155092331Y-73818796D01*
X155207546Y-73732546D01*
X155293796Y-73617331D01*
X155344091Y-73482483D01*
X155350500Y-73422873D01*
X155350499Y-71627128D01*
X155344091Y-71567517D01*
X155326174Y-71519480D01*
X155293797Y-71432671D01*
X155293793Y-71432664D01*
X155207547Y-71317455D01*
X155207544Y-71317452D01*
X155092335Y-71231206D01*
X155092328Y-71231202D01*
X154960917Y-71182189D01*
X154904983Y-71140318D01*
X154880566Y-71074853D01*
X154895418Y-71006580D01*
X154900346Y-70999996D01*
X161694435Y-70999996D01*
X161694435Y-71000003D01*
X161714630Y-71179249D01*
X161714631Y-71179254D01*
X161774211Y-71349523D01*
X161826457Y-71432671D01*
X161870184Y-71502262D01*
X161997738Y-71629816D01*
X162150478Y-71725789D01*
X162228663Y-71753147D01*
X162320745Y-71785368D01*
X162320750Y-71785369D01*
X162499996Y-71805565D01*
X162500000Y-71805565D01*
X162500004Y-71805565D01*
X162679249Y-71785369D01*
X162679252Y-71785368D01*
X162679255Y-71785368D01*
X162849522Y-71725789D01*
X163002262Y-71629816D01*
X163002267Y-71629810D01*
X163005097Y-71627555D01*
X163007275Y-71626665D01*
X163008158Y-71626111D01*
X163008255Y-71626265D01*
X163069783Y-71601145D01*
X163082412Y-71600500D01*
X163417588Y-71600500D01*
X163484627Y-71620185D01*
X163494903Y-71627555D01*
X163497736Y-71629814D01*
X163497738Y-71629816D01*
X163650478Y-71725789D01*
X163728663Y-71753147D01*
X163820745Y-71785368D01*
X163820750Y-71785369D01*
X163999996Y-71805565D01*
X164000000Y-71805565D01*
X164000004Y-71805565D01*
X164179249Y-71785369D01*
X164179252Y-71785368D01*
X164179255Y-71785368D01*
X164349522Y-71725789D01*
X164502262Y-71629816D01*
X164629816Y-71502262D01*
X164725789Y-71349522D01*
X164785368Y-71179255D01*
X164785904Y-71174500D01*
X164805565Y-71000003D01*
X164805565Y-70999996D01*
X164785369Y-70820750D01*
X164785368Y-70820745D01*
X164783995Y-70816821D01*
X164725789Y-70650478D01*
X164715502Y-70634107D01*
X164680911Y-70579055D01*
X164629816Y-70497738D01*
X164502262Y-70370184D01*
X164349523Y-70274211D01*
X164179254Y-70214631D01*
X164179249Y-70214630D01*
X164000004Y-70194435D01*
X163999996Y-70194435D01*
X163820750Y-70214630D01*
X163820745Y-70214631D01*
X163650476Y-70274211D01*
X163497736Y-70370185D01*
X163494903Y-70372445D01*
X163492724Y-70373334D01*
X163491842Y-70373889D01*
X163491744Y-70373734D01*
X163430217Y-70398855D01*
X163417588Y-70399500D01*
X163082412Y-70399500D01*
X163015373Y-70379815D01*
X163005097Y-70372445D01*
X163002263Y-70370185D01*
X163002262Y-70370184D01*
X162945496Y-70334515D01*
X162849523Y-70274211D01*
X162679254Y-70214631D01*
X162679249Y-70214630D01*
X162500004Y-70194435D01*
X162499996Y-70194435D01*
X162320750Y-70214630D01*
X162320745Y-70214631D01*
X162150476Y-70274211D01*
X161997737Y-70370184D01*
X161870184Y-70497737D01*
X161774211Y-70650476D01*
X161714631Y-70820745D01*
X161714630Y-70820750D01*
X161694435Y-70999996D01*
X154900346Y-70999996D01*
X154916563Y-70978332D01*
X155038495Y-70856401D01*
X155174035Y-70662830D01*
X155273903Y-70448663D01*
X155335063Y-70220408D01*
X155355659Y-69985000D01*
X155335063Y-69749592D01*
X155273903Y-69521337D01*
X155174035Y-69307171D01*
X155144184Y-69264538D01*
X155038494Y-69113597D01*
X154871402Y-68946506D01*
X154871396Y-68946501D01*
X154685842Y-68816575D01*
X154642217Y-68761998D01*
X154635023Y-68692500D01*
X154666546Y-68630145D01*
X154685842Y-68613425D01*
X154847765Y-68500045D01*
X154871401Y-68483495D01*
X155038495Y-68316401D01*
X155174035Y-68122830D01*
X155273903Y-67908663D01*
X155335063Y-67680408D01*
X155355659Y-67445000D01*
X155335063Y-67209592D01*
X155273903Y-66981337D01*
X155174035Y-66767171D01*
X155151795Y-66735408D01*
X155038494Y-66573597D01*
X154871402Y-66406506D01*
X154871395Y-66406501D01*
X154677834Y-66270967D01*
X154677830Y-66270965D01*
X154664163Y-66264592D01*
X154463663Y-66171097D01*
X154463659Y-66171096D01*
X154463655Y-66171094D01*
X154235413Y-66109938D01*
X154235403Y-66109936D01*
X154000001Y-66089341D01*
X153999999Y-66089341D01*
X153764596Y-66109936D01*
X153764586Y-66109938D01*
X153536344Y-66171094D01*
X153536335Y-66171098D01*
X153322171Y-66270964D01*
X153322169Y-66270965D01*
X153128597Y-66406505D01*
X152961505Y-66573597D01*
X152825965Y-66767169D01*
X152825964Y-66767171D01*
X152726098Y-66981335D01*
X152726094Y-66981344D01*
X152664938Y-67209586D01*
X152664936Y-67209596D01*
X152644341Y-67444999D01*
X152644341Y-67445000D01*
X152664936Y-67680403D01*
X152664938Y-67680413D01*
X152726094Y-67908655D01*
X152726096Y-67908659D01*
X152726097Y-67908663D01*
X152812056Y-68093002D01*
X152825965Y-68122830D01*
X152825967Y-68122834D01*
X152905183Y-68235965D01*
X152955305Y-68307547D01*
X152961501Y-68316395D01*
X152961506Y-68316402D01*
X153128597Y-68483493D01*
X153128603Y-68483498D01*
X153314158Y-68613425D01*
X153357783Y-68668002D01*
X153364977Y-68737500D01*
X153333454Y-68799855D01*
X153314158Y-68816575D01*
X153128597Y-68946505D01*
X152961505Y-69113597D01*
X152825965Y-69307169D01*
X152825964Y-69307171D01*
X152726098Y-69521335D01*
X152726094Y-69521344D01*
X152664938Y-69749586D01*
X152664936Y-69749596D01*
X152644341Y-69984999D01*
X152644341Y-69985000D01*
X152664936Y-70220403D01*
X152664939Y-70220416D01*
X152671099Y-70243407D01*
X152669436Y-70313257D01*
X152630272Y-70371119D01*
X152566044Y-70398622D01*
X152551324Y-70399499D01*
X152388347Y-70399499D01*
X152388331Y-70399500D01*
X147586670Y-70399500D01*
X147586654Y-70399499D01*
X147579058Y-70399499D01*
X147420943Y-70399499D01*
X147344579Y-70419961D01*
X147268214Y-70440423D01*
X147268209Y-70440426D01*
X147131290Y-70519475D01*
X147131282Y-70519481D01*
X146819147Y-70831617D01*
X146757824Y-70865102D01*
X146688132Y-70860118D01*
X146632199Y-70818246D01*
X146631148Y-70816821D01*
X146511971Y-70652787D01*
X146511967Y-70652782D01*
X146367213Y-70508028D01*
X146201614Y-70387715D01*
X146174479Y-70373889D01*
X146108917Y-70340483D01*
X146058123Y-70292511D01*
X146041328Y-70224690D01*
X146063865Y-70158555D01*
X146108917Y-70119516D01*
X146201610Y-70072287D01*
X146222770Y-70056913D01*
X146367213Y-69951971D01*
X146367215Y-69951968D01*
X146367219Y-69951966D01*
X146511966Y-69807219D01*
X146511968Y-69807215D01*
X146511971Y-69807213D01*
X146564732Y-69734590D01*
X146632287Y-69641610D01*
X146725220Y-69459219D01*
X146788477Y-69264534D01*
X146820500Y-69062352D01*
X146820500Y-68857648D01*
X146799766Y-68726738D01*
X146788477Y-68655465D01*
X146737978Y-68500047D01*
X146725220Y-68460781D01*
X146725218Y-68460778D01*
X146725218Y-68460776D01*
X146679732Y-68371506D01*
X146632287Y-68278390D01*
X146593392Y-68224855D01*
X146511971Y-68112786D01*
X146367213Y-67968028D01*
X146201614Y-67847715D01*
X146176779Y-67835061D01*
X146108917Y-67800483D01*
X146058123Y-67752511D01*
X146041328Y-67684690D01*
X146063865Y-67618555D01*
X146108917Y-67579516D01*
X146201610Y-67532287D01*
X146246050Y-67500000D01*
X146246053Y-67499998D01*
X147694532Y-67499998D01*
X147694532Y-67500001D01*
X147714364Y-67726686D01*
X147714366Y-67726697D01*
X147773258Y-67946488D01*
X147773261Y-67946497D01*
X147869431Y-68152732D01*
X147869432Y-68152734D01*
X147999954Y-68339141D01*
X148160858Y-68500045D01*
X148160861Y-68500047D01*
X148347266Y-68630568D01*
X148553504Y-68726739D01*
X148553509Y-68726740D01*
X148553511Y-68726741D01*
X148593665Y-68737500D01*
X148773308Y-68785635D01*
X148935230Y-68799801D01*
X148999998Y-68805468D01*
X149000000Y-68805468D01*
X149000002Y-68805468D01*
X149064157Y-68799855D01*
X149226692Y-68785635D01*
X149446496Y-68726739D01*
X149652734Y-68630568D01*
X149839139Y-68500047D01*
X150000047Y-68339139D01*
X150130568Y-68152734D01*
X150226739Y-67946496D01*
X150285635Y-67726692D01*
X150305468Y-67500000D01*
X150285635Y-67273308D01*
X150226739Y-67053504D01*
X150130568Y-66847266D01*
X150000047Y-66660861D01*
X150000045Y-66660858D01*
X149839141Y-66499954D01*
X149652734Y-66369432D01*
X149652732Y-66369431D01*
X149446497Y-66273261D01*
X149446488Y-66273258D01*
X149226697Y-66214366D01*
X149226693Y-66214365D01*
X149226692Y-66214365D01*
X149226691Y-66214364D01*
X149226686Y-66214364D01*
X149000002Y-66194532D01*
X148999998Y-66194532D01*
X148773313Y-66214364D01*
X148773302Y-66214366D01*
X148553511Y-66273258D01*
X148553502Y-66273261D01*
X148347267Y-66369431D01*
X148347265Y-66369432D01*
X148160858Y-66499954D01*
X147999954Y-66660858D01*
X147869432Y-66847265D01*
X147869431Y-66847267D01*
X147773261Y-67053502D01*
X147773258Y-67053511D01*
X147714366Y-67273302D01*
X147714364Y-67273313D01*
X147694532Y-67499998D01*
X146246053Y-67499998D01*
X146367213Y-67411971D01*
X146367215Y-67411968D01*
X146367219Y-67411966D01*
X146511966Y-67267219D01*
X146511968Y-67267215D01*
X146511971Y-67267213D01*
X146577093Y-67177578D01*
X146632287Y-67101610D01*
X146725220Y-66919219D01*
X146788477Y-66724534D01*
X146820500Y-66522352D01*
X146820500Y-66317648D01*
X146806396Y-66228599D01*
X146788477Y-66115465D01*
X146725218Y-65920776D01*
X146680947Y-65833890D01*
X146632287Y-65738390D01*
X146601463Y-65695964D01*
X146511971Y-65572786D01*
X146367213Y-65428028D01*
X146201613Y-65307715D01*
X146201612Y-65307714D01*
X146201610Y-65307713D01*
X146144653Y-65278691D01*
X146019223Y-65214781D01*
X145824534Y-65151522D01*
X145649995Y-65123878D01*
X145622352Y-65119500D01*
X144617648Y-65119500D01*
X144593329Y-65123351D01*
X144415465Y-65151522D01*
X144220776Y-65214781D01*
X144038386Y-65307715D01*
X143872786Y-65428028D01*
X143728028Y-65572786D01*
X143607715Y-65738386D01*
X143514781Y-65920776D01*
X143451522Y-66115465D01*
X143419500Y-66317648D01*
X143419500Y-66522351D01*
X143451522Y-66724534D01*
X143514781Y-66919223D01*
X143546434Y-66981344D01*
X143606892Y-67099999D01*
X143607715Y-67101613D01*
X143728028Y-67267213D01*
X143872786Y-67411971D01*
X144027749Y-67524556D01*
X144038390Y-67532287D01*
X144099969Y-67563663D01*
X144131080Y-67579515D01*
X144181876Y-67627490D01*
X144198671Y-67695311D01*
X144176134Y-67761446D01*
X144131080Y-67800485D01*
X144038386Y-67847715D01*
X143872786Y-67968028D01*
X143728028Y-68112786D01*
X143607715Y-68278386D01*
X143514781Y-68460776D01*
X143451522Y-68655465D01*
X143419500Y-68857648D01*
X143419500Y-69062351D01*
X143451522Y-69264534D01*
X143514781Y-69459223D01*
X143578691Y-69584653D01*
X143595537Y-69617714D01*
X143607715Y-69641613D01*
X143728028Y-69807213D01*
X143872786Y-69951971D01*
X144027749Y-70064556D01*
X144038390Y-70072287D01*
X144129840Y-70118883D01*
X144131080Y-70119515D01*
X144181876Y-70167490D01*
X144198671Y-70235311D01*
X144176134Y-70301446D01*
X144131080Y-70340485D01*
X144038386Y-70387715D01*
X143872786Y-70508028D01*
X143728028Y-70652786D01*
X143607715Y-70818386D01*
X143533539Y-70963964D01*
X143485564Y-71014760D01*
X143417743Y-71031555D01*
X143361055Y-71015057D01*
X143281904Y-70969360D01*
X143281904Y-70969359D01*
X143281900Y-70969358D01*
X143231785Y-70940423D01*
X143079057Y-70899499D01*
X142920943Y-70899499D01*
X142913347Y-70899499D01*
X142913331Y-70899500D01*
X139129602Y-70899500D01*
X139062563Y-70879815D01*
X139019117Y-70831795D01*
X139012287Y-70818390D01*
X139012285Y-70818387D01*
X139012284Y-70818385D01*
X138891971Y-70652786D01*
X138747213Y-70508028D01*
X138581614Y-70387715D01*
X138554479Y-70373889D01*
X138488917Y-70340483D01*
X138438123Y-70292511D01*
X138421328Y-70224690D01*
X138443865Y-70158555D01*
X138488917Y-70119516D01*
X138581610Y-70072287D01*
X138602770Y-70056913D01*
X138747213Y-69951971D01*
X138747215Y-69951968D01*
X138747219Y-69951966D01*
X138891966Y-69807219D01*
X138891968Y-69807215D01*
X138891971Y-69807213D01*
X138944732Y-69734590D01*
X139012287Y-69641610D01*
X139105220Y-69459219D01*
X139168477Y-69264534D01*
X139200500Y-69062352D01*
X139200500Y-68857648D01*
X139179766Y-68726738D01*
X139168477Y-68655465D01*
X139117978Y-68500047D01*
X139105220Y-68460781D01*
X139105218Y-68460778D01*
X139105218Y-68460776D01*
X139059732Y-68371506D01*
X139012287Y-68278390D01*
X138973392Y-68224855D01*
X138891971Y-68112786D01*
X138747219Y-67968034D01*
X138747211Y-67968028D01*
X138710929Y-67941668D01*
X138668264Y-67886339D01*
X138662285Y-67816726D01*
X138694890Y-67754931D01*
X138755728Y-67720573D01*
X138770562Y-67718060D01*
X138807483Y-67714091D01*
X138807488Y-67714089D01*
X138942331Y-67663796D01*
X139057546Y-67577546D01*
X139143796Y-67462331D01*
X139194091Y-67327483D01*
X139200500Y-67267873D01*
X139200499Y-65572128D01*
X139194091Y-65512517D01*
X139175063Y-65461501D01*
X139143797Y-65377671D01*
X139143793Y-65377664D01*
X139057547Y-65262455D01*
X139057544Y-65262452D01*
X138942335Y-65176206D01*
X138942328Y-65176202D01*
X138807482Y-65125908D01*
X138807483Y-65125908D01*
X138747883Y-65119501D01*
X138747881Y-65119500D01*
X138747873Y-65119500D01*
X138747864Y-65119500D01*
X136252129Y-65119500D01*
X136252123Y-65119501D01*
X136192516Y-65125908D01*
X136057671Y-65176202D01*
X136057664Y-65176206D01*
X135942455Y-65262452D01*
X135942452Y-65262455D01*
X135856206Y-65377664D01*
X135856202Y-65377671D01*
X135805908Y-65512517D01*
X135799722Y-65570058D01*
X135799501Y-65572123D01*
X135799500Y-65572135D01*
X135799500Y-67267870D01*
X135799501Y-67267876D01*
X135805908Y-67327483D01*
X135856202Y-67462328D01*
X135856206Y-67462335D01*
X135942452Y-67577544D01*
X135942455Y-67577547D01*
X136057664Y-67663793D01*
X136057671Y-67663797D01*
X136085121Y-67674035D01*
X136192517Y-67714091D01*
X136229441Y-67718060D01*
X136293989Y-67744796D01*
X136333838Y-67802188D01*
X136336333Y-67872013D01*
X136300681Y-67932102D01*
X136289071Y-67941666D01*
X136252784Y-67968030D01*
X136108028Y-68112786D01*
X135987715Y-68278386D01*
X135894781Y-68460776D01*
X135831522Y-68655465D01*
X135799500Y-68857648D01*
X135799500Y-69062351D01*
X135831523Y-69264535D01*
X135831523Y-69264538D01*
X135894779Y-69459218D01*
X135894779Y-69459219D01*
X135940547Y-69549045D01*
X135953443Y-69617714D01*
X135927166Y-69682455D01*
X135917743Y-69693020D01*
X135131286Y-70479478D01*
X135019481Y-70591282D01*
X135019479Y-70591284D01*
X135010073Y-70607577D01*
X134994757Y-70634106D01*
X134940423Y-70728215D01*
X134899499Y-70880943D01*
X134899499Y-70880945D01*
X134899499Y-71049046D01*
X134899500Y-71049059D01*
X134899500Y-114199902D01*
X134879815Y-114266941D01*
X134863181Y-114287583D01*
X134657584Y-114493181D01*
X134596261Y-114526666D01*
X134569903Y-114529500D01*
X130954091Y-114529500D01*
X130887052Y-114509815D01*
X130841711Y-114457909D01*
X130839037Y-114452175D01*
X130839034Y-114452170D01*
X130839033Y-114452169D01*
X130728829Y-114294780D01*
X130703494Y-114258597D01*
X130536402Y-114091506D01*
X130536396Y-114091501D01*
X130350842Y-113961575D01*
X130307217Y-113906998D01*
X130300023Y-113837500D01*
X130331546Y-113775145D01*
X130350842Y-113758425D01*
X130452013Y-113687584D01*
X130536401Y-113628495D01*
X130703495Y-113461401D01*
X130839035Y-113267830D01*
X130938903Y-113053663D01*
X131000063Y-112825408D01*
X131020659Y-112590000D01*
X131000063Y-112354592D01*
X130938903Y-112126337D01*
X130839035Y-111912171D01*
X130808524Y-111868597D01*
X130703496Y-111718600D01*
X130669586Y-111684690D01*
X130581179Y-111596283D01*
X130547696Y-111534963D01*
X130552680Y-111465271D01*
X130594551Y-111409337D01*
X130625529Y-111392422D01*
X130757086Y-111343354D01*
X130757093Y-111343350D01*
X130872187Y-111257190D01*
X130872190Y-111257187D01*
X130958350Y-111142093D01*
X130958354Y-111142086D01*
X131008596Y-111007379D01*
X131008598Y-111007372D01*
X131014999Y-110947844D01*
X131015000Y-110947827D01*
X131015000Y-110300000D01*
X130109560Y-110300000D01*
X130140245Y-110246853D01*
X130175000Y-110117143D01*
X130175000Y-109982857D01*
X130140245Y-109853147D01*
X130109560Y-109800000D01*
X131015000Y-109800000D01*
X131015000Y-109152172D01*
X131014999Y-109152155D01*
X131008598Y-109092627D01*
X131008596Y-109092620D01*
X130958354Y-108957913D01*
X130958350Y-108957906D01*
X130872190Y-108842812D01*
X130872187Y-108842809D01*
X130757093Y-108756649D01*
X130757088Y-108756646D01*
X130625528Y-108707577D01*
X130569595Y-108665705D01*
X130545178Y-108600241D01*
X130560030Y-108531968D01*
X130581175Y-108503720D01*
X130703495Y-108381401D01*
X130839035Y-108187830D01*
X130938903Y-107973663D01*
X131000063Y-107745408D01*
X131020659Y-107510000D01*
X131000063Y-107274592D01*
X130938903Y-107046337D01*
X130839035Y-106832171D01*
X130831035Y-106820745D01*
X130703494Y-106638597D01*
X130536402Y-106471506D01*
X130536396Y-106471501D01*
X130350842Y-106341575D01*
X130307217Y-106286998D01*
X130300023Y-106217500D01*
X130331546Y-106155145D01*
X130350842Y-106138425D01*
X130463668Y-106059423D01*
X130536401Y-106008495D01*
X130703495Y-105841401D01*
X130839035Y-105647830D01*
X130938903Y-105433663D01*
X131000063Y-105205408D01*
X131020659Y-104970000D01*
X131000063Y-104734592D01*
X130938903Y-104506337D01*
X130839035Y-104292171D01*
X130839034Y-104292169D01*
X130703494Y-104098597D01*
X130536402Y-103931506D01*
X130536396Y-103931501D01*
X130350842Y-103801575D01*
X130307217Y-103746998D01*
X130300023Y-103677500D01*
X130331546Y-103615145D01*
X130350842Y-103598425D01*
X130469452Y-103515373D01*
X130536401Y-103468495D01*
X130703495Y-103301401D01*
X130839035Y-103107830D01*
X130938903Y-102893663D01*
X131000063Y-102665408D01*
X131020659Y-102430000D01*
X131000063Y-102194592D01*
X130938903Y-101966337D01*
X130839035Y-101752171D01*
X130820899Y-101726269D01*
X130703494Y-101558597D01*
X130536402Y-101391506D01*
X130536396Y-101391501D01*
X130350842Y-101261575D01*
X130307217Y-101206998D01*
X130300023Y-101137500D01*
X130331546Y-101075145D01*
X130350842Y-101058425D01*
X130437513Y-100997737D01*
X130536401Y-100928495D01*
X130703495Y-100761401D01*
X130839035Y-100567830D01*
X130938903Y-100353663D01*
X131000063Y-100125408D01*
X131020659Y-99890000D01*
X131000063Y-99654592D01*
X130938903Y-99426337D01*
X130839035Y-99212171D01*
X130815986Y-99179254D01*
X130703496Y-99018600D01*
X130669586Y-98984690D01*
X130581179Y-98896283D01*
X130547696Y-98834963D01*
X130552680Y-98765271D01*
X130594551Y-98709337D01*
X130625529Y-98692422D01*
X130757086Y-98643354D01*
X130757093Y-98643350D01*
X130872187Y-98557190D01*
X130872190Y-98557187D01*
X130958350Y-98442093D01*
X130958354Y-98442086D01*
X131008596Y-98307379D01*
X131008598Y-98307372D01*
X131014999Y-98247844D01*
X131015000Y-98247827D01*
X131015000Y-97600000D01*
X130109560Y-97600000D01*
X130140245Y-97546853D01*
X130175000Y-97417143D01*
X130175000Y-97282857D01*
X130140245Y-97153147D01*
X130109560Y-97100000D01*
X131015000Y-97100000D01*
X131015000Y-96452172D01*
X131014999Y-96452155D01*
X131008598Y-96392627D01*
X131008596Y-96392620D01*
X130958354Y-96257913D01*
X130958350Y-96257906D01*
X130872190Y-96142812D01*
X130872187Y-96142809D01*
X130757093Y-96056649D01*
X130757088Y-96056646D01*
X130625528Y-96007577D01*
X130569595Y-95965705D01*
X130545178Y-95900241D01*
X130560030Y-95831968D01*
X130581175Y-95803720D01*
X130703495Y-95681401D01*
X130839035Y-95487830D01*
X130938903Y-95273663D01*
X131000063Y-95045408D01*
X131020659Y-94810000D01*
X131000063Y-94574592D01*
X130938903Y-94346337D01*
X130839035Y-94132171D01*
X130808525Y-94088597D01*
X130703494Y-93938597D01*
X130536402Y-93771506D01*
X130536396Y-93771501D01*
X130350842Y-93641575D01*
X130307217Y-93586998D01*
X130300023Y-93517500D01*
X130331546Y-93455145D01*
X130350842Y-93438425D01*
X130373026Y-93422891D01*
X130536401Y-93308495D01*
X130703495Y-93141401D01*
X130839035Y-92947830D01*
X130938903Y-92733663D01*
X131000063Y-92505408D01*
X131020659Y-92270000D01*
X131000063Y-92034592D01*
X130938903Y-91806337D01*
X130839035Y-91592171D01*
X130808525Y-91548597D01*
X130703494Y-91398597D01*
X130536402Y-91231506D01*
X130536396Y-91231501D01*
X130350842Y-91101575D01*
X130307217Y-91046998D01*
X130300023Y-90977500D01*
X130331546Y-90915145D01*
X130350842Y-90898425D01*
X130420681Y-90849523D01*
X130536401Y-90768495D01*
X130703495Y-90601401D01*
X130839035Y-90407830D01*
X130938903Y-90193663D01*
X131000063Y-89965408D01*
X131020659Y-89730000D01*
X131019314Y-89714632D01*
X131010767Y-89616936D01*
X131000063Y-89494592D01*
X130938903Y-89266337D01*
X130839035Y-89052171D01*
X130808525Y-89008597D01*
X130703494Y-88858597D01*
X130536402Y-88691506D01*
X130536396Y-88691501D01*
X130350842Y-88561575D01*
X130307217Y-88506998D01*
X130300023Y-88437500D01*
X130331546Y-88375145D01*
X130350842Y-88358425D01*
X130373026Y-88342891D01*
X130536401Y-88228495D01*
X130703495Y-88061401D01*
X130839035Y-87867830D01*
X130938903Y-87653663D01*
X131000063Y-87425408D01*
X131020659Y-87190000D01*
X131000063Y-86954592D01*
X130938903Y-86726337D01*
X130839035Y-86512171D01*
X130828926Y-86497734D01*
X130703496Y-86318600D01*
X130669586Y-86284690D01*
X130581179Y-86196283D01*
X130547696Y-86134963D01*
X130552680Y-86065271D01*
X130594551Y-86009337D01*
X130625529Y-85992422D01*
X130757086Y-85943354D01*
X130757093Y-85943350D01*
X130872187Y-85857190D01*
X130872190Y-85857187D01*
X130958350Y-85742093D01*
X130958354Y-85742086D01*
X131008596Y-85607379D01*
X131008598Y-85607372D01*
X131014999Y-85547844D01*
X131015000Y-85547827D01*
X131015000Y-84900000D01*
X130109560Y-84900000D01*
X130140245Y-84846853D01*
X130175000Y-84717143D01*
X130175000Y-84582857D01*
X130140245Y-84453147D01*
X130109560Y-84400000D01*
X131015000Y-84400000D01*
X131015000Y-83752172D01*
X131014999Y-83752155D01*
X131008598Y-83692627D01*
X131008596Y-83692620D01*
X130958354Y-83557913D01*
X130958350Y-83557906D01*
X130872190Y-83442812D01*
X130872187Y-83442809D01*
X130757093Y-83356649D01*
X130757088Y-83356646D01*
X130625528Y-83307577D01*
X130569595Y-83265705D01*
X130545178Y-83200241D01*
X130560030Y-83131968D01*
X130581175Y-83103720D01*
X130703495Y-82981401D01*
X130839035Y-82787830D01*
X130938903Y-82573663D01*
X131000063Y-82345408D01*
X131020659Y-82110000D01*
X131000063Y-81874592D01*
X130938903Y-81646337D01*
X130839035Y-81432171D01*
X130808751Y-81388920D01*
X130703494Y-81238597D01*
X130536402Y-81071506D01*
X130536396Y-81071501D01*
X130350842Y-80941575D01*
X130307217Y-80886998D01*
X130300023Y-80817500D01*
X130331546Y-80755145D01*
X130350842Y-80738425D01*
X130495950Y-80636819D01*
X130536401Y-80608495D01*
X130703495Y-80441401D01*
X130839035Y-80247830D01*
X130938903Y-80033663D01*
X131000063Y-79805408D01*
X131020659Y-79570000D01*
X131000063Y-79334592D01*
X130938903Y-79106337D01*
X130839035Y-78892171D01*
X130830384Y-78879815D01*
X130703494Y-78698597D01*
X130536402Y-78531506D01*
X130536396Y-78531501D01*
X130350842Y-78401575D01*
X130307217Y-78346998D01*
X130300023Y-78277500D01*
X130331546Y-78215145D01*
X130350842Y-78198425D01*
X130516525Y-78082412D01*
X130536401Y-78068495D01*
X130703495Y-77901401D01*
X130839035Y-77707830D01*
X130938903Y-77493663D01*
X131000063Y-77265408D01*
X131020659Y-77030000D01*
X131000063Y-76794592D01*
X130938903Y-76566337D01*
X130839035Y-76352171D01*
X130835181Y-76346666D01*
X130703494Y-76158597D01*
X130536402Y-75991506D01*
X130536396Y-75991501D01*
X130350842Y-75861575D01*
X130307217Y-75806998D01*
X130300023Y-75737500D01*
X130331546Y-75675145D01*
X130350842Y-75658425D01*
X130392979Y-75628920D01*
X130536401Y-75528495D01*
X130703495Y-75361401D01*
X130839035Y-75167830D01*
X130938903Y-74953663D01*
X131000063Y-74725408D01*
X131020659Y-74490000D01*
X131000063Y-74254592D01*
X130938903Y-74026337D01*
X130839035Y-73812171D01*
X130820454Y-73785635D01*
X130703496Y-73618600D01*
X130702224Y-73617328D01*
X130581179Y-73496283D01*
X130547696Y-73434963D01*
X130552680Y-73365271D01*
X130594551Y-73309337D01*
X130625529Y-73292422D01*
X130757086Y-73243354D01*
X130757093Y-73243350D01*
X130872187Y-73157190D01*
X130872190Y-73157187D01*
X130958350Y-73042093D01*
X130958354Y-73042086D01*
X131008596Y-72907379D01*
X131008598Y-72907372D01*
X131014999Y-72847844D01*
X131015000Y-72847827D01*
X131015000Y-72200000D01*
X130109560Y-72200000D01*
X130140245Y-72146853D01*
X130175000Y-72017143D01*
X130175000Y-71882857D01*
X130140245Y-71753147D01*
X130109560Y-71700000D01*
X131015000Y-71700000D01*
X131015000Y-71052172D01*
X131014999Y-71052155D01*
X131008598Y-70992627D01*
X131008596Y-70992620D01*
X130958354Y-70857913D01*
X130958350Y-70857906D01*
X130872190Y-70742812D01*
X130872187Y-70742809D01*
X130757093Y-70656649D01*
X130757088Y-70656646D01*
X130625528Y-70607577D01*
X130569595Y-70565705D01*
X130545178Y-70500241D01*
X130560030Y-70431968D01*
X130581175Y-70403720D01*
X130703495Y-70281401D01*
X130839035Y-70087830D01*
X130938903Y-69873663D01*
X131000063Y-69645408D01*
X131020659Y-69410000D01*
X131000063Y-69174592D01*
X130938903Y-68946337D01*
X130839035Y-68732171D01*
X130835232Y-68726739D01*
X130703494Y-68538597D01*
X130536402Y-68371506D01*
X130536396Y-68371501D01*
X130350842Y-68241575D01*
X130307217Y-68186998D01*
X130300023Y-68117500D01*
X130331546Y-68055145D01*
X130350842Y-68038425D01*
X130382055Y-68016569D01*
X130536401Y-67908495D01*
X130703495Y-67741401D01*
X130839035Y-67547830D01*
X130938903Y-67333663D01*
X131000063Y-67105408D01*
X131020659Y-66870000D01*
X131000063Y-66634592D01*
X130938903Y-66406337D01*
X130839035Y-66192171D01*
X130823552Y-66170058D01*
X130703494Y-65998597D01*
X130536402Y-65831506D01*
X130536395Y-65831501D01*
X130528677Y-65826097D01*
X130441334Y-65764938D01*
X130342834Y-65695967D01*
X130342830Y-65695965D01*
X130342828Y-65695964D01*
X130128663Y-65596097D01*
X130128659Y-65596096D01*
X130128655Y-65596094D01*
X129900413Y-65534938D01*
X129900403Y-65534936D01*
X129665001Y-65514341D01*
X129664999Y-65514341D01*
X129429596Y-65534936D01*
X129429586Y-65534938D01*
X129201344Y-65596094D01*
X129201335Y-65596098D01*
X128987171Y-65695964D01*
X128987169Y-65695965D01*
X128793597Y-65831505D01*
X128626505Y-65998597D01*
X128490965Y-66192169D01*
X128490964Y-66192171D01*
X128391098Y-66406335D01*
X128391094Y-66406344D01*
X128329938Y-66634586D01*
X128329936Y-66634596D01*
X128309341Y-66869999D01*
X128309341Y-66870000D01*
X128329936Y-67105403D01*
X128329938Y-67105413D01*
X128391094Y-67333655D01*
X128391096Y-67333659D01*
X128391097Y-67333663D01*
X128468662Y-67500001D01*
X128490965Y-67547830D01*
X128490967Y-67547834D01*
X128583794Y-67680403D01*
X128616201Y-67726686D01*
X128626501Y-67741395D01*
X128626506Y-67741402D01*
X128793597Y-67908493D01*
X128793603Y-67908498D01*
X128979158Y-68038425D01*
X129022783Y-68093002D01*
X129029977Y-68162500D01*
X128998454Y-68224855D01*
X128979158Y-68241575D01*
X128793597Y-68371505D01*
X128626505Y-68538597D01*
X128490965Y-68732169D01*
X128490964Y-68732171D01*
X128391098Y-68946335D01*
X128391094Y-68946344D01*
X128329938Y-69174586D01*
X128329936Y-69174596D01*
X128309341Y-69409999D01*
X128309341Y-69410000D01*
X128329936Y-69645403D01*
X128329938Y-69645413D01*
X128391094Y-69873655D01*
X128391096Y-69873659D01*
X128391097Y-69873663D01*
X128483716Y-70072284D01*
X128490965Y-70087830D01*
X128490967Y-70087834D01*
X128569439Y-70199903D01*
X128626501Y-70281396D01*
X128626506Y-70281402D01*
X128748818Y-70403714D01*
X128782303Y-70465037D01*
X128777319Y-70534729D01*
X128735447Y-70590662D01*
X128704471Y-70607577D01*
X128572912Y-70656646D01*
X128572906Y-70656649D01*
X128457812Y-70742809D01*
X128457809Y-70742812D01*
X128371649Y-70857906D01*
X128371645Y-70857913D01*
X128321403Y-70992620D01*
X128321401Y-70992627D01*
X128315000Y-71052155D01*
X128315000Y-71700000D01*
X129220440Y-71700000D01*
X129189755Y-71753147D01*
X129155000Y-71882857D01*
X129155000Y-72017143D01*
X129189755Y-72146853D01*
X129220440Y-72200000D01*
X128315000Y-72200000D01*
X128315000Y-72847844D01*
X128321401Y-72907372D01*
X128321403Y-72907379D01*
X128371645Y-73042086D01*
X128371649Y-73042093D01*
X128457809Y-73157187D01*
X128457812Y-73157190D01*
X128572906Y-73243350D01*
X128572913Y-73243354D01*
X128704470Y-73292421D01*
X128760403Y-73334292D01*
X128784821Y-73399756D01*
X128769970Y-73468029D01*
X128748819Y-73496284D01*
X128626503Y-73618600D01*
X128490965Y-73812169D01*
X128490964Y-73812171D01*
X128391098Y-74026335D01*
X128391094Y-74026344D01*
X128329938Y-74254586D01*
X128329936Y-74254596D01*
X128309341Y-74489999D01*
X128309341Y-74490000D01*
X128329936Y-74725403D01*
X128329938Y-74725413D01*
X128391094Y-74953655D01*
X128391096Y-74953659D01*
X128391097Y-74953663D01*
X128483716Y-75152284D01*
X128490965Y-75167830D01*
X128490967Y-75167834D01*
X128626501Y-75361395D01*
X128626506Y-75361402D01*
X128793597Y-75528493D01*
X128793603Y-75528498D01*
X128979158Y-75658425D01*
X129022783Y-75713002D01*
X129029977Y-75782500D01*
X128998454Y-75844855D01*
X128979158Y-75861575D01*
X128793597Y-75991505D01*
X128626505Y-76158597D01*
X128490965Y-76352169D01*
X128490964Y-76352171D01*
X128391098Y-76566335D01*
X128391094Y-76566344D01*
X128329938Y-76794586D01*
X128329936Y-76794596D01*
X128309341Y-77029999D01*
X128309341Y-77030000D01*
X128329936Y-77265403D01*
X128329938Y-77265413D01*
X128391094Y-77493655D01*
X128391096Y-77493659D01*
X128391097Y-77493663D01*
X128435575Y-77589046D01*
X128490965Y-77707830D01*
X128490967Y-77707834D01*
X128626501Y-77901395D01*
X128626506Y-77901402D01*
X128793597Y-78068493D01*
X128793603Y-78068498D01*
X128979158Y-78198425D01*
X129022783Y-78253002D01*
X129029977Y-78322500D01*
X128998454Y-78384855D01*
X128979158Y-78401575D01*
X128793597Y-78531505D01*
X128626505Y-78698597D01*
X128490965Y-78892169D01*
X128490964Y-78892171D01*
X128391098Y-79106335D01*
X128391094Y-79106344D01*
X128329938Y-79334586D01*
X128329936Y-79334596D01*
X128309341Y-79569999D01*
X128309341Y-79570000D01*
X128329936Y-79805403D01*
X128329938Y-79805413D01*
X128391094Y-80033655D01*
X128391096Y-80033659D01*
X128391097Y-80033663D01*
X128461044Y-80183664D01*
X128490965Y-80247830D01*
X128490967Y-80247834D01*
X128626501Y-80441395D01*
X128626506Y-80441402D01*
X128793597Y-80608493D01*
X128793603Y-80608498D01*
X128979158Y-80738425D01*
X129022783Y-80793002D01*
X129029977Y-80862500D01*
X128998454Y-80924855D01*
X128979158Y-80941575D01*
X128793597Y-81071505D01*
X128626505Y-81238597D01*
X128490965Y-81432169D01*
X128490964Y-81432171D01*
X128391098Y-81646335D01*
X128391094Y-81646344D01*
X128329938Y-81874586D01*
X128329936Y-81874596D01*
X128309341Y-82109999D01*
X128309341Y-82110000D01*
X128329936Y-82345403D01*
X128329938Y-82345413D01*
X128391094Y-82573655D01*
X128391096Y-82573659D01*
X128391097Y-82573663D01*
X128395149Y-82582352D01*
X128490965Y-82787830D01*
X128490967Y-82787834D01*
X128595820Y-82937578D01*
X128626501Y-82981396D01*
X128626506Y-82981402D01*
X128748818Y-83103714D01*
X128782303Y-83165037D01*
X128777319Y-83234729D01*
X128735447Y-83290662D01*
X128704471Y-83307577D01*
X128572912Y-83356646D01*
X128572906Y-83356649D01*
X128457812Y-83442809D01*
X128457809Y-83442812D01*
X128371649Y-83557906D01*
X128371645Y-83557913D01*
X128321403Y-83692620D01*
X128321401Y-83692627D01*
X128315000Y-83752155D01*
X128315000Y-84400000D01*
X129220440Y-84400000D01*
X129189755Y-84453147D01*
X129155000Y-84582857D01*
X129155000Y-84717143D01*
X129189755Y-84846853D01*
X129220440Y-84900000D01*
X128315000Y-84900000D01*
X128315000Y-85547844D01*
X128321401Y-85607372D01*
X128321403Y-85607379D01*
X128371645Y-85742086D01*
X128371649Y-85742093D01*
X128457809Y-85857187D01*
X128457812Y-85857190D01*
X128572906Y-85943350D01*
X128572913Y-85943354D01*
X128704470Y-85992421D01*
X128760403Y-86034292D01*
X128784821Y-86099756D01*
X128769970Y-86168029D01*
X128748819Y-86196284D01*
X128626503Y-86318600D01*
X128490965Y-86512169D01*
X128490964Y-86512171D01*
X128391098Y-86726335D01*
X128391094Y-86726344D01*
X128329938Y-86954586D01*
X128329936Y-86954596D01*
X128309341Y-87189999D01*
X128309341Y-87190000D01*
X128329936Y-87425403D01*
X128329938Y-87425413D01*
X128391094Y-87653655D01*
X128391096Y-87653659D01*
X128391097Y-87653663D01*
X128463998Y-87810000D01*
X128490965Y-87867830D01*
X128490967Y-87867834D01*
X128626501Y-88061395D01*
X128626506Y-88061402D01*
X128793597Y-88228493D01*
X128793603Y-88228498D01*
X128979158Y-88358425D01*
X129022783Y-88413002D01*
X129029977Y-88482500D01*
X128998454Y-88544855D01*
X128979158Y-88561575D01*
X128793597Y-88691505D01*
X128626505Y-88858597D01*
X128490965Y-89052169D01*
X128490964Y-89052171D01*
X128391098Y-89266335D01*
X128391094Y-89266344D01*
X128329938Y-89494586D01*
X128329936Y-89494596D01*
X128309341Y-89729999D01*
X128309341Y-89730000D01*
X128329936Y-89965403D01*
X128329938Y-89965413D01*
X128391094Y-90193655D01*
X128391096Y-90193659D01*
X128391097Y-90193663D01*
X128461044Y-90343664D01*
X128490965Y-90407830D01*
X128490967Y-90407834D01*
X128626501Y-90601395D01*
X128626506Y-90601402D01*
X128793597Y-90768493D01*
X128793603Y-90768498D01*
X128979158Y-90898425D01*
X129022783Y-90953002D01*
X129029977Y-91022500D01*
X128998454Y-91084855D01*
X128979158Y-91101575D01*
X128793597Y-91231505D01*
X128626505Y-91398597D01*
X128490965Y-91592169D01*
X128490964Y-91592171D01*
X128391098Y-91806335D01*
X128391094Y-91806344D01*
X128329938Y-92034586D01*
X128329936Y-92034596D01*
X128309341Y-92269999D01*
X128309341Y-92270000D01*
X128329936Y-92505403D01*
X128329938Y-92505413D01*
X128391094Y-92733655D01*
X128391096Y-92733659D01*
X128391097Y-92733663D01*
X128487029Y-92939389D01*
X128490965Y-92947830D01*
X128490967Y-92947834D01*
X128626501Y-93141395D01*
X128626506Y-93141402D01*
X128793597Y-93308493D01*
X128793603Y-93308498D01*
X128979158Y-93438425D01*
X129022783Y-93493002D01*
X129029977Y-93562500D01*
X128998454Y-93624855D01*
X128979158Y-93641575D01*
X128793597Y-93771505D01*
X128626505Y-93938597D01*
X128490965Y-94132169D01*
X128490964Y-94132171D01*
X128391098Y-94346335D01*
X128391094Y-94346344D01*
X128329938Y-94574586D01*
X128329936Y-94574596D01*
X128309341Y-94809999D01*
X128309341Y-94810000D01*
X128329936Y-95045403D01*
X128329938Y-95045413D01*
X128391094Y-95273655D01*
X128391096Y-95273659D01*
X128391097Y-95273663D01*
X128461044Y-95423664D01*
X128490965Y-95487830D01*
X128490967Y-95487834D01*
X128548349Y-95569783D01*
X128626501Y-95681396D01*
X128626506Y-95681402D01*
X128748818Y-95803714D01*
X128782303Y-95865037D01*
X128777319Y-95934729D01*
X128735447Y-95990662D01*
X128704471Y-96007577D01*
X128572912Y-96056646D01*
X128572906Y-96056649D01*
X128457812Y-96142809D01*
X128457809Y-96142812D01*
X128371649Y-96257906D01*
X128371645Y-96257913D01*
X128321403Y-96392620D01*
X128321401Y-96392627D01*
X128315000Y-96452155D01*
X128315000Y-97100000D01*
X129220440Y-97100000D01*
X129189755Y-97153147D01*
X129155000Y-97282857D01*
X129155000Y-97417143D01*
X129189755Y-97546853D01*
X129220440Y-97600000D01*
X128315000Y-97600000D01*
X128315000Y-98247844D01*
X128321401Y-98307372D01*
X128321403Y-98307379D01*
X128371645Y-98442086D01*
X128371649Y-98442093D01*
X128457809Y-98557187D01*
X128457812Y-98557190D01*
X128572906Y-98643350D01*
X128572913Y-98643354D01*
X128704470Y-98692421D01*
X128760403Y-98734292D01*
X128784821Y-98799756D01*
X128769970Y-98868029D01*
X128748819Y-98896284D01*
X128626503Y-99018600D01*
X128490965Y-99212169D01*
X128490964Y-99212171D01*
X128391098Y-99426335D01*
X128391094Y-99426344D01*
X128329938Y-99654586D01*
X128329936Y-99654596D01*
X128309341Y-99889999D01*
X128309341Y-99890000D01*
X128329936Y-100125403D01*
X128329938Y-100125413D01*
X128391094Y-100353655D01*
X128391096Y-100353659D01*
X128391097Y-100353663D01*
X128461044Y-100503664D01*
X128490965Y-100567830D01*
X128490967Y-100567834D01*
X128626501Y-100761395D01*
X128626506Y-100761402D01*
X128793597Y-100928493D01*
X128793603Y-100928498D01*
X128979158Y-101058425D01*
X129022783Y-101113002D01*
X129029977Y-101182500D01*
X128998454Y-101244855D01*
X128979158Y-101261575D01*
X128793597Y-101391505D01*
X128626505Y-101558597D01*
X128490965Y-101752169D01*
X128490964Y-101752171D01*
X128391098Y-101966335D01*
X128391094Y-101966344D01*
X128329938Y-102194586D01*
X128329936Y-102194596D01*
X128309341Y-102429999D01*
X128309341Y-102430000D01*
X128329936Y-102665403D01*
X128329938Y-102665413D01*
X128391094Y-102893655D01*
X128391096Y-102893659D01*
X128391097Y-102893663D01*
X128461044Y-103043664D01*
X128490965Y-103107830D01*
X128490967Y-103107834D01*
X128626501Y-103301395D01*
X128626506Y-103301402D01*
X128793597Y-103468493D01*
X128793603Y-103468498D01*
X128979158Y-103598425D01*
X129022783Y-103653002D01*
X129029977Y-103722500D01*
X128998454Y-103784855D01*
X128979158Y-103801575D01*
X128793597Y-103931505D01*
X128626505Y-104098597D01*
X128490965Y-104292169D01*
X128490964Y-104292171D01*
X128391098Y-104506335D01*
X128391094Y-104506344D01*
X128329938Y-104734586D01*
X128329936Y-104734596D01*
X128309341Y-104969999D01*
X128309341Y-104970000D01*
X128329936Y-105205403D01*
X128329938Y-105205413D01*
X128391094Y-105433655D01*
X128391096Y-105433659D01*
X128391097Y-105433663D01*
X128463560Y-105589059D01*
X128490965Y-105647830D01*
X128490967Y-105647834D01*
X128626501Y-105841395D01*
X128626506Y-105841402D01*
X128793597Y-106008493D01*
X128793603Y-106008498D01*
X128979158Y-106138425D01*
X129022783Y-106193002D01*
X129029977Y-106262500D01*
X128998454Y-106324855D01*
X128979158Y-106341575D01*
X128793597Y-106471505D01*
X128626505Y-106638597D01*
X128490965Y-106832169D01*
X128490964Y-106832171D01*
X128391098Y-107046335D01*
X128391094Y-107046344D01*
X128329938Y-107274586D01*
X128329936Y-107274596D01*
X128309341Y-107509999D01*
X128309341Y-107510000D01*
X128329936Y-107745403D01*
X128329938Y-107745413D01*
X128391094Y-107973655D01*
X128391096Y-107973659D01*
X128391097Y-107973663D01*
X128461044Y-108123664D01*
X128490965Y-108187830D01*
X128490967Y-108187834D01*
X128591070Y-108330795D01*
X128626501Y-108381396D01*
X128626506Y-108381402D01*
X128748818Y-108503714D01*
X128782303Y-108565037D01*
X128777319Y-108634729D01*
X128735447Y-108690662D01*
X128704471Y-108707577D01*
X128572912Y-108756646D01*
X128572906Y-108756649D01*
X128457812Y-108842809D01*
X128457809Y-108842812D01*
X128371649Y-108957906D01*
X128371645Y-108957913D01*
X128321403Y-109092620D01*
X128321401Y-109092627D01*
X128315000Y-109152155D01*
X128315000Y-109800000D01*
X129220440Y-109800000D01*
X129189755Y-109853147D01*
X129155000Y-109982857D01*
X129155000Y-110117143D01*
X129189755Y-110246853D01*
X129220440Y-110300000D01*
X128315000Y-110300000D01*
X128315000Y-110947844D01*
X128321401Y-111007372D01*
X128321403Y-111007379D01*
X128371645Y-111142086D01*
X128371649Y-111142093D01*
X128457809Y-111257187D01*
X128457812Y-111257190D01*
X128572906Y-111343350D01*
X128572913Y-111343354D01*
X128704470Y-111392421D01*
X128760403Y-111434292D01*
X128784821Y-111499756D01*
X128769970Y-111568029D01*
X128748819Y-111596284D01*
X128626503Y-111718600D01*
X128490965Y-111912169D01*
X128490964Y-111912171D01*
X128391098Y-112126335D01*
X128391094Y-112126344D01*
X128329938Y-112354586D01*
X128329936Y-112354596D01*
X128309341Y-112589999D01*
X128309341Y-112590000D01*
X128329936Y-112825403D01*
X128329938Y-112825413D01*
X128391094Y-113053655D01*
X128391096Y-113053659D01*
X128391097Y-113053663D01*
X128461044Y-113203664D01*
X128490965Y-113267830D01*
X128490967Y-113267834D01*
X128626501Y-113461395D01*
X128626506Y-113461402D01*
X128793597Y-113628493D01*
X128793603Y-113628498D01*
X128979158Y-113758425D01*
X129022783Y-113813002D01*
X129029977Y-113882500D01*
X128998454Y-113944855D01*
X128979158Y-113961575D01*
X128793597Y-114091505D01*
X128626505Y-114258597D01*
X128490965Y-114452169D01*
X128490964Y-114452171D01*
X128391098Y-114666335D01*
X128391094Y-114666344D01*
X128329938Y-114894586D01*
X128329936Y-114894596D01*
X128309341Y-115129999D01*
X128309341Y-115130000D01*
X128329936Y-115365403D01*
X128329938Y-115365413D01*
X128391094Y-115593655D01*
X128391096Y-115593659D01*
X128391097Y-115593663D01*
X128461044Y-115743664D01*
X128490965Y-115807830D01*
X128490967Y-115807834D01*
X128575703Y-115928848D01*
X128626505Y-116001401D01*
X128793599Y-116168495D01*
X128875423Y-116225789D01*
X128987165Y-116304032D01*
X128987167Y-116304033D01*
X128987170Y-116304035D01*
X129201337Y-116403903D01*
X129429592Y-116465063D01*
X129617918Y-116481539D01*
X129664999Y-116485659D01*
X129665000Y-116485659D01*
X129665001Y-116485659D01*
X129704234Y-116482226D01*
X129900408Y-116465063D01*
X130128663Y-116403903D01*
X130342830Y-116304035D01*
X130536401Y-116168495D01*
X130703495Y-116001401D01*
X130839035Y-115807830D01*
X130841707Y-115802097D01*
X130887878Y-115749658D01*
X130954091Y-115730500D01*
X134783331Y-115730500D01*
X134783347Y-115730501D01*
X134790943Y-115730501D01*
X134949054Y-115730501D01*
X134949057Y-115730501D01*
X135101785Y-115689577D01*
X135172558Y-115648716D01*
X135238716Y-115610520D01*
X135350520Y-115498716D01*
X135350520Y-115498714D01*
X135360724Y-115488511D01*
X135360727Y-115488506D01*
X135980520Y-114868716D01*
X136059577Y-114731784D01*
X136100501Y-114579057D01*
X136100501Y-114420942D01*
X136100501Y-114413347D01*
X136100500Y-114413329D01*
X136100500Y-75164691D01*
X136120185Y-75097652D01*
X136172989Y-75051897D01*
X136242147Y-75041953D01*
X136297385Y-75064373D01*
X136401055Y-75139692D01*
X136418390Y-75152287D01*
X136534607Y-75211503D01*
X136600776Y-75245218D01*
X136600778Y-75245218D01*
X136600781Y-75245220D01*
X136705137Y-75279127D01*
X136795465Y-75308477D01*
X136867694Y-75319917D01*
X136997648Y-75340500D01*
X136997649Y-75340500D01*
X138002351Y-75340500D01*
X138002352Y-75340500D01*
X138204534Y-75308477D01*
X138399219Y-75245220D01*
X138581610Y-75152287D01*
X138682403Y-75079057D01*
X138747213Y-75031971D01*
X138747215Y-75031968D01*
X138747219Y-75031966D01*
X138891966Y-74887219D01*
X138891968Y-74887215D01*
X138891971Y-74887213D01*
X138944732Y-74814590D01*
X139012287Y-74721610D01*
X139105220Y-74539219D01*
X139168477Y-74344534D01*
X139200500Y-74142352D01*
X139200500Y-73937648D01*
X139190656Y-73875498D01*
X139168477Y-73735465D01*
X139105218Y-73540776D01*
X139068151Y-73468029D01*
X139012287Y-73358390D01*
X138998302Y-73339141D01*
X138891971Y-73192786D01*
X138747213Y-73048028D01*
X138581614Y-72927715D01*
X138541702Y-72907379D01*
X138488917Y-72880483D01*
X138438123Y-72832511D01*
X138421328Y-72764690D01*
X138443865Y-72698555D01*
X138488917Y-72659516D01*
X138581610Y-72612287D01*
X138625262Y-72580572D01*
X138747213Y-72491971D01*
X138747215Y-72491968D01*
X138747219Y-72491966D01*
X138891966Y-72347219D01*
X138891968Y-72347215D01*
X138891971Y-72347213D01*
X139012284Y-72181614D01*
X139012283Y-72181614D01*
X139012287Y-72181610D01*
X139019117Y-72168204D01*
X139067091Y-72117409D01*
X139129602Y-72100500D01*
X142699903Y-72100500D01*
X142766942Y-72120185D01*
X142787584Y-72136819D01*
X142863181Y-72212416D01*
X142896666Y-72273739D01*
X142899500Y-72300097D01*
X142899500Y-75775500D01*
X142879815Y-75842539D01*
X142827011Y-75888294D01*
X142775500Y-75899500D01*
X141579057Y-75899500D01*
X141420943Y-75899500D01*
X141268215Y-75940423D01*
X141268214Y-75940423D01*
X141268212Y-75940424D01*
X141268209Y-75940425D01*
X141218096Y-75969359D01*
X141218095Y-75969360D01*
X141179737Y-75991506D01*
X141131285Y-76019479D01*
X141131282Y-76019481D01*
X141063100Y-76087664D01*
X141019480Y-76131284D01*
X141019478Y-76131286D01*
X140928248Y-76222517D01*
X140837584Y-76313181D01*
X140776261Y-76346666D01*
X140749903Y-76349500D01*
X138970940Y-76349500D01*
X138930019Y-76360464D01*
X138930019Y-76360465D01*
X138896558Y-76369431D01*
X138818214Y-76390423D01*
X138818209Y-76390426D01*
X138681290Y-76469475D01*
X138681282Y-76469481D01*
X138019481Y-77131282D01*
X138019479Y-77131285D01*
X137969361Y-77218094D01*
X137969359Y-77218096D01*
X137940425Y-77268209D01*
X137940424Y-77268210D01*
X137938943Y-77273739D01*
X137899499Y-77420943D01*
X137899499Y-77420945D01*
X137899499Y-77589046D01*
X137899500Y-77589059D01*
X137899500Y-78417587D01*
X137879815Y-78484626D01*
X137872450Y-78494896D01*
X137870186Y-78497734D01*
X137774211Y-78650476D01*
X137714631Y-78820745D01*
X137714630Y-78820750D01*
X137694435Y-78999996D01*
X137694435Y-79000003D01*
X137714630Y-79179249D01*
X137714631Y-79179254D01*
X137774211Y-79349523D01*
X137805614Y-79399500D01*
X137859077Y-79484586D01*
X137870185Y-79502263D01*
X137872445Y-79505097D01*
X137873334Y-79507275D01*
X137873889Y-79508158D01*
X137873734Y-79508255D01*
X137898855Y-79569783D01*
X137899500Y-79582412D01*
X137899500Y-82417587D01*
X137879815Y-82484626D01*
X137872450Y-82494896D01*
X137870186Y-82497734D01*
X137774211Y-82650476D01*
X137714631Y-82820745D01*
X137714630Y-82820750D01*
X137694435Y-82999996D01*
X137694435Y-83000003D01*
X137714630Y-83179249D01*
X137714631Y-83179254D01*
X137774211Y-83349523D01*
X137870185Y-83502263D01*
X137872445Y-83505097D01*
X137873334Y-83507275D01*
X137873889Y-83508158D01*
X137873734Y-83508255D01*
X137898855Y-83569783D01*
X137899500Y-83582412D01*
X137899500Y-86417587D01*
X137879815Y-86484626D01*
X137872450Y-86494896D01*
X137870186Y-86497734D01*
X137774211Y-86650476D01*
X137714631Y-86820745D01*
X137714630Y-86820750D01*
X137694435Y-86999996D01*
X137694435Y-87000003D01*
X137714630Y-87179249D01*
X137714631Y-87179254D01*
X137774211Y-87349523D01*
X137870185Y-87502263D01*
X137872445Y-87505097D01*
X137873334Y-87507275D01*
X137873889Y-87508158D01*
X137873734Y-87508255D01*
X137898855Y-87569783D01*
X137899500Y-87582412D01*
X137899500Y-90417587D01*
X137879815Y-90484626D01*
X137872450Y-90494896D01*
X137870186Y-90497734D01*
X137774211Y-90650476D01*
X137714631Y-90820745D01*
X137714630Y-90820750D01*
X137694435Y-90999996D01*
X137694435Y-91000003D01*
X137714630Y-91179249D01*
X137714631Y-91179254D01*
X137774211Y-91349523D01*
X137870185Y-91502263D01*
X137872445Y-91505097D01*
X137873334Y-91507275D01*
X137873889Y-91508158D01*
X137873734Y-91508255D01*
X137898855Y-91569783D01*
X137899500Y-91582412D01*
X137899500Y-94417587D01*
X137879815Y-94484626D01*
X137872450Y-94494896D01*
X137870186Y-94497734D01*
X137774211Y-94650476D01*
X137714631Y-94820745D01*
X137714630Y-94820750D01*
X137694435Y-94999996D01*
X137694435Y-95000003D01*
X137714630Y-95179249D01*
X137714631Y-95179254D01*
X137774211Y-95349523D01*
X137834515Y-95445496D01*
X137861118Y-95487834D01*
X137870185Y-95502263D01*
X137872445Y-95505097D01*
X137873334Y-95507275D01*
X137873889Y-95508158D01*
X137873734Y-95508255D01*
X137898855Y-95569783D01*
X137899500Y-95582412D01*
X137899500Y-98417587D01*
X137879815Y-98484626D01*
X137872450Y-98494896D01*
X137870186Y-98497734D01*
X137774211Y-98650476D01*
X137714631Y-98820745D01*
X137714630Y-98820750D01*
X137694435Y-98999996D01*
X137694435Y-99000003D01*
X137714630Y-99179249D01*
X137714631Y-99179254D01*
X137774211Y-99349523D01*
X137870185Y-99502263D01*
X137872445Y-99505097D01*
X137873334Y-99507275D01*
X137873889Y-99508158D01*
X137873734Y-99508255D01*
X137898855Y-99569783D01*
X137899500Y-99582412D01*
X137899500Y-102417587D01*
X137879815Y-102484626D01*
X137872450Y-102494896D01*
X137870186Y-102497734D01*
X137774211Y-102650476D01*
X137714633Y-102820742D01*
X137714630Y-102820750D01*
X137694435Y-102999996D01*
X137694435Y-103000003D01*
X137714630Y-103179249D01*
X137714631Y-103179254D01*
X137774211Y-103349523D01*
X137834515Y-103445496D01*
X137857209Y-103481613D01*
X137870185Y-103502263D01*
X137872445Y-103505097D01*
X137873334Y-103507275D01*
X137873889Y-103508158D01*
X137873734Y-103508255D01*
X137898855Y-103569783D01*
X137899500Y-103582412D01*
X137899500Y-106447001D01*
X137879815Y-106514040D01*
X137841473Y-106551994D01*
X137772740Y-106595182D01*
X137772737Y-106595184D01*
X137645184Y-106722737D01*
X137549211Y-106875476D01*
X137489631Y-107045745D01*
X137489630Y-107045750D01*
X137469435Y-107224996D01*
X137469435Y-107225003D01*
X137489630Y-107404249D01*
X137489631Y-107404254D01*
X137549211Y-107574523D01*
X137585169Y-107631749D01*
X137644258Y-107725789D01*
X137645185Y-107727263D01*
X137647445Y-107730097D01*
X137648334Y-107732275D01*
X137648889Y-107733158D01*
X137648734Y-107733255D01*
X137673855Y-107794783D01*
X137674500Y-107807412D01*
X137674500Y-110642587D01*
X137654815Y-110709626D01*
X137647450Y-110719896D01*
X137645186Y-110722734D01*
X137549211Y-110875476D01*
X137489631Y-111045745D01*
X137489630Y-111045750D01*
X137469435Y-111224996D01*
X137469435Y-111225003D01*
X137489630Y-111404249D01*
X137489631Y-111404254D01*
X137549211Y-111574523D01*
X137582493Y-111627490D01*
X137639741Y-111718600D01*
X137645185Y-111727263D01*
X137647445Y-111730097D01*
X137648334Y-111732275D01*
X137648889Y-111733158D01*
X137648734Y-111733255D01*
X137673855Y-111794783D01*
X137674500Y-111807412D01*
X137674500Y-116324903D01*
X137654815Y-116391942D01*
X137638181Y-116412584D01*
X137237584Y-116813181D01*
X137176261Y-116846666D01*
X137149903Y-116849500D01*
X108750098Y-116849500D01*
X108683059Y-116829815D01*
X108662417Y-116813181D01*
X108636819Y-116787583D01*
X108603334Y-116726260D01*
X108600500Y-116699902D01*
X108600500Y-105800098D01*
X108620185Y-105733059D01*
X108636819Y-105712416D01*
X108712418Y-105636818D01*
X108773742Y-105603334D01*
X108800099Y-105600500D01*
X108913331Y-105600500D01*
X108913347Y-105600501D01*
X108920943Y-105600501D01*
X109079055Y-105600501D01*
X109079057Y-105600501D01*
X109175252Y-105574724D01*
X109207346Y-105570500D01*
X110595909Y-105570500D01*
X110662948Y-105590185D01*
X110708292Y-105642097D01*
X110710965Y-105647830D01*
X110844977Y-105839219D01*
X110846501Y-105841395D01*
X110846506Y-105841402D01*
X111013597Y-106008493D01*
X111013603Y-106008498D01*
X111199158Y-106138425D01*
X111242783Y-106193002D01*
X111249977Y-106262500D01*
X111218454Y-106324855D01*
X111199158Y-106341575D01*
X111013597Y-106471505D01*
X110846505Y-106638597D01*
X110710965Y-106832169D01*
X110710964Y-106832171D01*
X110611098Y-107046335D01*
X110611094Y-107046344D01*
X110549938Y-107274586D01*
X110549936Y-107274596D01*
X110529341Y-107509999D01*
X110529341Y-107510000D01*
X110549936Y-107745403D01*
X110549938Y-107745413D01*
X110611094Y-107973655D01*
X110611096Y-107973659D01*
X110611097Y-107973663D01*
X110681044Y-108123664D01*
X110710965Y-108187830D01*
X110710967Y-108187834D01*
X110811070Y-108330795D01*
X110846501Y-108381396D01*
X110846506Y-108381402D01*
X110968818Y-108503714D01*
X111002303Y-108565037D01*
X110997319Y-108634729D01*
X110955447Y-108690662D01*
X110924471Y-108707577D01*
X110792912Y-108756646D01*
X110792906Y-108756649D01*
X110677812Y-108842809D01*
X110677809Y-108842812D01*
X110591649Y-108957906D01*
X110591645Y-108957913D01*
X110541403Y-109092620D01*
X110541401Y-109092627D01*
X110535000Y-109152155D01*
X110535000Y-109800000D01*
X111440440Y-109800000D01*
X111409755Y-109853147D01*
X111375000Y-109982857D01*
X111375000Y-110117143D01*
X111409755Y-110246853D01*
X111440440Y-110300000D01*
X110535000Y-110300000D01*
X110535000Y-110947844D01*
X110541401Y-111007372D01*
X110541403Y-111007379D01*
X110591645Y-111142086D01*
X110591649Y-111142093D01*
X110677809Y-111257187D01*
X110677812Y-111257190D01*
X110792906Y-111343350D01*
X110792913Y-111343354D01*
X110924470Y-111392421D01*
X110980403Y-111434292D01*
X111004821Y-111499756D01*
X110989970Y-111568029D01*
X110968819Y-111596284D01*
X110846503Y-111718600D01*
X110710965Y-111912169D01*
X110710964Y-111912171D01*
X110611098Y-112126335D01*
X110611094Y-112126344D01*
X110549938Y-112354586D01*
X110549936Y-112354596D01*
X110529341Y-112589999D01*
X110529341Y-112590000D01*
X110549936Y-112825403D01*
X110549938Y-112825413D01*
X110611094Y-113053655D01*
X110611096Y-113053659D01*
X110611097Y-113053663D01*
X110681044Y-113203664D01*
X110710965Y-113267830D01*
X110710967Y-113267834D01*
X110846501Y-113461395D01*
X110846506Y-113461402D01*
X111013597Y-113628493D01*
X111013603Y-113628498D01*
X111199158Y-113758425D01*
X111242783Y-113813002D01*
X111249977Y-113882500D01*
X111218454Y-113944855D01*
X111199158Y-113961575D01*
X111013597Y-114091505D01*
X110846505Y-114258597D01*
X110710965Y-114452169D01*
X110710964Y-114452171D01*
X110611098Y-114666335D01*
X110611094Y-114666344D01*
X110549938Y-114894586D01*
X110549936Y-114894596D01*
X110529341Y-115129999D01*
X110529341Y-115130000D01*
X110549936Y-115365403D01*
X110549938Y-115365413D01*
X110611094Y-115593655D01*
X110611096Y-115593659D01*
X110611097Y-115593663D01*
X110681044Y-115743664D01*
X110710965Y-115807830D01*
X110710967Y-115807834D01*
X110795703Y-115928848D01*
X110846505Y-116001401D01*
X111013599Y-116168495D01*
X111095423Y-116225789D01*
X111207165Y-116304032D01*
X111207167Y-116304033D01*
X111207170Y-116304035D01*
X111421337Y-116403903D01*
X111649592Y-116465063D01*
X111837918Y-116481539D01*
X111884999Y-116485659D01*
X111885000Y-116485659D01*
X111885001Y-116485659D01*
X111924234Y-116482226D01*
X112120408Y-116465063D01*
X112348663Y-116403903D01*
X112562830Y-116304035D01*
X112756401Y-116168495D01*
X112923495Y-116001401D01*
X113059035Y-115807830D01*
X113158903Y-115593663D01*
X113220063Y-115365408D01*
X113240659Y-115130000D01*
X113229285Y-114999993D01*
X116644700Y-114999993D01*
X116644700Y-115000006D01*
X116663864Y-115231297D01*
X116663866Y-115231308D01*
X116720842Y-115456300D01*
X116814075Y-115668848D01*
X116941016Y-115863147D01*
X116941019Y-115863151D01*
X116941021Y-115863153D01*
X117098216Y-116033913D01*
X117098219Y-116033915D01*
X117098222Y-116033918D01*
X117281365Y-116176464D01*
X117281371Y-116176468D01*
X117281374Y-116176470D01*
X117485497Y-116286936D01*
X117577425Y-116318495D01*
X117705015Y-116362297D01*
X117705017Y-116362297D01*
X117705019Y-116362298D01*
X117933951Y-116400500D01*
X117933952Y-116400500D01*
X118166048Y-116400500D01*
X118166049Y-116400500D01*
X118394981Y-116362298D01*
X118614503Y-116286936D01*
X118818626Y-116176470D01*
X118828869Y-116168498D01*
X118880129Y-116128600D01*
X119001784Y-116033913D01*
X119158979Y-115863153D01*
X119285924Y-115668849D01*
X119379157Y-115456300D01*
X119436134Y-115231305D01*
X119436135Y-115231297D01*
X119455300Y-115000006D01*
X119455300Y-114999993D01*
X122094700Y-114999993D01*
X122094700Y-115000006D01*
X122113864Y-115231297D01*
X122113866Y-115231308D01*
X122170842Y-115456300D01*
X122264075Y-115668848D01*
X122391016Y-115863147D01*
X122391019Y-115863151D01*
X122391021Y-115863153D01*
X122548216Y-116033913D01*
X122548219Y-116033915D01*
X122548222Y-116033918D01*
X122731365Y-116176464D01*
X122731371Y-116176468D01*
X122731374Y-116176470D01*
X122935497Y-116286936D01*
X123027425Y-116318495D01*
X123155015Y-116362297D01*
X123155017Y-116362297D01*
X123155019Y-116362298D01*
X123383951Y-116400500D01*
X123383952Y-116400500D01*
X123616048Y-116400500D01*
X123616049Y-116400500D01*
X123844981Y-116362298D01*
X124064503Y-116286936D01*
X124268626Y-116176470D01*
X124278869Y-116168498D01*
X124330129Y-116128600D01*
X124451784Y-116033913D01*
X124608979Y-115863153D01*
X124735924Y-115668849D01*
X124829157Y-115456300D01*
X124886134Y-115231305D01*
X124886135Y-115231297D01*
X124905300Y-115000006D01*
X124905300Y-114999993D01*
X124886135Y-114768702D01*
X124886133Y-114768691D01*
X124829157Y-114543699D01*
X124735924Y-114331151D01*
X124608983Y-114136852D01*
X124608980Y-114136849D01*
X124608979Y-114136847D01*
X124451784Y-113966087D01*
X124451779Y-113966083D01*
X124451777Y-113966081D01*
X124268634Y-113823535D01*
X124268628Y-113823531D01*
X124064504Y-113713064D01*
X124064495Y-113713061D01*
X123844984Y-113637702D01*
X123673282Y-113609050D01*
X123616049Y-113599500D01*
X123383951Y-113599500D01*
X123338164Y-113607140D01*
X123155015Y-113637702D01*
X122935504Y-113713061D01*
X122935495Y-113713064D01*
X122731371Y-113823531D01*
X122731365Y-113823535D01*
X122548222Y-113966081D01*
X122548219Y-113966084D01*
X122391016Y-114136852D01*
X122264075Y-114331151D01*
X122170842Y-114543699D01*
X122113866Y-114768691D01*
X122113864Y-114768702D01*
X122094700Y-114999993D01*
X119455300Y-114999993D01*
X119436135Y-114768702D01*
X119436133Y-114768691D01*
X119379157Y-114543699D01*
X119285924Y-114331151D01*
X119158983Y-114136852D01*
X119158980Y-114136849D01*
X119158979Y-114136847D01*
X119001784Y-113966087D01*
X119001779Y-113966083D01*
X119001777Y-113966081D01*
X118818634Y-113823535D01*
X118818628Y-113823531D01*
X118614504Y-113713064D01*
X118614495Y-113713061D01*
X118394984Y-113637702D01*
X118223282Y-113609050D01*
X118166049Y-113599500D01*
X117933951Y-113599500D01*
X117888164Y-113607140D01*
X117705015Y-113637702D01*
X117485504Y-113713061D01*
X117485495Y-113713064D01*
X117281371Y-113823531D01*
X117281365Y-113823535D01*
X117098222Y-113966081D01*
X117098219Y-113966084D01*
X116941016Y-114136852D01*
X116814075Y-114331151D01*
X116720842Y-114543699D01*
X116663866Y-114768691D01*
X116663864Y-114768702D01*
X116644700Y-114999993D01*
X113229285Y-114999993D01*
X113220063Y-114894592D01*
X113158903Y-114666337D01*
X113059035Y-114452171D01*
X113059034Y-114452169D01*
X112923494Y-114258597D01*
X112756402Y-114091506D01*
X112756396Y-114091501D01*
X112570842Y-113961575D01*
X112527217Y-113906998D01*
X112520023Y-113837500D01*
X112551546Y-113775145D01*
X112570842Y-113758425D01*
X112672013Y-113687584D01*
X112756401Y-113628495D01*
X112923495Y-113461401D01*
X113059035Y-113267830D01*
X113158903Y-113053663D01*
X113220063Y-112825408D01*
X113240659Y-112590000D01*
X113220063Y-112354592D01*
X113158903Y-112126337D01*
X113086000Y-111969997D01*
X117094723Y-111969997D01*
X117094723Y-111970002D01*
X117102787Y-112062171D01*
X117112625Y-112174632D01*
X117113793Y-112187975D01*
X117113793Y-112187979D01*
X117170422Y-112399322D01*
X117170424Y-112399326D01*
X117170425Y-112399330D01*
X117193066Y-112447884D01*
X117262897Y-112597638D01*
X117271888Y-112610478D01*
X117388402Y-112776877D01*
X117543123Y-112931598D01*
X117722361Y-113057102D01*
X117920670Y-113149575D01*
X118132023Y-113206207D01*
X118314926Y-113222208D01*
X118349998Y-113225277D01*
X118350000Y-113225277D01*
X118350002Y-113225277D01*
X118378254Y-113222805D01*
X118567977Y-113206207D01*
X118779330Y-113149575D01*
X118977639Y-113057102D01*
X119156877Y-112931598D01*
X119311598Y-112776877D01*
X119437102Y-112597639D01*
X119529575Y-112399330D01*
X119586207Y-112187977D01*
X119605277Y-111970000D01*
X119605277Y-111969997D01*
X121944723Y-111969997D01*
X121944723Y-111970002D01*
X121952787Y-112062171D01*
X121962625Y-112174632D01*
X121963793Y-112187975D01*
X121963793Y-112187979D01*
X122020422Y-112399322D01*
X122020424Y-112399326D01*
X122020425Y-112399330D01*
X122043066Y-112447884D01*
X122112897Y-112597638D01*
X122121888Y-112610478D01*
X122238402Y-112776877D01*
X122393123Y-112931598D01*
X122572361Y-113057102D01*
X122770670Y-113149575D01*
X122982023Y-113206207D01*
X123164926Y-113222208D01*
X123199998Y-113225277D01*
X123200000Y-113225277D01*
X123200002Y-113225277D01*
X123228254Y-113222805D01*
X123417977Y-113206207D01*
X123629330Y-113149575D01*
X123827639Y-113057102D01*
X124006877Y-112931598D01*
X124161598Y-112776877D01*
X124287102Y-112597639D01*
X124379575Y-112399330D01*
X124436207Y-112187977D01*
X124455277Y-111970000D01*
X124455104Y-111968028D01*
X124450218Y-111912171D01*
X124436207Y-111752023D01*
X124379575Y-111540670D01*
X124287102Y-111342362D01*
X124287100Y-111342359D01*
X124287099Y-111342357D01*
X124161599Y-111163124D01*
X124100085Y-111101610D01*
X124006877Y-111008402D01*
X123827639Y-110882898D01*
X123827640Y-110882898D01*
X123827638Y-110882897D01*
X123666704Y-110807853D01*
X123629330Y-110790425D01*
X123629326Y-110790424D01*
X123629322Y-110790422D01*
X123417977Y-110733793D01*
X123200002Y-110714723D01*
X123199998Y-110714723D01*
X123087845Y-110724535D01*
X122982023Y-110733793D01*
X122982020Y-110733793D01*
X122770677Y-110790422D01*
X122770668Y-110790426D01*
X122572361Y-110882898D01*
X122572357Y-110882900D01*
X122393121Y-111008402D01*
X122238402Y-111163121D01*
X122112900Y-111342357D01*
X122112898Y-111342361D01*
X122078576Y-111415965D01*
X122024336Y-111532284D01*
X122020426Y-111540668D01*
X122020422Y-111540677D01*
X121963793Y-111752020D01*
X121963793Y-111752023D01*
X121962969Y-111761446D01*
X121944723Y-111969997D01*
X119605277Y-111969997D01*
X119605104Y-111968028D01*
X119600218Y-111912171D01*
X119586207Y-111752023D01*
X119529575Y-111540670D01*
X119437102Y-111342362D01*
X119437100Y-111342359D01*
X119437099Y-111342357D01*
X119311599Y-111163124D01*
X119250085Y-111101610D01*
X119156877Y-111008402D01*
X118977639Y-110882898D01*
X118977640Y-110882898D01*
X118977638Y-110882897D01*
X118816704Y-110807853D01*
X118779330Y-110790425D01*
X118779326Y-110790424D01*
X118779322Y-110790422D01*
X118567977Y-110733793D01*
X118350002Y-110714723D01*
X118349998Y-110714723D01*
X118237845Y-110724535D01*
X118132023Y-110733793D01*
X118132020Y-110733793D01*
X117920677Y-110790422D01*
X117920668Y-110790426D01*
X117722361Y-110882898D01*
X117722357Y-110882900D01*
X117543121Y-111008402D01*
X117388402Y-111163121D01*
X117262900Y-111342357D01*
X117262898Y-111342361D01*
X117228576Y-111415965D01*
X117174336Y-111532284D01*
X117170426Y-111540668D01*
X117170422Y-111540677D01*
X117113793Y-111752020D01*
X117113793Y-111752023D01*
X117112969Y-111761446D01*
X117094723Y-111969997D01*
X113086000Y-111969997D01*
X113059035Y-111912171D01*
X113028524Y-111868597D01*
X112923496Y-111718600D01*
X112889586Y-111684690D01*
X112801179Y-111596283D01*
X112767696Y-111534963D01*
X112772680Y-111465271D01*
X112814551Y-111409337D01*
X112845529Y-111392422D01*
X112977086Y-111343354D01*
X112977093Y-111343350D01*
X113092187Y-111257190D01*
X113092190Y-111257187D01*
X113178350Y-111142093D01*
X113178354Y-111142086D01*
X113228596Y-111007379D01*
X113228598Y-111007372D01*
X113234999Y-110947844D01*
X113235000Y-110947827D01*
X113235000Y-110300000D01*
X112329560Y-110300000D01*
X112360245Y-110246853D01*
X112395000Y-110117143D01*
X112395000Y-109982857D01*
X112360245Y-109853147D01*
X112329560Y-109800000D01*
X113235000Y-109800000D01*
X113235000Y-109152172D01*
X113234999Y-109152155D01*
X113228598Y-109092627D01*
X113228596Y-109092620D01*
X113178354Y-108957913D01*
X113178350Y-108957906D01*
X113092190Y-108842812D01*
X113092187Y-108842809D01*
X112977093Y-108756649D01*
X112977088Y-108756646D01*
X112845528Y-108707577D01*
X112789595Y-108665705D01*
X112765178Y-108600241D01*
X112780030Y-108531968D01*
X112801175Y-108503720D01*
X112923495Y-108381401D01*
X113059035Y-108187830D01*
X113158903Y-107973663D01*
X113220063Y-107745408D01*
X113240659Y-107510000D01*
X113220063Y-107274592D01*
X113158903Y-107046337D01*
X113059035Y-106832171D01*
X113051035Y-106820745D01*
X112923494Y-106638597D01*
X112756402Y-106471506D01*
X112756396Y-106471501D01*
X112570842Y-106341575D01*
X112527217Y-106286998D01*
X112520023Y-106217500D01*
X112551546Y-106155145D01*
X112570842Y-106138425D01*
X112683668Y-106059423D01*
X112756401Y-106008495D01*
X112923495Y-105841401D01*
X113059035Y-105647830D01*
X113158903Y-105433663D01*
X113220063Y-105205408D01*
X113240659Y-104970000D01*
X113220063Y-104734592D01*
X113158903Y-104506337D01*
X113059035Y-104292171D01*
X113059034Y-104292169D01*
X112923494Y-104098597D01*
X112756402Y-103931506D01*
X112756396Y-103931501D01*
X112570842Y-103801575D01*
X112527217Y-103746998D01*
X112520023Y-103677500D01*
X112551546Y-103615145D01*
X112570842Y-103598425D01*
X112689452Y-103515373D01*
X112756401Y-103468495D01*
X112923495Y-103301401D01*
X113059035Y-103107830D01*
X113158903Y-102893663D01*
X113220063Y-102665408D01*
X113240659Y-102430000D01*
X113220063Y-102194592D01*
X113158903Y-101966337D01*
X113059035Y-101752171D01*
X113040899Y-101726269D01*
X112923494Y-101558597D01*
X112756402Y-101391506D01*
X112756396Y-101391501D01*
X112570842Y-101261575D01*
X112527217Y-101206998D01*
X112520023Y-101137500D01*
X112551546Y-101075145D01*
X112570842Y-101058425D01*
X112657513Y-100997737D01*
X112756401Y-100928495D01*
X112923495Y-100761401D01*
X113059035Y-100567830D01*
X113158903Y-100353663D01*
X113220063Y-100125408D01*
X113240659Y-99890000D01*
X113220063Y-99654592D01*
X113158903Y-99426337D01*
X113059035Y-99212171D01*
X113035986Y-99179254D01*
X112923496Y-99018600D01*
X112889586Y-98984690D01*
X112801567Y-98896671D01*
X112768084Y-98835351D01*
X112773068Y-98765659D01*
X112814939Y-98709725D01*
X112845915Y-98692810D01*
X112977331Y-98643796D01*
X113092546Y-98557546D01*
X113178796Y-98442331D01*
X113229091Y-98307483D01*
X113235500Y-98247873D01*
X113235499Y-96452128D01*
X113229091Y-96392517D01*
X113226369Y-96385220D01*
X113178797Y-96257671D01*
X113178793Y-96257664D01*
X113092547Y-96142455D01*
X113092544Y-96142452D01*
X112977335Y-96056206D01*
X112977328Y-96056202D01*
X112845917Y-96007189D01*
X112789983Y-95965318D01*
X112765566Y-95899853D01*
X112780418Y-95831580D01*
X112801563Y-95803332D01*
X112923495Y-95681401D01*
X113059035Y-95487830D01*
X113158903Y-95273663D01*
X113220063Y-95045408D01*
X113240659Y-94810000D01*
X113220063Y-94574592D01*
X113158903Y-94346337D01*
X113059035Y-94132171D01*
X113028525Y-94088597D01*
X112923494Y-93938597D01*
X112756402Y-93771506D01*
X112756396Y-93771501D01*
X112570842Y-93641575D01*
X112527217Y-93586998D01*
X112520023Y-93517500D01*
X112551546Y-93455145D01*
X112570842Y-93438425D01*
X112593026Y-93422891D01*
X112756401Y-93308495D01*
X112923495Y-93141401D01*
X113059035Y-92947830D01*
X113158903Y-92733663D01*
X113220063Y-92505408D01*
X113240659Y-92270000D01*
X113220063Y-92034592D01*
X113158903Y-91806337D01*
X113059035Y-91592171D01*
X113028525Y-91548597D01*
X112923494Y-91398597D01*
X112756402Y-91231506D01*
X112756396Y-91231501D01*
X112570842Y-91101575D01*
X112527217Y-91046998D01*
X112520023Y-90977500D01*
X112551546Y-90915145D01*
X112570842Y-90898425D01*
X112640681Y-90849523D01*
X112756401Y-90768495D01*
X112923495Y-90601401D01*
X113059035Y-90407830D01*
X113158903Y-90193663D01*
X113220063Y-89965408D01*
X113240659Y-89730000D01*
X113239314Y-89714632D01*
X113230767Y-89616936D01*
X113220063Y-89494592D01*
X113158903Y-89266337D01*
X113059035Y-89052171D01*
X113028525Y-89008597D01*
X112923494Y-88858597D01*
X112756402Y-88691506D01*
X112756396Y-88691501D01*
X112570842Y-88561575D01*
X112527217Y-88506998D01*
X112520023Y-88437500D01*
X112551546Y-88375145D01*
X112570842Y-88358425D01*
X112593026Y-88342891D01*
X112756401Y-88228495D01*
X112923495Y-88061401D01*
X113059035Y-87867830D01*
X113158903Y-87653663D01*
X113220063Y-87425408D01*
X113240659Y-87190000D01*
X113220063Y-86954592D01*
X113158903Y-86726337D01*
X113059035Y-86512171D01*
X113048926Y-86497734D01*
X112923496Y-86318600D01*
X112889586Y-86284690D01*
X112801179Y-86196283D01*
X112767696Y-86134963D01*
X112772680Y-86065271D01*
X112814551Y-86009337D01*
X112845529Y-85992422D01*
X112977086Y-85943354D01*
X112977093Y-85943350D01*
X113092187Y-85857190D01*
X113092190Y-85857187D01*
X113178350Y-85742093D01*
X113178354Y-85742086D01*
X113228596Y-85607379D01*
X113228598Y-85607372D01*
X113234999Y-85547844D01*
X113235000Y-85547827D01*
X113235000Y-84900000D01*
X112329560Y-84900000D01*
X112360245Y-84846853D01*
X112395000Y-84717143D01*
X112395000Y-84582857D01*
X112360245Y-84453147D01*
X112329560Y-84400000D01*
X113235000Y-84400000D01*
X113235000Y-83752172D01*
X113234999Y-83752155D01*
X113228598Y-83692627D01*
X113228596Y-83692620D01*
X113178354Y-83557913D01*
X113178350Y-83557906D01*
X113092190Y-83442812D01*
X113092187Y-83442809D01*
X112977093Y-83356649D01*
X112977088Y-83356646D01*
X112845528Y-83307577D01*
X112789595Y-83265705D01*
X112765178Y-83200241D01*
X112780030Y-83131968D01*
X112801175Y-83103720D01*
X112923495Y-82981401D01*
X113059035Y-82787830D01*
X113158903Y-82573663D01*
X113220063Y-82345408D01*
X113240659Y-82110000D01*
X113220063Y-81874592D01*
X113158903Y-81646337D01*
X113059035Y-81432171D01*
X113028751Y-81388920D01*
X112923494Y-81238597D01*
X112756402Y-81071506D01*
X112756396Y-81071501D01*
X112570842Y-80941575D01*
X112527217Y-80886998D01*
X112520023Y-80817500D01*
X112551546Y-80755145D01*
X112570842Y-80738425D01*
X112715950Y-80636819D01*
X112756401Y-80608495D01*
X112923495Y-80441401D01*
X113059035Y-80247830D01*
X113158903Y-80033663D01*
X113220063Y-79805408D01*
X113240659Y-79570000D01*
X113220063Y-79334592D01*
X113158903Y-79106337D01*
X113059035Y-78892171D01*
X113050384Y-78879815D01*
X112923494Y-78698597D01*
X112756402Y-78531506D01*
X112756396Y-78531501D01*
X112570842Y-78401575D01*
X112527217Y-78346998D01*
X112520023Y-78277500D01*
X112551546Y-78215145D01*
X112570842Y-78198425D01*
X112736525Y-78082412D01*
X112756401Y-78068495D01*
X112923495Y-77901401D01*
X113059035Y-77707830D01*
X113158903Y-77493663D01*
X113220063Y-77265408D01*
X113240659Y-77030000D01*
X113220063Y-76794592D01*
X113158903Y-76566337D01*
X113059035Y-76352171D01*
X113055181Y-76346666D01*
X112923494Y-76158597D01*
X112756402Y-75991506D01*
X112756396Y-75991501D01*
X112570842Y-75861575D01*
X112527217Y-75806998D01*
X112520023Y-75737500D01*
X112551546Y-75675145D01*
X112570842Y-75658425D01*
X112612979Y-75628920D01*
X112756401Y-75528495D01*
X112923495Y-75361401D01*
X113059035Y-75167830D01*
X113158903Y-74953663D01*
X113220063Y-74725408D01*
X113240659Y-74490000D01*
X113220063Y-74254592D01*
X113158903Y-74026337D01*
X113059035Y-73812171D01*
X113040454Y-73785635D01*
X112923496Y-73618600D01*
X112922224Y-73617328D01*
X112801179Y-73496283D01*
X112767696Y-73434963D01*
X112772680Y-73365271D01*
X112814551Y-73309337D01*
X112845529Y-73292422D01*
X112977086Y-73243354D01*
X112977093Y-73243350D01*
X113092187Y-73157190D01*
X113092190Y-73157187D01*
X113178350Y-73042093D01*
X113178354Y-73042086D01*
X113228596Y-72907379D01*
X113228598Y-72907372D01*
X113234999Y-72847844D01*
X113235000Y-72847827D01*
X113235000Y-72200000D01*
X112329560Y-72200000D01*
X112360245Y-72146853D01*
X112395000Y-72017143D01*
X112395000Y-71882857D01*
X112360245Y-71753147D01*
X112329560Y-71700000D01*
X113235000Y-71700000D01*
X113235000Y-71052172D01*
X113234999Y-71052155D01*
X113228598Y-70992627D01*
X113228596Y-70992620D01*
X113178354Y-70857913D01*
X113178350Y-70857906D01*
X113092190Y-70742812D01*
X113092187Y-70742809D01*
X112977093Y-70656649D01*
X112977088Y-70656646D01*
X112845528Y-70607577D01*
X112789595Y-70565705D01*
X112765178Y-70500241D01*
X112780030Y-70431968D01*
X112801175Y-70403720D01*
X112923495Y-70281401D01*
X113059035Y-70087830D01*
X113158903Y-69873663D01*
X113220063Y-69645408D01*
X113240659Y-69410000D01*
X113220063Y-69174592D01*
X113158903Y-68946337D01*
X113059035Y-68732171D01*
X113055232Y-68726739D01*
X112923494Y-68538597D01*
X112756402Y-68371506D01*
X112756396Y-68371501D01*
X112570842Y-68241575D01*
X112527217Y-68186998D01*
X112520023Y-68117500D01*
X112551546Y-68055145D01*
X112570842Y-68038425D01*
X112602055Y-68016569D01*
X112756401Y-67908495D01*
X112923495Y-67741401D01*
X113059035Y-67547830D01*
X113158903Y-67333663D01*
X113220063Y-67105408D01*
X113220536Y-67099999D01*
X116879341Y-67099999D01*
X116879341Y-67100000D01*
X116899936Y-67335403D01*
X116899938Y-67335413D01*
X116961094Y-67563655D01*
X116961096Y-67563659D01*
X116961097Y-67563663D01*
X117029379Y-67710094D01*
X117060965Y-67777830D01*
X117060967Y-67777834D01*
X117136944Y-67886339D01*
X117196505Y-67971401D01*
X117363599Y-68138495D01*
X117460384Y-68206265D01*
X117557165Y-68274032D01*
X117557167Y-68274033D01*
X117557170Y-68274035D01*
X117771337Y-68373903D01*
X117999592Y-68435063D01*
X118176034Y-68450500D01*
X118234999Y-68455659D01*
X118235000Y-68455659D01*
X118235001Y-68455659D01*
X118293966Y-68450500D01*
X118470408Y-68435063D01*
X118698663Y-68373903D01*
X118912830Y-68274035D01*
X119106401Y-68138495D01*
X119228329Y-68016566D01*
X119289648Y-67983084D01*
X119359340Y-67988068D01*
X119415274Y-68029939D01*
X119432189Y-68060917D01*
X119481202Y-68192328D01*
X119481206Y-68192335D01*
X119567452Y-68307544D01*
X119567455Y-68307547D01*
X119682664Y-68393793D01*
X119682671Y-68393797D01*
X119817517Y-68444091D01*
X119817516Y-68444091D01*
X119824444Y-68444835D01*
X119877127Y-68450500D01*
X121672872Y-68450499D01*
X121732483Y-68444091D01*
X121867331Y-68393796D01*
X121982546Y-68307546D01*
X122068796Y-68192331D01*
X122117810Y-68060916D01*
X122159681Y-68004984D01*
X122225145Y-67980566D01*
X122293418Y-67995417D01*
X122321673Y-68016569D01*
X122443599Y-68138495D01*
X122540384Y-68206265D01*
X122637165Y-68274032D01*
X122637167Y-68274033D01*
X122637170Y-68274035D01*
X122851337Y-68373903D01*
X123079592Y-68435063D01*
X123256034Y-68450500D01*
X123314999Y-68455659D01*
X123315000Y-68455659D01*
X123315001Y-68455659D01*
X123373966Y-68450500D01*
X123550408Y-68435063D01*
X123778663Y-68373903D01*
X123992830Y-68274035D01*
X124186401Y-68138495D01*
X124353495Y-67971401D01*
X124489035Y-67777830D01*
X124588903Y-67563663D01*
X124650063Y-67335408D01*
X124670659Y-67100000D01*
X124650063Y-66864592D01*
X124588903Y-66636337D01*
X124489035Y-66422171D01*
X124478067Y-66406506D01*
X124353494Y-66228597D01*
X124186402Y-66061506D01*
X124186395Y-66061501D01*
X123992834Y-65925967D01*
X123992830Y-65925965D01*
X123981702Y-65920776D01*
X123778663Y-65826097D01*
X123778659Y-65826096D01*
X123778655Y-65826094D01*
X123550413Y-65764938D01*
X123550403Y-65764936D01*
X123315001Y-65744341D01*
X123314999Y-65744341D01*
X123079596Y-65764936D01*
X123079586Y-65764938D01*
X122851344Y-65826094D01*
X122851335Y-65826098D01*
X122637171Y-65925964D01*
X122637169Y-65925965D01*
X122443600Y-66061503D01*
X122321673Y-66183430D01*
X122260350Y-66216914D01*
X122190658Y-66211930D01*
X122134725Y-66170058D01*
X122117810Y-66139081D01*
X122068797Y-66007671D01*
X122068793Y-66007664D01*
X121982547Y-65892455D01*
X121982544Y-65892452D01*
X121867335Y-65806206D01*
X121867328Y-65806202D01*
X121732482Y-65755908D01*
X121732483Y-65755908D01*
X121672883Y-65749501D01*
X121672881Y-65749500D01*
X121672873Y-65749500D01*
X121672864Y-65749500D01*
X119877129Y-65749500D01*
X119877123Y-65749501D01*
X119817516Y-65755908D01*
X119682671Y-65806202D01*
X119682664Y-65806206D01*
X119567455Y-65892452D01*
X119567452Y-65892455D01*
X119481206Y-66007664D01*
X119481203Y-66007669D01*
X119432189Y-66139083D01*
X119390317Y-66195016D01*
X119324853Y-66219433D01*
X119256580Y-66204581D01*
X119228326Y-66183430D01*
X119106402Y-66061506D01*
X119106395Y-66061501D01*
X118912834Y-65925967D01*
X118912830Y-65925965D01*
X118901702Y-65920776D01*
X118698663Y-65826097D01*
X118698659Y-65826096D01*
X118698655Y-65826094D01*
X118470413Y-65764938D01*
X118470403Y-65764936D01*
X118235001Y-65744341D01*
X118234999Y-65744341D01*
X117999596Y-65764936D01*
X117999586Y-65764938D01*
X117771344Y-65826094D01*
X117771335Y-65826098D01*
X117557171Y-65925964D01*
X117557169Y-65925965D01*
X117363597Y-66061505D01*
X117196505Y-66228597D01*
X117060965Y-66422169D01*
X117060964Y-66422171D01*
X116961098Y-66636335D01*
X116961094Y-66636344D01*
X116899938Y-66864586D01*
X116899936Y-66864596D01*
X116879341Y-67099999D01*
X113220536Y-67099999D01*
X113240659Y-66870000D01*
X113220063Y-66634592D01*
X113158903Y-66406337D01*
X113059035Y-66192171D01*
X113043552Y-66170058D01*
X112923494Y-65998597D01*
X112756402Y-65831506D01*
X112756395Y-65831501D01*
X112748677Y-65826097D01*
X112661334Y-65764938D01*
X112562834Y-65695967D01*
X112562830Y-65695965D01*
X112562828Y-65695964D01*
X112348663Y-65596097D01*
X112348659Y-65596096D01*
X112348655Y-65596094D01*
X112120413Y-65534938D01*
X112120403Y-65534936D01*
X111885001Y-65514341D01*
X111884999Y-65514341D01*
X111649596Y-65534936D01*
X111649586Y-65534938D01*
X111421344Y-65596094D01*
X111421335Y-65596098D01*
X111207171Y-65695964D01*
X111207169Y-65695965D01*
X111013597Y-65831505D01*
X110846505Y-65998597D01*
X110710965Y-66192169D01*
X110710964Y-66192171D01*
X110611098Y-66406335D01*
X110611094Y-66406344D01*
X110549938Y-66634586D01*
X110549936Y-66634596D01*
X110529341Y-66869999D01*
X110529341Y-66870000D01*
X110549936Y-67105403D01*
X110549938Y-67105413D01*
X110611094Y-67333655D01*
X110611096Y-67333659D01*
X110611097Y-67333663D01*
X110688662Y-67500001D01*
X110710965Y-67547830D01*
X110710967Y-67547834D01*
X110803794Y-67680403D01*
X110836201Y-67726686D01*
X110846501Y-67741395D01*
X110846506Y-67741402D01*
X111013597Y-67908493D01*
X111013603Y-67908498D01*
X111199158Y-68038425D01*
X111242783Y-68093002D01*
X111249977Y-68162500D01*
X111218454Y-68224855D01*
X111199158Y-68241575D01*
X111013597Y-68371505D01*
X110846505Y-68538597D01*
X110710965Y-68732169D01*
X110710964Y-68732171D01*
X110611098Y-68946335D01*
X110611094Y-68946344D01*
X110549938Y-69174586D01*
X110549936Y-69174596D01*
X110529341Y-69409999D01*
X110529341Y-69410000D01*
X110549936Y-69645403D01*
X110549938Y-69645413D01*
X110611094Y-69873655D01*
X110611096Y-69873659D01*
X110611097Y-69873663D01*
X110703716Y-70072284D01*
X110710965Y-70087830D01*
X110710967Y-70087834D01*
X110789439Y-70199903D01*
X110846501Y-70281396D01*
X110846506Y-70281402D01*
X110968818Y-70403714D01*
X111002303Y-70465037D01*
X110997319Y-70534729D01*
X110955447Y-70590662D01*
X110924471Y-70607577D01*
X110792912Y-70656646D01*
X110792906Y-70656649D01*
X110677812Y-70742809D01*
X110677809Y-70742812D01*
X110591649Y-70857906D01*
X110591645Y-70857913D01*
X110541403Y-70992620D01*
X110541401Y-70992627D01*
X110535000Y-71052155D01*
X110535000Y-71700000D01*
X111440440Y-71700000D01*
X111409755Y-71753147D01*
X111375000Y-71882857D01*
X111375000Y-72017143D01*
X111409755Y-72146853D01*
X111440440Y-72200000D01*
X110535000Y-72200000D01*
X110535000Y-72847844D01*
X110541401Y-72907372D01*
X110541403Y-72907379D01*
X110591645Y-73042086D01*
X110591649Y-73042093D01*
X110677809Y-73157187D01*
X110677812Y-73157190D01*
X110792906Y-73243350D01*
X110792913Y-73243354D01*
X110924470Y-73292421D01*
X110980403Y-73334292D01*
X111004821Y-73399756D01*
X110989970Y-73468029D01*
X110968819Y-73496284D01*
X110846503Y-73618600D01*
X110710965Y-73812169D01*
X110710964Y-73812171D01*
X110611098Y-74026335D01*
X110611094Y-74026344D01*
X110549938Y-74254586D01*
X110549936Y-74254596D01*
X110529341Y-74489999D01*
X110529341Y-74490000D01*
X110549936Y-74725403D01*
X110549938Y-74725413D01*
X110611094Y-74953655D01*
X110611096Y-74953659D01*
X110611097Y-74953663D01*
X110703716Y-75152284D01*
X110710965Y-75167830D01*
X110710967Y-75167834D01*
X110846501Y-75361395D01*
X110846506Y-75361402D01*
X111013597Y-75528493D01*
X111013603Y-75528498D01*
X111199158Y-75658425D01*
X111242783Y-75713002D01*
X111249977Y-75782500D01*
X111218454Y-75844855D01*
X111199158Y-75861575D01*
X111013597Y-75991505D01*
X110846505Y-76158597D01*
X110710965Y-76352169D01*
X110710964Y-76352171D01*
X110611098Y-76566335D01*
X110611094Y-76566344D01*
X110549938Y-76794586D01*
X110549936Y-76794596D01*
X110529341Y-77029999D01*
X110529341Y-77030000D01*
X110549936Y-77265403D01*
X110549938Y-77265413D01*
X110611094Y-77493655D01*
X110611096Y-77493659D01*
X110611097Y-77493663D01*
X110655575Y-77589046D01*
X110710965Y-77707830D01*
X110710967Y-77707834D01*
X110846501Y-77901395D01*
X110846506Y-77901402D01*
X111013597Y-78068493D01*
X111013603Y-78068498D01*
X111199158Y-78198425D01*
X111242783Y-78253002D01*
X111249977Y-78322500D01*
X111218454Y-78384855D01*
X111199158Y-78401575D01*
X111013597Y-78531505D01*
X110846505Y-78698597D01*
X110710965Y-78892169D01*
X110710964Y-78892171D01*
X110611098Y-79106335D01*
X110611094Y-79106344D01*
X110549938Y-79334586D01*
X110549936Y-79334596D01*
X110529341Y-79569999D01*
X110529341Y-79570000D01*
X110549936Y-79805403D01*
X110549938Y-79805413D01*
X110611094Y-80033655D01*
X110611096Y-80033659D01*
X110611097Y-80033663D01*
X110681044Y-80183664D01*
X110710965Y-80247830D01*
X110710967Y-80247834D01*
X110846501Y-80441395D01*
X110846506Y-80441402D01*
X111013597Y-80608493D01*
X111013603Y-80608498D01*
X111199158Y-80738425D01*
X111242783Y-80793002D01*
X111249977Y-80862500D01*
X111218454Y-80924855D01*
X111199158Y-80941575D01*
X111013597Y-81071505D01*
X110846505Y-81238597D01*
X110710965Y-81432169D01*
X110710964Y-81432171D01*
X110611098Y-81646335D01*
X110611094Y-81646344D01*
X110549938Y-81874586D01*
X110549936Y-81874596D01*
X110529341Y-82109999D01*
X110529341Y-82110000D01*
X110549936Y-82345403D01*
X110549938Y-82345413D01*
X110611094Y-82573655D01*
X110611096Y-82573659D01*
X110611097Y-82573663D01*
X110615149Y-82582352D01*
X110710965Y-82787830D01*
X110710967Y-82787834D01*
X110815820Y-82937578D01*
X110846501Y-82981396D01*
X110846506Y-82981402D01*
X110968818Y-83103714D01*
X111002303Y-83165037D01*
X110997319Y-83234729D01*
X110955447Y-83290662D01*
X110924471Y-83307577D01*
X110792912Y-83356646D01*
X110792906Y-83356649D01*
X110677812Y-83442809D01*
X110677809Y-83442812D01*
X110591649Y-83557906D01*
X110591645Y-83557913D01*
X110541403Y-83692620D01*
X110541401Y-83692627D01*
X110535000Y-83752155D01*
X110535000Y-84400000D01*
X111440440Y-84400000D01*
X111409755Y-84453147D01*
X111375000Y-84582857D01*
X111375000Y-84717143D01*
X111409755Y-84846853D01*
X111440440Y-84900000D01*
X110535000Y-84900000D01*
X110535000Y-85547844D01*
X110541401Y-85607372D01*
X110541403Y-85607379D01*
X110591645Y-85742086D01*
X110591649Y-85742093D01*
X110677809Y-85857187D01*
X110677812Y-85857190D01*
X110792906Y-85943350D01*
X110792913Y-85943354D01*
X110924470Y-85992421D01*
X110980403Y-86034292D01*
X111004821Y-86099756D01*
X110989970Y-86168029D01*
X110968819Y-86196284D01*
X110846503Y-86318600D01*
X110710965Y-86512169D01*
X110710964Y-86512171D01*
X110611098Y-86726335D01*
X110611094Y-86726344D01*
X110549938Y-86954586D01*
X110549936Y-86954596D01*
X110529341Y-87189999D01*
X110529341Y-87190000D01*
X110549936Y-87425403D01*
X110549938Y-87425413D01*
X110611094Y-87653655D01*
X110611096Y-87653659D01*
X110611097Y-87653663D01*
X110683998Y-87810000D01*
X110710965Y-87867830D01*
X110710967Y-87867834D01*
X110846501Y-88061395D01*
X110846506Y-88061402D01*
X111013597Y-88228493D01*
X111013603Y-88228498D01*
X111199158Y-88358425D01*
X111242783Y-88413002D01*
X111249977Y-88482500D01*
X111218454Y-88544855D01*
X111199158Y-88561575D01*
X111013597Y-88691505D01*
X110846505Y-88858597D01*
X110710965Y-89052169D01*
X110710964Y-89052171D01*
X110611098Y-89266335D01*
X110611094Y-89266344D01*
X110549938Y-89494586D01*
X110549936Y-89494596D01*
X110529341Y-89729999D01*
X110529341Y-89730000D01*
X110549936Y-89965403D01*
X110549938Y-89965413D01*
X110611094Y-90193655D01*
X110611096Y-90193659D01*
X110611097Y-90193663D01*
X110681044Y-90343664D01*
X110710965Y-90407830D01*
X110710967Y-90407834D01*
X110846501Y-90601395D01*
X110846506Y-90601402D01*
X111013597Y-90768493D01*
X111013603Y-90768498D01*
X111199158Y-90898425D01*
X111242783Y-90953002D01*
X111249977Y-91022500D01*
X111218454Y-91084855D01*
X111199158Y-91101575D01*
X111013597Y-91231505D01*
X110846505Y-91398597D01*
X110710965Y-91592169D01*
X110710964Y-91592171D01*
X110611098Y-91806335D01*
X110611094Y-91806344D01*
X110549938Y-92034586D01*
X110549936Y-92034596D01*
X110529341Y-92269999D01*
X110529341Y-92270000D01*
X110549936Y-92505403D01*
X110549938Y-92505413D01*
X110611094Y-92733655D01*
X110611096Y-92733659D01*
X110611097Y-92733663D01*
X110707029Y-92939389D01*
X110710965Y-92947830D01*
X110710967Y-92947834D01*
X110846501Y-93141395D01*
X110846506Y-93141402D01*
X111013597Y-93308493D01*
X111013603Y-93308498D01*
X111199158Y-93438425D01*
X111242783Y-93493002D01*
X111249977Y-93562500D01*
X111218454Y-93624855D01*
X111199158Y-93641575D01*
X111013597Y-93771505D01*
X110846505Y-93938597D01*
X110710965Y-94132169D01*
X110710964Y-94132171D01*
X110611098Y-94346335D01*
X110611094Y-94346344D01*
X110549938Y-94574586D01*
X110549936Y-94574596D01*
X110529341Y-94809999D01*
X110529341Y-94810000D01*
X110549936Y-95045403D01*
X110549938Y-95045413D01*
X110611094Y-95273655D01*
X110611096Y-95273659D01*
X110611097Y-95273663D01*
X110681044Y-95423664D01*
X110710965Y-95487830D01*
X110710967Y-95487834D01*
X110768349Y-95569783D01*
X110846501Y-95681396D01*
X110846506Y-95681402D01*
X110968430Y-95803326D01*
X111001915Y-95864649D01*
X110996931Y-95934341D01*
X110955059Y-95990274D01*
X110924083Y-96007189D01*
X110792669Y-96056203D01*
X110792664Y-96056206D01*
X110677455Y-96142452D01*
X110677452Y-96142455D01*
X110591206Y-96257664D01*
X110591202Y-96257671D01*
X110540908Y-96392517D01*
X110534565Y-96451523D01*
X110534501Y-96452123D01*
X110534500Y-96452135D01*
X110534500Y-98247870D01*
X110534501Y-98247876D01*
X110540908Y-98307483D01*
X110591202Y-98442328D01*
X110591206Y-98442335D01*
X110677452Y-98557544D01*
X110677455Y-98557547D01*
X110792664Y-98643793D01*
X110792671Y-98643797D01*
X110924081Y-98692810D01*
X110980015Y-98734681D01*
X111004432Y-98800145D01*
X110989580Y-98868418D01*
X110968430Y-98896673D01*
X110846503Y-99018600D01*
X110710965Y-99212169D01*
X110710964Y-99212171D01*
X110611098Y-99426335D01*
X110611094Y-99426344D01*
X110549938Y-99654586D01*
X110549936Y-99654596D01*
X110529341Y-99889999D01*
X110529341Y-99890000D01*
X110549936Y-100125403D01*
X110549938Y-100125413D01*
X110611094Y-100353655D01*
X110611096Y-100353659D01*
X110611097Y-100353663D01*
X110681044Y-100503664D01*
X110710965Y-100567830D01*
X110710967Y-100567834D01*
X110846501Y-100761395D01*
X110846506Y-100761402D01*
X111013597Y-100928493D01*
X111013603Y-100928498D01*
X111199158Y-101058425D01*
X111242783Y-101113002D01*
X111249977Y-101182500D01*
X111218454Y-101244855D01*
X111199158Y-101261575D01*
X111013597Y-101391505D01*
X110846505Y-101558597D01*
X110710965Y-101752169D01*
X110710964Y-101752171D01*
X110611098Y-101966335D01*
X110611094Y-101966344D01*
X110549938Y-102194586D01*
X110549936Y-102194596D01*
X110529341Y-102429999D01*
X110529341Y-102430000D01*
X110549936Y-102665403D01*
X110549938Y-102665413D01*
X110611094Y-102893655D01*
X110611096Y-102893659D01*
X110611097Y-102893663D01*
X110681044Y-103043664D01*
X110710965Y-103107830D01*
X110710967Y-103107834D01*
X110846501Y-103301395D01*
X110846506Y-103301402D01*
X111013597Y-103468493D01*
X111013603Y-103468498D01*
X111199158Y-103598425D01*
X111242783Y-103653002D01*
X111249977Y-103722500D01*
X111218454Y-103784855D01*
X111199158Y-103801575D01*
X111013597Y-103931505D01*
X110846506Y-104098596D01*
X110710965Y-104292170D01*
X110710962Y-104292175D01*
X110708289Y-104297909D01*
X110662115Y-104350346D01*
X110595909Y-104369500D01*
X108950937Y-104369500D01*
X108910018Y-104380464D01*
X108910019Y-104380465D01*
X108854749Y-104395275D01*
X108822655Y-104399500D01*
X108586670Y-104399500D01*
X108586654Y-104399499D01*
X108579058Y-104399499D01*
X108420943Y-104399499D01*
X108344579Y-104419961D01*
X108268214Y-104440423D01*
X108268209Y-104440426D01*
X108131290Y-104519475D01*
X108131282Y-104519481D01*
X107624217Y-105026546D01*
X107624214Y-105026548D01*
X107624215Y-105026549D01*
X107519478Y-105131286D01*
X107486066Y-105189158D01*
X107475398Y-105207638D01*
X107469361Y-105218094D01*
X107469359Y-105218096D01*
X107440425Y-105268209D01*
X107440424Y-105268210D01*
X107440423Y-105268215D01*
X107399499Y-105420943D01*
X107399499Y-105420945D01*
X107399499Y-105589046D01*
X107399500Y-105589059D01*
X107399500Y-116913330D01*
X107399499Y-116913348D01*
X107399499Y-117079054D01*
X107399498Y-117079054D01*
X107399499Y-117079057D01*
X107440423Y-117231785D01*
X107447749Y-117244474D01*
X107447751Y-117244482D01*
X107447754Y-117244481D01*
X107519480Y-117368716D01*
X107631284Y-117480520D01*
X107631285Y-117480521D01*
X108131284Y-117980520D01*
X108131286Y-117980521D01*
X108131290Y-117980524D01*
X108181610Y-118009576D01*
X108181615Y-118009578D01*
X108268209Y-118059574D01*
X108268210Y-118059575D01*
X108268212Y-118059575D01*
X108268215Y-118059577D01*
X108420943Y-118100501D01*
X108420946Y-118100501D01*
X108579056Y-118100501D01*
X108579057Y-118100501D01*
X108579058Y-118100501D01*
X108731785Y-118059577D01*
X108731786Y-118059575D01*
X108739635Y-118057473D01*
X108739820Y-118058165D01*
X108778364Y-118050500D01*
X110589311Y-118050500D01*
X110656350Y-118070185D01*
X110702105Y-118122989D01*
X110712531Y-118160615D01*
X110714630Y-118179250D01*
X110714631Y-118179254D01*
X110774211Y-118349523D01*
X110870184Y-118502262D01*
X110997738Y-118629816D01*
X111150478Y-118725789D01*
X111243840Y-118758458D01*
X111300617Y-118799180D01*
X111326364Y-118864133D01*
X111312908Y-118932694D01*
X111264521Y-118983097D01*
X111202886Y-118999500D01*
X104124500Y-118999500D01*
X104057461Y-118979815D01*
X104011706Y-118927011D01*
X104000500Y-118875500D01*
X104000500Y-62624500D01*
X104020185Y-62557461D01*
X104072989Y-62511706D01*
X104124500Y-62500500D01*
X177875500Y-62500500D01*
X177942539Y-62520185D01*
G37*
%TD.AperFunction*%
%TD*%
M02*
