M48
; DRILL file {KiCad 8.0.5} date 2024-11-17T15:10:07-0500
; FORMAT={-:-/ absolute / metric / decimal}
; #@! TF.CreationDate,2024-11-17T15:10:07-05:00
; #@! TF.GenerationSoftware,Kicad,Pcbnew,8.0.5
; #@! TF.FileFunction,Plated,1,2,PTH
FMAT,2
METRIC
; #@! TA.AperFunction,Plated,PTH,ViaDrill
T1C0.300
; #@! TA.AperFunction,Plated,PTH,ComponentDrill
T2C0.800
; #@! TA.AperFunction,Plated,PTH,ComponentDrill
T3C1.000
; #@! TA.AperFunction,Plated,PTH,ComponentDrill
T4C1.020
%
G90
G05
T1
X111.5Y-118.0
X138.275Y-107.225
X138.275Y-111.225
X138.5Y-79.0
X138.5Y-83.0
X138.5Y-87.0
X138.5Y-91.0
X138.5Y-95.0
X138.5Y-99.0
X138.5Y-103.0
X141.275Y-109.725
X141.29Y-105.71
X141.5Y-77.5
X141.5Y-85.5
X141.5Y-93.5
X141.5Y-101.5
X141.515Y-81.485
X141.515Y-89.485
X141.515Y-97.485
X144.0Y-85.0
X144.0Y-107.0
X145.0Y-90.5
X145.0Y-103.0
X149.981Y-107.981
X151.0Y-110.5
X151.0Y-115.5
X152.96Y-112.96
X162.5Y-71.0
X164.0Y-71.0
T2
X137.5Y-66.42
X137.5Y-68.96
X137.5Y-71.5
X137.5Y-74.04
X145.12Y-66.42
X145.12Y-68.96
X145.12Y-71.5
X145.12Y-74.04
X147.76Y-82.48
X147.76Y-85.02
X147.76Y-87.56
X147.76Y-90.1
X147.76Y-92.64
X147.76Y-95.18
X147.76Y-97.72
X147.76Y-100.26
X147.76Y-102.8
X147.76Y-105.34
X147.76Y-107.88
X147.76Y-110.42
X147.76Y-112.96
X147.76Y-115.5
X148.38Y-77.5
X149.0Y-67.5
X149.0Y-72.5
X156.0Y-77.5
X163.0Y-82.48
X163.0Y-85.02
X163.0Y-87.56
X163.0Y-90.1
X163.0Y-92.64
X163.0Y-95.18
X163.0Y-97.72
X163.0Y-100.26
X163.0Y-102.8
X163.0Y-105.34
X163.0Y-107.88
X163.0Y-110.42
X163.0Y-112.96
X163.0Y-115.5
X168.5Y-100.5
X168.5Y-105.5
T3
X154.0Y-67.445
X154.0Y-69.985
X154.0Y-72.525
X163.42Y-66.5
X165.96Y-66.5
X166.5Y-73.96
X166.5Y-76.5
X168.5Y-66.5
X171.04Y-66.5
X174.5Y-77.18
X174.5Y-79.72
X174.5Y-82.26
X174.5Y-84.8
X174.5Y-87.34
X174.5Y-89.88
X174.5Y-92.42
X174.5Y-94.96
X174.5Y-97.5
X174.5Y-100.04
X174.5Y-102.58
X174.5Y-105.12
X174.5Y-107.66
X174.5Y-110.2
X174.5Y-112.74
X174.5Y-115.28
T4
X111.885Y-66.87
X111.885Y-69.41
X111.885Y-71.95
X111.885Y-74.49
X111.885Y-77.03
X111.885Y-79.57
X111.885Y-82.11
X111.885Y-84.65
X111.885Y-87.19
X111.885Y-89.73
X111.885Y-92.27
X111.885Y-94.81
X111.885Y-97.35
X111.885Y-99.89
X111.885Y-102.43
X111.885Y-104.97
X111.885Y-107.51
X111.885Y-110.05
X111.885Y-112.59
X111.885Y-115.13
X118.235Y-67.1
X120.775Y-67.1
X123.315Y-67.1
X129.665Y-66.87
X129.665Y-69.41
X129.665Y-71.95
X129.665Y-74.49
X129.665Y-77.03
X129.665Y-79.57
X129.665Y-82.11
X129.665Y-84.65
X129.665Y-87.19
X129.665Y-89.73
X129.665Y-92.27
X129.665Y-94.81
X129.665Y-97.35
X129.665Y-99.89
X129.665Y-102.43
X129.665Y-104.97
X129.665Y-107.51
X129.665Y-110.05
X129.665Y-112.59
X129.665Y-115.13
M30
