%TF.GenerationSoftware,KiCad,Pcbnew,8.0.5*%
%TF.CreationDate,2024-11-17T15:10:29-05:00*%
%TF.ProjectId,kb-usb-to-coco,6b622d75-7362-42d7-946f-2d636f636f2e,rev?*%
%TF.SameCoordinates,Original*%
%TF.FileFunction,Soldermask,Bot*%
%TF.FilePolarity,Negative*%
%FSLAX46Y46*%
G04 Gerber Fmt 4.6, Leading zero omitted, Abs format (unit mm)*
G04 Created by KiCad (PCBNEW 8.0.5) date 2024-11-17 15:10:29*
%MOMM*%
%LPD*%
G01*
G04 APERTURE LIST*
%ADD10R,2.400000X1.600000*%
%ADD11O,2.400000X1.600000*%
%ADD12O,1.800000X1.800000*%
%ADD13O,1.500000X1.500000*%
%ADD14O,1.700000X1.700000*%
%ADD15R,1.700000X1.700000*%
%ADD16C,1.600000*%
%ADD17O,1.600000X1.600000*%
G04 APERTURE END LIST*
D10*
%TO.C,U2*%
X137500000Y-66420000D03*
D11*
X137500000Y-68960000D03*
X137500000Y-71500000D03*
X137500000Y-74040000D03*
X145120000Y-74040000D03*
X145120000Y-71500000D03*
X145120000Y-68960000D03*
X145120000Y-66420000D03*
%TD*%
D12*
%TO.C,U1*%
X118050000Y-115000000D03*
X123500000Y-115000000D03*
D13*
X123200000Y-111970000D03*
X118350000Y-111970000D03*
D14*
X129665000Y-115130000D03*
X129665000Y-112590000D03*
D15*
X129665000Y-110050000D03*
D14*
X129665000Y-107510000D03*
X129665000Y-104970000D03*
X129665000Y-102430000D03*
X129665000Y-99890000D03*
D15*
X129665000Y-97350000D03*
D14*
X129665000Y-94810000D03*
X129665000Y-92270000D03*
X129665000Y-89730000D03*
X129665000Y-87190000D03*
D15*
X129665000Y-84650000D03*
D14*
X129665000Y-82110000D03*
X129665000Y-79570000D03*
X129665000Y-77030000D03*
X129665000Y-74490000D03*
D15*
X129665000Y-71950000D03*
D14*
X129665000Y-69410000D03*
X129665000Y-66870000D03*
X111885000Y-66870000D03*
X111885000Y-69410000D03*
D15*
X111885000Y-71950000D03*
D14*
X111885000Y-74490000D03*
X111885000Y-77030000D03*
X111885000Y-79570000D03*
X111885000Y-82110000D03*
D15*
X111885000Y-84650000D03*
D14*
X111885000Y-87190000D03*
X111885000Y-89730000D03*
X111885000Y-92270000D03*
X111885000Y-94810000D03*
D15*
X111885000Y-97350000D03*
D14*
X111885000Y-99890000D03*
X111885000Y-102430000D03*
X111885000Y-104970000D03*
X111885000Y-107510000D03*
D15*
X111885000Y-110050000D03*
D14*
X111885000Y-112590000D03*
X111885000Y-115130000D03*
X123315000Y-67100000D03*
D15*
X120775000Y-67100000D03*
D14*
X118235000Y-67100000D03*
%TD*%
D16*
%TO.C,R19*%
X156000000Y-77500000D03*
D17*
X148380000Y-77500000D03*
%TD*%
D15*
%TO.C,J4*%
X166500000Y-73960000D03*
D14*
X166500000Y-76500000D03*
%TD*%
D15*
%TO.C,J3*%
X174500000Y-77180000D03*
D14*
X174500000Y-79720000D03*
X174500000Y-82260000D03*
X174500000Y-84800000D03*
X174500000Y-87340000D03*
X174500000Y-89880000D03*
X174500000Y-92420000D03*
X174500000Y-94960000D03*
X174500000Y-97500000D03*
X174500000Y-100040000D03*
X174500000Y-102580000D03*
X174500000Y-105120000D03*
X174500000Y-107660000D03*
X174500000Y-110200000D03*
X174500000Y-112740000D03*
X174500000Y-115280000D03*
%TD*%
D15*
%TO.C,J2*%
X154000000Y-72525000D03*
D14*
X154000000Y-69985000D03*
X154000000Y-67445000D03*
%TD*%
D15*
%TO.C,J1*%
X163420000Y-66500000D03*
D14*
X165960000Y-66500000D03*
X168500000Y-66500000D03*
X171040000Y-66500000D03*
%TD*%
D16*
%TO.C,C2*%
X149000000Y-67500000D03*
X149000000Y-72500000D03*
%TD*%
%TO.C,C1*%
X168500000Y-100500000D03*
X168500000Y-105500000D03*
%TD*%
D10*
%TO.C,U3*%
X147760000Y-82480000D03*
D11*
X147760000Y-85020000D03*
X147760000Y-87560000D03*
X147760000Y-90100000D03*
X147760000Y-92640000D03*
X147760000Y-95180000D03*
X147760000Y-97720000D03*
X147760000Y-100260000D03*
X147760000Y-102800000D03*
X147760000Y-105340000D03*
X147760000Y-107880000D03*
X147760000Y-110420000D03*
X147760000Y-112960000D03*
X147760000Y-115500000D03*
X163000000Y-115500000D03*
X163000000Y-112960000D03*
X163000000Y-110420000D03*
X163000000Y-107880000D03*
X163000000Y-105340000D03*
X163000000Y-102800000D03*
X163000000Y-100260000D03*
X163000000Y-97720000D03*
X163000000Y-95180000D03*
X163000000Y-92640000D03*
X163000000Y-90100000D03*
X163000000Y-87560000D03*
X163000000Y-85020000D03*
X163000000Y-82480000D03*
%TD*%
M02*
