%TF.GenerationSoftware,KiCad,Pcbnew,8.0.5*%
%TF.CreationDate,2024-11-17T15:10:29-05:00*%
%TF.ProjectId,kb-usb-to-coco,6b622d75-7362-42d7-946f-2d636f636f2e,rev?*%
%TF.SameCoordinates,Original*%
%TF.FileFunction,Soldermask,Top*%
%TF.FilePolarity,Negative*%
%FSLAX46Y46*%
G04 Gerber Fmt 4.6, Leading zero omitted, Abs format (unit mm)*
G04 Created by KiCad (PCBNEW 8.0.5) date 2024-11-17 15:10:29*
%MOMM*%
%LPD*%
G01*
G04 APERTURE LIST*
G04 Aperture macros list*
%AMRoundRect*
0 Rectangle with rounded corners*
0 $1 Rounding radius*
0 $2 $3 $4 $5 $6 $7 $8 $9 X,Y pos of 4 corners*
0 Add a 4 corners polygon primitive as box body*
4,1,4,$2,$3,$4,$5,$6,$7,$8,$9,$2,$3,0*
0 Add four circle primitives for the rounded corners*
1,1,$1+$1,$2,$3*
1,1,$1+$1,$4,$5*
1,1,$1+$1,$6,$7*
1,1,$1+$1,$8,$9*
0 Add four rect primitives between the rounded corners*
20,1,$1+$1,$2,$3,$4,$5,0*
20,1,$1+$1,$4,$5,$6,$7,0*
20,1,$1+$1,$6,$7,$8,$9,0*
20,1,$1+$1,$8,$9,$2,$3,0*%
G04 Aperture macros list end*
%ADD10R,2.400000X1.600000*%
%ADD11O,2.400000X1.600000*%
%ADD12O,1.800000X1.800000*%
%ADD13O,1.500000X1.500000*%
%ADD14O,1.700000X1.700000*%
%ADD15R,3.500000X1.700000*%
%ADD16R,1.700000X1.700000*%
%ADD17R,1.700000X3.500000*%
%ADD18C,1.600000*%
%ADD19O,1.600000X1.600000*%
%ADD20RoundRect,0.200000X-0.275000X0.200000X-0.275000X-0.200000X0.275000X-0.200000X0.275000X0.200000X0*%
%ADD21RoundRect,0.150000X-0.587500X-0.150000X0.587500X-0.150000X0.587500X0.150000X-0.587500X0.150000X0*%
G04 APERTURE END LIST*
D10*
%TO.C,U2*%
X137500000Y-66420000D03*
D11*
X137500000Y-68960000D03*
X137500000Y-71500000D03*
X137500000Y-74040000D03*
X145120000Y-74040000D03*
X145120000Y-71500000D03*
X145120000Y-68960000D03*
X145120000Y-66420000D03*
%TD*%
D12*
%TO.C,U1*%
X118050000Y-115000000D03*
X123500000Y-115000000D03*
D13*
X123200000Y-111970000D03*
X118350000Y-111970000D03*
D14*
X129665000Y-115130000D03*
D15*
X130565000Y-115130000D03*
D14*
X129665000Y-112590000D03*
D15*
X130565000Y-112590000D03*
X130565000Y-110050000D03*
D16*
X129665000Y-110050000D03*
D14*
X129665000Y-107510000D03*
D15*
X130565000Y-107510000D03*
D14*
X129665000Y-104970000D03*
D15*
X130565000Y-104970000D03*
D14*
X129665000Y-102430000D03*
D15*
X130565000Y-102430000D03*
X130565000Y-99890000D03*
D14*
X129665000Y-99890000D03*
D16*
X129665000Y-97350000D03*
D15*
X130565000Y-97350000D03*
X130565000Y-94810000D03*
D14*
X129665000Y-94810000D03*
X129665000Y-92270000D03*
D15*
X130565000Y-92270000D03*
X130565000Y-89730000D03*
D14*
X129665000Y-89730000D03*
X129665000Y-87190000D03*
D15*
X130565000Y-87190000D03*
D16*
X129665000Y-84650000D03*
D15*
X130565000Y-84650000D03*
X130565000Y-82110000D03*
D14*
X129665000Y-82110000D03*
X129665000Y-79570000D03*
D15*
X130565000Y-79570000D03*
X130565000Y-77030000D03*
D14*
X129665000Y-77030000D03*
D15*
X130565000Y-74490000D03*
D14*
X129665000Y-74490000D03*
D15*
X130565000Y-71950000D03*
D16*
X129665000Y-71950000D03*
D14*
X129665000Y-69410000D03*
D15*
X130565000Y-69410000D03*
X130565000Y-66870000D03*
D14*
X129665000Y-66870000D03*
D15*
X110985000Y-66870000D03*
D14*
X111885000Y-66870000D03*
D15*
X110985000Y-69410000D03*
D14*
X111885000Y-69410000D03*
D15*
X110985000Y-71950000D03*
D16*
X111885000Y-71950000D03*
D14*
X111885000Y-74490000D03*
D15*
X110985000Y-74490000D03*
X110985000Y-77030000D03*
D14*
X111885000Y-77030000D03*
D15*
X110985000Y-79570000D03*
D14*
X111885000Y-79570000D03*
X111885000Y-82110000D03*
D15*
X110985000Y-82110000D03*
D16*
X111885000Y-84650000D03*
D15*
X110985000Y-84650000D03*
D14*
X111885000Y-87190000D03*
D15*
X110985000Y-87190000D03*
X110985000Y-89730000D03*
D14*
X111885000Y-89730000D03*
X111885000Y-92270000D03*
D15*
X110985000Y-92270000D03*
D14*
X111885000Y-94810000D03*
D15*
X110985000Y-94810000D03*
X110985000Y-97350000D03*
D16*
X111885000Y-97350000D03*
D15*
X110985000Y-99890000D03*
D14*
X111885000Y-99890000D03*
D15*
X110985000Y-102430000D03*
D14*
X111885000Y-102430000D03*
X111885000Y-104970000D03*
D15*
X110985000Y-104970000D03*
X110985000Y-107510000D03*
D14*
X111885000Y-107510000D03*
D15*
X110985000Y-110050000D03*
D16*
X111885000Y-110050000D03*
D15*
X110985000Y-112590000D03*
D14*
X111885000Y-112590000D03*
X111885000Y-115130000D03*
D15*
X110985000Y-115130000D03*
D17*
X123315000Y-66200000D03*
D14*
X123315000Y-67100000D03*
D16*
X120775000Y-67100000D03*
D17*
X120775000Y-66200000D03*
D14*
X118235000Y-67100000D03*
D17*
X118235000Y-66200000D03*
%TD*%
D18*
%TO.C,R19*%
X156000000Y-77500000D03*
D19*
X148380000Y-77500000D03*
%TD*%
D20*
%TO.C,R18*%
X142900000Y-77400000D03*
X142900000Y-79050000D03*
%TD*%
%TO.C,R17*%
X142900000Y-81406250D03*
X142900000Y-83056250D03*
%TD*%
%TO.C,R16*%
X142900000Y-85412500D03*
X142900000Y-87062500D03*
%TD*%
%TO.C,R15*%
X136775000Y-78400000D03*
X136775000Y-80050000D03*
%TD*%
%TO.C,R14*%
X136775000Y-82400000D03*
X136775000Y-84050000D03*
%TD*%
%TO.C,R13*%
X136775000Y-86400000D03*
X136775000Y-88050000D03*
%TD*%
%TO.C,R12*%
X142900000Y-89418750D03*
X142900000Y-91068750D03*
%TD*%
%TO.C,R11*%
X136775000Y-90400000D03*
X136775000Y-92050000D03*
%TD*%
%TO.C,R10*%
X142900000Y-93425000D03*
X142900000Y-95075000D03*
%TD*%
%TO.C,R9*%
X136775000Y-94400000D03*
X136775000Y-96050000D03*
%TD*%
%TO.C,R8*%
X142900000Y-97431250D03*
X142900000Y-99081250D03*
%TD*%
%TO.C,R7*%
X136775000Y-98400000D03*
X136775000Y-100050000D03*
%TD*%
%TO.C,R6*%
X142900000Y-101437500D03*
X142900000Y-103087500D03*
%TD*%
%TO.C,R5*%
X136775000Y-102400000D03*
X136775000Y-104050000D03*
%TD*%
%TO.C,R4*%
X142900000Y-105443750D03*
X142900000Y-107093750D03*
%TD*%
%TO.C,R3*%
X136775000Y-106400000D03*
X136775000Y-108050000D03*
%TD*%
%TO.C,R2*%
X142900000Y-109450000D03*
X142900000Y-111100000D03*
%TD*%
%TO.C,R1*%
X136775000Y-110450000D03*
X136775000Y-112100000D03*
%TD*%
D21*
%TO.C,Q2*%
X138900000Y-106325000D03*
X138900000Y-108225000D03*
X140775000Y-107275000D03*
%TD*%
%TO.C,Q1*%
X138900000Y-110275000D03*
X138900000Y-112175000D03*
X140775000Y-111225000D03*
%TD*%
D16*
%TO.C,J4*%
X166500000Y-73960000D03*
D14*
X166500000Y-76500000D03*
%TD*%
D16*
%TO.C,J3*%
X174500000Y-77180000D03*
D14*
X174500000Y-79720000D03*
X174500000Y-82260000D03*
X174500000Y-84800000D03*
X174500000Y-87340000D03*
X174500000Y-89880000D03*
X174500000Y-92420000D03*
X174500000Y-94960000D03*
X174500000Y-97500000D03*
X174500000Y-100040000D03*
X174500000Y-102580000D03*
X174500000Y-105120000D03*
X174500000Y-107660000D03*
X174500000Y-110200000D03*
X174500000Y-112740000D03*
X174500000Y-115280000D03*
%TD*%
D16*
%TO.C,J2*%
X154000000Y-72525000D03*
D14*
X154000000Y-69985000D03*
X154000000Y-67445000D03*
%TD*%
D16*
%TO.C,J1*%
X163420000Y-66500000D03*
D14*
X165960000Y-66500000D03*
X168500000Y-66500000D03*
X171040000Y-66500000D03*
%TD*%
D18*
%TO.C,C2*%
X149000000Y-67500000D03*
X149000000Y-72500000D03*
%TD*%
%TO.C,C1*%
X168500000Y-100500000D03*
X168500000Y-105500000D03*
%TD*%
D21*
%TO.C,Q5*%
X138900000Y-94225000D03*
X138900000Y-96125000D03*
X140775000Y-95175000D03*
%TD*%
%TO.C,Q3*%
X138900000Y-102275000D03*
X138900000Y-104175000D03*
X140775000Y-103225000D03*
%TD*%
%TO.C,Q4*%
X138900000Y-98275000D03*
X138900000Y-100175000D03*
X140775000Y-99225000D03*
%TD*%
%TO.C,Q6*%
X138900000Y-90225000D03*
X138900000Y-92125000D03*
X140775000Y-91175000D03*
%TD*%
%TO.C,Q7*%
X138900000Y-86225000D03*
X138900000Y-88125000D03*
X140775000Y-87175000D03*
%TD*%
%TO.C,Q8*%
X138900000Y-82225000D03*
X138900000Y-84125000D03*
X140775000Y-83175000D03*
%TD*%
%TO.C,Q9*%
X138900000Y-78225000D03*
X138900000Y-80125000D03*
X140775000Y-79175000D03*
%TD*%
D10*
%TO.C,U3*%
X147760000Y-82480000D03*
D11*
X147760000Y-85020000D03*
X147760000Y-87560000D03*
X147760000Y-90100000D03*
X147760000Y-92640000D03*
X147760000Y-95180000D03*
X147760000Y-97720000D03*
X147760000Y-100260000D03*
X147760000Y-102800000D03*
X147760000Y-105340000D03*
X147760000Y-107880000D03*
X147760000Y-110420000D03*
X147760000Y-112960000D03*
X147760000Y-115500000D03*
X163000000Y-115500000D03*
X163000000Y-112960000D03*
X163000000Y-110420000D03*
X163000000Y-107880000D03*
X163000000Y-105340000D03*
X163000000Y-102800000D03*
X163000000Y-100260000D03*
X163000000Y-97720000D03*
X163000000Y-95180000D03*
X163000000Y-92640000D03*
X163000000Y-90100000D03*
X163000000Y-87560000D03*
X163000000Y-85020000D03*
X163000000Y-82480000D03*
%TD*%
M02*
