%TF.GenerationSoftware,KiCad,Pcbnew,8.0.5*%
%TF.CreationDate,2024-11-17T15:10:29-05:00*%
%TF.ProjectId,kb-usb-to-coco,6b622d75-7362-42d7-946f-2d636f636f2e,rev?*%
%TF.SameCoordinates,Original*%
%TF.FileFunction,Legend,Bot*%
%TF.FilePolarity,Positive*%
%FSLAX46Y46*%
G04 Gerber Fmt 4.6, Leading zero omitted, Abs format (unit mm)*
G04 Created by KiCad (PCBNEW 8.0.5) date 2024-11-17 15:10:29*
%MOMM*%
%LPD*%
G01*
G04 APERTURE LIST*
%ADD10C,0.200000*%
%ADD11C,0.000000*%
G04 APERTURE END LIST*
D10*
G36*
X126906377Y-95989624D02*
G01*
X126911006Y-95945466D01*
X126927629Y-95908280D01*
X126960783Y-95883378D01*
X127003098Y-95876295D01*
X127043057Y-95881906D01*
X127079239Y-95900499D01*
X127090439Y-95910294D01*
X127113814Y-95943521D01*
X127124099Y-95983704D01*
X127124633Y-95996463D01*
X127124633Y-96364000D01*
X127282316Y-96364000D01*
X127282316Y-95538654D01*
X127124633Y-95538654D01*
X127124633Y-95839366D01*
X127098497Y-95805168D01*
X127069037Y-95778046D01*
X127030465Y-95755345D01*
X126987367Y-95742276D01*
X126946824Y-95738738D01*
X126907614Y-95741829D01*
X126878827Y-95748508D01*
X126841024Y-95764354D01*
X126815715Y-95780357D01*
X126787920Y-95808054D01*
X126767807Y-95844224D01*
X126766671Y-95846986D01*
X126755032Y-95885669D01*
X126749554Y-95926069D01*
X126748694Y-95951718D01*
X126748694Y-96364000D01*
X126906377Y-96364000D01*
X126906377Y-95989624D01*
G37*
G36*
X126343642Y-95776254D02*
G01*
X126343642Y-95876295D01*
X126431374Y-95876295D01*
X126431374Y-96199087D01*
X126427405Y-96238135D01*
X126421213Y-96251452D01*
X126383444Y-96263909D01*
X126379594Y-96263958D01*
X126343642Y-96260636D01*
X126343642Y-96376114D01*
X126382723Y-96385370D01*
X126421732Y-96388808D01*
X126434696Y-96389010D01*
X126479165Y-96385547D01*
X126522579Y-96372248D01*
X126555140Y-96348974D01*
X126576847Y-96315727D01*
X126587700Y-96272505D01*
X126589057Y-96247154D01*
X126589057Y-95876295D01*
X126666629Y-95876295D01*
X126666629Y-95776254D01*
X126589057Y-95776254D01*
X126589057Y-95613685D01*
X126431374Y-95613685D01*
X126431374Y-95776254D01*
X126343642Y-95776254D01*
G37*
G36*
X125982553Y-95776254D02*
G01*
X125982553Y-95876295D01*
X126070285Y-95876295D01*
X126070285Y-96199087D01*
X126066316Y-96238135D01*
X126060125Y-96251452D01*
X126022355Y-96263909D01*
X126018506Y-96263958D01*
X125982553Y-96260636D01*
X125982553Y-96376114D01*
X126021634Y-96385370D01*
X126060644Y-96388808D01*
X126073607Y-96389010D01*
X126118076Y-96385547D01*
X126161491Y-96372248D01*
X126194051Y-96348974D01*
X126215758Y-96315727D01*
X126226612Y-96272505D01*
X126227969Y-96247154D01*
X126227969Y-95876295D01*
X126305540Y-95876295D01*
X126305540Y-95776254D01*
X126227969Y-95776254D01*
X126227969Y-95613685D01*
X126070285Y-95613685D01*
X126070285Y-95776254D01*
X125982553Y-95776254D01*
G37*
G36*
X125591545Y-95742434D02*
G01*
X125633475Y-95756087D01*
X125670020Y-95779801D01*
X125697058Y-95808135D01*
X125720139Y-95843860D01*
X125720139Y-95751243D01*
X125877822Y-95751243D01*
X125877822Y-96601599D01*
X125720139Y-96601599D01*
X125720139Y-96285451D01*
X125701179Y-96315285D01*
X125670020Y-96348557D01*
X125633475Y-96371919D01*
X125591545Y-96385369D01*
X125551318Y-96389010D01*
X125511650Y-96385699D01*
X125468635Y-96373467D01*
X125429136Y-96352221D01*
X125398077Y-96326836D01*
X125369601Y-96294830D01*
X125352566Y-96270586D01*
X125331271Y-96231781D01*
X125315086Y-96190050D01*
X125304013Y-96145392D01*
X125298689Y-96105942D01*
X125297007Y-96066609D01*
X125454598Y-96066609D01*
X125454924Y-96081523D01*
X125459819Y-96123213D01*
X125472145Y-96164169D01*
X125491723Y-96199478D01*
X125511629Y-96222217D01*
X125546525Y-96244143D01*
X125587466Y-96251452D01*
X125619165Y-96247387D01*
X125655755Y-96229321D01*
X125683600Y-96200064D01*
X125694126Y-96183152D01*
X125709827Y-96144577D01*
X125717855Y-96104443D01*
X125720139Y-96064460D01*
X125719568Y-96043910D01*
X125714108Y-96001356D01*
X125702869Y-95963903D01*
X125683600Y-95928270D01*
X125663890Y-95905531D01*
X125628920Y-95883604D01*
X125587466Y-95876295D01*
X125555673Y-95880453D01*
X125519005Y-95898932D01*
X125491137Y-95928856D01*
X125480610Y-95946078D01*
X125464910Y-95985302D01*
X125456882Y-96026053D01*
X125454598Y-96066609D01*
X125297007Y-96066609D01*
X125296915Y-96064460D01*
X125297528Y-96039289D01*
X125301275Y-95998954D01*
X125310266Y-95953223D01*
X125324163Y-95910404D01*
X125342964Y-95870498D01*
X125366671Y-95833504D01*
X125371074Y-95827674D01*
X125399349Y-95796579D01*
X125430796Y-95772147D01*
X125471497Y-95752064D01*
X125509821Y-95742069D01*
X125551318Y-95738738D01*
X125591545Y-95742434D01*
G37*
G36*
X125084521Y-96188926D02*
G01*
X125069454Y-96226254D01*
X125052477Y-96244809D01*
X125014491Y-96259750D01*
X124972936Y-96263789D01*
X124960641Y-96263958D01*
X124919870Y-96261410D01*
X124880669Y-96251280D01*
X124874668Y-96248521D01*
X124846058Y-96220074D01*
X124843600Y-96205535D01*
X124855519Y-96177007D01*
X124891211Y-96158746D01*
X124896552Y-96157077D01*
X125084521Y-96098459D01*
X125098199Y-96094355D01*
X125115589Y-96087907D01*
X125134151Y-96080482D01*
X125155059Y-96069345D01*
X125173621Y-96054690D01*
X125191011Y-96035542D01*
X125203907Y-96011704D01*
X125214068Y-95980636D01*
X125217389Y-95943316D01*
X125214182Y-95903906D01*
X125202663Y-95863468D01*
X125182767Y-95827940D01*
X125154492Y-95797321D01*
X125150369Y-95793839D01*
X125113806Y-95769732D01*
X125076804Y-95754289D01*
X125035128Y-95744119D01*
X124995684Y-95739599D01*
X124967480Y-95738738D01*
X124923326Y-95740606D01*
X124882896Y-95746212D01*
X124840432Y-95757474D01*
X124803037Y-95773823D01*
X124775017Y-95791885D01*
X124744352Y-95820926D01*
X124722114Y-95855095D01*
X124708302Y-95894394D01*
X124702916Y-95938822D01*
X124854933Y-95938822D01*
X124866542Y-95899254D01*
X124899904Y-95874341D01*
X124942256Y-95864963D01*
X124968652Y-95863790D01*
X125008130Y-95868147D01*
X125035086Y-95879226D01*
X125058841Y-95911534D01*
X125059706Y-95921041D01*
X125048569Y-95949177D01*
X125012430Y-95966723D01*
X125004605Y-95969303D01*
X124805498Y-96026944D01*
X124764926Y-96043074D01*
X124728200Y-96069323D01*
X124702901Y-96103576D01*
X124689027Y-96145832D01*
X124686112Y-96180915D01*
X124690069Y-96219988D01*
X124698618Y-96249694D01*
X124715998Y-96285237D01*
X124738478Y-96316323D01*
X124767858Y-96342578D01*
X124804583Y-96362537D01*
X124821130Y-96369080D01*
X124861413Y-96380427D01*
X124902202Y-96386655D01*
X124942305Y-96388932D01*
X124951653Y-96389010D01*
X125001820Y-96387251D01*
X125047176Y-96381976D01*
X125087719Y-96373183D01*
X125134292Y-96355988D01*
X125172310Y-96332541D01*
X125201773Y-96302841D01*
X125222682Y-96266889D01*
X125235036Y-96224683D01*
X125238687Y-96188926D01*
X125084521Y-96188926D01*
G37*
G36*
X124425261Y-96201431D02*
G01*
X124425261Y-96364000D01*
X124594082Y-96364000D01*
X124594082Y-96201431D01*
X124425261Y-96201431D01*
G37*
G36*
X124425261Y-95776254D02*
G01*
X124425261Y-95938822D01*
X124594082Y-95938822D01*
X124594082Y-95776254D01*
X124425261Y-95776254D01*
G37*
G36*
X124136468Y-95563665D02*
G01*
X124061046Y-95563665D01*
X124292979Y-96376505D01*
X124368206Y-96376505D01*
X124136468Y-95563665D01*
G37*
G36*
X123825400Y-95563665D02*
G01*
X123749978Y-95563665D01*
X123981911Y-96376505D01*
X124057138Y-96376505D01*
X123825400Y-95563665D01*
G37*
G36*
X123401786Y-95776254D02*
G01*
X123401786Y-95876295D01*
X123489518Y-95876295D01*
X123489518Y-96199087D01*
X123485549Y-96238135D01*
X123479357Y-96251452D01*
X123441587Y-96263909D01*
X123437738Y-96263958D01*
X123401786Y-96260636D01*
X123401786Y-96376114D01*
X123440866Y-96385370D01*
X123479876Y-96388808D01*
X123492839Y-96389010D01*
X123537309Y-96385547D01*
X123580723Y-96372248D01*
X123613284Y-96348974D01*
X123634991Y-96315727D01*
X123645844Y-96272505D01*
X123647201Y-96247154D01*
X123647201Y-95876295D01*
X123724772Y-95876295D01*
X123724772Y-95776254D01*
X123647201Y-95776254D01*
X123647201Y-95613685D01*
X123489518Y-95613685D01*
X123489518Y-95776254D01*
X123401786Y-95776254D01*
G37*
G36*
X122938310Y-95989624D02*
G01*
X122942939Y-95945466D01*
X122959562Y-95908280D01*
X122992716Y-95883378D01*
X123035031Y-95876295D01*
X123074990Y-95881906D01*
X123111172Y-95900499D01*
X123122372Y-95910294D01*
X123145747Y-95943521D01*
X123156032Y-95983704D01*
X123156566Y-95996463D01*
X123156566Y-96364000D01*
X123314249Y-96364000D01*
X123314249Y-95538654D01*
X123156566Y-95538654D01*
X123156566Y-95839366D01*
X123130430Y-95805168D01*
X123100970Y-95778046D01*
X123062398Y-95755345D01*
X123019300Y-95742276D01*
X122978757Y-95738738D01*
X122939547Y-95741829D01*
X122910760Y-95748508D01*
X122872957Y-95764354D01*
X122847648Y-95780357D01*
X122819853Y-95808054D01*
X122799740Y-95844224D01*
X122798604Y-95846986D01*
X122786965Y-95885669D01*
X122781487Y-95926069D01*
X122780627Y-95951718D01*
X122780627Y-96364000D01*
X122938310Y-96364000D01*
X122938310Y-95989624D01*
G37*
G36*
X122423720Y-95739084D02*
G01*
X122469437Y-95744270D01*
X122511281Y-95755680D01*
X122549250Y-95773313D01*
X122583345Y-95797171D01*
X122613565Y-95827251D01*
X122635293Y-95856496D01*
X122656506Y-95895770D01*
X122672415Y-95939605D01*
X122681622Y-95979619D01*
X122687146Y-96022801D01*
X122688987Y-96069150D01*
X122687827Y-96105426D01*
X122683114Y-96147972D01*
X122674775Y-96187407D01*
X122659984Y-96230625D01*
X122639971Y-96269363D01*
X122614738Y-96303623D01*
X122600296Y-96318882D01*
X122568519Y-96344899D01*
X122532881Y-96364911D01*
X122493382Y-96378920D01*
X122450023Y-96386925D01*
X122410941Y-96389010D01*
X122385748Y-96388216D01*
X122343598Y-96383007D01*
X122303917Y-96372936D01*
X122266704Y-96358003D01*
X122231960Y-96338207D01*
X122196838Y-96310535D01*
X122168066Y-96278515D01*
X122145645Y-96242147D01*
X122129574Y-96201431D01*
X122284912Y-96201431D01*
X122295836Y-96219444D01*
X122326443Y-96246311D01*
X122363973Y-96260050D01*
X122405275Y-96263958D01*
X122430080Y-96262411D01*
X122468973Y-96250866D01*
X122480819Y-96243515D01*
X122507271Y-96212960D01*
X122513230Y-96200589D01*
X122525247Y-96162743D01*
X122528389Y-96142025D01*
X122531304Y-96101390D01*
X122123907Y-96101390D01*
X122122735Y-96075598D01*
X122122893Y-96061171D01*
X122125263Y-96019745D01*
X122127830Y-96001348D01*
X122287061Y-96001348D01*
X122529155Y-96001348D01*
X122523827Y-95969108D01*
X122510695Y-95928808D01*
X122487578Y-95894015D01*
X122450878Y-95870372D01*
X122409769Y-95863790D01*
X122393141Y-95864663D01*
X122355446Y-95875104D01*
X122323795Y-95899547D01*
X122308329Y-95922056D01*
X122293959Y-95959522D01*
X122287061Y-96001348D01*
X122127830Y-96001348D01*
X122131231Y-95976980D01*
X122140711Y-95937649D01*
X122149090Y-95912375D01*
X122165846Y-95874356D01*
X122187410Y-95840734D01*
X122194750Y-95831755D01*
X122222938Y-95803550D01*
X122255017Y-95780357D01*
X122257445Y-95778893D01*
X122293460Y-95760378D01*
X122331025Y-95747726D01*
X122366345Y-95741275D01*
X122407620Y-95738738D01*
X122423720Y-95739084D01*
G37*
G36*
X122008234Y-96364000D02*
G01*
X121850551Y-96364000D01*
X121850551Y-96298152D01*
X121831620Y-96324327D01*
X121800597Y-96353518D01*
X121764300Y-96374015D01*
X121722731Y-96385816D01*
X121682902Y-96389010D01*
X121643214Y-96385733D01*
X121600122Y-96373628D01*
X121560491Y-96352603D01*
X121529274Y-96327481D01*
X121500599Y-96295807D01*
X121483426Y-96271795D01*
X121461959Y-96233109D01*
X121445645Y-96191222D01*
X121434482Y-96146134D01*
X121429115Y-96106115D01*
X121427377Y-96065046D01*
X121585010Y-96065046D01*
X121585336Y-96080171D01*
X121590230Y-96122391D01*
X121602557Y-96163756D01*
X121622135Y-96199282D01*
X121642040Y-96222107D01*
X121676937Y-96244116D01*
X121717878Y-96251452D01*
X121749576Y-96247326D01*
X121786167Y-96228985D01*
X121814012Y-96199282D01*
X121824538Y-96182168D01*
X121840238Y-96143074D01*
X121848267Y-96102342D01*
X121850551Y-96061725D01*
X121850224Y-96046570D01*
X121845330Y-96004343D01*
X121833003Y-95963115D01*
X121813426Y-95927879D01*
X121793532Y-95905311D01*
X121758700Y-95883549D01*
X121717878Y-95876295D01*
X121686605Y-95880469D01*
X121650198Y-95899016D01*
X121622135Y-95929052D01*
X121611439Y-95946282D01*
X121595487Y-95985209D01*
X121587330Y-96025332D01*
X121585010Y-96065046D01*
X121427377Y-96065046D01*
X121427327Y-96063874D01*
X121428471Y-96029152D01*
X121433123Y-95987973D01*
X121441351Y-95949265D01*
X121455949Y-95906078D01*
X121475698Y-95866449D01*
X121500599Y-95830378D01*
X121529274Y-95799234D01*
X121560491Y-95774535D01*
X121600122Y-95753862D01*
X121643214Y-95741960D01*
X121682902Y-95738738D01*
X121709885Y-95740188D01*
X121752961Y-95749705D01*
X121790764Y-95768104D01*
X121823294Y-95795386D01*
X121850551Y-95831550D01*
X121850551Y-95538654D01*
X122008234Y-95538654D01*
X122008234Y-96364000D01*
G37*
G36*
X121324354Y-95751243D02*
G01*
X121166671Y-95751243D01*
X121166671Y-95853239D01*
X121147232Y-95818558D01*
X121120602Y-95787412D01*
X121096915Y-95768633D01*
X121061918Y-95750416D01*
X121021090Y-95740168D01*
X120997850Y-95738738D01*
X120978701Y-95739715D01*
X120978701Y-95880789D01*
X121018610Y-95876510D01*
X121028331Y-95876295D01*
X121068185Y-95879868D01*
X121107093Y-95893589D01*
X121140192Y-95922602D01*
X121158024Y-95958617D01*
X121166130Y-96004924D01*
X121166671Y-96022646D01*
X121166671Y-96364000D01*
X121324354Y-96364000D01*
X121324354Y-95751243D01*
G37*
G36*
X120665171Y-95739084D02*
G01*
X120710889Y-95744270D01*
X120752732Y-95755680D01*
X120790701Y-95773313D01*
X120824796Y-95797171D01*
X120855017Y-95827251D01*
X120876745Y-95856496D01*
X120897957Y-95895770D01*
X120913867Y-95939605D01*
X120923073Y-95979619D01*
X120928597Y-96022801D01*
X120930439Y-96069150D01*
X120929279Y-96105426D01*
X120924566Y-96147972D01*
X120916227Y-96187407D01*
X120901435Y-96230625D01*
X120881422Y-96269363D01*
X120856189Y-96303623D01*
X120841748Y-96318882D01*
X120809970Y-96344899D01*
X120774332Y-96364911D01*
X120734834Y-96378920D01*
X120691475Y-96386925D01*
X120652393Y-96389010D01*
X120627199Y-96388216D01*
X120585050Y-96383007D01*
X120545369Y-96372936D01*
X120508156Y-96358003D01*
X120473412Y-96338207D01*
X120438290Y-96310535D01*
X120409518Y-96278515D01*
X120387096Y-96242147D01*
X120371025Y-96201431D01*
X120526363Y-96201431D01*
X120537288Y-96219444D01*
X120567894Y-96246311D01*
X120605425Y-96260050D01*
X120646726Y-96263958D01*
X120671532Y-96262411D01*
X120710425Y-96250866D01*
X120722271Y-96243515D01*
X120748722Y-96212960D01*
X120754682Y-96200589D01*
X120766698Y-96162743D01*
X120769840Y-96142025D01*
X120772756Y-96101390D01*
X120365359Y-96101390D01*
X120364186Y-96075598D01*
X120364344Y-96061171D01*
X120366714Y-96019745D01*
X120369282Y-96001348D01*
X120528513Y-96001348D01*
X120770606Y-96001348D01*
X120765279Y-95969108D01*
X120752147Y-95928808D01*
X120729030Y-95894015D01*
X120692329Y-95870372D01*
X120651220Y-95863790D01*
X120634593Y-95864663D01*
X120596898Y-95875104D01*
X120565247Y-95899547D01*
X120549781Y-95922056D01*
X120535410Y-95959522D01*
X120528513Y-96001348D01*
X120369282Y-96001348D01*
X120372683Y-95976980D01*
X120382163Y-95937649D01*
X120390541Y-95912375D01*
X120407298Y-95874356D01*
X120428862Y-95840734D01*
X120436201Y-95831755D01*
X120464390Y-95803550D01*
X120496468Y-95780357D01*
X120498897Y-95778893D01*
X120534912Y-95760378D01*
X120572477Y-95747726D01*
X120607796Y-95741275D01*
X120649071Y-95738738D01*
X120665171Y-95739084D01*
G37*
G36*
X120024842Y-95738933D02*
G01*
X120067443Y-95741864D01*
X120117941Y-95751243D01*
X120161233Y-95766875D01*
X120197320Y-95788759D01*
X120226201Y-95816896D01*
X120247878Y-95851285D01*
X120262349Y-95891927D01*
X120269615Y-95938822D01*
X120117794Y-95938822D01*
X120111774Y-95912654D01*
X120088485Y-95880008D01*
X120086973Y-95879010D01*
X120048148Y-95866467D01*
X120006419Y-95863790D01*
X119962310Y-95868736D01*
X119928002Y-95888214D01*
X119915170Y-95926316D01*
X119918687Y-95948787D01*
X119931583Y-95966177D01*
X119947996Y-95978291D01*
X119971053Y-95986498D01*
X119992937Y-95991578D01*
X120018729Y-95996267D01*
X120041200Y-95999198D01*
X120104312Y-96010727D01*
X120136298Y-96017767D01*
X120182616Y-96034736D01*
X120220195Y-96058250D01*
X120249035Y-96088309D01*
X120269135Y-96124913D01*
X120280496Y-96168062D01*
X120283293Y-96207293D01*
X120282057Y-96232100D01*
X120273606Y-96272834D01*
X120257149Y-96308528D01*
X120232686Y-96339184D01*
X120212495Y-96356117D01*
X120177932Y-96374948D01*
X120138237Y-96385896D01*
X120098645Y-96389010D01*
X120061256Y-96386022D01*
X120019249Y-96374982D01*
X119978982Y-96355808D01*
X119945851Y-96332899D01*
X119913998Y-96304013D01*
X119911874Y-96328116D01*
X119896022Y-96364000D01*
X119725052Y-96364000D01*
X119725052Y-96345046D01*
X119727263Y-96343023D01*
X119752016Y-96310608D01*
X119761004Y-96271773D01*
X119761004Y-96117021D01*
X119915170Y-96117021D01*
X119917210Y-96150275D01*
X119926674Y-96189418D01*
X119947801Y-96225856D01*
X119963367Y-96240702D01*
X119999123Y-96258600D01*
X120040027Y-96263958D01*
X120067321Y-96261127D01*
X120102553Y-96243832D01*
X120115680Y-96228153D01*
X120125610Y-96188731D01*
X120123644Y-96167947D01*
X120105484Y-96133239D01*
X120073349Y-96114005D01*
X120035533Y-96103148D01*
X119981604Y-96092792D01*
X119953390Y-96086229D01*
X119915170Y-96073057D01*
X119915170Y-96117021D01*
X119761004Y-96117021D01*
X119761004Y-95925144D01*
X119764891Y-95881455D01*
X119776550Y-95843591D01*
X119802055Y-95804453D01*
X119839706Y-95774417D01*
X119878571Y-95756942D01*
X119925209Y-95745291D01*
X119965289Y-95740376D01*
X120009741Y-95738738D01*
X120024842Y-95738933D01*
G37*
G36*
X119463614Y-95989624D02*
G01*
X119264507Y-95751243D01*
X119085526Y-95751243D01*
X119292644Y-95982785D01*
X119070872Y-96364000D01*
X119255519Y-96364000D01*
X119400697Y-96093965D01*
X119463614Y-96163134D01*
X119463614Y-96364000D01*
X119621297Y-96364000D01*
X119621297Y-95538654D01*
X119463614Y-95538654D01*
X119463614Y-95989624D01*
G37*
G36*
X118832100Y-95989624D02*
G01*
X118632993Y-95751243D01*
X118454012Y-95751243D01*
X118661130Y-95982785D01*
X118439357Y-96364000D01*
X118624005Y-96364000D01*
X118769183Y-96093965D01*
X118832100Y-96163134D01*
X118832100Y-96364000D01*
X118989783Y-96364000D01*
X118989783Y-95538654D01*
X118832100Y-95538654D01*
X118832100Y-95989624D01*
G37*
G36*
X118149275Y-95739084D02*
G01*
X118194992Y-95744270D01*
X118236836Y-95755680D01*
X118274805Y-95773313D01*
X118308899Y-95797171D01*
X118339120Y-95827251D01*
X118360848Y-95856496D01*
X118382061Y-95895770D01*
X118397970Y-95939605D01*
X118407177Y-95979619D01*
X118412701Y-96022801D01*
X118414542Y-96069150D01*
X118413382Y-96105426D01*
X118408669Y-96147972D01*
X118400330Y-96187407D01*
X118385538Y-96230625D01*
X118365526Y-96269363D01*
X118340292Y-96303623D01*
X118325851Y-96318882D01*
X118294074Y-96344899D01*
X118258436Y-96364911D01*
X118218937Y-96378920D01*
X118175578Y-96386925D01*
X118136496Y-96389010D01*
X118111302Y-96388216D01*
X118069153Y-96383007D01*
X118029472Y-96372936D01*
X117992259Y-96358003D01*
X117957515Y-96338207D01*
X117922393Y-96310535D01*
X117893621Y-96278515D01*
X117871200Y-96242147D01*
X117855128Y-96201431D01*
X118010467Y-96201431D01*
X118021391Y-96219444D01*
X118051998Y-96246311D01*
X118089528Y-96260050D01*
X118130830Y-96263958D01*
X118155635Y-96262411D01*
X118194528Y-96250866D01*
X118206374Y-96243515D01*
X118232825Y-96212960D01*
X118238785Y-96200589D01*
X118250802Y-96162743D01*
X118253943Y-96142025D01*
X118256859Y-96101390D01*
X117849462Y-96101390D01*
X117848290Y-96075598D01*
X117848448Y-96061171D01*
X117850817Y-96019745D01*
X117853385Y-96001348D01*
X118012616Y-96001348D01*
X118254710Y-96001348D01*
X118249382Y-95969108D01*
X118236250Y-95928808D01*
X118213133Y-95894015D01*
X118176433Y-95870372D01*
X118135324Y-95863790D01*
X118118696Y-95864663D01*
X118081001Y-95875104D01*
X118049350Y-95899547D01*
X118033884Y-95922056D01*
X118019513Y-95959522D01*
X118012616Y-96001348D01*
X117853385Y-96001348D01*
X117856786Y-95976980D01*
X117866266Y-95937649D01*
X117874645Y-95912375D01*
X117891401Y-95874356D01*
X117912965Y-95840734D01*
X117920305Y-95831755D01*
X117948493Y-95803550D01*
X117980571Y-95780357D01*
X117983000Y-95778893D01*
X118019015Y-95760378D01*
X118056580Y-95747726D01*
X118091900Y-95741275D01*
X118133174Y-95738738D01*
X118149275Y-95739084D01*
G37*
G36*
X117592128Y-96377091D02*
G01*
X117592128Y-96372597D01*
X117818199Y-95751243D01*
X117644884Y-95751243D01*
X117511039Y-96185800D01*
X117385010Y-95751243D01*
X117222832Y-95751243D01*
X117472742Y-96459547D01*
X117477236Y-96474593D01*
X117484661Y-96493351D01*
X117493649Y-96513476D01*
X117506545Y-96535360D01*
X117524521Y-96554900D01*
X117549922Y-96574244D01*
X117581967Y-96588117D01*
X117620653Y-96598089D01*
X117623586Y-96598473D01*
X117663271Y-96601449D01*
X117675366Y-96601599D01*
X117714469Y-96599075D01*
X117731639Y-96596714D01*
X117731639Y-96469903D01*
X117692152Y-96476521D01*
X117690020Y-96476547D01*
X117649605Y-96468440D01*
X117620264Y-96447824D01*
X117598310Y-96413556D01*
X117592128Y-96377091D01*
G37*
G36*
X116990118Y-96201431D02*
G01*
X116990118Y-96364000D01*
X117158939Y-96364000D01*
X117158939Y-96201431D01*
X116990118Y-96201431D01*
G37*
G36*
X116604605Y-95863790D02*
G01*
X116648166Y-95870989D01*
X116682714Y-95892586D01*
X116708249Y-95928582D01*
X116722644Y-95969576D01*
X116729654Y-96009571D01*
X116732658Y-96055965D01*
X116732784Y-96068563D01*
X116730646Y-96111745D01*
X116723133Y-96154486D01*
X116708440Y-96194725D01*
X116698590Y-96211983D01*
X116671968Y-96241574D01*
X116636133Y-96259846D01*
X116604605Y-96263958D01*
X116565699Y-96258849D01*
X116532504Y-96240706D01*
X116508146Y-96207453D01*
X116493910Y-96170490D01*
X116492058Y-96163916D01*
X116341213Y-96163916D01*
X116348975Y-96207318D01*
X116362515Y-96246569D01*
X116381834Y-96281669D01*
X116406930Y-96312617D01*
X116423865Y-96328438D01*
X116457004Y-96352040D01*
X116493845Y-96369845D01*
X116534389Y-96381853D01*
X116578636Y-96388064D01*
X116605582Y-96389010D01*
X116646310Y-96386959D01*
X116691318Y-96379082D01*
X116732108Y-96365297D01*
X116768681Y-96345605D01*
X116801035Y-96320006D01*
X116815631Y-96304990D01*
X116841063Y-96271019D01*
X116861234Y-96232267D01*
X116876143Y-96188734D01*
X116884547Y-96148804D01*
X116889297Y-96105554D01*
X116890467Y-96068563D01*
X116888625Y-96021254D01*
X116883101Y-95977388D01*
X116873895Y-95936967D01*
X116861005Y-95899990D01*
X116840676Y-95860164D01*
X116815045Y-95825297D01*
X116784625Y-95795881D01*
X116749932Y-95772550D01*
X116710967Y-95755306D01*
X116667730Y-95744148D01*
X116628434Y-95739499D01*
X116603433Y-95738738D01*
X116562313Y-95740840D01*
X116518194Y-95748606D01*
X116478228Y-95762094D01*
X116442412Y-95781304D01*
X116419371Y-95798528D01*
X116391589Y-95826808D01*
X116369790Y-95859501D01*
X116353975Y-95896606D01*
X116344144Y-95938125D01*
X116341213Y-95963832D01*
X116492058Y-95963832D01*
X116504979Y-95925016D01*
X116526283Y-95891408D01*
X116530941Y-95886847D01*
X116566655Y-95868203D01*
X116604605Y-95863790D01*
G37*
G36*
X115992117Y-95739492D02*
G01*
X116032564Y-95744099D01*
X116077246Y-95755156D01*
X116117725Y-95772245D01*
X116154000Y-95795365D01*
X116186070Y-95824516D01*
X116209093Y-95852925D01*
X116231570Y-95891412D01*
X116248427Y-95934693D01*
X116258182Y-95974424D01*
X116264036Y-96017484D01*
X116265987Y-96063874D01*
X116264738Y-96101255D01*
X116259665Y-96144994D01*
X116250690Y-96185412D01*
X116234769Y-96229532D01*
X116213229Y-96268870D01*
X116186070Y-96303427D01*
X116165142Y-96323486D01*
X116130188Y-96348559D01*
X116090962Y-96367614D01*
X116047463Y-96380652D01*
X116007950Y-96386921D01*
X115965470Y-96389010D01*
X115940002Y-96388251D01*
X115899806Y-96383612D01*
X115855285Y-96372479D01*
X115814818Y-96355274D01*
X115778404Y-96331996D01*
X115746042Y-96302646D01*
X115722682Y-96274159D01*
X115699876Y-96236020D01*
X115682771Y-96193568D01*
X115672873Y-96154896D01*
X115666934Y-96113227D01*
X115664954Y-96068563D01*
X115665051Y-96066219D01*
X115822442Y-96066219D01*
X115823420Y-96092890D01*
X115829052Y-96132210D01*
X115841374Y-96171511D01*
X115862497Y-96209052D01*
X115889681Y-96238006D01*
X115924828Y-96257470D01*
X115965470Y-96263958D01*
X116006623Y-96257400D01*
X116041956Y-96237729D01*
X116069029Y-96208466D01*
X116082376Y-96186475D01*
X116097219Y-96149057D01*
X116105849Y-96106323D01*
X116108303Y-96063874D01*
X116107345Y-96036851D01*
X116101822Y-95997027D01*
X116089740Y-95957247D01*
X116069029Y-95919282D01*
X116041956Y-95890019D01*
X116006623Y-95870347D01*
X115965470Y-95863790D01*
X115923632Y-95870278D01*
X115888119Y-95889742D01*
X115861325Y-95918696D01*
X115846174Y-95944522D01*
X115832163Y-95983030D01*
X115824872Y-96022267D01*
X115822442Y-96066219D01*
X115665051Y-96066219D01*
X115666891Y-96021577D01*
X115672701Y-95977949D01*
X115682385Y-95937680D01*
X115695942Y-95900769D01*
X115717324Y-95860908D01*
X115744284Y-95825884D01*
X115765109Y-95805459D01*
X115800067Y-95779928D01*
X115839490Y-95760524D01*
X115883378Y-95747248D01*
X115923362Y-95740865D01*
X115966447Y-95738738D01*
X115992117Y-95739492D01*
G37*
G36*
X115572728Y-95751243D02*
G01*
X115416217Y-95751243D01*
X115416217Y-95827447D01*
X115389289Y-95797791D01*
X115358002Y-95771137D01*
X115339036Y-95759254D01*
X115300591Y-95744528D01*
X115259131Y-95738918D01*
X115249546Y-95738738D01*
X115207418Y-95742014D01*
X115164764Y-95754120D01*
X115129103Y-95775145D01*
X115100437Y-95805090D01*
X115084242Y-95831941D01*
X115057392Y-95800266D01*
X115022282Y-95771596D01*
X114983095Y-95751844D01*
X114939832Y-95741013D01*
X114906433Y-95738738D01*
X114863312Y-95741876D01*
X114825198Y-95751292D01*
X114788305Y-95769387D01*
X114763991Y-95788954D01*
X114739244Y-95820244D01*
X114722596Y-95857840D01*
X114714597Y-95896552D01*
X114712798Y-95928856D01*
X114712798Y-96364000D01*
X114870285Y-96364000D01*
X114870285Y-95955625D01*
X114879292Y-95916165D01*
X114893342Y-95897984D01*
X114928574Y-95879345D01*
X114955868Y-95876295D01*
X114995960Y-95882392D01*
X115029620Y-95902453D01*
X115035198Y-95908145D01*
X115055815Y-95943316D01*
X115063472Y-95982688D01*
X115063921Y-95996463D01*
X115063921Y-96364000D01*
X115221409Y-96364000D01*
X115221409Y-95955625D01*
X115230415Y-95916165D01*
X115244465Y-95897984D01*
X115279697Y-95879345D01*
X115306992Y-95876295D01*
X115347084Y-95882392D01*
X115380744Y-95902453D01*
X115386322Y-95908145D01*
X115406938Y-95943316D01*
X115414596Y-95982688D01*
X115415045Y-95996463D01*
X115415045Y-96364000D01*
X115572728Y-96364000D01*
X115572728Y-95751243D01*
G37*
G36*
X124765247Y-92671249D02*
G01*
X124815511Y-92678436D01*
X124867385Y-92681223D01*
X124874423Y-92681263D01*
X124926337Y-92679062D01*
X124976748Y-92672461D01*
X124983356Y-92671249D01*
X125033459Y-92658655D01*
X125081384Y-92640703D01*
X125091800Y-92636078D01*
X125137507Y-92611140D01*
X125177605Y-92580780D01*
X125188031Y-92571109D01*
X125220916Y-92531485D01*
X125246429Y-92485734D01*
X125254954Y-92465840D01*
X125269694Y-92418454D01*
X125278315Y-92366969D01*
X125280844Y-92316608D01*
X125280844Y-91618318D01*
X125069818Y-91618318D01*
X125069818Y-92323691D01*
X125065047Y-92377167D01*
X125046729Y-92429374D01*
X125014672Y-92468529D01*
X124968877Y-92494632D01*
X124920219Y-92506415D01*
X124874423Y-92509316D01*
X124818063Y-92504784D01*
X124763039Y-92487381D01*
X124721772Y-92456927D01*
X124694260Y-92413422D01*
X124680504Y-92356864D01*
X124678785Y-92323691D01*
X124678785Y-91618318D01*
X124467759Y-91618318D01*
X124467759Y-92316608D01*
X124470311Y-92366969D01*
X124479014Y-92418454D01*
X124493893Y-92465840D01*
X124515406Y-92511441D01*
X124543439Y-92552548D01*
X124560571Y-92571109D01*
X124599113Y-92603019D01*
X124643358Y-92629506D01*
X124657047Y-92636078D01*
X124705046Y-92655312D01*
X124755331Y-92669279D01*
X124765247Y-92671249D01*
G37*
G36*
X123495673Y-91930949D02*
G01*
X123692532Y-91930949D01*
X123703520Y-91877826D01*
X123733465Y-91829740D01*
X123773811Y-91800431D01*
X123827707Y-91782113D01*
X123882970Y-91775244D01*
X123907710Y-91774633D01*
X123959812Y-91778760D01*
X124007565Y-91792676D01*
X124037159Y-91809560D01*
X124071520Y-91847280D01*
X124084844Y-91895412D01*
X124085031Y-91902616D01*
X124074833Y-91952259D01*
X124044242Y-91987369D01*
X123999250Y-92008987D01*
X123948513Y-92024519D01*
X123897825Y-92036258D01*
X123890858Y-92037683D01*
X123730634Y-92067725D01*
X123680050Y-92079505D01*
X123627916Y-92096636D01*
X123583192Y-92117413D01*
X123541151Y-92145623D01*
X123523761Y-92161514D01*
X123492473Y-92202721D01*
X123471425Y-92252429D01*
X123461312Y-92303751D01*
X123459036Y-92346650D01*
X123462943Y-92403222D01*
X123474664Y-92454968D01*
X123494199Y-92501888D01*
X123521547Y-92543983D01*
X123556709Y-92581252D01*
X123570167Y-92592602D01*
X123614906Y-92622733D01*
X123665776Y-92646630D01*
X123712851Y-92661782D01*
X123764184Y-92672604D01*
X123819774Y-92679098D01*
X123879622Y-92681263D01*
X123939065Y-92679199D01*
X123994202Y-92673010D01*
X124045034Y-92662694D01*
X124100349Y-92644868D01*
X124149465Y-92621100D01*
X124185659Y-92596755D01*
X124223031Y-92562437D01*
X124253447Y-92522863D01*
X124276909Y-92478035D01*
X124293416Y-92427952D01*
X124302967Y-92372614D01*
X124304605Y-92353000D01*
X124099197Y-92353000D01*
X124089014Y-92401119D01*
X124063489Y-92443869D01*
X124034472Y-92469260D01*
X123988180Y-92492065D01*
X123936278Y-92504582D01*
X123881572Y-92509159D01*
X123868387Y-92509316D01*
X123817719Y-92506456D01*
X123768899Y-92496572D01*
X123720705Y-92475392D01*
X123717201Y-92473168D01*
X123681145Y-92439242D01*
X123662873Y-92392520D01*
X123661513Y-92373272D01*
X123671120Y-92322146D01*
X123702543Y-92281098D01*
X123705233Y-92278995D01*
X123750795Y-92254105D01*
X123799777Y-92238086D01*
X123847687Y-92227229D01*
X123854221Y-92225994D01*
X123997836Y-92198394D01*
X124053203Y-92186027D01*
X124102250Y-92171272D01*
X124151484Y-92151041D01*
X124197218Y-92123942D01*
X124220097Y-92104849D01*
X124252093Y-92064490D01*
X124273618Y-92015127D01*
X124283960Y-91963691D01*
X124286287Y-91920446D01*
X124282706Y-91865981D01*
X124271964Y-91816341D01*
X124250381Y-91764528D01*
X124219050Y-91719283D01*
X124184437Y-91685729D01*
X124143259Y-91657507D01*
X124096292Y-91635125D01*
X124043539Y-91618581D01*
X123995157Y-91609255D01*
X123942755Y-91603984D01*
X123897941Y-91602686D01*
X123848599Y-91604243D01*
X123797743Y-91609333D01*
X123794626Y-91609769D01*
X123746344Y-91619454D01*
X123698859Y-91634401D01*
X123688380Y-91638346D01*
X123642172Y-91659797D01*
X123599199Y-91688176D01*
X123591416Y-91694521D01*
X123556128Y-91732657D01*
X123530321Y-91775171D01*
X123523272Y-91790020D01*
X123506454Y-91838461D01*
X123497856Y-91887511D01*
X123495673Y-91930949D01*
G37*
G36*
X123295638Y-92650000D02*
G01*
X122834263Y-92650000D01*
X122808999Y-92649568D01*
X122755393Y-92645445D01*
X122706268Y-92636954D01*
X122656943Y-92622400D01*
X122626128Y-92609365D01*
X122581569Y-92583050D01*
X122545079Y-92548883D01*
X122540488Y-92543138D01*
X122512839Y-92502660D01*
X122490858Y-92455826D01*
X122478218Y-92407955D01*
X122474005Y-92358618D01*
X122475178Y-92345917D01*
X122676726Y-92345917D01*
X122678098Y-92369531D01*
X122695168Y-92421147D01*
X122731747Y-92456245D01*
X122779758Y-92473407D01*
X122832797Y-92478053D01*
X123084612Y-92478053D01*
X123084612Y-92212316D01*
X122832797Y-92212316D01*
X122813898Y-92212838D01*
X122757353Y-92222884D01*
X122711019Y-92250022D01*
X122684195Y-92293860D01*
X122676726Y-92345917D01*
X122475178Y-92345917D01*
X122478161Y-92313633D01*
X122494121Y-92262800D01*
X122522050Y-92215402D01*
X122554468Y-92178527D01*
X122595199Y-92144037D01*
X122644242Y-92111933D01*
X122608995Y-92086974D01*
X122569453Y-92052506D01*
X122536042Y-92011549D01*
X122523385Y-91988458D01*
X122508126Y-91940985D01*
X122505807Y-91916050D01*
X122706280Y-91916050D01*
X122706425Y-91923698D01*
X122718065Y-91976146D01*
X122753420Y-92016574D01*
X122804635Y-92035999D01*
X122855268Y-92040369D01*
X123084612Y-92040369D01*
X123084612Y-91790265D01*
X122855268Y-91790265D01*
X122846102Y-91790388D01*
X122790086Y-91798126D01*
X122743527Y-91821711D01*
X122713409Y-91867038D01*
X122706280Y-91916050D01*
X122505807Y-91916050D01*
X122503558Y-91891870D01*
X122506550Y-91855472D01*
X122519190Y-91807850D01*
X122540915Y-91761816D01*
X122569015Y-91720167D01*
X122585765Y-91701300D01*
X122625802Y-91670479D01*
X122673063Y-91646894D01*
X122686344Y-91641787D01*
X122733933Y-91628392D01*
X122786627Y-91620578D01*
X122838415Y-91618318D01*
X123295638Y-91618318D01*
X123295638Y-92650000D01*
G37*
G36*
X121601325Y-91915317D02*
G01*
X121601325Y-92040369D01*
X121710990Y-92040369D01*
X121710990Y-92443859D01*
X121706029Y-92492669D01*
X121698289Y-92509316D01*
X121651077Y-92524886D01*
X121646266Y-92524947D01*
X121601325Y-92520795D01*
X121601325Y-92665143D01*
X121650176Y-92676713D01*
X121698938Y-92681011D01*
X121715142Y-92681263D01*
X121770729Y-92676933D01*
X121824997Y-92660310D01*
X121865697Y-92631218D01*
X121892831Y-92589659D01*
X121906398Y-92535631D01*
X121908094Y-92503942D01*
X121908094Y-92040369D01*
X122005058Y-92040369D01*
X122005058Y-91915317D01*
X121908094Y-91915317D01*
X121908094Y-91712107D01*
X121710990Y-91712107D01*
X121710990Y-91915317D01*
X121601325Y-91915317D01*
G37*
G36*
X121191577Y-91869365D02*
G01*
X121242135Y-91875124D01*
X121297989Y-91888945D01*
X121348587Y-91910306D01*
X121393930Y-91939206D01*
X121434019Y-91975645D01*
X121462797Y-92011157D01*
X121490893Y-92059265D01*
X121511964Y-92113367D01*
X121524159Y-92163030D01*
X121531475Y-92216855D01*
X121533914Y-92274842D01*
X121532353Y-92321569D01*
X121526012Y-92376242D01*
X121514793Y-92426765D01*
X121494892Y-92481915D01*
X121467968Y-92531088D01*
X121434019Y-92574284D01*
X121407858Y-92599357D01*
X121364166Y-92630699D01*
X121315133Y-92654518D01*
X121260760Y-92670815D01*
X121211369Y-92678651D01*
X121158269Y-92681263D01*
X121126433Y-92680314D01*
X121076188Y-92674515D01*
X121020538Y-92660599D01*
X120969953Y-92639093D01*
X120924436Y-92609995D01*
X120883984Y-92573307D01*
X120854783Y-92537699D01*
X120826275Y-92490026D01*
X120804895Y-92436960D01*
X120792522Y-92388620D01*
X120785098Y-92336534D01*
X120782623Y-92280704D01*
X120782744Y-92277773D01*
X120979483Y-92277773D01*
X120980705Y-92311112D01*
X120987746Y-92360262D01*
X121003149Y-92409389D01*
X121029553Y-92456315D01*
X121063532Y-92492508D01*
X121107466Y-92516837D01*
X121158269Y-92524947D01*
X121209709Y-92516751D01*
X121253876Y-92492161D01*
X121287717Y-92455582D01*
X121304401Y-92428093D01*
X121322955Y-92381322D01*
X121333742Y-92327904D01*
X121336810Y-92274842D01*
X121335611Y-92241064D01*
X121328708Y-92191284D01*
X121313606Y-92141558D01*
X121287717Y-92094103D01*
X121253876Y-92057524D01*
X121209709Y-92032934D01*
X121158269Y-92024738D01*
X121105970Y-92032848D01*
X121061580Y-92057177D01*
X121028087Y-92093370D01*
X121009148Y-92125652D01*
X120991634Y-92173787D01*
X120982521Y-92222834D01*
X120979483Y-92277773D01*
X120782744Y-92277773D01*
X120785044Y-92221972D01*
X120792307Y-92167437D01*
X120804412Y-92117100D01*
X120821358Y-92070961D01*
X120848086Y-92021135D01*
X120881786Y-91977355D01*
X120907817Y-91951824D01*
X120951514Y-91919910D01*
X121000793Y-91895655D01*
X121055653Y-91879060D01*
X121105633Y-91871082D01*
X121159490Y-91868422D01*
X121191577Y-91869365D01*
G37*
G36*
X119589741Y-91962212D02*
G01*
X119605470Y-91908173D01*
X119628080Y-91863293D01*
X119664296Y-91821528D01*
X119710421Y-91792951D01*
X119766454Y-91777564D01*
X119809315Y-91774633D01*
X119861503Y-91779320D01*
X119908431Y-91793380D01*
X119955623Y-91820926D01*
X119991282Y-91855071D01*
X120004954Y-91872575D01*
X120032362Y-91919082D01*
X120050497Y-91964769D01*
X120063687Y-92015831D01*
X120071930Y-92072268D01*
X120075021Y-92123405D01*
X120075296Y-92144905D01*
X120073632Y-92196655D01*
X120067244Y-92253923D01*
X120056064Y-92305918D01*
X120040093Y-92352641D01*
X120015404Y-92400487D01*
X120007152Y-92412840D01*
X119974649Y-92450431D01*
X119931178Y-92482088D01*
X119880959Y-92501684D01*
X119831483Y-92508939D01*
X119816398Y-92509316D01*
X119764024Y-92505143D01*
X119713172Y-92490717D01*
X119670048Y-92465987D01*
X119658617Y-92456559D01*
X119626494Y-92419093D01*
X119604006Y-92372944D01*
X119592006Y-92323987D01*
X119589741Y-92306106D01*
X119384333Y-92306106D01*
X119390104Y-92358256D01*
X119401158Y-92406937D01*
X119421397Y-92460772D01*
X119449243Y-92509610D01*
X119484697Y-92553451D01*
X119512560Y-92579902D01*
X119559458Y-92614349D01*
X119602461Y-92637610D01*
X119649031Y-92655922D01*
X119699166Y-92669285D01*
X119752868Y-92677699D01*
X119810135Y-92681164D01*
X119822016Y-92681263D01*
X119874120Y-92678996D01*
X119923453Y-92672195D01*
X119981223Y-92657319D01*
X120034665Y-92635358D01*
X120083777Y-92606314D01*
X120128560Y-92570186D01*
X120161269Y-92536182D01*
X120197295Y-92488305D01*
X120227215Y-92435346D01*
X120246754Y-92389322D01*
X120262386Y-92340046D01*
X120274109Y-92287518D01*
X120281925Y-92231739D01*
X120285833Y-92172709D01*
X120286322Y-92141974D01*
X120284345Y-92081318D01*
X120278414Y-92023913D01*
X120268530Y-91969760D01*
X120254692Y-91918859D01*
X120236901Y-91871208D01*
X120215155Y-91826810D01*
X120182414Y-91775883D01*
X120159804Y-91747766D01*
X120117996Y-91705971D01*
X120071800Y-91671259D01*
X120021215Y-91643632D01*
X119966241Y-91623088D01*
X119906879Y-91609628D01*
X119856229Y-91603961D01*
X119816398Y-91602686D01*
X119761286Y-91605024D01*
X119709370Y-91612036D01*
X119660651Y-91623723D01*
X119606406Y-91643919D01*
X119556763Y-91670847D01*
X119518911Y-91698429D01*
X119478911Y-91736875D01*
X119446107Y-91780403D01*
X119420499Y-91829015D01*
X119402086Y-91882711D01*
X119392239Y-91931340D01*
X119388729Y-91962212D01*
X119589741Y-91962212D01*
G37*
G36*
X118934773Y-91869365D02*
G01*
X118985332Y-91875124D01*
X119041185Y-91888945D01*
X119091783Y-91910306D01*
X119137127Y-91939206D01*
X119177215Y-91975645D01*
X119205993Y-92011157D01*
X119234089Y-92059265D01*
X119255160Y-92113367D01*
X119267355Y-92163030D01*
X119274671Y-92216855D01*
X119277110Y-92274842D01*
X119275549Y-92321569D01*
X119269208Y-92376242D01*
X119257990Y-92426765D01*
X119238089Y-92481915D01*
X119211164Y-92531088D01*
X119177215Y-92574284D01*
X119151054Y-92599357D01*
X119107362Y-92630699D01*
X119058330Y-92654518D01*
X119003956Y-92670815D01*
X118954565Y-92678651D01*
X118901465Y-92681263D01*
X118869629Y-92680314D01*
X118819384Y-92674515D01*
X118763734Y-92660599D01*
X118713150Y-92639093D01*
X118667632Y-92609995D01*
X118627180Y-92573307D01*
X118597979Y-92537699D01*
X118569472Y-92490026D01*
X118548091Y-92436960D01*
X118535718Y-92388620D01*
X118528294Y-92336534D01*
X118525819Y-92280704D01*
X118525940Y-92277773D01*
X118722679Y-92277773D01*
X118723901Y-92311112D01*
X118730942Y-92360262D01*
X118746345Y-92409389D01*
X118772749Y-92456315D01*
X118806728Y-92492508D01*
X118850662Y-92516837D01*
X118901465Y-92524947D01*
X118952905Y-92516751D01*
X118997072Y-92492161D01*
X119030913Y-92455582D01*
X119047597Y-92428093D01*
X119066151Y-92381322D01*
X119076938Y-92327904D01*
X119080006Y-92274842D01*
X119078808Y-92241064D01*
X119071904Y-92191284D01*
X119056802Y-92141558D01*
X119030913Y-92094103D01*
X118997072Y-92057524D01*
X118952905Y-92032934D01*
X118901465Y-92024738D01*
X118849166Y-92032848D01*
X118804776Y-92057177D01*
X118771283Y-92093370D01*
X118752345Y-92125652D01*
X118734830Y-92173787D01*
X118725717Y-92222834D01*
X118722679Y-92277773D01*
X118525940Y-92277773D01*
X118528240Y-92221972D01*
X118535503Y-92167437D01*
X118547608Y-92117100D01*
X118564555Y-92070961D01*
X118591282Y-92021135D01*
X118624982Y-91977355D01*
X118651013Y-91951824D01*
X118694710Y-91919910D01*
X118743989Y-91895655D01*
X118798849Y-91879060D01*
X118848830Y-91871082D01*
X118902686Y-91868422D01*
X118934773Y-91869365D01*
G37*
G36*
X117721772Y-91962212D02*
G01*
X117737501Y-91908173D01*
X117760111Y-91863293D01*
X117796327Y-91821528D01*
X117842451Y-91792951D01*
X117898485Y-91777564D01*
X117941346Y-91774633D01*
X117993534Y-91779320D01*
X118040462Y-91793380D01*
X118087654Y-91820926D01*
X118123312Y-91855071D01*
X118136985Y-91872575D01*
X118164393Y-91919082D01*
X118182528Y-91964769D01*
X118195717Y-92015831D01*
X118203960Y-92072268D01*
X118207052Y-92123405D01*
X118207326Y-92144905D01*
X118205663Y-92196655D01*
X118199274Y-92253923D01*
X118188094Y-92305918D01*
X118172123Y-92352641D01*
X118147434Y-92400487D01*
X118139183Y-92412840D01*
X118106680Y-92450431D01*
X118063209Y-92482088D01*
X118012990Y-92501684D01*
X117963514Y-92508939D01*
X117948429Y-92509316D01*
X117896055Y-92505143D01*
X117845203Y-92490717D01*
X117802078Y-92465987D01*
X117790648Y-92456559D01*
X117758524Y-92419093D01*
X117736037Y-92372944D01*
X117724037Y-92323987D01*
X117721772Y-92306106D01*
X117516363Y-92306106D01*
X117522134Y-92358256D01*
X117533189Y-92406937D01*
X117553427Y-92460772D01*
X117581274Y-92509610D01*
X117616728Y-92553451D01*
X117644591Y-92579902D01*
X117691488Y-92614349D01*
X117734492Y-92637610D01*
X117781062Y-92655922D01*
X117831197Y-92669285D01*
X117884898Y-92677699D01*
X117942165Y-92681164D01*
X117954047Y-92681263D01*
X118006150Y-92678996D01*
X118055484Y-92672195D01*
X118113254Y-92657319D01*
X118166695Y-92635358D01*
X118215807Y-92606314D01*
X118260590Y-92570186D01*
X118293300Y-92536182D01*
X118329326Y-92488305D01*
X118359246Y-92435346D01*
X118378785Y-92389322D01*
X118394416Y-92340046D01*
X118406140Y-92287518D01*
X118413956Y-92231739D01*
X118417864Y-92172709D01*
X118418352Y-92141974D01*
X118416375Y-92081318D01*
X118410445Y-92023913D01*
X118400561Y-91969760D01*
X118386723Y-91918859D01*
X118368931Y-91871208D01*
X118347186Y-91826810D01*
X118314445Y-91775883D01*
X118291834Y-91747766D01*
X118250027Y-91705971D01*
X118203831Y-91671259D01*
X118153246Y-91643632D01*
X118098272Y-91623088D01*
X118038910Y-91609628D01*
X117988260Y-91603961D01*
X117948429Y-91602686D01*
X117893317Y-91605024D01*
X117841401Y-91612036D01*
X117792681Y-91623723D01*
X117738436Y-91643919D01*
X117688794Y-91670847D01*
X117650941Y-91698429D01*
X117610942Y-91736875D01*
X117578138Y-91780403D01*
X117552530Y-91829015D01*
X117534117Y-91882711D01*
X117524270Y-91931340D01*
X117520760Y-91962212D01*
X117721772Y-91962212D01*
G37*
G36*
X117066803Y-91869365D02*
G01*
X117117362Y-91875124D01*
X117173216Y-91888945D01*
X117223814Y-91910306D01*
X117269157Y-91939206D01*
X117309246Y-91975645D01*
X117338024Y-92011157D01*
X117366119Y-92059265D01*
X117387191Y-92113367D01*
X117399385Y-92163030D01*
X117406702Y-92216855D01*
X117409141Y-92274842D01*
X117407580Y-92321569D01*
X117401239Y-92376242D01*
X117390020Y-92426765D01*
X117370119Y-92481915D01*
X117343194Y-92531088D01*
X117309246Y-92574284D01*
X117283085Y-92599357D01*
X117239393Y-92630699D01*
X117190360Y-92654518D01*
X117135987Y-92670815D01*
X117086595Y-92678651D01*
X117033495Y-92681263D01*
X117001660Y-92680314D01*
X116951414Y-92674515D01*
X116895764Y-92660599D01*
X116845180Y-92639093D01*
X116799662Y-92609995D01*
X116759211Y-92573307D01*
X116730010Y-92537699D01*
X116701502Y-92490026D01*
X116680121Y-92436960D01*
X116667748Y-92388620D01*
X116660324Y-92336534D01*
X116657850Y-92280704D01*
X116657971Y-92277773D01*
X116854710Y-92277773D01*
X116855932Y-92311112D01*
X116862973Y-92360262D01*
X116878375Y-92409389D01*
X116904779Y-92456315D01*
X116938759Y-92492508D01*
X116982693Y-92516837D01*
X117033495Y-92524947D01*
X117084936Y-92516751D01*
X117129103Y-92492161D01*
X117162944Y-92455582D01*
X117179628Y-92428093D01*
X117198182Y-92381322D01*
X117208969Y-92327904D01*
X117212037Y-92274842D01*
X117210838Y-92241064D01*
X117203935Y-92191284D01*
X117188833Y-92141558D01*
X117162944Y-92094103D01*
X117129103Y-92057524D01*
X117084936Y-92032934D01*
X117033495Y-92024738D01*
X116981197Y-92032848D01*
X116936807Y-92057177D01*
X116903314Y-92093370D01*
X116884375Y-92125652D01*
X116866861Y-92173787D01*
X116857747Y-92222834D01*
X116854710Y-92277773D01*
X116657971Y-92277773D01*
X116660271Y-92221972D01*
X116667534Y-92167437D01*
X116679638Y-92117100D01*
X116696585Y-92070961D01*
X116723313Y-92021135D01*
X116757012Y-91977355D01*
X116783043Y-91951824D01*
X116826741Y-91919910D01*
X116876020Y-91895655D01*
X116930880Y-91879060D01*
X116980860Y-91871082D01*
X117034717Y-91868422D01*
X117066803Y-91869365D01*
G37*
G36*
X124494870Y-93984640D02*
G01*
X124494870Y-94330000D01*
X124705896Y-94330000D01*
X124705896Y-93298318D01*
X124494870Y-93298318D01*
X124494870Y-93751144D01*
X124094067Y-93298318D01*
X123844940Y-93298318D01*
X124254291Y-93742595D01*
X123801464Y-94330000D01*
X124053279Y-94330000D01*
X124389357Y-93874242D01*
X124494870Y-93984640D01*
G37*
G36*
X123686914Y-94330000D02*
G01*
X123225540Y-94330000D01*
X123200276Y-94329568D01*
X123146669Y-94325445D01*
X123097545Y-94316954D01*
X123048219Y-94302400D01*
X123017405Y-94289365D01*
X122972846Y-94263050D01*
X122936356Y-94228883D01*
X122931765Y-94223138D01*
X122904116Y-94182660D01*
X122882134Y-94135826D01*
X122869495Y-94087955D01*
X122865281Y-94038618D01*
X122866455Y-94025917D01*
X123068003Y-94025917D01*
X123069375Y-94049531D01*
X123086445Y-94101147D01*
X123123024Y-94136245D01*
X123171034Y-94153407D01*
X123224074Y-94158053D01*
X123475889Y-94158053D01*
X123475889Y-93892316D01*
X123224074Y-93892316D01*
X123205175Y-93892838D01*
X123148630Y-93902884D01*
X123102296Y-93930022D01*
X123075471Y-93973860D01*
X123068003Y-94025917D01*
X122866455Y-94025917D01*
X122869438Y-93993633D01*
X122885397Y-93942800D01*
X122913327Y-93895402D01*
X122945745Y-93858527D01*
X122986476Y-93824037D01*
X123035519Y-93791933D01*
X123000271Y-93766974D01*
X122960730Y-93732506D01*
X122927319Y-93691549D01*
X122914662Y-93668458D01*
X122899403Y-93620985D01*
X122897084Y-93596050D01*
X123097556Y-93596050D01*
X123097702Y-93603698D01*
X123109342Y-93656146D01*
X123144697Y-93696574D01*
X123195912Y-93715999D01*
X123246545Y-93720369D01*
X123475889Y-93720369D01*
X123475889Y-93470265D01*
X123246545Y-93470265D01*
X123237378Y-93470388D01*
X123181362Y-93478126D01*
X123134803Y-93501711D01*
X123104686Y-93547038D01*
X123097556Y-93596050D01*
X122897084Y-93596050D01*
X122894835Y-93571870D01*
X122897827Y-93535472D01*
X122910466Y-93487850D01*
X122932192Y-93441816D01*
X122960292Y-93400167D01*
X122977042Y-93381300D01*
X123017078Y-93350479D01*
X123064339Y-93326894D01*
X123077621Y-93321787D01*
X123125210Y-93308392D01*
X123177903Y-93300578D01*
X123229692Y-93298318D01*
X123686914Y-93298318D01*
X123686914Y-94330000D01*
G37*
G36*
X122411722Y-94330000D02*
G01*
X122196545Y-94330000D01*
X122127668Y-94111158D01*
X121743474Y-94111158D01*
X121676063Y-94330000D01*
X121459420Y-94330000D01*
X121593661Y-93939211D01*
X121801360Y-93939211D01*
X122068561Y-93939211D01*
X121934960Y-93539630D01*
X121801360Y-93939211D01*
X121593661Y-93939211D01*
X121813816Y-93298318D01*
X122047556Y-93298318D01*
X122411722Y-94330000D01*
G37*
G36*
X120893020Y-93664438D02*
G01*
X120917070Y-93631015D01*
X120956150Y-93593741D01*
X121001540Y-93567569D01*
X121053242Y-93552501D01*
X121102581Y-93548422D01*
X121152200Y-93552544D01*
X121206096Y-93567771D01*
X121255691Y-93594218D01*
X121294777Y-93625817D01*
X121330704Y-93665659D01*
X121352113Y-93695846D01*
X121378875Y-93744418D01*
X121399214Y-93796939D01*
X121413130Y-93853411D01*
X121419820Y-93903488D01*
X121422050Y-93956308D01*
X121421265Y-93988061D01*
X121416463Y-94038816D01*
X121404940Y-94096149D01*
X121387131Y-94149584D01*
X121363037Y-94199121D01*
X121332658Y-94244759D01*
X121327020Y-94251926D01*
X121291094Y-94290154D01*
X121251561Y-94320190D01*
X121200881Y-94344879D01*
X121153534Y-94357167D01*
X121102581Y-94361263D01*
X121069440Y-94359488D01*
X121016219Y-94347842D01*
X120969075Y-94325327D01*
X120928009Y-94291943D01*
X120893020Y-94247690D01*
X120893020Y-94330000D01*
X120695916Y-94330000D01*
X120695916Y-93958995D01*
X120893020Y-93958995D01*
X120893428Y-93977890D01*
X120899546Y-94030504D01*
X120914955Y-94081805D01*
X120939427Y-94125568D01*
X120964309Y-94153458D01*
X121007929Y-94180351D01*
X121059106Y-94189316D01*
X121098078Y-94184157D01*
X121143490Y-94161231D01*
X121178540Y-94124103D01*
X121191909Y-94102811D01*
X121211849Y-94054755D01*
X121222046Y-94005263D01*
X121224946Y-93956308D01*
X121224221Y-93930891D01*
X121217288Y-93878058D01*
X121203012Y-93831252D01*
X121178540Y-93786315D01*
X121153673Y-93757464D01*
X121110133Y-93729643D01*
X121059106Y-93720369D01*
X121019364Y-93725586D01*
X120973529Y-93748770D01*
X120938694Y-93786315D01*
X120925536Y-93807919D01*
X120905911Y-93857101D01*
X120895875Y-93908177D01*
X120893020Y-93958995D01*
X120695916Y-93958995D01*
X120695916Y-93298318D01*
X120893020Y-93298318D01*
X120893020Y-93664438D01*
G37*
G36*
X120244137Y-93548667D02*
G01*
X120297388Y-93552330D01*
X120360510Y-93564054D01*
X120414625Y-93583593D01*
X120459734Y-93610949D01*
X120495836Y-93646120D01*
X120522931Y-93689106D01*
X120541021Y-93739909D01*
X120550104Y-93798527D01*
X120360327Y-93798527D01*
X120352802Y-93765817D01*
X120323690Y-93725010D01*
X120321801Y-93723763D01*
X120273269Y-93708084D01*
X120221108Y-93704738D01*
X120165971Y-93710920D01*
X120123087Y-93735268D01*
X120107047Y-93782896D01*
X120111443Y-93810983D01*
X120127563Y-93832721D01*
X120148080Y-93847864D01*
X120176900Y-93858122D01*
X120204256Y-93864473D01*
X120236496Y-93870334D01*
X120264584Y-93873998D01*
X120343474Y-93888408D01*
X120383456Y-93897208D01*
X120441354Y-93918420D01*
X120488328Y-93947812D01*
X120524378Y-93985386D01*
X120549503Y-94031141D01*
X120563705Y-94085077D01*
X120567201Y-94134117D01*
X120565656Y-94165125D01*
X120555092Y-94216042D01*
X120534521Y-94260661D01*
X120503942Y-94298981D01*
X120478703Y-94320147D01*
X120435499Y-94343685D01*
X120385881Y-94357370D01*
X120336391Y-94361263D01*
X120289654Y-94357527D01*
X120237146Y-94343728D01*
X120186811Y-94319760D01*
X120145398Y-94291124D01*
X120105582Y-94255017D01*
X120102926Y-94285145D01*
X120083111Y-94330000D01*
X119869399Y-94330000D01*
X119869399Y-94306308D01*
X119872164Y-94303778D01*
X119903104Y-94263260D01*
X119914339Y-94214717D01*
X119914339Y-94021277D01*
X120107047Y-94021277D01*
X120109596Y-94062844D01*
X120121427Y-94111773D01*
X120147836Y-94157320D01*
X120167293Y-94175878D01*
X120211987Y-94198250D01*
X120263118Y-94204947D01*
X120297236Y-94201409D01*
X120341276Y-94179790D01*
X120357685Y-94160191D01*
X120370097Y-94110914D01*
X120367640Y-94084934D01*
X120344940Y-94041549D01*
X120304771Y-94017506D01*
X120257501Y-94003935D01*
X120190090Y-93990990D01*
X120154822Y-93982786D01*
X120107047Y-93966322D01*
X120107047Y-94021277D01*
X119914339Y-94021277D01*
X119914339Y-93781430D01*
X119919198Y-93726819D01*
X119933772Y-93679489D01*
X119965654Y-93630567D01*
X120012717Y-93593022D01*
X120061298Y-93571177D01*
X120119596Y-93556614D01*
X120169696Y-93550470D01*
X120225261Y-93548422D01*
X120244137Y-93548667D01*
G37*
G36*
X119381859Y-93553042D02*
G01*
X119434272Y-93570109D01*
X119479953Y-93599752D01*
X119513751Y-93635169D01*
X119542602Y-93679825D01*
X119542602Y-93564054D01*
X119739706Y-93564054D01*
X119739706Y-94626999D01*
X119542602Y-94626999D01*
X119542602Y-94231814D01*
X119518903Y-94269106D01*
X119479953Y-94310697D01*
X119434272Y-94339898D01*
X119381859Y-94356712D01*
X119331576Y-94361263D01*
X119281991Y-94357124D01*
X119228222Y-94341833D01*
X119178848Y-94315276D01*
X119140025Y-94283546D01*
X119104430Y-94243538D01*
X119083135Y-94213232D01*
X119056517Y-94164726D01*
X119036286Y-94112562D01*
X119022445Y-94056740D01*
X119015790Y-94007428D01*
X119013687Y-93958262D01*
X119210676Y-93958262D01*
X119211084Y-93976904D01*
X119217202Y-94029016D01*
X119232610Y-94080212D01*
X119257082Y-94124347D01*
X119281964Y-94152771D01*
X119325584Y-94180179D01*
X119376761Y-94189316D01*
X119416384Y-94184234D01*
X119462122Y-94161652D01*
X119496928Y-94125080D01*
X119510086Y-94103940D01*
X119529712Y-94055721D01*
X119539747Y-94005553D01*
X119542602Y-93955575D01*
X119541888Y-93929888D01*
X119535064Y-93876696D01*
X119521014Y-93829879D01*
X119496928Y-93785338D01*
X119472290Y-93756914D01*
X119428579Y-93729506D01*
X119376761Y-93720369D01*
X119337020Y-93725566D01*
X119291184Y-93748665D01*
X119256349Y-93786071D01*
X119243191Y-93807598D01*
X119223566Y-93856628D01*
X119213530Y-93907566D01*
X119210676Y-93958262D01*
X119013687Y-93958262D01*
X119013572Y-93955575D01*
X119014338Y-93924111D01*
X119019021Y-93873693D01*
X119030261Y-93816529D01*
X119047632Y-93763005D01*
X119071134Y-93713122D01*
X119100766Y-93666880D01*
X119106271Y-93659592D01*
X119141614Y-93620723D01*
X119180924Y-93590183D01*
X119231799Y-93565081D01*
X119279704Y-93552587D01*
X119331576Y-93548422D01*
X119381859Y-93553042D01*
G37*
G36*
X118549755Y-93595317D02*
G01*
X118549755Y-93720369D01*
X118659420Y-93720369D01*
X118659420Y-94123859D01*
X118654458Y-94172669D01*
X118646719Y-94189316D01*
X118599507Y-94204886D01*
X118594695Y-94204947D01*
X118549755Y-94200795D01*
X118549755Y-94345143D01*
X118598606Y-94356713D01*
X118647368Y-94361011D01*
X118663572Y-94361263D01*
X118719158Y-94356933D01*
X118773426Y-94340310D01*
X118814127Y-94311218D01*
X118841261Y-94269659D01*
X118854828Y-94215631D01*
X118856524Y-94183942D01*
X118856524Y-93720369D01*
X118953488Y-93720369D01*
X118953488Y-93595317D01*
X118856524Y-93595317D01*
X118856524Y-93392107D01*
X118659420Y-93392107D01*
X118659420Y-93595317D01*
X118549755Y-93595317D01*
G37*
G36*
X118150759Y-93548855D02*
G01*
X118207906Y-93555338D01*
X118260210Y-93569600D01*
X118307672Y-93591642D01*
X118350290Y-93621463D01*
X118388066Y-93659064D01*
X118415226Y-93695620D01*
X118441742Y-93744713D01*
X118461628Y-93799507D01*
X118473137Y-93849524D01*
X118480042Y-93903501D01*
X118482344Y-93961437D01*
X118480893Y-94006782D01*
X118475002Y-94059965D01*
X118464579Y-94109259D01*
X118446089Y-94163281D01*
X118421073Y-94211704D01*
X118389531Y-94254528D01*
X118371480Y-94273603D01*
X118331758Y-94306124D01*
X118287210Y-94331139D01*
X118237837Y-94348650D01*
X118183638Y-94358657D01*
X118134786Y-94361263D01*
X118103294Y-94360270D01*
X118050607Y-94353759D01*
X118001006Y-94341170D01*
X117954490Y-94322503D01*
X117911060Y-94297759D01*
X117867157Y-94263169D01*
X117831192Y-94223143D01*
X117803165Y-94177684D01*
X117783076Y-94126789D01*
X117977249Y-94126789D01*
X117990905Y-94149306D01*
X118029163Y-94182889D01*
X118076076Y-94200062D01*
X118127703Y-94204947D01*
X118158710Y-94203013D01*
X118207326Y-94188583D01*
X118222133Y-94179393D01*
X118255198Y-94141200D01*
X118262647Y-94125736D01*
X118277668Y-94078429D01*
X118281595Y-94052532D01*
X118285240Y-94001737D01*
X117775993Y-94001737D01*
X117774528Y-93969497D01*
X117774725Y-93951464D01*
X117777688Y-93899682D01*
X117780898Y-93876685D01*
X117979936Y-93876685D01*
X118282553Y-93876685D01*
X118275893Y-93836385D01*
X118259479Y-93786010D01*
X118230582Y-93742519D01*
X118184707Y-93712966D01*
X118133321Y-93704738D01*
X118112536Y-93705829D01*
X118065417Y-93718880D01*
X118025854Y-93749434D01*
X118006521Y-93777571D01*
X117988558Y-93824402D01*
X117979936Y-93876685D01*
X117780898Y-93876685D01*
X117785149Y-93846225D01*
X117796998Y-93797062D01*
X117807472Y-93765469D01*
X117828417Y-93717945D01*
X117855372Y-93675917D01*
X117864547Y-93664693D01*
X117899782Y-93629438D01*
X117939880Y-93600446D01*
X117942916Y-93598617D01*
X117987935Y-93575472D01*
X118034891Y-93559658D01*
X118079040Y-93551593D01*
X118130634Y-93548422D01*
X118150759Y-93548855D01*
G37*
G36*
X117638240Y-93564054D02*
G01*
X117441136Y-93564054D01*
X117441136Y-93691549D01*
X117416838Y-93648197D01*
X117383551Y-93609265D01*
X117353942Y-93585792D01*
X117310195Y-93563020D01*
X117259160Y-93550211D01*
X117230110Y-93548422D01*
X117206175Y-93549644D01*
X117206175Y-93725987D01*
X117256061Y-93720638D01*
X117268212Y-93720369D01*
X117318029Y-93724836D01*
X117366664Y-93741986D01*
X117408038Y-93778252D01*
X117430329Y-93823272D01*
X117440461Y-93881155D01*
X117441136Y-93903307D01*
X117441136Y-94330000D01*
X117638240Y-94330000D01*
X117638240Y-93564054D01*
G37*
D11*
%TO.C,LOGO*%
G36*
X127265661Y-81108867D02*
G01*
X127265185Y-81111553D01*
X127264473Y-81115566D01*
X127222389Y-81352732D01*
X127151822Y-81660036D01*
X127066584Y-81961469D01*
X126967075Y-82256633D01*
X126853693Y-82545128D01*
X126726838Y-82826554D01*
X126586906Y-83100512D01*
X126434298Y-83366604D01*
X126269411Y-83624428D01*
X126092644Y-83873587D01*
X125904396Y-84113680D01*
X125705065Y-84344309D01*
X125495049Y-84565073D01*
X125274748Y-84775574D01*
X125044560Y-84975412D01*
X124804883Y-85164187D01*
X124556116Y-85341501D01*
X124298657Y-85506953D01*
X124032905Y-85660145D01*
X123759260Y-85800677D01*
X123478118Y-85928150D01*
X123189879Y-86042163D01*
X122894941Y-86142319D01*
X122593703Y-86228217D01*
X122286563Y-86299458D01*
X121973920Y-86355643D01*
X121656173Y-86396372D01*
X121333720Y-86421246D01*
X121006959Y-86429866D01*
X120692093Y-86422412D01*
X120379344Y-86399492D01*
X120069234Y-86361320D01*
X119762282Y-86308111D01*
X119459011Y-86240080D01*
X119159940Y-86157443D01*
X118865592Y-86060413D01*
X118576486Y-85949207D01*
X118293143Y-85824038D01*
X118016085Y-85685124D01*
X117745832Y-85532677D01*
X117482905Y-85366913D01*
X117227826Y-85188048D01*
X116981114Y-84996297D01*
X116743291Y-84791873D01*
X116514878Y-84574993D01*
X116297490Y-84347064D01*
X116092537Y-84109697D01*
X115900236Y-83863413D01*
X115720804Y-83608731D01*
X115554456Y-83346173D01*
X115401408Y-83076257D01*
X115261877Y-82799506D01*
X115136079Y-82516437D01*
X115024229Y-82227573D01*
X114926545Y-81933433D01*
X114843242Y-81634537D01*
X114774537Y-81331406D01*
X114736972Y-81117527D01*
X116039918Y-81117527D01*
X116547013Y-81117023D01*
X117222947Y-80204143D01*
X117435716Y-80424839D01*
X117436723Y-81116031D01*
X117861619Y-81115566D01*
X117861619Y-81115284D01*
X118116319Y-81115284D01*
X118552613Y-81114826D01*
X118688050Y-80698284D01*
X119461396Y-80697285D01*
X119600724Y-81113506D01*
X120034028Y-81113048D01*
X119907765Y-80758961D01*
X120175202Y-80758961D01*
X120175584Y-81113048D01*
X120175584Y-81113056D01*
X121719438Y-81111553D01*
X121719358Y-81034229D01*
X122073655Y-81034229D01*
X122073731Y-81110691D01*
X122529771Y-81110187D01*
X122539268Y-81091848D01*
X122547961Y-81073689D01*
X122555854Y-81055712D01*
X122562947Y-81037913D01*
X122569244Y-81020293D01*
X122574746Y-81002851D01*
X122579456Y-80985585D01*
X122583375Y-80968494D01*
X122586011Y-80950292D01*
X122588290Y-80929699D01*
X122590212Y-80906714D01*
X122591777Y-80881340D01*
X122592985Y-80853577D01*
X122593836Y-80823425D01*
X122594330Y-80790887D01*
X122594468Y-80755962D01*
X122594254Y-80715786D01*
X122593692Y-80680232D01*
X122592766Y-80649282D01*
X122591462Y-80622921D01*
X122590149Y-80599548D01*
X122589210Y-80577580D01*
X122588645Y-80557028D01*
X122588456Y-80537899D01*
X122588686Y-80521899D01*
X122589405Y-80506474D01*
X122590612Y-80491624D01*
X122592308Y-80477350D01*
X122594491Y-80463651D01*
X122597163Y-80450527D01*
X122600322Y-80437978D01*
X122603969Y-80426003D01*
X122608102Y-80414604D01*
X122612723Y-80403779D01*
X122617831Y-80393529D01*
X122623426Y-80383853D01*
X122629507Y-80374752D01*
X122636074Y-80366225D01*
X122643127Y-80358273D01*
X122650666Y-80350895D01*
X122658748Y-80343681D01*
X122667428Y-80336930D01*
X122676707Y-80330642D01*
X122686585Y-80324817D01*
X122697061Y-80319455D01*
X122708136Y-80314556D01*
X122719809Y-80310121D01*
X122732079Y-80306150D01*
X122744948Y-80302644D01*
X122758415Y-80299602D01*
X122772479Y-80297025D01*
X122787141Y-80294914D01*
X122802401Y-80293268D01*
X122818257Y-80292088D01*
X122834711Y-80291374D01*
X122851762Y-80291126D01*
X123338944Y-80290623D01*
X123339951Y-81109325D01*
X123764893Y-81108867D01*
X123764207Y-80514034D01*
X124104035Y-80514034D01*
X124104596Y-80539440D01*
X124106219Y-80564669D01*
X124107430Y-80577218D01*
X124108905Y-80589721D01*
X124110646Y-80602180D01*
X124112652Y-80614595D01*
X124114924Y-80626965D01*
X124117460Y-80639291D01*
X124123326Y-80663809D01*
X124130249Y-80688147D01*
X124138230Y-80712307D01*
X124142654Y-80724329D01*
X124147410Y-80736329D01*
X124152498Y-80748307D01*
X124157919Y-80760262D01*
X124163673Y-80772194D01*
X124169759Y-80784105D01*
X124176178Y-80795993D01*
X124182929Y-80807858D01*
X124190012Y-80819701D01*
X124197428Y-80831522D01*
X124205176Y-80843320D01*
X124213257Y-80855096D01*
X124221670Y-80866849D01*
X124230415Y-80878580D01*
X124239492Y-80890288D01*
X124248902Y-80901974D01*
X124258416Y-80913504D01*
X124268527Y-80924746D01*
X124279236Y-80935700D01*
X124290542Y-80946365D01*
X124302445Y-80956742D01*
X124314946Y-80966831D01*
X124328044Y-80976632D01*
X124341740Y-80986144D01*
X124356034Y-80995368D01*
X124370925Y-81004303D01*
X124386414Y-81012950D01*
X124402500Y-81021309D01*
X124419185Y-81029380D01*
X124436467Y-81037162D01*
X124454347Y-81044655D01*
X124472825Y-81051861D01*
X124491821Y-81058698D01*
X124511260Y-81065091D01*
X124531143Y-81071041D01*
X124551469Y-81076546D01*
X124572238Y-81081608D01*
X124593450Y-81086226D01*
X124615104Y-81090401D01*
X124637200Y-81094132D01*
X124659738Y-81097421D01*
X124682719Y-81100267D01*
X124706140Y-81102670D01*
X124730004Y-81104630D01*
X124754308Y-81106149D01*
X124779053Y-81107225D01*
X124804239Y-81107859D01*
X124829865Y-81108051D01*
X125758988Y-81107052D01*
X125756684Y-79042049D01*
X124836075Y-79043049D01*
X124788763Y-79043987D01*
X124743137Y-79046688D01*
X124720956Y-79048700D01*
X124699197Y-79051154D01*
X124677860Y-79054049D01*
X124656943Y-79057385D01*
X124636448Y-79061163D01*
X124616373Y-79065384D01*
X124596720Y-79070046D01*
X124577487Y-79075150D01*
X124558675Y-79080697D01*
X124540283Y-79086687D01*
X124522312Y-79093119D01*
X124504761Y-79099994D01*
X124487351Y-79107224D01*
X124470515Y-79114718D01*
X124454255Y-79122478D01*
X124438570Y-79130503D01*
X124423460Y-79138793D01*
X124408926Y-79147349D01*
X124394968Y-79156169D01*
X124381585Y-79165255D01*
X124368778Y-79174607D01*
X124356547Y-79184223D01*
X124344892Y-79194105D01*
X124333812Y-79204252D01*
X124323309Y-79214664D01*
X124313383Y-79225342D01*
X124304032Y-79236285D01*
X124295258Y-79247494D01*
X124278199Y-79269425D01*
X124270135Y-79280359D01*
X124262381Y-79291272D01*
X124254938Y-79302163D01*
X124247805Y-79313033D01*
X124240982Y-79323880D01*
X124234469Y-79334705D01*
X124228266Y-79345508D01*
X124222373Y-79356288D01*
X124216789Y-79367045D01*
X124211515Y-79377778D01*
X124206551Y-79388488D01*
X124201896Y-79399174D01*
X124197550Y-79409837D01*
X124193513Y-79420475D01*
X124186232Y-79441687D01*
X124182954Y-79452260D01*
X124179919Y-79462812D01*
X124177126Y-79473342D01*
X124174576Y-79483850D01*
X124172269Y-79494336D01*
X124170205Y-79504800D01*
X124168384Y-79515241D01*
X124166806Y-79525659D01*
X124165472Y-79536055D01*
X124164382Y-79546428D01*
X124163535Y-79556778D01*
X124162933Y-79567105D01*
X124162575Y-79577408D01*
X124162461Y-79587688D01*
X124162731Y-79604198D01*
X124163513Y-79620441D01*
X124164807Y-79636417D01*
X124166611Y-79652127D01*
X124168926Y-79667571D01*
X124171751Y-79682749D01*
X124175085Y-79697661D01*
X124178929Y-79712306D01*
X124183282Y-79726685D01*
X124188143Y-79740798D01*
X124193513Y-79754645D01*
X124199390Y-79768226D01*
X124205774Y-79781540D01*
X124212665Y-79794589D01*
X124220063Y-79807372D01*
X124227967Y-79819889D01*
X124236466Y-79831919D01*
X124245650Y-79843948D01*
X124255518Y-79855977D01*
X124266072Y-79868004D01*
X124277311Y-79880031D01*
X124289236Y-79892057D01*
X124301846Y-79904082D01*
X124315142Y-79916106D01*
X124329125Y-79928129D01*
X124343793Y-79940152D01*
X124359148Y-79952174D01*
X124375190Y-79964195D01*
X124391919Y-79976215D01*
X124409335Y-79988235D01*
X124427438Y-80000254D01*
X124446229Y-80012272D01*
X124404753Y-80037846D01*
X124365955Y-80064191D01*
X124329835Y-80091308D01*
X124296395Y-80119196D01*
X124265632Y-80147855D01*
X124237548Y-80177286D01*
X124212143Y-80207488D01*
X124189416Y-80238462D01*
X124169367Y-80270208D01*
X124151998Y-80302725D01*
X124144318Y-80319273D01*
X124137307Y-80336014D01*
X124130966Y-80352947D01*
X124125295Y-80370074D01*
X124120293Y-80387394D01*
X124115962Y-80404906D01*
X124112300Y-80422612D01*
X124109307Y-80440510D01*
X124106985Y-80458602D01*
X124105332Y-80476886D01*
X124104035Y-80514034D01*
X123764207Y-80514034D01*
X123762513Y-79044048D01*
X122654954Y-79045048D01*
X122635302Y-79045285D01*
X122616005Y-79045939D01*
X122597062Y-79047011D01*
X122578475Y-79048502D01*
X122560243Y-79050410D01*
X122542365Y-79052738D01*
X122524842Y-79055485D01*
X122507674Y-79058651D01*
X122490861Y-79062237D01*
X122474401Y-79066243D01*
X122458297Y-79070670D01*
X122442547Y-79075517D01*
X122427151Y-79080786D01*
X122412109Y-79086477D01*
X122397421Y-79092590D01*
X122383088Y-79099125D01*
X122368809Y-79105999D01*
X122354993Y-79113140D01*
X122341641Y-79120548D01*
X122328754Y-79128223D01*
X122316330Y-79136164D01*
X122304371Y-79144370D01*
X122292877Y-79152843D01*
X122281848Y-79161581D01*
X122271284Y-79170584D01*
X122261185Y-79179852D01*
X122251551Y-79189385D01*
X122242384Y-79199182D01*
X122233682Y-79209243D01*
X122225446Y-79219568D01*
X122217677Y-79230157D01*
X122210374Y-79241009D01*
X122196055Y-79263021D01*
X122189294Y-79274059D01*
X122182797Y-79285118D01*
X122176566Y-79296199D01*
X122170600Y-79307301D01*
X122164900Y-79318425D01*
X122159465Y-79329571D01*
X122154295Y-79340738D01*
X122149392Y-79351927D01*
X122144753Y-79363139D01*
X122140381Y-79374372D01*
X122136274Y-79385628D01*
X122132434Y-79396906D01*
X122128859Y-79408206D01*
X122125550Y-79419529D01*
X122119596Y-79441621D01*
X122114446Y-79463977D01*
X122110098Y-79486596D01*
X122106549Y-79509480D01*
X122103797Y-79532629D01*
X122101839Y-79556044D01*
X122100674Y-79579724D01*
X122100297Y-79603672D01*
X122101714Y-79649480D01*
X122105850Y-79693427D01*
X122112705Y-79735513D01*
X122122279Y-79775737D01*
X122134572Y-79814100D01*
X122149585Y-79850600D01*
X122167318Y-79885239D01*
X122187770Y-79918016D01*
X122210941Y-79948931D01*
X122236833Y-79977984D01*
X122265443Y-80005175D01*
X122296774Y-80030504D01*
X122330825Y-80053970D01*
X122367595Y-80075573D01*
X122407085Y-80095315D01*
X122449296Y-80113193D01*
X122413557Y-80128119D01*
X122382783Y-80141618D01*
X122369254Y-80147831D01*
X122356964Y-80153687D01*
X122345909Y-80159185D01*
X122336091Y-80164326D01*
X122331488Y-80166554D01*
X122326886Y-80168981D01*
X122322285Y-80171607D01*
X122317685Y-80174432D01*
X122313085Y-80177456D01*
X122308486Y-80180679D01*
X122303887Y-80184102D01*
X122299289Y-80187723D01*
X122294690Y-80191543D01*
X122290092Y-80195563D01*
X122285494Y-80199781D01*
X122280895Y-80204198D01*
X122276297Y-80208815D01*
X122271698Y-80213630D01*
X122267098Y-80218644D01*
X122262498Y-80223858D01*
X122257658Y-80229140D01*
X122253039Y-80234356D01*
X122248641Y-80239506D01*
X122244463Y-80244589D01*
X122240506Y-80249605D01*
X122236769Y-80254555D01*
X122233253Y-80259438D01*
X122229958Y-80264255D01*
X122226885Y-80269006D01*
X122224032Y-80273690D01*
X122221400Y-80278307D01*
X122218990Y-80282858D01*
X122216801Y-80287342D01*
X122214834Y-80291760D01*
X122213088Y-80296111D01*
X122211564Y-80300396D01*
X122209813Y-80304872D01*
X122208084Y-80309791D01*
X122206377Y-80315152D01*
X122204693Y-80320954D01*
X122203031Y-80327199D01*
X122201392Y-80333885D01*
X122198182Y-80348585D01*
X122195064Y-80365053D01*
X122192038Y-80383291D01*
X122189104Y-80403298D01*
X122186265Y-80425075D01*
X122182916Y-80447697D01*
X122179921Y-80470226D01*
X122177279Y-80492665D01*
X122174992Y-80515013D01*
X122173062Y-80537271D01*
X122171489Y-80559441D01*
X122170275Y-80581524D01*
X122169419Y-80603519D01*
X122168000Y-80652753D01*
X122166684Y-80712629D01*
X122164018Y-80864231D01*
X122163679Y-80878837D01*
X122162634Y-80892911D01*
X122160884Y-80906453D01*
X122158426Y-80919465D01*
X122155261Y-80931945D01*
X122151388Y-80943895D01*
X122146808Y-80955313D01*
X122141519Y-80966202D01*
X122135521Y-80976559D01*
X122128814Y-80986387D01*
X122121397Y-80995685D01*
X122113270Y-81004453D01*
X122104433Y-81012691D01*
X122094885Y-81020399D01*
X122084626Y-81027579D01*
X122073655Y-81034229D01*
X121719358Y-81034229D01*
X121717301Y-79046551D01*
X120224336Y-79048054D01*
X120224717Y-79402187D01*
X121292741Y-79401188D01*
X121293244Y-79868458D01*
X120304551Y-79869457D01*
X120304933Y-80223553D01*
X121293626Y-80222553D01*
X121294129Y-80757961D01*
X120175202Y-80758961D01*
X119907765Y-80758961D01*
X119298036Y-79049053D01*
X118827943Y-79049518D01*
X118116319Y-81115284D01*
X117861619Y-81115284D01*
X117859101Y-79050556D01*
X117434205Y-79051021D01*
X117435212Y-79957409D01*
X116626862Y-79051937D01*
X116125459Y-79052440D01*
X116950684Y-79940990D01*
X116039918Y-81117527D01*
X114736972Y-81117527D01*
X114720644Y-81024560D01*
X114681782Y-80714519D01*
X114658165Y-80401803D01*
X114650010Y-80086933D01*
X114657916Y-79760142D01*
X114682085Y-79437625D01*
X114722120Y-79119779D01*
X114777621Y-78807004D01*
X114848191Y-78499701D01*
X114933430Y-78198267D01*
X115032940Y-77903104D01*
X115146323Y-77614609D01*
X115273180Y-77333182D01*
X115413112Y-77059224D01*
X115565721Y-76793133D01*
X115730609Y-76535308D01*
X115907376Y-76286149D01*
X116095625Y-76046056D01*
X116294956Y-75815427D01*
X116504971Y-75594663D01*
X116725273Y-75384162D01*
X116955461Y-75184324D01*
X117195138Y-74995549D01*
X117443904Y-74818235D01*
X117701363Y-74652783D01*
X117967114Y-74499591D01*
X118240760Y-74359059D01*
X118521901Y-74231587D01*
X118810140Y-74117573D01*
X119105077Y-74017417D01*
X119406315Y-73931519D01*
X119713455Y-73860278D01*
X120026097Y-73804093D01*
X120343844Y-73763364D01*
X120666297Y-73738490D01*
X120993058Y-73729870D01*
X120992936Y-73729878D01*
X121307823Y-73737331D01*
X121620590Y-73760251D01*
X121930716Y-73798424D01*
X122237681Y-73851633D01*
X122540963Y-73919664D01*
X122840042Y-74002301D01*
X123134397Y-74099331D01*
X123423508Y-74210537D01*
X123706855Y-74335706D01*
X123983915Y-74474621D01*
X124254169Y-74627067D01*
X124517097Y-74792831D01*
X124772176Y-74971696D01*
X125018888Y-75163448D01*
X125256710Y-75367871D01*
X125485123Y-75584751D01*
X125702512Y-75812680D01*
X125907465Y-76050047D01*
X126099765Y-76296331D01*
X126279198Y-76551012D01*
X126445546Y-76813570D01*
X126598593Y-77083484D01*
X126738124Y-77360236D01*
X126863923Y-77643303D01*
X126975772Y-77932166D01*
X127073456Y-78226306D01*
X127156759Y-78525201D01*
X127225465Y-78828331D01*
X127279357Y-79135177D01*
X127318220Y-79445218D01*
X127341836Y-79757933D01*
X127349991Y-80072803D01*
X127342088Y-80399594D01*
X127317921Y-80722112D01*
X127277889Y-81039958D01*
X127265983Y-81107052D01*
X127265661Y-81108867D01*
G37*
G36*
X123338471Y-79936558D02*
G01*
X122825730Y-79937061D01*
X122807264Y-79936865D01*
X122789394Y-79936248D01*
X122772123Y-79935211D01*
X122755449Y-79933753D01*
X122739372Y-79931874D01*
X122723892Y-79929575D01*
X122709009Y-79926855D01*
X122694724Y-79923715D01*
X122681036Y-79920155D01*
X122667944Y-79916174D01*
X122655450Y-79911773D01*
X122643552Y-79906952D01*
X122632252Y-79901710D01*
X122621548Y-79896048D01*
X122611440Y-79889967D01*
X122601930Y-79883465D01*
X122597221Y-79879998D01*
X122592661Y-79876309D01*
X122588250Y-79872399D01*
X122583989Y-79868267D01*
X122579876Y-79863914D01*
X122575913Y-79859339D01*
X122572099Y-79854542D01*
X122568435Y-79849524D01*
X122564919Y-79844284D01*
X122561552Y-79838822D01*
X122558335Y-79833139D01*
X122555267Y-79827234D01*
X122552347Y-79821108D01*
X122549577Y-79814760D01*
X122544484Y-79801399D01*
X122539987Y-79787152D01*
X122536086Y-79772019D01*
X122532781Y-79756000D01*
X122530072Y-79739095D01*
X122527959Y-79721304D01*
X122526441Y-79702627D01*
X122525520Y-79683065D01*
X122525193Y-79662617D01*
X122525453Y-79643207D01*
X122526292Y-79624636D01*
X122527707Y-79606906D01*
X122529700Y-79590015D01*
X122532270Y-79573964D01*
X122535418Y-79558753D01*
X122539142Y-79544383D01*
X122543443Y-79530852D01*
X122548320Y-79518162D01*
X122553774Y-79506312D01*
X122559803Y-79495303D01*
X122566409Y-79485135D01*
X122573591Y-79475807D01*
X122581348Y-79467320D01*
X122589680Y-79459674D01*
X122598588Y-79452869D01*
X122608096Y-79446339D01*
X122618225Y-79440231D01*
X122628973Y-79434543D01*
X122640342Y-79429277D01*
X122652330Y-79424432D01*
X122664939Y-79420007D01*
X122678168Y-79416003D01*
X122692017Y-79412419D01*
X122706487Y-79409256D01*
X122721576Y-79406513D01*
X122737286Y-79404189D01*
X122753615Y-79402286D01*
X122770565Y-79400802D01*
X122788135Y-79399738D01*
X122806325Y-79399094D01*
X122825135Y-79398868D01*
X123337968Y-79398327D01*
X123338471Y-79936558D01*
G37*
G36*
X125333588Y-80752872D02*
G01*
X124826539Y-80753376D01*
X124788461Y-80752377D01*
X124752839Y-80749296D01*
X124719670Y-80744131D01*
X124704007Y-80740768D01*
X124688956Y-80736883D01*
X124674520Y-80732479D01*
X124660697Y-80727553D01*
X124647487Y-80722106D01*
X124634891Y-80716139D01*
X124622909Y-80709651D01*
X124611540Y-80702643D01*
X124600784Y-80695113D01*
X124590642Y-80687063D01*
X124581113Y-80678492D01*
X124572198Y-80669400D01*
X124563896Y-80659788D01*
X124556207Y-80649655D01*
X124549132Y-80639001D01*
X124542670Y-80627826D01*
X124536821Y-80616131D01*
X124531586Y-80603915D01*
X124526964Y-80591178D01*
X124522955Y-80577920D01*
X124519560Y-80564141D01*
X124516777Y-80549842D01*
X124514608Y-80535022D01*
X124513053Y-80519682D01*
X124512110Y-80503820D01*
X124511780Y-80487438D01*
X124512067Y-80470881D01*
X124512968Y-80454850D01*
X124514484Y-80439343D01*
X124516616Y-80424361D01*
X124519363Y-80409905D01*
X124522725Y-80395973D01*
X124526701Y-80382566D01*
X124531293Y-80369685D01*
X124536500Y-80357328D01*
X124542322Y-80345497D01*
X124548759Y-80334190D01*
X124555811Y-80323408D01*
X124563477Y-80313151D01*
X124571759Y-80303420D01*
X124580655Y-80294213D01*
X124590167Y-80285531D01*
X124600293Y-80277374D01*
X124611034Y-80269742D01*
X124622389Y-80262635D01*
X124634360Y-80256052D01*
X124646945Y-80249995D01*
X124660144Y-80244463D01*
X124673959Y-80239455D01*
X124688388Y-80234972D01*
X124703431Y-80231015D01*
X124719090Y-80227582D01*
X124735362Y-80224674D01*
X124752250Y-80222290D01*
X124769751Y-80220432D01*
X124787868Y-80219098D01*
X124806598Y-80218290D01*
X124825944Y-80218006D01*
X125333085Y-80217502D01*
X125333588Y-80752872D01*
G37*
G36*
X125332673Y-79863636D02*
G01*
X124870942Y-79864139D01*
X124834580Y-79863275D01*
X124800563Y-79860593D01*
X124768889Y-79856095D01*
X124739560Y-79849778D01*
X124725775Y-79845939D01*
X124712575Y-79841645D01*
X124699962Y-79836896D01*
X124687934Y-79831693D01*
X124676493Y-79826036D01*
X124665637Y-79819925D01*
X124655368Y-79813359D01*
X124645684Y-79806339D01*
X124636586Y-79798865D01*
X124628075Y-79790936D01*
X124620149Y-79782552D01*
X124612809Y-79773715D01*
X124606056Y-79764423D01*
X124599888Y-79754676D01*
X124594306Y-79744476D01*
X124589310Y-79733820D01*
X124584900Y-79722711D01*
X124581076Y-79711147D01*
X124577838Y-79699129D01*
X124575185Y-79686656D01*
X124573119Y-79673729D01*
X124571638Y-79660347D01*
X124570744Y-79646511D01*
X124570435Y-79632221D01*
X124570714Y-79617756D01*
X124571580Y-79603750D01*
X124573032Y-79590202D01*
X124575070Y-79577114D01*
X124577696Y-79564485D01*
X124580907Y-79552315D01*
X124584706Y-79540604D01*
X124589091Y-79529352D01*
X124594063Y-79518559D01*
X124599622Y-79508225D01*
X124605767Y-79498349D01*
X124612500Y-79488932D01*
X124619819Y-79479974D01*
X124627724Y-79471475D01*
X124636217Y-79463434D01*
X124645297Y-79455851D01*
X124654963Y-79448728D01*
X124665217Y-79442062D01*
X124676057Y-79435856D01*
X124687485Y-79430107D01*
X124699499Y-79424817D01*
X124712100Y-79419986D01*
X124725289Y-79415612D01*
X124739065Y-79411697D01*
X124753427Y-79408240D01*
X124768377Y-79405242D01*
X124783914Y-79402701D01*
X124800038Y-79400619D01*
X124816750Y-79398995D01*
X124834049Y-79397828D01*
X124851935Y-79397120D01*
X124870408Y-79396869D01*
X125332169Y-79396328D01*
X125332673Y-79863636D01*
G37*
G36*
X124703656Y-89929564D02*
G01*
X124103549Y-89930234D01*
X124102462Y-88954058D01*
X123802060Y-88642337D01*
X122847321Y-89931634D01*
X122131192Y-89932431D01*
X123417575Y-88270695D01*
X122251967Y-87015767D01*
X122960095Y-87014977D01*
X124101727Y-88293938D01*
X124100300Y-87013707D01*
X124700408Y-87013037D01*
X124703656Y-89929564D01*
G37*
G36*
X122162316Y-72982720D02*
G01*
X121562209Y-72983388D01*
X121560733Y-71659150D01*
X120404525Y-71660438D01*
X120406001Y-72984677D01*
X119805894Y-72985345D01*
X119802644Y-70068820D01*
X120406753Y-70068147D01*
X120407969Y-71160344D01*
X121560176Y-71159060D01*
X121558959Y-70066863D01*
X122159066Y-70066194D01*
X122162316Y-72982720D01*
G37*
G36*
X121991162Y-89932587D02*
G01*
X119810771Y-89935017D01*
X119810214Y-89434928D01*
X121390500Y-89433165D01*
X121389659Y-88677028D01*
X119993407Y-88678584D01*
X119992848Y-88178494D01*
X121389100Y-88176938D01*
X121388366Y-87516818D01*
X119880092Y-87518500D01*
X119879535Y-87018410D01*
X121987914Y-87016061D01*
X121991162Y-89932587D01*
G37*
G36*
X119345809Y-72985858D02*
G01*
X117165414Y-72988287D01*
X117164855Y-72488198D01*
X118745139Y-72486437D01*
X118744298Y-71730301D01*
X117348048Y-71731855D01*
X117347489Y-71231765D01*
X118743739Y-71230210D01*
X118743005Y-70570091D01*
X117234734Y-70571771D01*
X117234178Y-70071682D01*
X119342559Y-70069332D01*
X119345809Y-72985858D01*
G37*
G36*
X118841386Y-88855899D02*
G01*
X118842589Y-89936095D01*
X118242482Y-89936765D01*
X118241279Y-88856568D01*
X117315068Y-87021268D01*
X117987189Y-87020518D01*
X118544723Y-88308133D01*
X119139396Y-87019234D01*
X119807515Y-87018491D01*
X118841386Y-88855899D01*
G37*
G36*
X124816096Y-70563325D02*
G01*
X123931935Y-70564310D01*
X123934628Y-72980745D01*
X123334521Y-72981413D01*
X123331828Y-70564978D01*
X122479676Y-70565928D01*
X122479119Y-70065839D01*
X124815539Y-70063235D01*
X124816096Y-70563325D01*
G37*
G36*
X119341981Y-80343136D02*
G01*
X118803788Y-80343639D01*
X119071992Y-79536144D01*
X119341981Y-80343136D01*
G37*
%TD*%
M02*
