%TF.GenerationSoftware,KiCad,Pcbnew,8.0.5*%
%TF.CreationDate,2024-11-17T15:10:29-05:00*%
%TF.ProjectId,kb-usb-to-coco,6b622d75-7362-42d7-946f-2d636f636f2e,rev?*%
%TF.SameCoordinates,Original*%
%TF.FileFunction,Paste,Top*%
%TF.FilePolarity,Positive*%
%FSLAX46Y46*%
G04 Gerber Fmt 4.6, Leading zero omitted, Abs format (unit mm)*
G04 Created by KiCad (PCBNEW 8.0.5) date 2024-11-17 15:10:29*
%MOMM*%
%LPD*%
G01*
G04 APERTURE LIST*
G04 Aperture macros list*
%AMRoundRect*
0 Rectangle with rounded corners*
0 $1 Rounding radius*
0 $2 $3 $4 $5 $6 $7 $8 $9 X,Y pos of 4 corners*
0 Add a 4 corners polygon primitive as box body*
4,1,4,$2,$3,$4,$5,$6,$7,$8,$9,$2,$3,0*
0 Add four circle primitives for the rounded corners*
1,1,$1+$1,$2,$3*
1,1,$1+$1,$4,$5*
1,1,$1+$1,$6,$7*
1,1,$1+$1,$8,$9*
0 Add four rect primitives between the rounded corners*
20,1,$1+$1,$2,$3,$4,$5,0*
20,1,$1+$1,$4,$5,$6,$7,0*
20,1,$1+$1,$6,$7,$8,$9,0*
20,1,$1+$1,$8,$9,$2,$3,0*%
G04 Aperture macros list end*
%ADD10RoundRect,0.200000X-0.275000X0.200000X-0.275000X-0.200000X0.275000X-0.200000X0.275000X0.200000X0*%
%ADD11RoundRect,0.150000X-0.587500X-0.150000X0.587500X-0.150000X0.587500X0.150000X-0.587500X0.150000X0*%
G04 APERTURE END LIST*
D10*
%TO.C,R18*%
X142900000Y-77400000D03*
X142900000Y-79050000D03*
%TD*%
%TO.C,R17*%
X142900000Y-81406250D03*
X142900000Y-83056250D03*
%TD*%
%TO.C,R16*%
X142900000Y-85412500D03*
X142900000Y-87062500D03*
%TD*%
%TO.C,R15*%
X136775000Y-78400000D03*
X136775000Y-80050000D03*
%TD*%
%TO.C,R14*%
X136775000Y-82400000D03*
X136775000Y-84050000D03*
%TD*%
%TO.C,R13*%
X136775000Y-86400000D03*
X136775000Y-88050000D03*
%TD*%
%TO.C,R12*%
X142900000Y-89418750D03*
X142900000Y-91068750D03*
%TD*%
%TO.C,R11*%
X136775000Y-90400000D03*
X136775000Y-92050000D03*
%TD*%
%TO.C,R10*%
X142900000Y-93425000D03*
X142900000Y-95075000D03*
%TD*%
%TO.C,R9*%
X136775000Y-94400000D03*
X136775000Y-96050000D03*
%TD*%
%TO.C,R8*%
X142900000Y-97431250D03*
X142900000Y-99081250D03*
%TD*%
%TO.C,R7*%
X136775000Y-98400000D03*
X136775000Y-100050000D03*
%TD*%
%TO.C,R6*%
X142900000Y-101437500D03*
X142900000Y-103087500D03*
%TD*%
%TO.C,R5*%
X136775000Y-102400000D03*
X136775000Y-104050000D03*
%TD*%
%TO.C,R4*%
X142900000Y-105443750D03*
X142900000Y-107093750D03*
%TD*%
%TO.C,R3*%
X136775000Y-106400000D03*
X136775000Y-108050000D03*
%TD*%
%TO.C,R2*%
X142900000Y-109450000D03*
X142900000Y-111100000D03*
%TD*%
%TO.C,R1*%
X136775000Y-110450000D03*
X136775000Y-112100000D03*
%TD*%
D11*
%TO.C,Q2*%
X138900000Y-106325000D03*
X138900000Y-108225000D03*
X140775000Y-107275000D03*
%TD*%
%TO.C,Q1*%
X138900000Y-110275000D03*
X138900000Y-112175000D03*
X140775000Y-111225000D03*
%TD*%
%TO.C,Q5*%
X138900000Y-94225000D03*
X138900000Y-96125000D03*
X140775000Y-95175000D03*
%TD*%
%TO.C,Q3*%
X138900000Y-102275000D03*
X138900000Y-104175000D03*
X140775000Y-103225000D03*
%TD*%
%TO.C,Q4*%
X138900000Y-98275000D03*
X138900000Y-100175000D03*
X140775000Y-99225000D03*
%TD*%
%TO.C,Q6*%
X138900000Y-90225000D03*
X138900000Y-92125000D03*
X140775000Y-91175000D03*
%TD*%
%TO.C,Q7*%
X138900000Y-86225000D03*
X138900000Y-88125000D03*
X140775000Y-87175000D03*
%TD*%
%TO.C,Q8*%
X138900000Y-82225000D03*
X138900000Y-84125000D03*
X140775000Y-83175000D03*
%TD*%
%TO.C,Q9*%
X138900000Y-78225000D03*
X138900000Y-80125000D03*
X140775000Y-79175000D03*
%TD*%
M02*
