%TF.GenerationSoftware,KiCad,Pcbnew,8.0.5*%
%TF.CreationDate,2024-11-17T15:10:11-05:00*%
%TF.ProjectId,kb-usb-to-coco,6b622d75-7362-42d7-946f-2d636f636f2e,rev?*%
%TF.SameCoordinates,Original*%
%TF.FileFunction,Drillmap*%
%TF.FilePolarity,Positive*%
%FSLAX45Y45*%
G04 Gerber Fmt 4.5, Leading zero omitted, Abs format (unit mm)*
G04 Created by KiCad (PCBNEW 8.0.5) date 2024-11-17 15:10:11*
%MOMM*%
%LPD*%
G01*
G04 APERTURE LIST*
%ADD10C,0.050000*%
%ADD11C,0.200000*%
%ADD12C,0.150000*%
%ADD13C,0.180000*%
G04 APERTURE END LIST*
D10*
X10350000Y-6200000D02*
X17850000Y-6200000D01*
X17850000Y-11950000D01*
X10350000Y-11950000D01*
X10350000Y-6200000D01*
D11*
D12*
X11760000Y-11122000D02*
X11910000Y-11272000D01*
X11910000Y-11122000D02*
X11760000Y-11272000D01*
X12245000Y-11122000D02*
X12395000Y-11272000D01*
X12395000Y-11122000D02*
X12245000Y-11272000D01*
D13*
X11895000Y-11500000D02*
G75*
G02*
X11715000Y-11500000I-90000J0D01*
G01*
X11715000Y-11500000D02*
G75*
G02*
X11895000Y-11500000I90000J0D01*
G01*
X12440000Y-11500000D02*
G75*
G02*
X12260000Y-11500000I-90000J0D01*
G01*
X12260000Y-11500000D02*
G75*
G02*
X12440000Y-11500000I90000J0D01*
G01*
D11*
X10608277Y-12263984D02*
X10608277Y-12063984D01*
X10608277Y-12063984D02*
X10655896Y-12063984D01*
X10655896Y-12063984D02*
X10684467Y-12073508D01*
X10684467Y-12073508D02*
X10703515Y-12092555D01*
X10703515Y-12092555D02*
X10713039Y-12111603D01*
X10713039Y-12111603D02*
X10722563Y-12149698D01*
X10722563Y-12149698D02*
X10722563Y-12178269D01*
X10722563Y-12178269D02*
X10713039Y-12216365D01*
X10713039Y-12216365D02*
X10703515Y-12235412D01*
X10703515Y-12235412D02*
X10684467Y-12254460D01*
X10684467Y-12254460D02*
X10655896Y-12263984D01*
X10655896Y-12263984D02*
X10608277Y-12263984D01*
X10808277Y-12263984D02*
X10808277Y-12130650D01*
X10808277Y-12168746D02*
X10817801Y-12149698D01*
X10817801Y-12149698D02*
X10827324Y-12140174D01*
X10827324Y-12140174D02*
X10846372Y-12130650D01*
X10846372Y-12130650D02*
X10865420Y-12130650D01*
X10932086Y-12263984D02*
X10932086Y-12130650D01*
X10932086Y-12063984D02*
X10922563Y-12073508D01*
X10922563Y-12073508D02*
X10932086Y-12083031D01*
X10932086Y-12083031D02*
X10941610Y-12073508D01*
X10941610Y-12073508D02*
X10932086Y-12063984D01*
X10932086Y-12063984D02*
X10932086Y-12083031D01*
X11055896Y-12263984D02*
X11036848Y-12254460D01*
X11036848Y-12254460D02*
X11027324Y-12235412D01*
X11027324Y-12235412D02*
X11027324Y-12063984D01*
X11160658Y-12263984D02*
X11141610Y-12254460D01*
X11141610Y-12254460D02*
X11132086Y-12235412D01*
X11132086Y-12235412D02*
X11132086Y-12063984D01*
X11389229Y-12263984D02*
X11389229Y-12063984D01*
X11389229Y-12063984D02*
X11455896Y-12206841D01*
X11455896Y-12206841D02*
X11522562Y-12063984D01*
X11522562Y-12063984D02*
X11522562Y-12263984D01*
X11703515Y-12263984D02*
X11703515Y-12159222D01*
X11703515Y-12159222D02*
X11693991Y-12140174D01*
X11693991Y-12140174D02*
X11674943Y-12130650D01*
X11674943Y-12130650D02*
X11636848Y-12130650D01*
X11636848Y-12130650D02*
X11617801Y-12140174D01*
X11703515Y-12254460D02*
X11684467Y-12263984D01*
X11684467Y-12263984D02*
X11636848Y-12263984D01*
X11636848Y-12263984D02*
X11617801Y-12254460D01*
X11617801Y-12254460D02*
X11608277Y-12235412D01*
X11608277Y-12235412D02*
X11608277Y-12216365D01*
X11608277Y-12216365D02*
X11617801Y-12197317D01*
X11617801Y-12197317D02*
X11636848Y-12187793D01*
X11636848Y-12187793D02*
X11684467Y-12187793D01*
X11684467Y-12187793D02*
X11703515Y-12178269D01*
X11798753Y-12130650D02*
X11798753Y-12330650D01*
X11798753Y-12140174D02*
X11817801Y-12130650D01*
X11817801Y-12130650D02*
X11855896Y-12130650D01*
X11855896Y-12130650D02*
X11874943Y-12140174D01*
X11874943Y-12140174D02*
X11884467Y-12149698D01*
X11884467Y-12149698D02*
X11893991Y-12168746D01*
X11893991Y-12168746D02*
X11893991Y-12225888D01*
X11893991Y-12225888D02*
X11884467Y-12244936D01*
X11884467Y-12244936D02*
X11874943Y-12254460D01*
X11874943Y-12254460D02*
X11855896Y-12263984D01*
X11855896Y-12263984D02*
X11817801Y-12263984D01*
X11817801Y-12263984D02*
X11798753Y-12254460D01*
X11979705Y-12244936D02*
X11989229Y-12254460D01*
X11989229Y-12254460D02*
X11979705Y-12263984D01*
X11979705Y-12263984D02*
X11970182Y-12254460D01*
X11970182Y-12254460D02*
X11979705Y-12244936D01*
X11979705Y-12244936D02*
X11979705Y-12263984D01*
X11979705Y-12140174D02*
X11989229Y-12149698D01*
X11989229Y-12149698D02*
X11979705Y-12159222D01*
X11979705Y-12159222D02*
X11970182Y-12149698D01*
X11970182Y-12149698D02*
X11979705Y-12140174D01*
X11979705Y-12140174D02*
X11979705Y-12159222D01*
D12*
X10197500Y-12517500D02*
X10347500Y-12667500D01*
X10347500Y-12517500D02*
X10197500Y-12667500D01*
D11*
X10713039Y-12683984D02*
X10598753Y-12683984D01*
X10655896Y-12683984D02*
X10655896Y-12483984D01*
X10655896Y-12483984D02*
X10636848Y-12512555D01*
X10636848Y-12512555D02*
X10617801Y-12531603D01*
X10617801Y-12531603D02*
X10598753Y-12541127D01*
X10798753Y-12664936D02*
X10808277Y-12674460D01*
X10808277Y-12674460D02*
X10798753Y-12683984D01*
X10798753Y-12683984D02*
X10789229Y-12674460D01*
X10789229Y-12674460D02*
X10798753Y-12664936D01*
X10798753Y-12664936D02*
X10798753Y-12683984D01*
X10989229Y-12483984D02*
X10893991Y-12483984D01*
X10893991Y-12483984D02*
X10884467Y-12579222D01*
X10884467Y-12579222D02*
X10893991Y-12569698D01*
X10893991Y-12569698D02*
X10913039Y-12560174D01*
X10913039Y-12560174D02*
X10960658Y-12560174D01*
X10960658Y-12560174D02*
X10979705Y-12569698D01*
X10979705Y-12569698D02*
X10989229Y-12579222D01*
X10989229Y-12579222D02*
X10998753Y-12598269D01*
X10998753Y-12598269D02*
X10998753Y-12645888D01*
X10998753Y-12645888D02*
X10989229Y-12664936D01*
X10989229Y-12664936D02*
X10979705Y-12674460D01*
X10979705Y-12674460D02*
X10960658Y-12683984D01*
X10960658Y-12683984D02*
X10913039Y-12683984D01*
X10913039Y-12683984D02*
X10893991Y-12674460D01*
X10893991Y-12674460D02*
X10884467Y-12664936D01*
X11122563Y-12483984D02*
X11141610Y-12483984D01*
X11141610Y-12483984D02*
X11160658Y-12493508D01*
X11160658Y-12493508D02*
X11170182Y-12503031D01*
X11170182Y-12503031D02*
X11179705Y-12522079D01*
X11179705Y-12522079D02*
X11189229Y-12560174D01*
X11189229Y-12560174D02*
X11189229Y-12607793D01*
X11189229Y-12607793D02*
X11179705Y-12645888D01*
X11179705Y-12645888D02*
X11170182Y-12664936D01*
X11170182Y-12664936D02*
X11160658Y-12674460D01*
X11160658Y-12674460D02*
X11141610Y-12683984D01*
X11141610Y-12683984D02*
X11122563Y-12683984D01*
X11122563Y-12683984D02*
X11103515Y-12674460D01*
X11103515Y-12674460D02*
X11093991Y-12664936D01*
X11093991Y-12664936D02*
X11084467Y-12645888D01*
X11084467Y-12645888D02*
X11074944Y-12607793D01*
X11074944Y-12607793D02*
X11074944Y-12560174D01*
X11074944Y-12560174D02*
X11084467Y-12522079D01*
X11084467Y-12522079D02*
X11093991Y-12503031D01*
X11093991Y-12503031D02*
X11103515Y-12493508D01*
X11103515Y-12493508D02*
X11122563Y-12483984D01*
X11313039Y-12483984D02*
X11332086Y-12483984D01*
X11332086Y-12483984D02*
X11351134Y-12493508D01*
X11351134Y-12493508D02*
X11360658Y-12503031D01*
X11360658Y-12503031D02*
X11370182Y-12522079D01*
X11370182Y-12522079D02*
X11379705Y-12560174D01*
X11379705Y-12560174D02*
X11379705Y-12607793D01*
X11379705Y-12607793D02*
X11370182Y-12645888D01*
X11370182Y-12645888D02*
X11360658Y-12664936D01*
X11360658Y-12664936D02*
X11351134Y-12674460D01*
X11351134Y-12674460D02*
X11332086Y-12683984D01*
X11332086Y-12683984D02*
X11313039Y-12683984D01*
X11313039Y-12683984D02*
X11293991Y-12674460D01*
X11293991Y-12674460D02*
X11284467Y-12664936D01*
X11284467Y-12664936D02*
X11274943Y-12645888D01*
X11274943Y-12645888D02*
X11265420Y-12607793D01*
X11265420Y-12607793D02*
X11265420Y-12560174D01*
X11265420Y-12560174D02*
X11274943Y-12522079D01*
X11274943Y-12522079D02*
X11284467Y-12503031D01*
X11284467Y-12503031D02*
X11293991Y-12493508D01*
X11293991Y-12493508D02*
X11313039Y-12483984D01*
X11465420Y-12683984D02*
X11465420Y-12550650D01*
X11465420Y-12569698D02*
X11474943Y-12560174D01*
X11474943Y-12560174D02*
X11493991Y-12550650D01*
X11493991Y-12550650D02*
X11522563Y-12550650D01*
X11522563Y-12550650D02*
X11541610Y-12560174D01*
X11541610Y-12560174D02*
X11551134Y-12579222D01*
X11551134Y-12579222D02*
X11551134Y-12683984D01*
X11551134Y-12579222D02*
X11560658Y-12560174D01*
X11560658Y-12560174D02*
X11579705Y-12550650D01*
X11579705Y-12550650D02*
X11608277Y-12550650D01*
X11608277Y-12550650D02*
X11627324Y-12560174D01*
X11627324Y-12560174D02*
X11636848Y-12579222D01*
X11636848Y-12579222D02*
X11636848Y-12683984D01*
X11732086Y-12683984D02*
X11732086Y-12550650D01*
X11732086Y-12569698D02*
X11741610Y-12560174D01*
X11741610Y-12560174D02*
X11760658Y-12550650D01*
X11760658Y-12550650D02*
X11789229Y-12550650D01*
X11789229Y-12550650D02*
X11808277Y-12560174D01*
X11808277Y-12560174D02*
X11817801Y-12579222D01*
X11817801Y-12579222D02*
X11817801Y-12683984D01*
X11817801Y-12579222D02*
X11827324Y-12560174D01*
X11827324Y-12560174D02*
X11846372Y-12550650D01*
X11846372Y-12550650D02*
X11874943Y-12550650D01*
X11874943Y-12550650D02*
X11893991Y-12560174D01*
X11893991Y-12560174D02*
X11903515Y-12579222D01*
X11903515Y-12579222D02*
X11903515Y-12683984D01*
X12293991Y-12474460D02*
X12122563Y-12731603D01*
X12551134Y-12483984D02*
X12570182Y-12483984D01*
X12570182Y-12483984D02*
X12589229Y-12493508D01*
X12589229Y-12493508D02*
X12598753Y-12503031D01*
X12598753Y-12503031D02*
X12608277Y-12522079D01*
X12608277Y-12522079D02*
X12617801Y-12560174D01*
X12617801Y-12560174D02*
X12617801Y-12607793D01*
X12617801Y-12607793D02*
X12608277Y-12645888D01*
X12608277Y-12645888D02*
X12598753Y-12664936D01*
X12598753Y-12664936D02*
X12589229Y-12674460D01*
X12589229Y-12674460D02*
X12570182Y-12683984D01*
X12570182Y-12683984D02*
X12551134Y-12683984D01*
X12551134Y-12683984D02*
X12532086Y-12674460D01*
X12532086Y-12674460D02*
X12522563Y-12664936D01*
X12522563Y-12664936D02*
X12513039Y-12645888D01*
X12513039Y-12645888D02*
X12503515Y-12607793D01*
X12503515Y-12607793D02*
X12503515Y-12560174D01*
X12503515Y-12560174D02*
X12513039Y-12522079D01*
X12513039Y-12522079D02*
X12522563Y-12503031D01*
X12522563Y-12503031D02*
X12532086Y-12493508D01*
X12532086Y-12493508D02*
X12551134Y-12483984D01*
X12703515Y-12664936D02*
X12713039Y-12674460D01*
X12713039Y-12674460D02*
X12703515Y-12683984D01*
X12703515Y-12683984D02*
X12693991Y-12674460D01*
X12693991Y-12674460D02*
X12703515Y-12664936D01*
X12703515Y-12664936D02*
X12703515Y-12683984D01*
X12836848Y-12483984D02*
X12855896Y-12483984D01*
X12855896Y-12483984D02*
X12874944Y-12493508D01*
X12874944Y-12493508D02*
X12884467Y-12503031D01*
X12884467Y-12503031D02*
X12893991Y-12522079D01*
X12893991Y-12522079D02*
X12903515Y-12560174D01*
X12903515Y-12560174D02*
X12903515Y-12607793D01*
X12903515Y-12607793D02*
X12893991Y-12645888D01*
X12893991Y-12645888D02*
X12884467Y-12664936D01*
X12884467Y-12664936D02*
X12874944Y-12674460D01*
X12874944Y-12674460D02*
X12855896Y-12683984D01*
X12855896Y-12683984D02*
X12836848Y-12683984D01*
X12836848Y-12683984D02*
X12817801Y-12674460D01*
X12817801Y-12674460D02*
X12808277Y-12664936D01*
X12808277Y-12664936D02*
X12798753Y-12645888D01*
X12798753Y-12645888D02*
X12789229Y-12607793D01*
X12789229Y-12607793D02*
X12789229Y-12560174D01*
X12789229Y-12560174D02*
X12798753Y-12522079D01*
X12798753Y-12522079D02*
X12808277Y-12503031D01*
X12808277Y-12503031D02*
X12817801Y-12493508D01*
X12817801Y-12493508D02*
X12836848Y-12483984D01*
X13084467Y-12483984D02*
X12989229Y-12483984D01*
X12989229Y-12483984D02*
X12979706Y-12579222D01*
X12979706Y-12579222D02*
X12989229Y-12569698D01*
X12989229Y-12569698D02*
X13008277Y-12560174D01*
X13008277Y-12560174D02*
X13055896Y-12560174D01*
X13055896Y-12560174D02*
X13074944Y-12569698D01*
X13074944Y-12569698D02*
X13084467Y-12579222D01*
X13084467Y-12579222D02*
X13093991Y-12598269D01*
X13093991Y-12598269D02*
X13093991Y-12645888D01*
X13093991Y-12645888D02*
X13084467Y-12664936D01*
X13084467Y-12664936D02*
X13074944Y-12674460D01*
X13074944Y-12674460D02*
X13055896Y-12683984D01*
X13055896Y-12683984D02*
X13008277Y-12683984D01*
X13008277Y-12683984D02*
X12989229Y-12674460D01*
X12989229Y-12674460D02*
X12979706Y-12664936D01*
X13189229Y-12683984D02*
X13227325Y-12683984D01*
X13227325Y-12683984D02*
X13246372Y-12674460D01*
X13246372Y-12674460D02*
X13255896Y-12664936D01*
X13255896Y-12664936D02*
X13274944Y-12636365D01*
X13274944Y-12636365D02*
X13284467Y-12598269D01*
X13284467Y-12598269D02*
X13284467Y-12522079D01*
X13284467Y-12522079D02*
X13274944Y-12503031D01*
X13274944Y-12503031D02*
X13265420Y-12493508D01*
X13265420Y-12493508D02*
X13246372Y-12483984D01*
X13246372Y-12483984D02*
X13208277Y-12483984D01*
X13208277Y-12483984D02*
X13189229Y-12493508D01*
X13189229Y-12493508D02*
X13179706Y-12503031D01*
X13179706Y-12503031D02*
X13170182Y-12522079D01*
X13170182Y-12522079D02*
X13170182Y-12569698D01*
X13170182Y-12569698D02*
X13179706Y-12588746D01*
X13179706Y-12588746D02*
X13189229Y-12598269D01*
X13189229Y-12598269D02*
X13208277Y-12607793D01*
X13208277Y-12607793D02*
X13246372Y-12607793D01*
X13246372Y-12607793D02*
X13265420Y-12598269D01*
X13265420Y-12598269D02*
X13274944Y-12588746D01*
X13274944Y-12588746D02*
X13284467Y-12569698D01*
X13474944Y-12683984D02*
X13360658Y-12683984D01*
X13417801Y-12683984D02*
X13417801Y-12483984D01*
X13417801Y-12483984D02*
X13398753Y-12512555D01*
X13398753Y-12512555D02*
X13379706Y-12531603D01*
X13379706Y-12531603D02*
X13360658Y-12541127D01*
X13551134Y-12483984D02*
X13551134Y-12522079D01*
X13627325Y-12483984D02*
X13627325Y-12522079D01*
X13922563Y-12760174D02*
X13913039Y-12750650D01*
X13913039Y-12750650D02*
X13893991Y-12722079D01*
X13893991Y-12722079D02*
X13884468Y-12703031D01*
X13884468Y-12703031D02*
X13874944Y-12674460D01*
X13874944Y-12674460D02*
X13865420Y-12626841D01*
X13865420Y-12626841D02*
X13865420Y-12588746D01*
X13865420Y-12588746D02*
X13874944Y-12541127D01*
X13874944Y-12541127D02*
X13884468Y-12512555D01*
X13884468Y-12512555D02*
X13893991Y-12493508D01*
X13893991Y-12493508D02*
X13913039Y-12464936D01*
X13913039Y-12464936D02*
X13922563Y-12455412D01*
X13989229Y-12503031D02*
X13998753Y-12493508D01*
X13998753Y-12493508D02*
X14017801Y-12483984D01*
X14017801Y-12483984D02*
X14065420Y-12483984D01*
X14065420Y-12483984D02*
X14084468Y-12493508D01*
X14084468Y-12493508D02*
X14093991Y-12503031D01*
X14093991Y-12503031D02*
X14103515Y-12522079D01*
X14103515Y-12522079D02*
X14103515Y-12541127D01*
X14103515Y-12541127D02*
X14093991Y-12569698D01*
X14093991Y-12569698D02*
X13979706Y-12683984D01*
X13979706Y-12683984D02*
X14103515Y-12683984D01*
X14341610Y-12683984D02*
X14341610Y-12483984D01*
X14427325Y-12683984D02*
X14427325Y-12579222D01*
X14427325Y-12579222D02*
X14417801Y-12560174D01*
X14417801Y-12560174D02*
X14398753Y-12550650D01*
X14398753Y-12550650D02*
X14370182Y-12550650D01*
X14370182Y-12550650D02*
X14351134Y-12560174D01*
X14351134Y-12560174D02*
X14341610Y-12569698D01*
X14551134Y-12683984D02*
X14532087Y-12674460D01*
X14532087Y-12674460D02*
X14522563Y-12664936D01*
X14522563Y-12664936D02*
X14513039Y-12645888D01*
X14513039Y-12645888D02*
X14513039Y-12588746D01*
X14513039Y-12588746D02*
X14522563Y-12569698D01*
X14522563Y-12569698D02*
X14532087Y-12560174D01*
X14532087Y-12560174D02*
X14551134Y-12550650D01*
X14551134Y-12550650D02*
X14579706Y-12550650D01*
X14579706Y-12550650D02*
X14598753Y-12560174D01*
X14598753Y-12560174D02*
X14608277Y-12569698D01*
X14608277Y-12569698D02*
X14617801Y-12588746D01*
X14617801Y-12588746D02*
X14617801Y-12645888D01*
X14617801Y-12645888D02*
X14608277Y-12664936D01*
X14608277Y-12664936D02*
X14598753Y-12674460D01*
X14598753Y-12674460D02*
X14579706Y-12683984D01*
X14579706Y-12683984D02*
X14551134Y-12683984D01*
X14732087Y-12683984D02*
X14713039Y-12674460D01*
X14713039Y-12674460D02*
X14703515Y-12655412D01*
X14703515Y-12655412D02*
X14703515Y-12483984D01*
X14884468Y-12674460D02*
X14865420Y-12683984D01*
X14865420Y-12683984D02*
X14827325Y-12683984D01*
X14827325Y-12683984D02*
X14808277Y-12674460D01*
X14808277Y-12674460D02*
X14798753Y-12655412D01*
X14798753Y-12655412D02*
X14798753Y-12579222D01*
X14798753Y-12579222D02*
X14808277Y-12560174D01*
X14808277Y-12560174D02*
X14827325Y-12550650D01*
X14827325Y-12550650D02*
X14865420Y-12550650D01*
X14865420Y-12550650D02*
X14884468Y-12560174D01*
X14884468Y-12560174D02*
X14893991Y-12579222D01*
X14893991Y-12579222D02*
X14893991Y-12598269D01*
X14893991Y-12598269D02*
X14798753Y-12617317D01*
X14970182Y-12674460D02*
X14989230Y-12683984D01*
X14989230Y-12683984D02*
X15027325Y-12683984D01*
X15027325Y-12683984D02*
X15046372Y-12674460D01*
X15046372Y-12674460D02*
X15055896Y-12655412D01*
X15055896Y-12655412D02*
X15055896Y-12645888D01*
X15055896Y-12645888D02*
X15046372Y-12626841D01*
X15046372Y-12626841D02*
X15027325Y-12617317D01*
X15027325Y-12617317D02*
X14998753Y-12617317D01*
X14998753Y-12617317D02*
X14979706Y-12607793D01*
X14979706Y-12607793D02*
X14970182Y-12588746D01*
X14970182Y-12588746D02*
X14970182Y-12579222D01*
X14970182Y-12579222D02*
X14979706Y-12560174D01*
X14979706Y-12560174D02*
X14998753Y-12550650D01*
X14998753Y-12550650D02*
X15027325Y-12550650D01*
X15027325Y-12550650D02*
X15046372Y-12560174D01*
X15122563Y-12760174D02*
X15132087Y-12750650D01*
X15132087Y-12750650D02*
X15151134Y-12722079D01*
X15151134Y-12722079D02*
X15160658Y-12703031D01*
X15160658Y-12703031D02*
X15170182Y-12674460D01*
X15170182Y-12674460D02*
X15179706Y-12626841D01*
X15179706Y-12626841D02*
X15179706Y-12588746D01*
X15179706Y-12588746D02*
X15170182Y-12541127D01*
X15170182Y-12541127D02*
X15160658Y-12512555D01*
X15160658Y-12512555D02*
X15151134Y-12493508D01*
X15151134Y-12493508D02*
X15132087Y-12464936D01*
X15132087Y-12464936D02*
X15122563Y-12455412D01*
X15484468Y-12760174D02*
X15474944Y-12750650D01*
X15474944Y-12750650D02*
X15455896Y-12722079D01*
X15455896Y-12722079D02*
X15446372Y-12703031D01*
X15446372Y-12703031D02*
X15436849Y-12674460D01*
X15436849Y-12674460D02*
X15427325Y-12626841D01*
X15427325Y-12626841D02*
X15427325Y-12588746D01*
X15427325Y-12588746D02*
X15436849Y-12541127D01*
X15436849Y-12541127D02*
X15446372Y-12512555D01*
X15446372Y-12512555D02*
X15455896Y-12493508D01*
X15455896Y-12493508D02*
X15474944Y-12464936D01*
X15474944Y-12464936D02*
X15484468Y-12455412D01*
X15560658Y-12550650D02*
X15560658Y-12683984D01*
X15560658Y-12569698D02*
X15570182Y-12560174D01*
X15570182Y-12560174D02*
X15589230Y-12550650D01*
X15589230Y-12550650D02*
X15617801Y-12550650D01*
X15617801Y-12550650D02*
X15636849Y-12560174D01*
X15636849Y-12560174D02*
X15646372Y-12579222D01*
X15646372Y-12579222D02*
X15646372Y-12683984D01*
X15770182Y-12683984D02*
X15751134Y-12674460D01*
X15751134Y-12674460D02*
X15741611Y-12664936D01*
X15741611Y-12664936D02*
X15732087Y-12645888D01*
X15732087Y-12645888D02*
X15732087Y-12588746D01*
X15732087Y-12588746D02*
X15741611Y-12569698D01*
X15741611Y-12569698D02*
X15751134Y-12560174D01*
X15751134Y-12560174D02*
X15770182Y-12550650D01*
X15770182Y-12550650D02*
X15798753Y-12550650D01*
X15798753Y-12550650D02*
X15817801Y-12560174D01*
X15817801Y-12560174D02*
X15827325Y-12569698D01*
X15827325Y-12569698D02*
X15836849Y-12588746D01*
X15836849Y-12588746D02*
X15836849Y-12645888D01*
X15836849Y-12645888D02*
X15827325Y-12664936D01*
X15827325Y-12664936D02*
X15817801Y-12674460D01*
X15817801Y-12674460D02*
X15798753Y-12683984D01*
X15798753Y-12683984D02*
X15770182Y-12683984D01*
X15893992Y-12550650D02*
X15970182Y-12550650D01*
X15922563Y-12483984D02*
X15922563Y-12655412D01*
X15922563Y-12655412D02*
X15932087Y-12674460D01*
X15932087Y-12674460D02*
X15951134Y-12683984D01*
X15951134Y-12683984D02*
X15970182Y-12683984D01*
X16189230Y-12550650D02*
X16189230Y-12750650D01*
X16189230Y-12560174D02*
X16208277Y-12550650D01*
X16208277Y-12550650D02*
X16246373Y-12550650D01*
X16246373Y-12550650D02*
X16265420Y-12560174D01*
X16265420Y-12560174D02*
X16274944Y-12569698D01*
X16274944Y-12569698D02*
X16284468Y-12588746D01*
X16284468Y-12588746D02*
X16284468Y-12645888D01*
X16284468Y-12645888D02*
X16274944Y-12664936D01*
X16274944Y-12664936D02*
X16265420Y-12674460D01*
X16265420Y-12674460D02*
X16246373Y-12683984D01*
X16246373Y-12683984D02*
X16208277Y-12683984D01*
X16208277Y-12683984D02*
X16189230Y-12674460D01*
X16398753Y-12683984D02*
X16379706Y-12674460D01*
X16379706Y-12674460D02*
X16370182Y-12655412D01*
X16370182Y-12655412D02*
X16370182Y-12483984D01*
X16560658Y-12683984D02*
X16560658Y-12579222D01*
X16560658Y-12579222D02*
X16551134Y-12560174D01*
X16551134Y-12560174D02*
X16532087Y-12550650D01*
X16532087Y-12550650D02*
X16493992Y-12550650D01*
X16493992Y-12550650D02*
X16474944Y-12560174D01*
X16560658Y-12674460D02*
X16541611Y-12683984D01*
X16541611Y-12683984D02*
X16493992Y-12683984D01*
X16493992Y-12683984D02*
X16474944Y-12674460D01*
X16474944Y-12674460D02*
X16465420Y-12655412D01*
X16465420Y-12655412D02*
X16465420Y-12636365D01*
X16465420Y-12636365D02*
X16474944Y-12617317D01*
X16474944Y-12617317D02*
X16493992Y-12607793D01*
X16493992Y-12607793D02*
X16541611Y-12607793D01*
X16541611Y-12607793D02*
X16560658Y-12598269D01*
X16627325Y-12550650D02*
X16703515Y-12550650D01*
X16655896Y-12483984D02*
X16655896Y-12655412D01*
X16655896Y-12655412D02*
X16665420Y-12674460D01*
X16665420Y-12674460D02*
X16684468Y-12683984D01*
X16684468Y-12683984D02*
X16703515Y-12683984D01*
X16846373Y-12674460D02*
X16827325Y-12683984D01*
X16827325Y-12683984D02*
X16789230Y-12683984D01*
X16789230Y-12683984D02*
X16770182Y-12674460D01*
X16770182Y-12674460D02*
X16760658Y-12655412D01*
X16760658Y-12655412D02*
X16760658Y-12579222D01*
X16760658Y-12579222D02*
X16770182Y-12560174D01*
X16770182Y-12560174D02*
X16789230Y-12550650D01*
X16789230Y-12550650D02*
X16827325Y-12550650D01*
X16827325Y-12550650D02*
X16846373Y-12560174D01*
X16846373Y-12560174D02*
X16855896Y-12579222D01*
X16855896Y-12579222D02*
X16855896Y-12598269D01*
X16855896Y-12598269D02*
X16760658Y-12617317D01*
X17027325Y-12683984D02*
X17027325Y-12483984D01*
X17027325Y-12674460D02*
X17008277Y-12683984D01*
X17008277Y-12683984D02*
X16970182Y-12683984D01*
X16970182Y-12683984D02*
X16951135Y-12674460D01*
X16951135Y-12674460D02*
X16941611Y-12664936D01*
X16941611Y-12664936D02*
X16932087Y-12645888D01*
X16932087Y-12645888D02*
X16932087Y-12588746D01*
X16932087Y-12588746D02*
X16941611Y-12569698D01*
X16941611Y-12569698D02*
X16951135Y-12560174D01*
X16951135Y-12560174D02*
X16970182Y-12550650D01*
X16970182Y-12550650D02*
X17008277Y-12550650D01*
X17008277Y-12550650D02*
X17027325Y-12560174D01*
X17103516Y-12760174D02*
X17113039Y-12750650D01*
X17113039Y-12750650D02*
X17132087Y-12722079D01*
X17132087Y-12722079D02*
X17141611Y-12703031D01*
X17141611Y-12703031D02*
X17151135Y-12674460D01*
X17151135Y-12674460D02*
X17160658Y-12626841D01*
X17160658Y-12626841D02*
X17160658Y-12588746D01*
X17160658Y-12588746D02*
X17151135Y-12541127D01*
X17151135Y-12541127D02*
X17141611Y-12512555D01*
X17141611Y-12512555D02*
X17132087Y-12493508D01*
X17132087Y-12493508D02*
X17113039Y-12464936D01*
X17113039Y-12464936D02*
X17103516Y-12455412D01*
D13*
X10347500Y-12862500D02*
G75*
G02*
X10167500Y-12862500I-90000J0D01*
G01*
X10167500Y-12862500D02*
G75*
G02*
X10347500Y-12862500I90000J0D01*
G01*
D11*
X10713039Y-12953984D02*
X10598753Y-12953984D01*
X10655896Y-12953984D02*
X10655896Y-12753984D01*
X10655896Y-12753984D02*
X10636848Y-12782555D01*
X10636848Y-12782555D02*
X10617801Y-12801603D01*
X10617801Y-12801603D02*
X10598753Y-12811127D01*
X10798753Y-12934936D02*
X10808277Y-12944460D01*
X10808277Y-12944460D02*
X10798753Y-12953984D01*
X10798753Y-12953984D02*
X10789229Y-12944460D01*
X10789229Y-12944460D02*
X10798753Y-12934936D01*
X10798753Y-12934936D02*
X10798753Y-12953984D01*
X10922563Y-12839698D02*
X10903515Y-12830174D01*
X10903515Y-12830174D02*
X10893991Y-12820650D01*
X10893991Y-12820650D02*
X10884467Y-12801603D01*
X10884467Y-12801603D02*
X10884467Y-12792079D01*
X10884467Y-12792079D02*
X10893991Y-12773031D01*
X10893991Y-12773031D02*
X10903515Y-12763508D01*
X10903515Y-12763508D02*
X10922563Y-12753984D01*
X10922563Y-12753984D02*
X10960658Y-12753984D01*
X10960658Y-12753984D02*
X10979705Y-12763508D01*
X10979705Y-12763508D02*
X10989229Y-12773031D01*
X10989229Y-12773031D02*
X10998753Y-12792079D01*
X10998753Y-12792079D02*
X10998753Y-12801603D01*
X10998753Y-12801603D02*
X10989229Y-12820650D01*
X10989229Y-12820650D02*
X10979705Y-12830174D01*
X10979705Y-12830174D02*
X10960658Y-12839698D01*
X10960658Y-12839698D02*
X10922563Y-12839698D01*
X10922563Y-12839698D02*
X10903515Y-12849222D01*
X10903515Y-12849222D02*
X10893991Y-12858746D01*
X10893991Y-12858746D02*
X10884467Y-12877793D01*
X10884467Y-12877793D02*
X10884467Y-12915888D01*
X10884467Y-12915888D02*
X10893991Y-12934936D01*
X10893991Y-12934936D02*
X10903515Y-12944460D01*
X10903515Y-12944460D02*
X10922563Y-12953984D01*
X10922563Y-12953984D02*
X10960658Y-12953984D01*
X10960658Y-12953984D02*
X10979705Y-12944460D01*
X10979705Y-12944460D02*
X10989229Y-12934936D01*
X10989229Y-12934936D02*
X10998753Y-12915888D01*
X10998753Y-12915888D02*
X10998753Y-12877793D01*
X10998753Y-12877793D02*
X10989229Y-12858746D01*
X10989229Y-12858746D02*
X10979705Y-12849222D01*
X10979705Y-12849222D02*
X10960658Y-12839698D01*
X11122563Y-12753984D02*
X11141610Y-12753984D01*
X11141610Y-12753984D02*
X11160658Y-12763508D01*
X11160658Y-12763508D02*
X11170182Y-12773031D01*
X11170182Y-12773031D02*
X11179705Y-12792079D01*
X11179705Y-12792079D02*
X11189229Y-12830174D01*
X11189229Y-12830174D02*
X11189229Y-12877793D01*
X11189229Y-12877793D02*
X11179705Y-12915888D01*
X11179705Y-12915888D02*
X11170182Y-12934936D01*
X11170182Y-12934936D02*
X11160658Y-12944460D01*
X11160658Y-12944460D02*
X11141610Y-12953984D01*
X11141610Y-12953984D02*
X11122563Y-12953984D01*
X11122563Y-12953984D02*
X11103515Y-12944460D01*
X11103515Y-12944460D02*
X11093991Y-12934936D01*
X11093991Y-12934936D02*
X11084467Y-12915888D01*
X11084467Y-12915888D02*
X11074944Y-12877793D01*
X11074944Y-12877793D02*
X11074944Y-12830174D01*
X11074944Y-12830174D02*
X11084467Y-12792079D01*
X11084467Y-12792079D02*
X11093991Y-12773031D01*
X11093991Y-12773031D02*
X11103515Y-12763508D01*
X11103515Y-12763508D02*
X11122563Y-12753984D01*
X11313039Y-12753984D02*
X11332086Y-12753984D01*
X11332086Y-12753984D02*
X11351134Y-12763508D01*
X11351134Y-12763508D02*
X11360658Y-12773031D01*
X11360658Y-12773031D02*
X11370182Y-12792079D01*
X11370182Y-12792079D02*
X11379705Y-12830174D01*
X11379705Y-12830174D02*
X11379705Y-12877793D01*
X11379705Y-12877793D02*
X11370182Y-12915888D01*
X11370182Y-12915888D02*
X11360658Y-12934936D01*
X11360658Y-12934936D02*
X11351134Y-12944460D01*
X11351134Y-12944460D02*
X11332086Y-12953984D01*
X11332086Y-12953984D02*
X11313039Y-12953984D01*
X11313039Y-12953984D02*
X11293991Y-12944460D01*
X11293991Y-12944460D02*
X11284467Y-12934936D01*
X11284467Y-12934936D02*
X11274943Y-12915888D01*
X11274943Y-12915888D02*
X11265420Y-12877793D01*
X11265420Y-12877793D02*
X11265420Y-12830174D01*
X11265420Y-12830174D02*
X11274943Y-12792079D01*
X11274943Y-12792079D02*
X11284467Y-12773031D01*
X11284467Y-12773031D02*
X11293991Y-12763508D01*
X11293991Y-12763508D02*
X11313039Y-12753984D01*
X11465420Y-12953984D02*
X11465420Y-12820650D01*
X11465420Y-12839698D02*
X11474943Y-12830174D01*
X11474943Y-12830174D02*
X11493991Y-12820650D01*
X11493991Y-12820650D02*
X11522563Y-12820650D01*
X11522563Y-12820650D02*
X11541610Y-12830174D01*
X11541610Y-12830174D02*
X11551134Y-12849222D01*
X11551134Y-12849222D02*
X11551134Y-12953984D01*
X11551134Y-12849222D02*
X11560658Y-12830174D01*
X11560658Y-12830174D02*
X11579705Y-12820650D01*
X11579705Y-12820650D02*
X11608277Y-12820650D01*
X11608277Y-12820650D02*
X11627324Y-12830174D01*
X11627324Y-12830174D02*
X11636848Y-12849222D01*
X11636848Y-12849222D02*
X11636848Y-12953984D01*
X11732086Y-12953984D02*
X11732086Y-12820650D01*
X11732086Y-12839698D02*
X11741610Y-12830174D01*
X11741610Y-12830174D02*
X11760658Y-12820650D01*
X11760658Y-12820650D02*
X11789229Y-12820650D01*
X11789229Y-12820650D02*
X11808277Y-12830174D01*
X11808277Y-12830174D02*
X11817801Y-12849222D01*
X11817801Y-12849222D02*
X11817801Y-12953984D01*
X11817801Y-12849222D02*
X11827324Y-12830174D01*
X11827324Y-12830174D02*
X11846372Y-12820650D01*
X11846372Y-12820650D02*
X11874943Y-12820650D01*
X11874943Y-12820650D02*
X11893991Y-12830174D01*
X11893991Y-12830174D02*
X11903515Y-12849222D01*
X11903515Y-12849222D02*
X11903515Y-12953984D01*
X12293991Y-12744460D02*
X12122563Y-13001603D01*
X12551134Y-12753984D02*
X12570182Y-12753984D01*
X12570182Y-12753984D02*
X12589229Y-12763508D01*
X12589229Y-12763508D02*
X12598753Y-12773031D01*
X12598753Y-12773031D02*
X12608277Y-12792079D01*
X12608277Y-12792079D02*
X12617801Y-12830174D01*
X12617801Y-12830174D02*
X12617801Y-12877793D01*
X12617801Y-12877793D02*
X12608277Y-12915888D01*
X12608277Y-12915888D02*
X12598753Y-12934936D01*
X12598753Y-12934936D02*
X12589229Y-12944460D01*
X12589229Y-12944460D02*
X12570182Y-12953984D01*
X12570182Y-12953984D02*
X12551134Y-12953984D01*
X12551134Y-12953984D02*
X12532086Y-12944460D01*
X12532086Y-12944460D02*
X12522563Y-12934936D01*
X12522563Y-12934936D02*
X12513039Y-12915888D01*
X12513039Y-12915888D02*
X12503515Y-12877793D01*
X12503515Y-12877793D02*
X12503515Y-12830174D01*
X12503515Y-12830174D02*
X12513039Y-12792079D01*
X12513039Y-12792079D02*
X12522563Y-12773031D01*
X12522563Y-12773031D02*
X12532086Y-12763508D01*
X12532086Y-12763508D02*
X12551134Y-12753984D01*
X12703515Y-12934936D02*
X12713039Y-12944460D01*
X12713039Y-12944460D02*
X12703515Y-12953984D01*
X12703515Y-12953984D02*
X12693991Y-12944460D01*
X12693991Y-12944460D02*
X12703515Y-12934936D01*
X12703515Y-12934936D02*
X12703515Y-12953984D01*
X12836848Y-12753984D02*
X12855896Y-12753984D01*
X12855896Y-12753984D02*
X12874944Y-12763508D01*
X12874944Y-12763508D02*
X12884467Y-12773031D01*
X12884467Y-12773031D02*
X12893991Y-12792079D01*
X12893991Y-12792079D02*
X12903515Y-12830174D01*
X12903515Y-12830174D02*
X12903515Y-12877793D01*
X12903515Y-12877793D02*
X12893991Y-12915888D01*
X12893991Y-12915888D02*
X12884467Y-12934936D01*
X12884467Y-12934936D02*
X12874944Y-12944460D01*
X12874944Y-12944460D02*
X12855896Y-12953984D01*
X12855896Y-12953984D02*
X12836848Y-12953984D01*
X12836848Y-12953984D02*
X12817801Y-12944460D01*
X12817801Y-12944460D02*
X12808277Y-12934936D01*
X12808277Y-12934936D02*
X12798753Y-12915888D01*
X12798753Y-12915888D02*
X12789229Y-12877793D01*
X12789229Y-12877793D02*
X12789229Y-12830174D01*
X12789229Y-12830174D02*
X12798753Y-12792079D01*
X12798753Y-12792079D02*
X12808277Y-12773031D01*
X12808277Y-12773031D02*
X12817801Y-12763508D01*
X12817801Y-12763508D02*
X12836848Y-12753984D01*
X12970182Y-12753984D02*
X13103515Y-12753984D01*
X13103515Y-12753984D02*
X13017801Y-12953984D01*
X13217801Y-12753984D02*
X13236848Y-12753984D01*
X13236848Y-12753984D02*
X13255896Y-12763508D01*
X13255896Y-12763508D02*
X13265420Y-12773031D01*
X13265420Y-12773031D02*
X13274944Y-12792079D01*
X13274944Y-12792079D02*
X13284467Y-12830174D01*
X13284467Y-12830174D02*
X13284467Y-12877793D01*
X13284467Y-12877793D02*
X13274944Y-12915888D01*
X13274944Y-12915888D02*
X13265420Y-12934936D01*
X13265420Y-12934936D02*
X13255896Y-12944460D01*
X13255896Y-12944460D02*
X13236848Y-12953984D01*
X13236848Y-12953984D02*
X13217801Y-12953984D01*
X13217801Y-12953984D02*
X13198753Y-12944460D01*
X13198753Y-12944460D02*
X13189229Y-12934936D01*
X13189229Y-12934936D02*
X13179706Y-12915888D01*
X13179706Y-12915888D02*
X13170182Y-12877793D01*
X13170182Y-12877793D02*
X13170182Y-12830174D01*
X13170182Y-12830174D02*
X13179706Y-12792079D01*
X13179706Y-12792079D02*
X13189229Y-12773031D01*
X13189229Y-12773031D02*
X13198753Y-12763508D01*
X13198753Y-12763508D02*
X13217801Y-12753984D01*
X13379706Y-12953984D02*
X13417801Y-12953984D01*
X13417801Y-12953984D02*
X13436848Y-12944460D01*
X13436848Y-12944460D02*
X13446372Y-12934936D01*
X13446372Y-12934936D02*
X13465420Y-12906365D01*
X13465420Y-12906365D02*
X13474944Y-12868269D01*
X13474944Y-12868269D02*
X13474944Y-12792079D01*
X13474944Y-12792079D02*
X13465420Y-12773031D01*
X13465420Y-12773031D02*
X13455896Y-12763508D01*
X13455896Y-12763508D02*
X13436848Y-12753984D01*
X13436848Y-12753984D02*
X13398753Y-12753984D01*
X13398753Y-12753984D02*
X13379706Y-12763508D01*
X13379706Y-12763508D02*
X13370182Y-12773031D01*
X13370182Y-12773031D02*
X13360658Y-12792079D01*
X13360658Y-12792079D02*
X13360658Y-12839698D01*
X13360658Y-12839698D02*
X13370182Y-12858746D01*
X13370182Y-12858746D02*
X13379706Y-12868269D01*
X13379706Y-12868269D02*
X13398753Y-12877793D01*
X13398753Y-12877793D02*
X13436848Y-12877793D01*
X13436848Y-12877793D02*
X13455896Y-12868269D01*
X13455896Y-12868269D02*
X13465420Y-12858746D01*
X13465420Y-12858746D02*
X13474944Y-12839698D01*
X13551134Y-12753984D02*
X13551134Y-12792079D01*
X13627325Y-12753984D02*
X13627325Y-12792079D01*
X13922563Y-13030174D02*
X13913039Y-13020650D01*
X13913039Y-13020650D02*
X13893991Y-12992079D01*
X13893991Y-12992079D02*
X13884468Y-12973031D01*
X13884468Y-12973031D02*
X13874944Y-12944460D01*
X13874944Y-12944460D02*
X13865420Y-12896841D01*
X13865420Y-12896841D02*
X13865420Y-12858746D01*
X13865420Y-12858746D02*
X13874944Y-12811127D01*
X13874944Y-12811127D02*
X13884468Y-12782555D01*
X13884468Y-12782555D02*
X13893991Y-12763508D01*
X13893991Y-12763508D02*
X13913039Y-12734936D01*
X13913039Y-12734936D02*
X13922563Y-12725412D01*
X13989229Y-12773031D02*
X13998753Y-12763508D01*
X13998753Y-12763508D02*
X14017801Y-12753984D01*
X14017801Y-12753984D02*
X14065420Y-12753984D01*
X14065420Y-12753984D02*
X14084468Y-12763508D01*
X14084468Y-12763508D02*
X14093991Y-12773031D01*
X14093991Y-12773031D02*
X14103515Y-12792079D01*
X14103515Y-12792079D02*
X14103515Y-12811127D01*
X14103515Y-12811127D02*
X14093991Y-12839698D01*
X14093991Y-12839698D02*
X13979706Y-12953984D01*
X13979706Y-12953984D02*
X14103515Y-12953984D01*
X14341610Y-12953984D02*
X14341610Y-12753984D01*
X14427325Y-12953984D02*
X14427325Y-12849222D01*
X14427325Y-12849222D02*
X14417801Y-12830174D01*
X14417801Y-12830174D02*
X14398753Y-12820650D01*
X14398753Y-12820650D02*
X14370182Y-12820650D01*
X14370182Y-12820650D02*
X14351134Y-12830174D01*
X14351134Y-12830174D02*
X14341610Y-12839698D01*
X14551134Y-12953984D02*
X14532087Y-12944460D01*
X14532087Y-12944460D02*
X14522563Y-12934936D01*
X14522563Y-12934936D02*
X14513039Y-12915888D01*
X14513039Y-12915888D02*
X14513039Y-12858746D01*
X14513039Y-12858746D02*
X14522563Y-12839698D01*
X14522563Y-12839698D02*
X14532087Y-12830174D01*
X14532087Y-12830174D02*
X14551134Y-12820650D01*
X14551134Y-12820650D02*
X14579706Y-12820650D01*
X14579706Y-12820650D02*
X14598753Y-12830174D01*
X14598753Y-12830174D02*
X14608277Y-12839698D01*
X14608277Y-12839698D02*
X14617801Y-12858746D01*
X14617801Y-12858746D02*
X14617801Y-12915888D01*
X14617801Y-12915888D02*
X14608277Y-12934936D01*
X14608277Y-12934936D02*
X14598753Y-12944460D01*
X14598753Y-12944460D02*
X14579706Y-12953984D01*
X14579706Y-12953984D02*
X14551134Y-12953984D01*
X14732087Y-12953984D02*
X14713039Y-12944460D01*
X14713039Y-12944460D02*
X14703515Y-12925412D01*
X14703515Y-12925412D02*
X14703515Y-12753984D01*
X14884468Y-12944460D02*
X14865420Y-12953984D01*
X14865420Y-12953984D02*
X14827325Y-12953984D01*
X14827325Y-12953984D02*
X14808277Y-12944460D01*
X14808277Y-12944460D02*
X14798753Y-12925412D01*
X14798753Y-12925412D02*
X14798753Y-12849222D01*
X14798753Y-12849222D02*
X14808277Y-12830174D01*
X14808277Y-12830174D02*
X14827325Y-12820650D01*
X14827325Y-12820650D02*
X14865420Y-12820650D01*
X14865420Y-12820650D02*
X14884468Y-12830174D01*
X14884468Y-12830174D02*
X14893991Y-12849222D01*
X14893991Y-12849222D02*
X14893991Y-12868269D01*
X14893991Y-12868269D02*
X14798753Y-12887317D01*
X14970182Y-12944460D02*
X14989230Y-12953984D01*
X14989230Y-12953984D02*
X15027325Y-12953984D01*
X15027325Y-12953984D02*
X15046372Y-12944460D01*
X15046372Y-12944460D02*
X15055896Y-12925412D01*
X15055896Y-12925412D02*
X15055896Y-12915888D01*
X15055896Y-12915888D02*
X15046372Y-12896841D01*
X15046372Y-12896841D02*
X15027325Y-12887317D01*
X15027325Y-12887317D02*
X14998753Y-12887317D01*
X14998753Y-12887317D02*
X14979706Y-12877793D01*
X14979706Y-12877793D02*
X14970182Y-12858746D01*
X14970182Y-12858746D02*
X14970182Y-12849222D01*
X14970182Y-12849222D02*
X14979706Y-12830174D01*
X14979706Y-12830174D02*
X14998753Y-12820650D01*
X14998753Y-12820650D02*
X15027325Y-12820650D01*
X15027325Y-12820650D02*
X15046372Y-12830174D01*
X15122563Y-13030174D02*
X15132087Y-13020650D01*
X15132087Y-13020650D02*
X15151134Y-12992079D01*
X15151134Y-12992079D02*
X15160658Y-12973031D01*
X15160658Y-12973031D02*
X15170182Y-12944460D01*
X15170182Y-12944460D02*
X15179706Y-12896841D01*
X15179706Y-12896841D02*
X15179706Y-12858746D01*
X15179706Y-12858746D02*
X15170182Y-12811127D01*
X15170182Y-12811127D02*
X15160658Y-12782555D01*
X15160658Y-12782555D02*
X15151134Y-12763508D01*
X15151134Y-12763508D02*
X15132087Y-12734936D01*
X15132087Y-12734936D02*
X15122563Y-12725412D01*
X15484468Y-13030174D02*
X15474944Y-13020650D01*
X15474944Y-13020650D02*
X15455896Y-12992079D01*
X15455896Y-12992079D02*
X15446372Y-12973031D01*
X15446372Y-12973031D02*
X15436849Y-12944460D01*
X15436849Y-12944460D02*
X15427325Y-12896841D01*
X15427325Y-12896841D02*
X15427325Y-12858746D01*
X15427325Y-12858746D02*
X15436849Y-12811127D01*
X15436849Y-12811127D02*
X15446372Y-12782555D01*
X15446372Y-12782555D02*
X15455896Y-12763508D01*
X15455896Y-12763508D02*
X15474944Y-12734936D01*
X15474944Y-12734936D02*
X15484468Y-12725412D01*
X15560658Y-12820650D02*
X15560658Y-12953984D01*
X15560658Y-12839698D02*
X15570182Y-12830174D01*
X15570182Y-12830174D02*
X15589230Y-12820650D01*
X15589230Y-12820650D02*
X15617801Y-12820650D01*
X15617801Y-12820650D02*
X15636849Y-12830174D01*
X15636849Y-12830174D02*
X15646372Y-12849222D01*
X15646372Y-12849222D02*
X15646372Y-12953984D01*
X15770182Y-12953984D02*
X15751134Y-12944460D01*
X15751134Y-12944460D02*
X15741611Y-12934936D01*
X15741611Y-12934936D02*
X15732087Y-12915888D01*
X15732087Y-12915888D02*
X15732087Y-12858746D01*
X15732087Y-12858746D02*
X15741611Y-12839698D01*
X15741611Y-12839698D02*
X15751134Y-12830174D01*
X15751134Y-12830174D02*
X15770182Y-12820650D01*
X15770182Y-12820650D02*
X15798753Y-12820650D01*
X15798753Y-12820650D02*
X15817801Y-12830174D01*
X15817801Y-12830174D02*
X15827325Y-12839698D01*
X15827325Y-12839698D02*
X15836849Y-12858746D01*
X15836849Y-12858746D02*
X15836849Y-12915888D01*
X15836849Y-12915888D02*
X15827325Y-12934936D01*
X15827325Y-12934936D02*
X15817801Y-12944460D01*
X15817801Y-12944460D02*
X15798753Y-12953984D01*
X15798753Y-12953984D02*
X15770182Y-12953984D01*
X15893992Y-12820650D02*
X15970182Y-12820650D01*
X15922563Y-12753984D02*
X15922563Y-12925412D01*
X15922563Y-12925412D02*
X15932087Y-12944460D01*
X15932087Y-12944460D02*
X15951134Y-12953984D01*
X15951134Y-12953984D02*
X15970182Y-12953984D01*
X16189230Y-12820650D02*
X16189230Y-13020650D01*
X16189230Y-12830174D02*
X16208277Y-12820650D01*
X16208277Y-12820650D02*
X16246373Y-12820650D01*
X16246373Y-12820650D02*
X16265420Y-12830174D01*
X16265420Y-12830174D02*
X16274944Y-12839698D01*
X16274944Y-12839698D02*
X16284468Y-12858746D01*
X16284468Y-12858746D02*
X16284468Y-12915888D01*
X16284468Y-12915888D02*
X16274944Y-12934936D01*
X16274944Y-12934936D02*
X16265420Y-12944460D01*
X16265420Y-12944460D02*
X16246373Y-12953984D01*
X16246373Y-12953984D02*
X16208277Y-12953984D01*
X16208277Y-12953984D02*
X16189230Y-12944460D01*
X16398753Y-12953984D02*
X16379706Y-12944460D01*
X16379706Y-12944460D02*
X16370182Y-12925412D01*
X16370182Y-12925412D02*
X16370182Y-12753984D01*
X16560658Y-12953984D02*
X16560658Y-12849222D01*
X16560658Y-12849222D02*
X16551134Y-12830174D01*
X16551134Y-12830174D02*
X16532087Y-12820650D01*
X16532087Y-12820650D02*
X16493992Y-12820650D01*
X16493992Y-12820650D02*
X16474944Y-12830174D01*
X16560658Y-12944460D02*
X16541611Y-12953984D01*
X16541611Y-12953984D02*
X16493992Y-12953984D01*
X16493992Y-12953984D02*
X16474944Y-12944460D01*
X16474944Y-12944460D02*
X16465420Y-12925412D01*
X16465420Y-12925412D02*
X16465420Y-12906365D01*
X16465420Y-12906365D02*
X16474944Y-12887317D01*
X16474944Y-12887317D02*
X16493992Y-12877793D01*
X16493992Y-12877793D02*
X16541611Y-12877793D01*
X16541611Y-12877793D02*
X16560658Y-12868269D01*
X16627325Y-12820650D02*
X16703515Y-12820650D01*
X16655896Y-12753984D02*
X16655896Y-12925412D01*
X16655896Y-12925412D02*
X16665420Y-12944460D01*
X16665420Y-12944460D02*
X16684468Y-12953984D01*
X16684468Y-12953984D02*
X16703515Y-12953984D01*
X16846373Y-12944460D02*
X16827325Y-12953984D01*
X16827325Y-12953984D02*
X16789230Y-12953984D01*
X16789230Y-12953984D02*
X16770182Y-12944460D01*
X16770182Y-12944460D02*
X16760658Y-12925412D01*
X16760658Y-12925412D02*
X16760658Y-12849222D01*
X16760658Y-12849222D02*
X16770182Y-12830174D01*
X16770182Y-12830174D02*
X16789230Y-12820650D01*
X16789230Y-12820650D02*
X16827325Y-12820650D01*
X16827325Y-12820650D02*
X16846373Y-12830174D01*
X16846373Y-12830174D02*
X16855896Y-12849222D01*
X16855896Y-12849222D02*
X16855896Y-12868269D01*
X16855896Y-12868269D02*
X16760658Y-12887317D01*
X17027325Y-12953984D02*
X17027325Y-12753984D01*
X17027325Y-12944460D02*
X17008277Y-12953984D01*
X17008277Y-12953984D02*
X16970182Y-12953984D01*
X16970182Y-12953984D02*
X16951135Y-12944460D01*
X16951135Y-12944460D02*
X16941611Y-12934936D01*
X16941611Y-12934936D02*
X16932087Y-12915888D01*
X16932087Y-12915888D02*
X16932087Y-12858746D01*
X16932087Y-12858746D02*
X16941611Y-12839698D01*
X16941611Y-12839698D02*
X16951135Y-12830174D01*
X16951135Y-12830174D02*
X16970182Y-12820650D01*
X16970182Y-12820650D02*
X17008277Y-12820650D01*
X17008277Y-12820650D02*
X17027325Y-12830174D01*
X17103516Y-13030174D02*
X17113039Y-13020650D01*
X17113039Y-13020650D02*
X17132087Y-12992079D01*
X17132087Y-12992079D02*
X17141611Y-12973031D01*
X17141611Y-12973031D02*
X17151135Y-12944460D01*
X17151135Y-12944460D02*
X17160658Y-12896841D01*
X17160658Y-12896841D02*
X17160658Y-12858746D01*
X17160658Y-12858746D02*
X17151135Y-12811127D01*
X17151135Y-12811127D02*
X17141611Y-12782555D01*
X17141611Y-12782555D02*
X17132087Y-12763508D01*
X17132087Y-12763508D02*
X17113039Y-12734936D01*
X17113039Y-12734936D02*
X17103516Y-12725412D01*
M02*
