%TF.GenerationSoftware,KiCad,Pcbnew,8.0.5*%
%TF.CreationDate,2024-11-17T15:10:29-05:00*%
%TF.ProjectId,kb-usb-to-coco,6b622d75-7362-42d7-946f-2d636f636f2e,rev?*%
%TF.SameCoordinates,Original*%
%TF.FileFunction,Legend,Top*%
%TF.FilePolarity,Positive*%
%FSLAX46Y46*%
G04 Gerber Fmt 4.6, Leading zero omitted, Abs format (unit mm)*
G04 Created by KiCad (PCBNEW 8.0.5) date 2024-11-17 15:10:29*
%MOMM*%
%LPD*%
G01*
G04 APERTURE LIST*
%ADD10C,0.150000*%
%ADD11C,0.100000*%
%ADD12C,0.120000*%
G04 APERTURE END LIST*
D10*
X164710839Y-79369819D02*
X164710839Y-78369819D01*
X164710839Y-78369819D02*
X165091791Y-78369819D01*
X165091791Y-78369819D02*
X165187029Y-78417438D01*
X165187029Y-78417438D02*
X165234648Y-78465057D01*
X165234648Y-78465057D02*
X165282267Y-78560295D01*
X165282267Y-78560295D02*
X165282267Y-78703152D01*
X165282267Y-78703152D02*
X165234648Y-78798390D01*
X165234648Y-78798390D02*
X165187029Y-78846009D01*
X165187029Y-78846009D02*
X165091791Y-78893628D01*
X165091791Y-78893628D02*
X164710839Y-78893628D01*
X165853696Y-79369819D02*
X165758458Y-79322200D01*
X165758458Y-79322200D02*
X165710839Y-79274580D01*
X165710839Y-79274580D02*
X165663220Y-79179342D01*
X165663220Y-79179342D02*
X165663220Y-78893628D01*
X165663220Y-78893628D02*
X165710839Y-78798390D01*
X165710839Y-78798390D02*
X165758458Y-78750771D01*
X165758458Y-78750771D02*
X165853696Y-78703152D01*
X165853696Y-78703152D02*
X165996553Y-78703152D01*
X165996553Y-78703152D02*
X166091791Y-78750771D01*
X166091791Y-78750771D02*
X166139410Y-78798390D01*
X166139410Y-78798390D02*
X166187029Y-78893628D01*
X166187029Y-78893628D02*
X166187029Y-79179342D01*
X166187029Y-79179342D02*
X166139410Y-79274580D01*
X166139410Y-79274580D02*
X166091791Y-79322200D01*
X166091791Y-79322200D02*
X165996553Y-79369819D01*
X165996553Y-79369819D02*
X165853696Y-79369819D01*
X166520363Y-78703152D02*
X166710839Y-79369819D01*
X166710839Y-79369819D02*
X166901315Y-78893628D01*
X166901315Y-78893628D02*
X167091791Y-79369819D01*
X167091791Y-79369819D02*
X167282267Y-78703152D01*
X168044172Y-79322200D02*
X167948934Y-79369819D01*
X167948934Y-79369819D02*
X167758458Y-79369819D01*
X167758458Y-79369819D02*
X167663220Y-79322200D01*
X167663220Y-79322200D02*
X167615601Y-79226961D01*
X167615601Y-79226961D02*
X167615601Y-78846009D01*
X167615601Y-78846009D02*
X167663220Y-78750771D01*
X167663220Y-78750771D02*
X167758458Y-78703152D01*
X167758458Y-78703152D02*
X167948934Y-78703152D01*
X167948934Y-78703152D02*
X168044172Y-78750771D01*
X168044172Y-78750771D02*
X168091791Y-78846009D01*
X168091791Y-78846009D02*
X168091791Y-78941247D01*
X168091791Y-78941247D02*
X167615601Y-79036485D01*
X168520363Y-79369819D02*
X168520363Y-78703152D01*
X168520363Y-78893628D02*
X168567982Y-78798390D01*
X168567982Y-78798390D02*
X168615601Y-78750771D01*
X168615601Y-78750771D02*
X168710839Y-78703152D01*
X168710839Y-78703152D02*
X168806077Y-78703152D01*
X156908207Y-73369819D02*
X156574874Y-72893628D01*
X156336779Y-73369819D02*
X156336779Y-72369819D01*
X156336779Y-72369819D02*
X156717731Y-72369819D01*
X156717731Y-72369819D02*
X156812969Y-72417438D01*
X156812969Y-72417438D02*
X156860588Y-72465057D01*
X156860588Y-72465057D02*
X156908207Y-72560295D01*
X156908207Y-72560295D02*
X156908207Y-72703152D01*
X156908207Y-72703152D02*
X156860588Y-72798390D01*
X156860588Y-72798390D02*
X156812969Y-72846009D01*
X156812969Y-72846009D02*
X156717731Y-72893628D01*
X156717731Y-72893628D02*
X156336779Y-72893628D01*
X157241541Y-72369819D02*
X157908207Y-73369819D01*
X157908207Y-72369819D02*
X157241541Y-73369819D01*
X158289160Y-73369819D02*
X158289160Y-72369819D01*
X158289160Y-72369819D02*
X158527255Y-72369819D01*
X158527255Y-72369819D02*
X158670112Y-72417438D01*
X158670112Y-72417438D02*
X158765350Y-72512676D01*
X158765350Y-72512676D02*
X158812969Y-72607914D01*
X158812969Y-72607914D02*
X158860588Y-72798390D01*
X158860588Y-72798390D02*
X158860588Y-72941247D01*
X158860588Y-72941247D02*
X158812969Y-73131723D01*
X158812969Y-73131723D02*
X158765350Y-73226961D01*
X158765350Y-73226961D02*
X158670112Y-73322200D01*
X158670112Y-73322200D02*
X158527255Y-73369819D01*
X158527255Y-73369819D02*
X158289160Y-73369819D01*
X156860588Y-69417438D02*
X156765350Y-69369819D01*
X156765350Y-69369819D02*
X156622493Y-69369819D01*
X156622493Y-69369819D02*
X156479636Y-69417438D01*
X156479636Y-69417438D02*
X156384398Y-69512676D01*
X156384398Y-69512676D02*
X156336779Y-69607914D01*
X156336779Y-69607914D02*
X156289160Y-69798390D01*
X156289160Y-69798390D02*
X156289160Y-69941247D01*
X156289160Y-69941247D02*
X156336779Y-70131723D01*
X156336779Y-70131723D02*
X156384398Y-70226961D01*
X156384398Y-70226961D02*
X156479636Y-70322200D01*
X156479636Y-70322200D02*
X156622493Y-70369819D01*
X156622493Y-70369819D02*
X156717731Y-70369819D01*
X156717731Y-70369819D02*
X156860588Y-70322200D01*
X156860588Y-70322200D02*
X156908207Y-70274580D01*
X156908207Y-70274580D02*
X156908207Y-69941247D01*
X156908207Y-69941247D02*
X156717731Y-69941247D01*
X157336779Y-70369819D02*
X157336779Y-69369819D01*
X157336779Y-69369819D02*
X157908207Y-70369819D01*
X157908207Y-70369819D02*
X157908207Y-69369819D01*
X158384398Y-70369819D02*
X158384398Y-69369819D01*
X158384398Y-69369819D02*
X158622493Y-69369819D01*
X158622493Y-69369819D02*
X158765350Y-69417438D01*
X158765350Y-69417438D02*
X158860588Y-69512676D01*
X158860588Y-69512676D02*
X158908207Y-69607914D01*
X158908207Y-69607914D02*
X158955826Y-69798390D01*
X158955826Y-69798390D02*
X158955826Y-69941247D01*
X158955826Y-69941247D02*
X158908207Y-70131723D01*
X158908207Y-70131723D02*
X158860588Y-70226961D01*
X158860588Y-70226961D02*
X158765350Y-70322200D01*
X158765350Y-70322200D02*
X158622493Y-70369819D01*
X158622493Y-70369819D02*
X158384398Y-70369819D01*
X156336779Y-67488866D02*
X157098684Y-67488866D01*
X156717731Y-67869819D02*
X156717731Y-67107914D01*
X158051064Y-66869819D02*
X157574874Y-66869819D01*
X157574874Y-66869819D02*
X157527255Y-67346009D01*
X157527255Y-67346009D02*
X157574874Y-67298390D01*
X157574874Y-67298390D02*
X157670112Y-67250771D01*
X157670112Y-67250771D02*
X157908207Y-67250771D01*
X157908207Y-67250771D02*
X158003445Y-67298390D01*
X158003445Y-67298390D02*
X158051064Y-67346009D01*
X158051064Y-67346009D02*
X158098683Y-67441247D01*
X158098683Y-67441247D02*
X158098683Y-67679342D01*
X158098683Y-67679342D02*
X158051064Y-67774580D01*
X158051064Y-67774580D02*
X158003445Y-67822200D01*
X158003445Y-67822200D02*
X157908207Y-67869819D01*
X157908207Y-67869819D02*
X157670112Y-67869819D01*
X157670112Y-67869819D02*
X157574874Y-67822200D01*
X157574874Y-67822200D02*
X157527255Y-67774580D01*
X158384398Y-66869819D02*
X158717731Y-67869819D01*
X158717731Y-67869819D02*
X159051064Y-66869819D01*
X152472744Y-64369819D02*
X152472744Y-65179342D01*
X152472744Y-65179342D02*
X152520363Y-65274580D01*
X152520363Y-65274580D02*
X152567982Y-65322200D01*
X152567982Y-65322200D02*
X152663220Y-65369819D01*
X152663220Y-65369819D02*
X152853696Y-65369819D01*
X152853696Y-65369819D02*
X152948934Y-65322200D01*
X152948934Y-65322200D02*
X152996553Y-65274580D01*
X152996553Y-65274580D02*
X153044172Y-65179342D01*
X153044172Y-65179342D02*
X153044172Y-64369819D01*
X153472744Y-65084104D02*
X153948934Y-65084104D01*
X153377506Y-65369819D02*
X153710839Y-64369819D01*
X153710839Y-64369819D02*
X154044172Y-65369819D01*
X154948934Y-65369819D02*
X154615601Y-64893628D01*
X154377506Y-65369819D02*
X154377506Y-64369819D01*
X154377506Y-64369819D02*
X154758458Y-64369819D01*
X154758458Y-64369819D02*
X154853696Y-64417438D01*
X154853696Y-64417438D02*
X154901315Y-64465057D01*
X154901315Y-64465057D02*
X154948934Y-64560295D01*
X154948934Y-64560295D02*
X154948934Y-64703152D01*
X154948934Y-64703152D02*
X154901315Y-64798390D01*
X154901315Y-64798390D02*
X154853696Y-64846009D01*
X154853696Y-64846009D02*
X154758458Y-64893628D01*
X154758458Y-64893628D02*
X154377506Y-64893628D01*
X155234649Y-64369819D02*
X155806077Y-64369819D01*
X155520363Y-65369819D02*
X155520363Y-64369819D01*
X174369819Y-67663220D02*
X173369819Y-67663220D01*
X173465057Y-67234649D02*
X173417438Y-67187030D01*
X173417438Y-67187030D02*
X173369819Y-67091792D01*
X173369819Y-67091792D02*
X173369819Y-66853697D01*
X173369819Y-66853697D02*
X173417438Y-66758459D01*
X173417438Y-66758459D02*
X173465057Y-66710840D01*
X173465057Y-66710840D02*
X173560295Y-66663221D01*
X173560295Y-66663221D02*
X173655533Y-66663221D01*
X173655533Y-66663221D02*
X173798390Y-66710840D01*
X173798390Y-66710840D02*
X174369819Y-67282268D01*
X174369819Y-67282268D02*
X174369819Y-66663221D01*
X174274580Y-65663221D02*
X174322200Y-65710840D01*
X174322200Y-65710840D02*
X174369819Y-65853697D01*
X174369819Y-65853697D02*
X174369819Y-65948935D01*
X174369819Y-65948935D02*
X174322200Y-66091792D01*
X174322200Y-66091792D02*
X174226961Y-66187030D01*
X174226961Y-66187030D02*
X174131723Y-66234649D01*
X174131723Y-66234649D02*
X173941247Y-66282268D01*
X173941247Y-66282268D02*
X173798390Y-66282268D01*
X173798390Y-66282268D02*
X173607914Y-66234649D01*
X173607914Y-66234649D02*
X173512676Y-66187030D01*
X173512676Y-66187030D02*
X173417438Y-66091792D01*
X173417438Y-66091792D02*
X173369819Y-65948935D01*
X173369819Y-65948935D02*
X173369819Y-65853697D01*
X173369819Y-65853697D02*
X173417438Y-65710840D01*
X173417438Y-65710840D02*
X173465057Y-65663221D01*
X162360588Y-76417438D02*
X162265350Y-76369819D01*
X162265350Y-76369819D02*
X162122493Y-76369819D01*
X162122493Y-76369819D02*
X161979636Y-76417438D01*
X161979636Y-76417438D02*
X161884398Y-76512676D01*
X161884398Y-76512676D02*
X161836779Y-76607914D01*
X161836779Y-76607914D02*
X161789160Y-76798390D01*
X161789160Y-76798390D02*
X161789160Y-76941247D01*
X161789160Y-76941247D02*
X161836779Y-77131723D01*
X161836779Y-77131723D02*
X161884398Y-77226961D01*
X161884398Y-77226961D02*
X161979636Y-77322200D01*
X161979636Y-77322200D02*
X162122493Y-77369819D01*
X162122493Y-77369819D02*
X162217731Y-77369819D01*
X162217731Y-77369819D02*
X162360588Y-77322200D01*
X162360588Y-77322200D02*
X162408207Y-77274580D01*
X162408207Y-77274580D02*
X162408207Y-76941247D01*
X162408207Y-76941247D02*
X162217731Y-76941247D01*
X162836779Y-77369819D02*
X162836779Y-76369819D01*
X162836779Y-76369819D02*
X163408207Y-77369819D01*
X163408207Y-77369819D02*
X163408207Y-76369819D01*
X163884398Y-77369819D02*
X163884398Y-76369819D01*
X163884398Y-76369819D02*
X164122493Y-76369819D01*
X164122493Y-76369819D02*
X164265350Y-76417438D01*
X164265350Y-76417438D02*
X164360588Y-76512676D01*
X164360588Y-76512676D02*
X164408207Y-76607914D01*
X164408207Y-76607914D02*
X164455826Y-76798390D01*
X164455826Y-76798390D02*
X164455826Y-76941247D01*
X164455826Y-76941247D02*
X164408207Y-77131723D01*
X164408207Y-77131723D02*
X164360588Y-77226961D01*
X164360588Y-77226961D02*
X164265350Y-77322200D01*
X164265350Y-77322200D02*
X164122493Y-77369819D01*
X164122493Y-77369819D02*
X163884398Y-77369819D01*
X171360588Y-115869819D02*
X170789160Y-115869819D01*
X171074874Y-115869819D02*
X171074874Y-114869819D01*
X171074874Y-114869819D02*
X170979636Y-115012676D01*
X170979636Y-115012676D02*
X170884398Y-115107914D01*
X170884398Y-115107914D02*
X170789160Y-115155533D01*
X172217731Y-114869819D02*
X172027255Y-114869819D01*
X172027255Y-114869819D02*
X171932017Y-114917438D01*
X171932017Y-114917438D02*
X171884398Y-114965057D01*
X171884398Y-114965057D02*
X171789160Y-115107914D01*
X171789160Y-115107914D02*
X171741541Y-115298390D01*
X171741541Y-115298390D02*
X171741541Y-115679342D01*
X171741541Y-115679342D02*
X171789160Y-115774580D01*
X171789160Y-115774580D02*
X171836779Y-115822200D01*
X171836779Y-115822200D02*
X171932017Y-115869819D01*
X171932017Y-115869819D02*
X172122493Y-115869819D01*
X172122493Y-115869819D02*
X172217731Y-115822200D01*
X172217731Y-115822200D02*
X172265350Y-115774580D01*
X172265350Y-115774580D02*
X172312969Y-115679342D01*
X172312969Y-115679342D02*
X172312969Y-115441247D01*
X172312969Y-115441247D02*
X172265350Y-115346009D01*
X172265350Y-115346009D02*
X172217731Y-115298390D01*
X172217731Y-115298390D02*
X172122493Y-115250771D01*
X172122493Y-115250771D02*
X171932017Y-115250771D01*
X171932017Y-115250771D02*
X171836779Y-115298390D01*
X171836779Y-115298390D02*
X171789160Y-115346009D01*
X171789160Y-115346009D02*
X171741541Y-115441247D01*
X172360588Y-77369819D02*
X171789160Y-77369819D01*
X172074874Y-77369819D02*
X172074874Y-76369819D01*
X172074874Y-76369819D02*
X171979636Y-76512676D01*
X171979636Y-76512676D02*
X171884398Y-76607914D01*
X171884398Y-76607914D02*
X171789160Y-76655533D01*
X236860588Y-68369819D02*
X236289160Y-68369819D01*
X236574874Y-68369819D02*
X236574874Y-67369819D01*
X236574874Y-67369819D02*
X236479636Y-67512676D01*
X236479636Y-67512676D02*
X236384398Y-67607914D01*
X236384398Y-67607914D02*
X236289160Y-67655533D01*
X161836779Y-73988866D02*
X162598684Y-73988866D01*
X162217731Y-74369819D02*
X162217731Y-73607914D01*
X163551064Y-73369819D02*
X163074874Y-73369819D01*
X163074874Y-73369819D02*
X163027255Y-73846009D01*
X163027255Y-73846009D02*
X163074874Y-73798390D01*
X163074874Y-73798390D02*
X163170112Y-73750771D01*
X163170112Y-73750771D02*
X163408207Y-73750771D01*
X163408207Y-73750771D02*
X163503445Y-73798390D01*
X163503445Y-73798390D02*
X163551064Y-73846009D01*
X163551064Y-73846009D02*
X163598683Y-73941247D01*
X163598683Y-73941247D02*
X163598683Y-74179342D01*
X163598683Y-74179342D02*
X163551064Y-74274580D01*
X163551064Y-74274580D02*
X163503445Y-74322200D01*
X163503445Y-74322200D02*
X163408207Y-74369819D01*
X163408207Y-74369819D02*
X163170112Y-74369819D01*
X163170112Y-74369819D02*
X163074874Y-74322200D01*
X163074874Y-74322200D02*
X163027255Y-74274580D01*
X163884398Y-73369819D02*
X164217731Y-74369819D01*
X164217731Y-74369819D02*
X164551064Y-73369819D01*
D11*
X119761904Y-79957419D02*
X119285714Y-79957419D01*
X119285714Y-79957419D02*
X119285714Y-78957419D01*
X120285714Y-78957419D02*
X120476190Y-78957419D01*
X120476190Y-78957419D02*
X120571428Y-79005038D01*
X120571428Y-79005038D02*
X120666666Y-79100276D01*
X120666666Y-79100276D02*
X120714285Y-79290752D01*
X120714285Y-79290752D02*
X120714285Y-79624085D01*
X120714285Y-79624085D02*
X120666666Y-79814561D01*
X120666666Y-79814561D02*
X120571428Y-79909800D01*
X120571428Y-79909800D02*
X120476190Y-79957419D01*
X120476190Y-79957419D02*
X120285714Y-79957419D01*
X120285714Y-79957419D02*
X120190476Y-79909800D01*
X120190476Y-79909800D02*
X120095238Y-79814561D01*
X120095238Y-79814561D02*
X120047619Y-79624085D01*
X120047619Y-79624085D02*
X120047619Y-79290752D01*
X120047619Y-79290752D02*
X120095238Y-79100276D01*
X120095238Y-79100276D02*
X120190476Y-79005038D01*
X120190476Y-79005038D02*
X120285714Y-78957419D01*
X121666666Y-79005038D02*
X121571428Y-78957419D01*
X121571428Y-78957419D02*
X121428571Y-78957419D01*
X121428571Y-78957419D02*
X121285714Y-79005038D01*
X121285714Y-79005038D02*
X121190476Y-79100276D01*
X121190476Y-79100276D02*
X121142857Y-79195514D01*
X121142857Y-79195514D02*
X121095238Y-79385990D01*
X121095238Y-79385990D02*
X121095238Y-79528847D01*
X121095238Y-79528847D02*
X121142857Y-79719323D01*
X121142857Y-79719323D02*
X121190476Y-79814561D01*
X121190476Y-79814561D02*
X121285714Y-79909800D01*
X121285714Y-79909800D02*
X121428571Y-79957419D01*
X121428571Y-79957419D02*
X121523809Y-79957419D01*
X121523809Y-79957419D02*
X121666666Y-79909800D01*
X121666666Y-79909800D02*
X121714285Y-79862180D01*
X121714285Y-79862180D02*
X121714285Y-79528847D01*
X121714285Y-79528847D02*
X121523809Y-79528847D01*
X122333333Y-78957419D02*
X122523809Y-78957419D01*
X122523809Y-78957419D02*
X122619047Y-79005038D01*
X122619047Y-79005038D02*
X122714285Y-79100276D01*
X122714285Y-79100276D02*
X122761904Y-79290752D01*
X122761904Y-79290752D02*
X122761904Y-79624085D01*
X122761904Y-79624085D02*
X122714285Y-79814561D01*
X122714285Y-79814561D02*
X122619047Y-79909800D01*
X122619047Y-79909800D02*
X122523809Y-79957419D01*
X122523809Y-79957419D02*
X122333333Y-79957419D01*
X122333333Y-79957419D02*
X122238095Y-79909800D01*
X122238095Y-79909800D02*
X122142857Y-79814561D01*
X122142857Y-79814561D02*
X122095238Y-79624085D01*
X122095238Y-79624085D02*
X122095238Y-79290752D01*
X122095238Y-79290752D02*
X122142857Y-79100276D01*
X122142857Y-79100276D02*
X122238095Y-79005038D01*
X122238095Y-79005038D02*
X122333333Y-78957419D01*
D10*
X140548095Y-63544819D02*
X140548095Y-64354342D01*
X140548095Y-64354342D02*
X140595714Y-64449580D01*
X140595714Y-64449580D02*
X140643333Y-64497200D01*
X140643333Y-64497200D02*
X140738571Y-64544819D01*
X140738571Y-64544819D02*
X140929047Y-64544819D01*
X140929047Y-64544819D02*
X141024285Y-64497200D01*
X141024285Y-64497200D02*
X141071904Y-64449580D01*
X141071904Y-64449580D02*
X141119523Y-64354342D01*
X141119523Y-64354342D02*
X141119523Y-63544819D01*
X141548095Y-63640057D02*
X141595714Y-63592438D01*
X141595714Y-63592438D02*
X141690952Y-63544819D01*
X141690952Y-63544819D02*
X141929047Y-63544819D01*
X141929047Y-63544819D02*
X142024285Y-63592438D01*
X142024285Y-63592438D02*
X142071904Y-63640057D01*
X142071904Y-63640057D02*
X142119523Y-63735295D01*
X142119523Y-63735295D02*
X142119523Y-63830533D01*
X142119523Y-63830533D02*
X142071904Y-63973390D01*
X142071904Y-63973390D02*
X141500476Y-64544819D01*
X141500476Y-64544819D02*
X142119523Y-64544819D01*
X120013095Y-90454819D02*
X120013095Y-91264342D01*
X120013095Y-91264342D02*
X120060714Y-91359580D01*
X120060714Y-91359580D02*
X120108333Y-91407200D01*
X120108333Y-91407200D02*
X120203571Y-91454819D01*
X120203571Y-91454819D02*
X120394047Y-91454819D01*
X120394047Y-91454819D02*
X120489285Y-91407200D01*
X120489285Y-91407200D02*
X120536904Y-91359580D01*
X120536904Y-91359580D02*
X120584523Y-91264342D01*
X120584523Y-91264342D02*
X120584523Y-90454819D01*
X121584523Y-91454819D02*
X121013095Y-91454819D01*
X121298809Y-91454819D02*
X121298809Y-90454819D01*
X121298809Y-90454819D02*
X121203571Y-90597676D01*
X121203571Y-90597676D02*
X121108333Y-90692914D01*
X121108333Y-90692914D02*
X121013095Y-90740533D01*
X133018998Y-79960868D02*
X132938185Y-79987805D01*
X132938185Y-79987805D02*
X132857373Y-80068618D01*
X132857373Y-80068618D02*
X132803498Y-80176367D01*
X132803498Y-80176367D02*
X132803498Y-80284117D01*
X132803498Y-80284117D02*
X132830436Y-80364929D01*
X132830436Y-80364929D02*
X132911248Y-80499616D01*
X132911248Y-80499616D02*
X132992060Y-80580428D01*
X132992060Y-80580428D02*
X133126747Y-80661241D01*
X133126747Y-80661241D02*
X133207560Y-80688178D01*
X133207560Y-80688178D02*
X133315309Y-80688178D01*
X133315309Y-80688178D02*
X133423059Y-80634303D01*
X133423059Y-80634303D02*
X133476934Y-80580428D01*
X133476934Y-80580428D02*
X133530808Y-80472679D01*
X133530808Y-80472679D02*
X133530808Y-80418804D01*
X133530808Y-80418804D02*
X133342247Y-80230242D01*
X133342247Y-80230242D02*
X133234497Y-80337992D01*
X133827120Y-80230242D02*
X133261434Y-79664557D01*
X133261434Y-79664557D02*
X133476934Y-79449057D01*
X133476934Y-79449057D02*
X133557746Y-79422120D01*
X133557746Y-79422120D02*
X133611621Y-79422120D01*
X133611621Y-79422120D02*
X133692433Y-79449057D01*
X133692433Y-79449057D02*
X133773245Y-79529870D01*
X133773245Y-79529870D02*
X133800182Y-79610682D01*
X133800182Y-79610682D02*
X133800182Y-79664557D01*
X133800182Y-79664557D02*
X133773245Y-79745369D01*
X133773245Y-79745369D02*
X133557746Y-79960868D01*
X134689117Y-79368245D02*
X134365868Y-79691494D01*
X134527492Y-79529870D02*
X133961807Y-78964184D01*
X133961807Y-78964184D02*
X133988744Y-79098871D01*
X133988744Y-79098871D02*
X133988744Y-79206621D01*
X133988744Y-79206621D02*
X133961807Y-79287433D01*
X135227865Y-78829497D02*
X134904616Y-79152746D01*
X135066240Y-78991121D02*
X134500555Y-78425436D01*
X134500555Y-78425436D02*
X134527492Y-78560123D01*
X134527492Y-78560123D02*
X134527492Y-78667873D01*
X134527492Y-78667873D02*
X134500555Y-78748685D01*
X106818873Y-98441240D02*
X107088247Y-98171866D01*
X106926623Y-98656739D02*
X106549499Y-97902492D01*
X106549499Y-97902492D02*
X107303746Y-98279615D01*
X107249871Y-97255994D02*
X107169059Y-97282932D01*
X107169059Y-97282932D02*
X107088247Y-97363744D01*
X107088247Y-97363744D02*
X107034372Y-97471494D01*
X107034372Y-97471494D02*
X107034372Y-97579243D01*
X107034372Y-97579243D02*
X107061310Y-97660055D01*
X107061310Y-97660055D02*
X107142122Y-97794742D01*
X107142122Y-97794742D02*
X107222934Y-97875555D01*
X107222934Y-97875555D02*
X107357621Y-97956367D01*
X107357621Y-97956367D02*
X107438433Y-97983304D01*
X107438433Y-97983304D02*
X107546183Y-97983304D01*
X107546183Y-97983304D02*
X107653932Y-97929429D01*
X107653932Y-97929429D02*
X107707807Y-97875555D01*
X107707807Y-97875555D02*
X107761682Y-97767805D01*
X107761682Y-97767805D02*
X107761682Y-97713930D01*
X107761682Y-97713930D02*
X107573120Y-97525368D01*
X107573120Y-97525368D02*
X107465371Y-97633118D01*
X108057993Y-97525368D02*
X107492308Y-96959683D01*
X107492308Y-96959683D02*
X108381242Y-97202120D01*
X108381242Y-97202120D02*
X107815557Y-96636434D01*
X108650616Y-96932746D02*
X108084931Y-96367060D01*
X108084931Y-96367060D02*
X108219618Y-96232373D01*
X108219618Y-96232373D02*
X108327367Y-96178498D01*
X108327367Y-96178498D02*
X108435117Y-96178498D01*
X108435117Y-96178498D02*
X108515929Y-96205436D01*
X108515929Y-96205436D02*
X108650616Y-96286248D01*
X108650616Y-96286248D02*
X108731428Y-96367060D01*
X108731428Y-96367060D02*
X108812241Y-96501747D01*
X108812241Y-96501747D02*
X108839178Y-96582560D01*
X108839178Y-96582560D02*
X108839178Y-96690309D01*
X108839178Y-96690309D02*
X108785303Y-96798059D01*
X108785303Y-96798059D02*
X108650616Y-96932746D01*
X107261435Y-72098431D02*
X107180623Y-72125368D01*
X107180623Y-72125368D02*
X107099811Y-72206180D01*
X107099811Y-72206180D02*
X107045936Y-72313930D01*
X107045936Y-72313930D02*
X107045936Y-72421680D01*
X107045936Y-72421680D02*
X107072873Y-72502492D01*
X107072873Y-72502492D02*
X107153685Y-72637179D01*
X107153685Y-72637179D02*
X107234498Y-72717991D01*
X107234498Y-72717991D02*
X107369185Y-72798803D01*
X107369185Y-72798803D02*
X107449997Y-72825741D01*
X107449997Y-72825741D02*
X107557746Y-72825741D01*
X107557746Y-72825741D02*
X107665496Y-72771866D01*
X107665496Y-72771866D02*
X107719371Y-72717991D01*
X107719371Y-72717991D02*
X107773246Y-72610241D01*
X107773246Y-72610241D02*
X107773246Y-72556367D01*
X107773246Y-72556367D02*
X107584684Y-72367805D01*
X107584684Y-72367805D02*
X107476934Y-72475554D01*
X108069557Y-72367805D02*
X107503872Y-71802119D01*
X107503872Y-71802119D02*
X108392806Y-72044556D01*
X108392806Y-72044556D02*
X107827120Y-71478871D01*
X108662180Y-71775182D02*
X108096494Y-71209497D01*
X108096494Y-71209497D02*
X108231181Y-71074810D01*
X108231181Y-71074810D02*
X108338931Y-71020935D01*
X108338931Y-71020935D02*
X108446680Y-71020935D01*
X108446680Y-71020935D02*
X108527493Y-71047872D01*
X108527493Y-71047872D02*
X108662180Y-71128685D01*
X108662180Y-71128685D02*
X108742992Y-71209497D01*
X108742992Y-71209497D02*
X108823804Y-71344184D01*
X108823804Y-71344184D02*
X108850741Y-71424996D01*
X108850741Y-71424996D02*
X108850741Y-71532746D01*
X108850741Y-71532746D02*
X108796867Y-71640495D01*
X108796867Y-71640495D02*
X108662180Y-71775182D01*
X106128406Y-115927585D02*
X106882653Y-116304709D01*
X106882653Y-116304709D02*
X106505529Y-115550462D01*
X107152027Y-115442712D02*
X107259776Y-115388838D01*
X107259776Y-115388838D02*
X107313651Y-115388838D01*
X107313651Y-115388838D02*
X107394463Y-115415775D01*
X107394463Y-115415775D02*
X107475276Y-115496587D01*
X107475276Y-115496587D02*
X107502213Y-115577399D01*
X107502213Y-115577399D02*
X107502213Y-115631274D01*
X107502213Y-115631274D02*
X107475276Y-115712086D01*
X107475276Y-115712086D02*
X107259776Y-115927586D01*
X107259776Y-115927586D02*
X106694091Y-115361900D01*
X106694091Y-115361900D02*
X106882653Y-115173338D01*
X106882653Y-115173338D02*
X106963465Y-115146401D01*
X106963465Y-115146401D02*
X107017340Y-115146401D01*
X107017340Y-115146401D02*
X107098152Y-115173338D01*
X107098152Y-115173338D02*
X107152027Y-115227213D01*
X107152027Y-115227213D02*
X107178964Y-115308025D01*
X107178964Y-115308025D02*
X107178964Y-115361900D01*
X107178964Y-115361900D02*
X107152027Y-115442712D01*
X107152027Y-115442712D02*
X106963465Y-115631274D01*
X107259776Y-114796215D02*
X107717712Y-115254151D01*
X107717712Y-115254151D02*
X107798524Y-115281088D01*
X107798524Y-115281088D02*
X107852399Y-115281088D01*
X107852399Y-115281088D02*
X107933211Y-115254151D01*
X107933211Y-115254151D02*
X108040961Y-115146401D01*
X108040961Y-115146401D02*
X108067898Y-115065589D01*
X108067898Y-115065589D02*
X108067898Y-115011714D01*
X108067898Y-115011714D02*
X108040961Y-114930902D01*
X108040961Y-114930902D02*
X107583025Y-114472966D01*
X108364210Y-114769277D02*
X108471959Y-114715403D01*
X108471959Y-114715403D02*
X108606646Y-114580716D01*
X108606646Y-114580716D02*
X108633584Y-114499903D01*
X108633584Y-114499903D02*
X108633584Y-114446029D01*
X108633584Y-114446029D02*
X108606646Y-114365216D01*
X108606646Y-114365216D02*
X108552771Y-114311342D01*
X108552771Y-114311342D02*
X108471959Y-114284404D01*
X108471959Y-114284404D02*
X108418084Y-114284404D01*
X108418084Y-114284404D02*
X108337272Y-114311342D01*
X108337272Y-114311342D02*
X108202585Y-114392154D01*
X108202585Y-114392154D02*
X108121773Y-114419091D01*
X108121773Y-114419091D02*
X108067898Y-114419091D01*
X108067898Y-114419091D02*
X107987086Y-114392154D01*
X107987086Y-114392154D02*
X107933211Y-114338279D01*
X107933211Y-114338279D02*
X107906274Y-114257467D01*
X107906274Y-114257467D02*
X107906274Y-114203592D01*
X107906274Y-114203592D02*
X107933211Y-114122780D01*
X107933211Y-114122780D02*
X108067898Y-113988093D01*
X108067898Y-113988093D02*
X108175648Y-113934218D01*
X107261435Y-110198431D02*
X107180623Y-110225368D01*
X107180623Y-110225368D02*
X107099811Y-110306180D01*
X107099811Y-110306180D02*
X107045936Y-110413930D01*
X107045936Y-110413930D02*
X107045936Y-110521680D01*
X107045936Y-110521680D02*
X107072873Y-110602492D01*
X107072873Y-110602492D02*
X107153685Y-110737179D01*
X107153685Y-110737179D02*
X107234498Y-110817991D01*
X107234498Y-110817991D02*
X107369185Y-110898803D01*
X107369185Y-110898803D02*
X107449997Y-110925741D01*
X107449997Y-110925741D02*
X107557746Y-110925741D01*
X107557746Y-110925741D02*
X107665496Y-110871866D01*
X107665496Y-110871866D02*
X107719371Y-110817991D01*
X107719371Y-110817991D02*
X107773246Y-110710241D01*
X107773246Y-110710241D02*
X107773246Y-110656367D01*
X107773246Y-110656367D02*
X107584684Y-110467805D01*
X107584684Y-110467805D02*
X107476934Y-110575554D01*
X108069557Y-110467805D02*
X107503872Y-109902119D01*
X107503872Y-109902119D02*
X108392806Y-110144556D01*
X108392806Y-110144556D02*
X107827120Y-109578871D01*
X108662180Y-109875182D02*
X108096494Y-109309497D01*
X108096494Y-109309497D02*
X108231181Y-109174810D01*
X108231181Y-109174810D02*
X108338931Y-109120935D01*
X108338931Y-109120935D02*
X108446680Y-109120935D01*
X108446680Y-109120935D02*
X108527493Y-109147872D01*
X108527493Y-109147872D02*
X108662180Y-109228685D01*
X108662180Y-109228685D02*
X108742992Y-109309497D01*
X108742992Y-109309497D02*
X108823804Y-109444184D01*
X108823804Y-109444184D02*
X108850741Y-109524996D01*
X108850741Y-109524996D02*
X108850741Y-109632746D01*
X108850741Y-109632746D02*
X108796867Y-109740495D01*
X108796867Y-109740495D02*
X108662180Y-109875182D01*
X132872998Y-74880868D02*
X132792185Y-74907805D01*
X132792185Y-74907805D02*
X132711373Y-74988618D01*
X132711373Y-74988618D02*
X132657498Y-75096367D01*
X132657498Y-75096367D02*
X132657498Y-75204117D01*
X132657498Y-75204117D02*
X132684436Y-75284929D01*
X132684436Y-75284929D02*
X132765248Y-75419616D01*
X132765248Y-75419616D02*
X132846060Y-75500428D01*
X132846060Y-75500428D02*
X132980747Y-75581241D01*
X132980747Y-75581241D02*
X133061560Y-75608178D01*
X133061560Y-75608178D02*
X133169309Y-75608178D01*
X133169309Y-75608178D02*
X133277059Y-75554303D01*
X133277059Y-75554303D02*
X133330934Y-75500428D01*
X133330934Y-75500428D02*
X133384808Y-75392679D01*
X133384808Y-75392679D02*
X133384808Y-75338804D01*
X133384808Y-75338804D02*
X133196247Y-75150242D01*
X133196247Y-75150242D02*
X133088497Y-75257992D01*
X133681120Y-75150242D02*
X133115434Y-74584557D01*
X133115434Y-74584557D02*
X133330934Y-74369057D01*
X133330934Y-74369057D02*
X133411746Y-74342120D01*
X133411746Y-74342120D02*
X133465621Y-74342120D01*
X133465621Y-74342120D02*
X133546433Y-74369057D01*
X133546433Y-74369057D02*
X133627245Y-74449870D01*
X133627245Y-74449870D02*
X133654182Y-74530682D01*
X133654182Y-74530682D02*
X133654182Y-74584557D01*
X133654182Y-74584557D02*
X133627245Y-74665369D01*
X133627245Y-74665369D02*
X133411746Y-74880868D01*
X134543117Y-74288245D02*
X134219868Y-74611494D01*
X134381492Y-74449870D02*
X133815807Y-73884184D01*
X133815807Y-73884184D02*
X133842744Y-74018871D01*
X133842744Y-74018871D02*
X133842744Y-74126621D01*
X133842744Y-74126621D02*
X133815807Y-74207433D01*
X134165993Y-73533998D02*
X134516179Y-73183812D01*
X134516179Y-73183812D02*
X134543117Y-73587873D01*
X134543117Y-73587873D02*
X134623929Y-73507060D01*
X134623929Y-73507060D02*
X134704741Y-73480123D01*
X134704741Y-73480123D02*
X134758616Y-73480123D01*
X134758616Y-73480123D02*
X134839428Y-73507060D01*
X134839428Y-73507060D02*
X134974115Y-73641747D01*
X134974115Y-73641747D02*
X135001053Y-73722560D01*
X135001053Y-73722560D02*
X135001053Y-73776434D01*
X135001053Y-73776434D02*
X134974115Y-73857247D01*
X134974115Y-73857247D02*
X134812491Y-74018871D01*
X134812491Y-74018871D02*
X134731679Y-74045808D01*
X134731679Y-74045808D02*
X134677804Y-74045808D01*
X104930064Y-105534049D02*
X105199438Y-105264675D01*
X105037813Y-105749549D02*
X104660690Y-104995301D01*
X104660690Y-104995301D02*
X105414937Y-105372425D01*
X105603499Y-105183863D02*
X105037813Y-104618178D01*
X105037813Y-104618178D02*
X105172500Y-104483491D01*
X105172500Y-104483491D02*
X105280250Y-104429616D01*
X105280250Y-104429616D02*
X105387999Y-104429616D01*
X105387999Y-104429616D02*
X105468812Y-104456553D01*
X105468812Y-104456553D02*
X105603499Y-104537366D01*
X105603499Y-104537366D02*
X105684311Y-104618178D01*
X105684311Y-104618178D02*
X105765123Y-104752865D01*
X105765123Y-104752865D02*
X105792060Y-104833677D01*
X105792060Y-104833677D02*
X105792060Y-104941427D01*
X105792060Y-104941427D02*
X105738186Y-105049176D01*
X105738186Y-105049176D02*
X105603499Y-105183863D01*
X106438558Y-104241054D02*
X106438558Y-104294929D01*
X106438558Y-104294929D02*
X106384683Y-104402679D01*
X106384683Y-104402679D02*
X106330808Y-104456553D01*
X106330808Y-104456553D02*
X106223059Y-104510428D01*
X106223059Y-104510428D02*
X106115309Y-104510428D01*
X106115309Y-104510428D02*
X106034497Y-104483491D01*
X106034497Y-104483491D02*
X105899810Y-104402679D01*
X105899810Y-104402679D02*
X105818998Y-104321866D01*
X105818998Y-104321866D02*
X105738186Y-104187179D01*
X105738186Y-104187179D02*
X105711248Y-104106367D01*
X105711248Y-104106367D02*
X105711248Y-103998618D01*
X105711248Y-103998618D02*
X105765123Y-103890868D01*
X105765123Y-103890868D02*
X105818998Y-103836993D01*
X105818998Y-103836993D02*
X105926747Y-103783118D01*
X105926747Y-103783118D02*
X105980622Y-103783118D01*
X106654057Y-104241054D02*
X107085056Y-103810056D01*
X106519370Y-103136621D02*
X107273618Y-103513744D01*
X107273618Y-103513744D02*
X106896494Y-102759497D01*
X107973990Y-102813372D02*
X107516054Y-102732560D01*
X107650741Y-103136621D02*
X107085056Y-102570935D01*
X107085056Y-102570935D02*
X107300555Y-102355436D01*
X107300555Y-102355436D02*
X107381367Y-102328499D01*
X107381367Y-102328499D02*
X107435242Y-102328499D01*
X107435242Y-102328499D02*
X107516054Y-102355436D01*
X107516054Y-102355436D02*
X107596866Y-102436248D01*
X107596866Y-102436248D02*
X107623804Y-102517061D01*
X107623804Y-102517061D02*
X107623804Y-102570935D01*
X107623804Y-102570935D02*
X107596866Y-102651748D01*
X107596866Y-102651748D02*
X107381367Y-102867247D01*
X107920115Y-102274624D02*
X108108677Y-102086062D01*
X108485800Y-102301561D02*
X108216426Y-102570935D01*
X108216426Y-102570935D02*
X107650741Y-102005250D01*
X107650741Y-102005250D02*
X107920115Y-101735876D01*
X108620488Y-101574251D02*
X108431926Y-101762813D01*
X108728237Y-102059125D02*
X108162552Y-101493439D01*
X108162552Y-101493439D02*
X108431926Y-101224065D01*
X132888372Y-102551494D02*
X132807560Y-102578431D01*
X132807560Y-102578431D02*
X132726748Y-102659243D01*
X132726748Y-102659243D02*
X132672873Y-102766993D01*
X132672873Y-102766993D02*
X132672873Y-102874742D01*
X132672873Y-102874742D02*
X132699810Y-102955555D01*
X132699810Y-102955555D02*
X132780623Y-103090242D01*
X132780623Y-103090242D02*
X132861435Y-103171054D01*
X132861435Y-103171054D02*
X132996122Y-103251866D01*
X132996122Y-103251866D02*
X133076934Y-103278803D01*
X133076934Y-103278803D02*
X133184684Y-103278803D01*
X133184684Y-103278803D02*
X133292433Y-103224929D01*
X133292433Y-103224929D02*
X133346308Y-103171054D01*
X133346308Y-103171054D02*
X133400183Y-103063304D01*
X133400183Y-103063304D02*
X133400183Y-103009429D01*
X133400183Y-103009429D02*
X133211621Y-102820868D01*
X133211621Y-102820868D02*
X133103871Y-102928617D01*
X133696494Y-102820868D02*
X133130809Y-102255182D01*
X133130809Y-102255182D02*
X133346308Y-102039683D01*
X133346308Y-102039683D02*
X133427120Y-102012746D01*
X133427120Y-102012746D02*
X133480995Y-102012746D01*
X133480995Y-102012746D02*
X133561807Y-102039683D01*
X133561807Y-102039683D02*
X133642619Y-102120495D01*
X133642619Y-102120495D02*
X133669557Y-102201307D01*
X133669557Y-102201307D02*
X133669557Y-102255182D01*
X133669557Y-102255182D02*
X133642619Y-102335994D01*
X133642619Y-102335994D02*
X133427120Y-102551494D01*
X134127493Y-101635622D02*
X134504616Y-102012746D01*
X133777306Y-101554810D02*
X134046680Y-102093558D01*
X134046680Y-102093558D02*
X134396867Y-101743372D01*
X132788372Y-92421494D02*
X132707560Y-92448431D01*
X132707560Y-92448431D02*
X132626748Y-92529243D01*
X132626748Y-92529243D02*
X132572873Y-92636993D01*
X132572873Y-92636993D02*
X132572873Y-92744742D01*
X132572873Y-92744742D02*
X132599810Y-92825555D01*
X132599810Y-92825555D02*
X132680623Y-92960242D01*
X132680623Y-92960242D02*
X132761435Y-93041054D01*
X132761435Y-93041054D02*
X132896122Y-93121866D01*
X132896122Y-93121866D02*
X132976934Y-93148803D01*
X132976934Y-93148803D02*
X133084684Y-93148803D01*
X133084684Y-93148803D02*
X133192433Y-93094929D01*
X133192433Y-93094929D02*
X133246308Y-93041054D01*
X133246308Y-93041054D02*
X133300183Y-92933304D01*
X133300183Y-92933304D02*
X133300183Y-92879429D01*
X133300183Y-92879429D02*
X133111621Y-92690868D01*
X133111621Y-92690868D02*
X133003871Y-92798617D01*
X133596494Y-92690868D02*
X133030809Y-92125182D01*
X133030809Y-92125182D02*
X133246308Y-91909683D01*
X133246308Y-91909683D02*
X133327120Y-91882746D01*
X133327120Y-91882746D02*
X133380995Y-91882746D01*
X133380995Y-91882746D02*
X133461807Y-91909683D01*
X133461807Y-91909683D02*
X133542619Y-91990495D01*
X133542619Y-91990495D02*
X133569557Y-92071307D01*
X133569557Y-92071307D02*
X133569557Y-92125182D01*
X133569557Y-92125182D02*
X133542619Y-92205994D01*
X133542619Y-92205994D02*
X133327120Y-92421494D01*
X133542619Y-91613372D02*
X133919743Y-91236248D01*
X133919743Y-91236248D02*
X134242992Y-92044370D01*
X132872998Y-67260868D02*
X132792185Y-67287805D01*
X132792185Y-67287805D02*
X132711373Y-67368618D01*
X132711373Y-67368618D02*
X132657498Y-67476367D01*
X132657498Y-67476367D02*
X132657498Y-67584117D01*
X132657498Y-67584117D02*
X132684436Y-67664929D01*
X132684436Y-67664929D02*
X132765248Y-67799616D01*
X132765248Y-67799616D02*
X132846060Y-67880428D01*
X132846060Y-67880428D02*
X132980747Y-67961241D01*
X132980747Y-67961241D02*
X133061560Y-67988178D01*
X133061560Y-67988178D02*
X133169309Y-67988178D01*
X133169309Y-67988178D02*
X133277059Y-67934303D01*
X133277059Y-67934303D02*
X133330934Y-67880428D01*
X133330934Y-67880428D02*
X133384808Y-67772679D01*
X133384808Y-67772679D02*
X133384808Y-67718804D01*
X133384808Y-67718804D02*
X133196247Y-67530242D01*
X133196247Y-67530242D02*
X133088497Y-67637992D01*
X133681120Y-67530242D02*
X133115434Y-66964557D01*
X133115434Y-66964557D02*
X133330934Y-66749057D01*
X133330934Y-66749057D02*
X133411746Y-66722120D01*
X133411746Y-66722120D02*
X133465621Y-66722120D01*
X133465621Y-66722120D02*
X133546433Y-66749057D01*
X133546433Y-66749057D02*
X133627245Y-66829870D01*
X133627245Y-66829870D02*
X133654182Y-66910682D01*
X133654182Y-66910682D02*
X133654182Y-66964557D01*
X133654182Y-66964557D02*
X133627245Y-67045369D01*
X133627245Y-67045369D02*
X133411746Y-67260868D01*
X134543117Y-66668245D02*
X134219868Y-66991494D01*
X134381492Y-66829870D02*
X133815807Y-66264184D01*
X133815807Y-66264184D02*
X133842744Y-66398871D01*
X133842744Y-66398871D02*
X133842744Y-66506621D01*
X133842744Y-66506621D02*
X133815807Y-66587433D01*
X134489242Y-65590749D02*
X134219868Y-65860123D01*
X134219868Y-65860123D02*
X134462305Y-66156434D01*
X134462305Y-66156434D02*
X134462305Y-66102560D01*
X134462305Y-66102560D02*
X134489242Y-66021747D01*
X134489242Y-66021747D02*
X134623929Y-65887060D01*
X134623929Y-65887060D02*
X134704741Y-65860123D01*
X134704741Y-65860123D02*
X134758616Y-65860123D01*
X134758616Y-65860123D02*
X134839428Y-65887060D01*
X134839428Y-65887060D02*
X134974115Y-66021747D01*
X134974115Y-66021747D02*
X135001053Y-66102560D01*
X135001053Y-66102560D02*
X135001053Y-66156434D01*
X135001053Y-66156434D02*
X134974115Y-66237247D01*
X134974115Y-66237247D02*
X134839428Y-66371934D01*
X134839428Y-66371934D02*
X134758616Y-66398871D01*
X134758616Y-66398871D02*
X134704741Y-66398871D01*
X106764998Y-69800868D02*
X106684185Y-69827805D01*
X106684185Y-69827805D02*
X106603373Y-69908618D01*
X106603373Y-69908618D02*
X106549498Y-70016367D01*
X106549498Y-70016367D02*
X106549498Y-70124117D01*
X106549498Y-70124117D02*
X106576436Y-70204929D01*
X106576436Y-70204929D02*
X106657248Y-70339616D01*
X106657248Y-70339616D02*
X106738060Y-70420428D01*
X106738060Y-70420428D02*
X106872747Y-70501241D01*
X106872747Y-70501241D02*
X106953560Y-70528178D01*
X106953560Y-70528178D02*
X107061309Y-70528178D01*
X107061309Y-70528178D02*
X107169059Y-70474303D01*
X107169059Y-70474303D02*
X107222934Y-70420428D01*
X107222934Y-70420428D02*
X107276808Y-70312679D01*
X107276808Y-70312679D02*
X107276808Y-70258804D01*
X107276808Y-70258804D02*
X107088247Y-70070242D01*
X107088247Y-70070242D02*
X106980497Y-70177992D01*
X107573120Y-70070242D02*
X107007434Y-69504557D01*
X107007434Y-69504557D02*
X107222934Y-69289057D01*
X107222934Y-69289057D02*
X107303746Y-69262120D01*
X107303746Y-69262120D02*
X107357621Y-69262120D01*
X107357621Y-69262120D02*
X107438433Y-69289057D01*
X107438433Y-69289057D02*
X107519245Y-69369870D01*
X107519245Y-69369870D02*
X107546182Y-69450682D01*
X107546182Y-69450682D02*
X107546182Y-69504557D01*
X107546182Y-69504557D02*
X107519245Y-69585369D01*
X107519245Y-69585369D02*
X107303746Y-69800868D01*
X108435117Y-69208245D02*
X108111868Y-69531494D01*
X108273492Y-69369870D02*
X107707807Y-68804184D01*
X107707807Y-68804184D02*
X107734744Y-68938871D01*
X107734744Y-68938871D02*
X107734744Y-69046621D01*
X107734744Y-69046621D02*
X107707807Y-69127433D01*
X108057993Y-68453998D02*
X108435117Y-68076874D01*
X108435117Y-68076874D02*
X108758366Y-68884996D01*
X106764998Y-92660868D02*
X106684185Y-92687805D01*
X106684185Y-92687805D02*
X106603373Y-92768618D01*
X106603373Y-92768618D02*
X106549498Y-92876367D01*
X106549498Y-92876367D02*
X106549498Y-92984117D01*
X106549498Y-92984117D02*
X106576436Y-93064929D01*
X106576436Y-93064929D02*
X106657248Y-93199616D01*
X106657248Y-93199616D02*
X106738060Y-93280428D01*
X106738060Y-93280428D02*
X106872747Y-93361241D01*
X106872747Y-93361241D02*
X106953560Y-93388178D01*
X106953560Y-93388178D02*
X107061309Y-93388178D01*
X107061309Y-93388178D02*
X107169059Y-93334303D01*
X107169059Y-93334303D02*
X107222934Y-93280428D01*
X107222934Y-93280428D02*
X107276808Y-93172679D01*
X107276808Y-93172679D02*
X107276808Y-93118804D01*
X107276808Y-93118804D02*
X107088247Y-92930242D01*
X107088247Y-92930242D02*
X106980497Y-93037992D01*
X107573120Y-92930242D02*
X107007434Y-92364557D01*
X107007434Y-92364557D02*
X107222934Y-92149057D01*
X107222934Y-92149057D02*
X107303746Y-92122120D01*
X107303746Y-92122120D02*
X107357621Y-92122120D01*
X107357621Y-92122120D02*
X107438433Y-92149057D01*
X107438433Y-92149057D02*
X107519245Y-92229870D01*
X107519245Y-92229870D02*
X107546182Y-92310682D01*
X107546182Y-92310682D02*
X107546182Y-92364557D01*
X107546182Y-92364557D02*
X107519245Y-92445369D01*
X107519245Y-92445369D02*
X107303746Y-92660868D01*
X107600057Y-91879683D02*
X107600057Y-91825809D01*
X107600057Y-91825809D02*
X107626995Y-91744996D01*
X107626995Y-91744996D02*
X107761682Y-91610309D01*
X107761682Y-91610309D02*
X107842494Y-91583372D01*
X107842494Y-91583372D02*
X107896369Y-91583372D01*
X107896369Y-91583372D02*
X107977181Y-91610309D01*
X107977181Y-91610309D02*
X108031056Y-91664184D01*
X108031056Y-91664184D02*
X108084930Y-91771934D01*
X108084930Y-91771934D02*
X108084930Y-92418431D01*
X108084930Y-92418431D02*
X108435117Y-92068245D01*
X108354305Y-91017686D02*
X108246555Y-91125436D01*
X108246555Y-91125436D02*
X108219618Y-91206248D01*
X108219618Y-91206248D02*
X108219618Y-91260123D01*
X108219618Y-91260123D02*
X108246555Y-91394810D01*
X108246555Y-91394810D02*
X108327367Y-91529497D01*
X108327367Y-91529497D02*
X108542866Y-91744996D01*
X108542866Y-91744996D02*
X108623679Y-91771934D01*
X108623679Y-91771934D02*
X108677553Y-91771934D01*
X108677553Y-91771934D02*
X108758366Y-91744996D01*
X108758366Y-91744996D02*
X108866115Y-91637247D01*
X108866115Y-91637247D02*
X108893053Y-91556434D01*
X108893053Y-91556434D02*
X108893053Y-91502560D01*
X108893053Y-91502560D02*
X108866115Y-91421747D01*
X108866115Y-91421747D02*
X108731428Y-91287060D01*
X108731428Y-91287060D02*
X108650616Y-91260123D01*
X108650616Y-91260123D02*
X108596741Y-91260123D01*
X108596741Y-91260123D02*
X108515929Y-91287060D01*
X108515929Y-91287060D02*
X108408179Y-91394810D01*
X108408179Y-91394810D02*
X108381242Y-91475622D01*
X108381242Y-91475622D02*
X108381242Y-91529497D01*
X108381242Y-91529497D02*
X108408179Y-91610309D01*
X124665475Y-65124200D02*
X124779761Y-65162295D01*
X124779761Y-65162295D02*
X124970237Y-65162295D01*
X124970237Y-65162295D02*
X125046428Y-65124200D01*
X125046428Y-65124200D02*
X125084523Y-65086104D01*
X125084523Y-65086104D02*
X125122618Y-65009914D01*
X125122618Y-65009914D02*
X125122618Y-64933723D01*
X125122618Y-64933723D02*
X125084523Y-64857533D01*
X125084523Y-64857533D02*
X125046428Y-64819438D01*
X125046428Y-64819438D02*
X124970237Y-64781342D01*
X124970237Y-64781342D02*
X124817856Y-64743247D01*
X124817856Y-64743247D02*
X124741666Y-64705152D01*
X124741666Y-64705152D02*
X124703571Y-64667057D01*
X124703571Y-64667057D02*
X124665475Y-64590866D01*
X124665475Y-64590866D02*
X124665475Y-64514676D01*
X124665475Y-64514676D02*
X124703571Y-64438485D01*
X124703571Y-64438485D02*
X124741666Y-64400390D01*
X124741666Y-64400390D02*
X124817856Y-64362295D01*
X124817856Y-64362295D02*
X125008333Y-64362295D01*
X125008333Y-64362295D02*
X125122618Y-64400390D01*
X125389285Y-64362295D02*
X125579761Y-65162295D01*
X125579761Y-65162295D02*
X125732142Y-64590866D01*
X125732142Y-64590866D02*
X125884523Y-65162295D01*
X125884523Y-65162295D02*
X126075000Y-64362295D01*
X126836905Y-65086104D02*
X126798809Y-65124200D01*
X126798809Y-65124200D02*
X126684524Y-65162295D01*
X126684524Y-65162295D02*
X126608333Y-65162295D01*
X126608333Y-65162295D02*
X126494047Y-65124200D01*
X126494047Y-65124200D02*
X126417857Y-65048009D01*
X126417857Y-65048009D02*
X126379762Y-64971819D01*
X126379762Y-64971819D02*
X126341666Y-64819438D01*
X126341666Y-64819438D02*
X126341666Y-64705152D01*
X126341666Y-64705152D02*
X126379762Y-64552771D01*
X126379762Y-64552771D02*
X126417857Y-64476580D01*
X126417857Y-64476580D02*
X126494047Y-64400390D01*
X126494047Y-64400390D02*
X126608333Y-64362295D01*
X126608333Y-64362295D02*
X126684524Y-64362295D01*
X126684524Y-64362295D02*
X126798809Y-64400390D01*
X126798809Y-64400390D02*
X126836905Y-64438485D01*
X127560714Y-65162295D02*
X127179762Y-65162295D01*
X127179762Y-65162295D02*
X127179762Y-64362295D01*
X127827381Y-65162295D02*
X127827381Y-64362295D01*
X128284524Y-65162295D02*
X127941666Y-64705152D01*
X128284524Y-64362295D02*
X127827381Y-64819438D01*
X105297407Y-109358584D02*
X105647593Y-109008398D01*
X105647593Y-109008398D02*
X105674531Y-109412459D01*
X105674531Y-109412459D02*
X105755343Y-109331646D01*
X105755343Y-109331646D02*
X105836155Y-109304709D01*
X105836155Y-109304709D02*
X105890030Y-109304709D01*
X105890030Y-109304709D02*
X105970842Y-109331646D01*
X105970842Y-109331646D02*
X106105529Y-109466333D01*
X106105529Y-109466333D02*
X106132467Y-109547146D01*
X106132467Y-109547146D02*
X106132467Y-109601020D01*
X106132467Y-109601020D02*
X106105529Y-109681833D01*
X106105529Y-109681833D02*
X105943905Y-109843457D01*
X105943905Y-109843457D02*
X105863093Y-109870394D01*
X105863093Y-109870394D02*
X105809218Y-109870394D01*
X105809218Y-108846773D02*
X106563465Y-109223897D01*
X106563465Y-109223897D02*
X106186342Y-108469649D01*
X106321028Y-108334963D02*
X106671215Y-107984776D01*
X106671215Y-107984776D02*
X106698152Y-108388837D01*
X106698152Y-108388837D02*
X106778964Y-108308025D01*
X106778964Y-108308025D02*
X106859776Y-108281088D01*
X106859776Y-108281088D02*
X106913651Y-108281088D01*
X106913651Y-108281088D02*
X106994464Y-108308025D01*
X106994464Y-108308025D02*
X107129151Y-108442712D01*
X107129151Y-108442712D02*
X107156088Y-108523524D01*
X107156088Y-108523524D02*
X107156088Y-108577399D01*
X107156088Y-108577399D02*
X107129151Y-108658211D01*
X107129151Y-108658211D02*
X106967526Y-108819836D01*
X106967526Y-108819836D02*
X106886714Y-108846773D01*
X106886714Y-108846773D02*
X106832839Y-108846773D01*
X107398525Y-108496587D02*
X107829523Y-108065588D01*
X107614024Y-107580715D02*
X107802586Y-107392153D01*
X108179709Y-107607652D02*
X107910335Y-107877026D01*
X107910335Y-107877026D02*
X107344650Y-107311341D01*
X107344650Y-107311341D02*
X107614024Y-107041967D01*
X108422146Y-107365215D02*
X107856461Y-106799530D01*
X107856461Y-106799530D02*
X108745395Y-107041967D01*
X108745395Y-107041967D02*
X108179710Y-106476281D01*
X106865123Y-105290868D02*
X107215309Y-104940682D01*
X107215309Y-104940682D02*
X107242247Y-105344743D01*
X107242247Y-105344743D02*
X107323059Y-105263931D01*
X107323059Y-105263931D02*
X107403871Y-105236993D01*
X107403871Y-105236993D02*
X107457746Y-105236993D01*
X107457746Y-105236993D02*
X107538558Y-105263931D01*
X107538558Y-105263931D02*
X107673245Y-105398618D01*
X107673245Y-105398618D02*
X107700182Y-105479430D01*
X107700182Y-105479430D02*
X107700182Y-105533305D01*
X107700182Y-105533305D02*
X107673245Y-105614117D01*
X107673245Y-105614117D02*
X107511621Y-105775741D01*
X107511621Y-105775741D02*
X107430808Y-105802679D01*
X107430808Y-105802679D02*
X107376934Y-105802679D01*
X107376934Y-104779057D02*
X108131181Y-105156181D01*
X108131181Y-105156181D02*
X107754057Y-104401934D01*
X107888744Y-104267247D02*
X108238930Y-103917061D01*
X108238930Y-103917061D02*
X108265868Y-104321122D01*
X108265868Y-104321122D02*
X108346680Y-104240309D01*
X108346680Y-104240309D02*
X108427492Y-104213372D01*
X108427492Y-104213372D02*
X108481367Y-104213372D01*
X108481367Y-104213372D02*
X108562179Y-104240309D01*
X108562179Y-104240309D02*
X108696866Y-104374996D01*
X108696866Y-104374996D02*
X108723804Y-104455809D01*
X108723804Y-104455809D02*
X108723804Y-104509683D01*
X108723804Y-104509683D02*
X108696866Y-104590496D01*
X108696866Y-104590496D02*
X108535242Y-104752120D01*
X108535242Y-104752120D02*
X108454430Y-104779057D01*
X108454430Y-104779057D02*
X108400555Y-104779057D01*
X132888372Y-89851494D02*
X132807560Y-89878431D01*
X132807560Y-89878431D02*
X132726748Y-89959243D01*
X132726748Y-89959243D02*
X132672873Y-90066993D01*
X132672873Y-90066993D02*
X132672873Y-90174742D01*
X132672873Y-90174742D02*
X132699810Y-90255555D01*
X132699810Y-90255555D02*
X132780623Y-90390242D01*
X132780623Y-90390242D02*
X132861435Y-90471054D01*
X132861435Y-90471054D02*
X132996122Y-90551866D01*
X132996122Y-90551866D02*
X133076934Y-90578803D01*
X133076934Y-90578803D02*
X133184684Y-90578803D01*
X133184684Y-90578803D02*
X133292433Y-90524929D01*
X133292433Y-90524929D02*
X133346308Y-90471054D01*
X133346308Y-90471054D02*
X133400183Y-90363304D01*
X133400183Y-90363304D02*
X133400183Y-90309429D01*
X133400183Y-90309429D02*
X133211621Y-90120868D01*
X133211621Y-90120868D02*
X133103871Y-90228617D01*
X133696494Y-90120868D02*
X133130809Y-89555182D01*
X133130809Y-89555182D02*
X133346308Y-89339683D01*
X133346308Y-89339683D02*
X133427120Y-89312746D01*
X133427120Y-89312746D02*
X133480995Y-89312746D01*
X133480995Y-89312746D02*
X133561807Y-89339683D01*
X133561807Y-89339683D02*
X133642619Y-89420495D01*
X133642619Y-89420495D02*
X133669557Y-89501307D01*
X133669557Y-89501307D02*
X133669557Y-89555182D01*
X133669557Y-89555182D02*
X133642619Y-89635994D01*
X133642619Y-89635994D02*
X133427120Y-89851494D01*
X134019743Y-89151121D02*
X133938931Y-89178059D01*
X133938931Y-89178059D02*
X133885056Y-89178059D01*
X133885056Y-89178059D02*
X133804244Y-89151121D01*
X133804244Y-89151121D02*
X133777306Y-89124184D01*
X133777306Y-89124184D02*
X133750369Y-89043372D01*
X133750369Y-89043372D02*
X133750369Y-88989497D01*
X133750369Y-88989497D02*
X133777306Y-88908685D01*
X133777306Y-88908685D02*
X133885056Y-88800935D01*
X133885056Y-88800935D02*
X133965868Y-88773998D01*
X133965868Y-88773998D02*
X134019743Y-88773998D01*
X134019743Y-88773998D02*
X134100555Y-88800935D01*
X134100555Y-88800935D02*
X134127493Y-88827872D01*
X134127493Y-88827872D02*
X134154430Y-88908685D01*
X134154430Y-88908685D02*
X134154430Y-88962559D01*
X134154430Y-88962559D02*
X134127493Y-89043372D01*
X134127493Y-89043372D02*
X134019743Y-89151121D01*
X134019743Y-89151121D02*
X133992806Y-89231933D01*
X133992806Y-89231933D02*
X133992806Y-89285808D01*
X133992806Y-89285808D02*
X134019743Y-89366620D01*
X134019743Y-89366620D02*
X134127493Y-89474370D01*
X134127493Y-89474370D02*
X134208305Y-89501307D01*
X134208305Y-89501307D02*
X134262180Y-89501307D01*
X134262180Y-89501307D02*
X134342992Y-89474370D01*
X134342992Y-89474370D02*
X134450741Y-89366620D01*
X134450741Y-89366620D02*
X134477679Y-89285808D01*
X134477679Y-89285808D02*
X134477679Y-89231933D01*
X134477679Y-89231933D02*
X134450741Y-89151121D01*
X134450741Y-89151121D02*
X134342992Y-89043372D01*
X134342992Y-89043372D02*
X134262180Y-89016434D01*
X134262180Y-89016434D02*
X134208305Y-89016434D01*
X134208305Y-89016434D02*
X134127493Y-89043372D01*
X106764998Y-67260868D02*
X106684185Y-67287805D01*
X106684185Y-67287805D02*
X106603373Y-67368618D01*
X106603373Y-67368618D02*
X106549498Y-67476367D01*
X106549498Y-67476367D02*
X106549498Y-67584117D01*
X106549498Y-67584117D02*
X106576436Y-67664929D01*
X106576436Y-67664929D02*
X106657248Y-67799616D01*
X106657248Y-67799616D02*
X106738060Y-67880428D01*
X106738060Y-67880428D02*
X106872747Y-67961241D01*
X106872747Y-67961241D02*
X106953560Y-67988178D01*
X106953560Y-67988178D02*
X107061309Y-67988178D01*
X107061309Y-67988178D02*
X107169059Y-67934303D01*
X107169059Y-67934303D02*
X107222934Y-67880428D01*
X107222934Y-67880428D02*
X107276808Y-67772679D01*
X107276808Y-67772679D02*
X107276808Y-67718804D01*
X107276808Y-67718804D02*
X107088247Y-67530242D01*
X107088247Y-67530242D02*
X106980497Y-67637992D01*
X107573120Y-67530242D02*
X107007434Y-66964557D01*
X107007434Y-66964557D02*
X107222934Y-66749057D01*
X107222934Y-66749057D02*
X107303746Y-66722120D01*
X107303746Y-66722120D02*
X107357621Y-66722120D01*
X107357621Y-66722120D02*
X107438433Y-66749057D01*
X107438433Y-66749057D02*
X107519245Y-66829870D01*
X107519245Y-66829870D02*
X107546182Y-66910682D01*
X107546182Y-66910682D02*
X107546182Y-66964557D01*
X107546182Y-66964557D02*
X107519245Y-67045369D01*
X107519245Y-67045369D02*
X107303746Y-67260868D01*
X108435117Y-66668245D02*
X108111868Y-66991494D01*
X108273492Y-66829870D02*
X107707807Y-66264184D01*
X107707807Y-66264184D02*
X107734744Y-66398871D01*
X107734744Y-66398871D02*
X107734744Y-66506621D01*
X107734744Y-66506621D02*
X107707807Y-66587433D01*
X108354305Y-65617686D02*
X108246555Y-65725436D01*
X108246555Y-65725436D02*
X108219618Y-65806248D01*
X108219618Y-65806248D02*
X108219618Y-65860123D01*
X108219618Y-65860123D02*
X108246555Y-65994810D01*
X108246555Y-65994810D02*
X108327367Y-66129497D01*
X108327367Y-66129497D02*
X108542866Y-66344996D01*
X108542866Y-66344996D02*
X108623679Y-66371934D01*
X108623679Y-66371934D02*
X108677553Y-66371934D01*
X108677553Y-66371934D02*
X108758366Y-66344996D01*
X108758366Y-66344996D02*
X108866115Y-66237247D01*
X108866115Y-66237247D02*
X108893053Y-66156434D01*
X108893053Y-66156434D02*
X108893053Y-66102560D01*
X108893053Y-66102560D02*
X108866115Y-66021747D01*
X108866115Y-66021747D02*
X108731428Y-65887060D01*
X108731428Y-65887060D02*
X108650616Y-65860123D01*
X108650616Y-65860123D02*
X108596741Y-65860123D01*
X108596741Y-65860123D02*
X108515929Y-65887060D01*
X108515929Y-65887060D02*
X108408179Y-65994810D01*
X108408179Y-65994810D02*
X108381242Y-66075622D01*
X108381242Y-66075622D02*
X108381242Y-66129497D01*
X108381242Y-66129497D02*
X108408179Y-66210309D01*
X107261435Y-84798431D02*
X107180623Y-84825368D01*
X107180623Y-84825368D02*
X107099811Y-84906180D01*
X107099811Y-84906180D02*
X107045936Y-85013930D01*
X107045936Y-85013930D02*
X107045936Y-85121680D01*
X107045936Y-85121680D02*
X107072873Y-85202492D01*
X107072873Y-85202492D02*
X107153685Y-85337179D01*
X107153685Y-85337179D02*
X107234498Y-85417991D01*
X107234498Y-85417991D02*
X107369185Y-85498803D01*
X107369185Y-85498803D02*
X107449997Y-85525741D01*
X107449997Y-85525741D02*
X107557746Y-85525741D01*
X107557746Y-85525741D02*
X107665496Y-85471866D01*
X107665496Y-85471866D02*
X107719371Y-85417991D01*
X107719371Y-85417991D02*
X107773246Y-85310241D01*
X107773246Y-85310241D02*
X107773246Y-85256367D01*
X107773246Y-85256367D02*
X107584684Y-85067805D01*
X107584684Y-85067805D02*
X107476934Y-85175554D01*
X108069557Y-85067805D02*
X107503872Y-84502119D01*
X107503872Y-84502119D02*
X108392806Y-84744556D01*
X108392806Y-84744556D02*
X107827120Y-84178871D01*
X108662180Y-84475182D02*
X108096494Y-83909497D01*
X108096494Y-83909497D02*
X108231181Y-83774810D01*
X108231181Y-83774810D02*
X108338931Y-83720935D01*
X108338931Y-83720935D02*
X108446680Y-83720935D01*
X108446680Y-83720935D02*
X108527493Y-83747872D01*
X108527493Y-83747872D02*
X108662180Y-83828685D01*
X108662180Y-83828685D02*
X108742992Y-83909497D01*
X108742992Y-83909497D02*
X108823804Y-84044184D01*
X108823804Y-84044184D02*
X108850741Y-84124996D01*
X108850741Y-84124996D02*
X108850741Y-84232746D01*
X108850741Y-84232746D02*
X108796867Y-84340495D01*
X108796867Y-84340495D02*
X108662180Y-84475182D01*
X132861435Y-97498431D02*
X132780623Y-97525368D01*
X132780623Y-97525368D02*
X132699811Y-97606180D01*
X132699811Y-97606180D02*
X132645936Y-97713930D01*
X132645936Y-97713930D02*
X132645936Y-97821680D01*
X132645936Y-97821680D02*
X132672873Y-97902492D01*
X132672873Y-97902492D02*
X132753685Y-98037179D01*
X132753685Y-98037179D02*
X132834498Y-98117991D01*
X132834498Y-98117991D02*
X132969185Y-98198803D01*
X132969185Y-98198803D02*
X133049997Y-98225741D01*
X133049997Y-98225741D02*
X133157746Y-98225741D01*
X133157746Y-98225741D02*
X133265496Y-98171866D01*
X133265496Y-98171866D02*
X133319371Y-98117991D01*
X133319371Y-98117991D02*
X133373246Y-98010241D01*
X133373246Y-98010241D02*
X133373246Y-97956367D01*
X133373246Y-97956367D02*
X133184684Y-97767805D01*
X133184684Y-97767805D02*
X133076934Y-97875554D01*
X133669557Y-97767805D02*
X133103872Y-97202119D01*
X133103872Y-97202119D02*
X133992806Y-97444556D01*
X133992806Y-97444556D02*
X133427120Y-96878871D01*
X134262180Y-97175182D02*
X133696494Y-96609497D01*
X133696494Y-96609497D02*
X133831181Y-96474810D01*
X133831181Y-96474810D02*
X133938931Y-96420935D01*
X133938931Y-96420935D02*
X134046680Y-96420935D01*
X134046680Y-96420935D02*
X134127493Y-96447872D01*
X134127493Y-96447872D02*
X134262180Y-96528685D01*
X134262180Y-96528685D02*
X134342992Y-96609497D01*
X134342992Y-96609497D02*
X134423804Y-96744184D01*
X134423804Y-96744184D02*
X134450741Y-96824996D01*
X134450741Y-96824996D02*
X134450741Y-96932746D01*
X134450741Y-96932746D02*
X134396867Y-97040495D01*
X134396867Y-97040495D02*
X134262180Y-97175182D01*
X106764998Y-100534868D02*
X106684185Y-100561805D01*
X106684185Y-100561805D02*
X106603373Y-100642618D01*
X106603373Y-100642618D02*
X106549498Y-100750367D01*
X106549498Y-100750367D02*
X106549498Y-100858117D01*
X106549498Y-100858117D02*
X106576436Y-100938929D01*
X106576436Y-100938929D02*
X106657248Y-101073616D01*
X106657248Y-101073616D02*
X106738060Y-101154428D01*
X106738060Y-101154428D02*
X106872747Y-101235241D01*
X106872747Y-101235241D02*
X106953560Y-101262178D01*
X106953560Y-101262178D02*
X107061309Y-101262178D01*
X107061309Y-101262178D02*
X107169059Y-101208303D01*
X107169059Y-101208303D02*
X107222934Y-101154428D01*
X107222934Y-101154428D02*
X107276808Y-101046679D01*
X107276808Y-101046679D02*
X107276808Y-100992804D01*
X107276808Y-100992804D02*
X107088247Y-100804242D01*
X107088247Y-100804242D02*
X106980497Y-100911992D01*
X107573120Y-100804242D02*
X107007434Y-100238557D01*
X107007434Y-100238557D02*
X107222934Y-100023057D01*
X107222934Y-100023057D02*
X107303746Y-99996120D01*
X107303746Y-99996120D02*
X107357621Y-99996120D01*
X107357621Y-99996120D02*
X107438433Y-100023057D01*
X107438433Y-100023057D02*
X107519245Y-100103870D01*
X107519245Y-100103870D02*
X107546182Y-100184682D01*
X107546182Y-100184682D02*
X107546182Y-100238557D01*
X107546182Y-100238557D02*
X107519245Y-100319369D01*
X107519245Y-100319369D02*
X107303746Y-100534868D01*
X107600057Y-99753683D02*
X107600057Y-99699809D01*
X107600057Y-99699809D02*
X107626995Y-99618996D01*
X107626995Y-99618996D02*
X107761682Y-99484309D01*
X107761682Y-99484309D02*
X107842494Y-99457372D01*
X107842494Y-99457372D02*
X107896369Y-99457372D01*
X107896369Y-99457372D02*
X107977181Y-99484309D01*
X107977181Y-99484309D02*
X108031056Y-99538184D01*
X108031056Y-99538184D02*
X108084930Y-99645934D01*
X108084930Y-99645934D02*
X108084930Y-100292431D01*
X108084930Y-100292431D02*
X108435117Y-99942245D01*
X108435117Y-99295747D02*
X108354305Y-99322685D01*
X108354305Y-99322685D02*
X108300430Y-99322685D01*
X108300430Y-99322685D02*
X108219618Y-99295747D01*
X108219618Y-99295747D02*
X108192680Y-99268810D01*
X108192680Y-99268810D02*
X108165743Y-99187998D01*
X108165743Y-99187998D02*
X108165743Y-99134123D01*
X108165743Y-99134123D02*
X108192680Y-99053311D01*
X108192680Y-99053311D02*
X108300430Y-98945561D01*
X108300430Y-98945561D02*
X108381242Y-98918624D01*
X108381242Y-98918624D02*
X108435117Y-98918624D01*
X108435117Y-98918624D02*
X108515929Y-98945561D01*
X108515929Y-98945561D02*
X108542866Y-98972499D01*
X108542866Y-98972499D02*
X108569804Y-99053311D01*
X108569804Y-99053311D02*
X108569804Y-99107186D01*
X108569804Y-99107186D02*
X108542866Y-99187998D01*
X108542866Y-99187998D02*
X108435117Y-99295747D01*
X108435117Y-99295747D02*
X108408179Y-99376560D01*
X108408179Y-99376560D02*
X108408179Y-99430434D01*
X108408179Y-99430434D02*
X108435117Y-99511247D01*
X108435117Y-99511247D02*
X108542866Y-99618996D01*
X108542866Y-99618996D02*
X108623679Y-99645934D01*
X108623679Y-99645934D02*
X108677553Y-99645934D01*
X108677553Y-99645934D02*
X108758366Y-99618996D01*
X108758366Y-99618996D02*
X108866115Y-99511247D01*
X108866115Y-99511247D02*
X108893053Y-99430434D01*
X108893053Y-99430434D02*
X108893053Y-99376560D01*
X108893053Y-99376560D02*
X108866115Y-99295747D01*
X108866115Y-99295747D02*
X108758366Y-99187998D01*
X108758366Y-99187998D02*
X108677553Y-99161060D01*
X108677553Y-99161060D02*
X108623679Y-99161060D01*
X108623679Y-99161060D02*
X108542866Y-99187998D01*
X132888372Y-87311494D02*
X132807560Y-87338431D01*
X132807560Y-87338431D02*
X132726748Y-87419243D01*
X132726748Y-87419243D02*
X132672873Y-87526993D01*
X132672873Y-87526993D02*
X132672873Y-87634742D01*
X132672873Y-87634742D02*
X132699810Y-87715555D01*
X132699810Y-87715555D02*
X132780623Y-87850242D01*
X132780623Y-87850242D02*
X132861435Y-87931054D01*
X132861435Y-87931054D02*
X132996122Y-88011866D01*
X132996122Y-88011866D02*
X133076934Y-88038803D01*
X133076934Y-88038803D02*
X133184684Y-88038803D01*
X133184684Y-88038803D02*
X133292433Y-87984929D01*
X133292433Y-87984929D02*
X133346308Y-87931054D01*
X133346308Y-87931054D02*
X133400183Y-87823304D01*
X133400183Y-87823304D02*
X133400183Y-87769429D01*
X133400183Y-87769429D02*
X133211621Y-87580868D01*
X133211621Y-87580868D02*
X133103871Y-87688617D01*
X133696494Y-87580868D02*
X133130809Y-87015182D01*
X133130809Y-87015182D02*
X133346308Y-86799683D01*
X133346308Y-86799683D02*
X133427120Y-86772746D01*
X133427120Y-86772746D02*
X133480995Y-86772746D01*
X133480995Y-86772746D02*
X133561807Y-86799683D01*
X133561807Y-86799683D02*
X133642619Y-86880495D01*
X133642619Y-86880495D02*
X133669557Y-86961307D01*
X133669557Y-86961307D02*
X133669557Y-87015182D01*
X133669557Y-87015182D02*
X133642619Y-87095994D01*
X133642619Y-87095994D02*
X133427120Y-87311494D01*
X134289117Y-86988245D02*
X134396867Y-86880495D01*
X134396867Y-86880495D02*
X134423804Y-86799683D01*
X134423804Y-86799683D02*
X134423804Y-86745808D01*
X134423804Y-86745808D02*
X134396867Y-86611121D01*
X134396867Y-86611121D02*
X134316054Y-86476434D01*
X134316054Y-86476434D02*
X134100555Y-86260935D01*
X134100555Y-86260935D02*
X134019743Y-86233998D01*
X134019743Y-86233998D02*
X133965868Y-86233998D01*
X133965868Y-86233998D02*
X133885056Y-86260935D01*
X133885056Y-86260935D02*
X133777306Y-86368685D01*
X133777306Y-86368685D02*
X133750369Y-86449497D01*
X133750369Y-86449497D02*
X133750369Y-86503372D01*
X133750369Y-86503372D02*
X133777306Y-86584184D01*
X133777306Y-86584184D02*
X133911993Y-86718871D01*
X133911993Y-86718871D02*
X133992806Y-86745808D01*
X133992806Y-86745808D02*
X134046680Y-86745808D01*
X134046680Y-86745808D02*
X134127493Y-86718871D01*
X134127493Y-86718871D02*
X134235242Y-86611121D01*
X134235242Y-86611121D02*
X134262180Y-86530309D01*
X134262180Y-86530309D02*
X134262180Y-86476434D01*
X134262180Y-86476434D02*
X134235242Y-86395622D01*
X113479761Y-65124200D02*
X113594047Y-65162295D01*
X113594047Y-65162295D02*
X113784523Y-65162295D01*
X113784523Y-65162295D02*
X113860714Y-65124200D01*
X113860714Y-65124200D02*
X113898809Y-65086104D01*
X113898809Y-65086104D02*
X113936904Y-65009914D01*
X113936904Y-65009914D02*
X113936904Y-64933723D01*
X113936904Y-64933723D02*
X113898809Y-64857533D01*
X113898809Y-64857533D02*
X113860714Y-64819438D01*
X113860714Y-64819438D02*
X113784523Y-64781342D01*
X113784523Y-64781342D02*
X113632142Y-64743247D01*
X113632142Y-64743247D02*
X113555952Y-64705152D01*
X113555952Y-64705152D02*
X113517857Y-64667057D01*
X113517857Y-64667057D02*
X113479761Y-64590866D01*
X113479761Y-64590866D02*
X113479761Y-64514676D01*
X113479761Y-64514676D02*
X113517857Y-64438485D01*
X113517857Y-64438485D02*
X113555952Y-64400390D01*
X113555952Y-64400390D02*
X113632142Y-64362295D01*
X113632142Y-64362295D02*
X113822619Y-64362295D01*
X113822619Y-64362295D02*
X113936904Y-64400390D01*
X114203571Y-64362295D02*
X114394047Y-65162295D01*
X114394047Y-65162295D02*
X114546428Y-64590866D01*
X114546428Y-64590866D02*
X114698809Y-65162295D01*
X114698809Y-65162295D02*
X114889286Y-64362295D01*
X115194048Y-65162295D02*
X115194048Y-64362295D01*
X115194048Y-64362295D02*
X115384524Y-64362295D01*
X115384524Y-64362295D02*
X115498810Y-64400390D01*
X115498810Y-64400390D02*
X115575000Y-64476580D01*
X115575000Y-64476580D02*
X115613095Y-64552771D01*
X115613095Y-64552771D02*
X115651191Y-64705152D01*
X115651191Y-64705152D02*
X115651191Y-64819438D01*
X115651191Y-64819438D02*
X115613095Y-64971819D01*
X115613095Y-64971819D02*
X115575000Y-65048009D01*
X115575000Y-65048009D02*
X115498810Y-65124200D01*
X115498810Y-65124200D02*
X115384524Y-65162295D01*
X115384524Y-65162295D02*
X115194048Y-65162295D01*
X115994048Y-65162295D02*
X115994048Y-64362295D01*
X116527381Y-64362295D02*
X116679762Y-64362295D01*
X116679762Y-64362295D02*
X116755952Y-64400390D01*
X116755952Y-64400390D02*
X116832143Y-64476580D01*
X116832143Y-64476580D02*
X116870238Y-64628961D01*
X116870238Y-64628961D02*
X116870238Y-64895628D01*
X116870238Y-64895628D02*
X116832143Y-65048009D01*
X116832143Y-65048009D02*
X116755952Y-65124200D01*
X116755952Y-65124200D02*
X116679762Y-65162295D01*
X116679762Y-65162295D02*
X116527381Y-65162295D01*
X116527381Y-65162295D02*
X116451190Y-65124200D01*
X116451190Y-65124200D02*
X116375000Y-65048009D01*
X116375000Y-65048009D02*
X116336904Y-64895628D01*
X116336904Y-64895628D02*
X116336904Y-64628961D01*
X116336904Y-64628961D02*
X116375000Y-64476580D01*
X116375000Y-64476580D02*
X116451190Y-64400390D01*
X116451190Y-64400390D02*
X116527381Y-64362295D01*
X132888372Y-100011494D02*
X132807560Y-100038431D01*
X132807560Y-100038431D02*
X132726748Y-100119243D01*
X132726748Y-100119243D02*
X132672873Y-100226993D01*
X132672873Y-100226993D02*
X132672873Y-100334742D01*
X132672873Y-100334742D02*
X132699810Y-100415555D01*
X132699810Y-100415555D02*
X132780623Y-100550242D01*
X132780623Y-100550242D02*
X132861435Y-100631054D01*
X132861435Y-100631054D02*
X132996122Y-100711866D01*
X132996122Y-100711866D02*
X133076934Y-100738803D01*
X133076934Y-100738803D02*
X133184684Y-100738803D01*
X133184684Y-100738803D02*
X133292433Y-100684929D01*
X133292433Y-100684929D02*
X133346308Y-100631054D01*
X133346308Y-100631054D02*
X133400183Y-100523304D01*
X133400183Y-100523304D02*
X133400183Y-100469429D01*
X133400183Y-100469429D02*
X133211621Y-100280868D01*
X133211621Y-100280868D02*
X133103871Y-100388617D01*
X133696494Y-100280868D02*
X133130809Y-99715182D01*
X133130809Y-99715182D02*
X133346308Y-99499683D01*
X133346308Y-99499683D02*
X133427120Y-99472746D01*
X133427120Y-99472746D02*
X133480995Y-99472746D01*
X133480995Y-99472746D02*
X133561807Y-99499683D01*
X133561807Y-99499683D02*
X133642619Y-99580495D01*
X133642619Y-99580495D02*
X133669557Y-99661307D01*
X133669557Y-99661307D02*
X133669557Y-99715182D01*
X133669557Y-99715182D02*
X133642619Y-99795994D01*
X133642619Y-99795994D02*
X133427120Y-100011494D01*
X133965868Y-98880123D02*
X133696494Y-99149497D01*
X133696494Y-99149497D02*
X133938931Y-99445808D01*
X133938931Y-99445808D02*
X133938931Y-99391933D01*
X133938931Y-99391933D02*
X133965868Y-99311121D01*
X133965868Y-99311121D02*
X134100555Y-99176434D01*
X134100555Y-99176434D02*
X134181367Y-99149497D01*
X134181367Y-99149497D02*
X134235242Y-99149497D01*
X134235242Y-99149497D02*
X134316054Y-99176434D01*
X134316054Y-99176434D02*
X134450741Y-99311121D01*
X134450741Y-99311121D02*
X134477679Y-99391933D01*
X134477679Y-99391933D02*
X134477679Y-99445808D01*
X134477679Y-99445808D02*
X134450741Y-99526620D01*
X134450741Y-99526620D02*
X134316054Y-99661307D01*
X134316054Y-99661307D02*
X134235242Y-99688245D01*
X134235242Y-99688245D02*
X134181367Y-99688245D01*
X132888372Y-115251494D02*
X132807560Y-115278431D01*
X132807560Y-115278431D02*
X132726748Y-115359243D01*
X132726748Y-115359243D02*
X132672873Y-115466993D01*
X132672873Y-115466993D02*
X132672873Y-115574742D01*
X132672873Y-115574742D02*
X132699810Y-115655555D01*
X132699810Y-115655555D02*
X132780623Y-115790242D01*
X132780623Y-115790242D02*
X132861435Y-115871054D01*
X132861435Y-115871054D02*
X132996122Y-115951866D01*
X132996122Y-115951866D02*
X133076934Y-115978803D01*
X133076934Y-115978803D02*
X133184684Y-115978803D01*
X133184684Y-115978803D02*
X133292433Y-115924929D01*
X133292433Y-115924929D02*
X133346308Y-115871054D01*
X133346308Y-115871054D02*
X133400183Y-115763304D01*
X133400183Y-115763304D02*
X133400183Y-115709429D01*
X133400183Y-115709429D02*
X133211621Y-115520868D01*
X133211621Y-115520868D02*
X133103871Y-115628617D01*
X133696494Y-115520868D02*
X133130809Y-114955182D01*
X133130809Y-114955182D02*
X133346308Y-114739683D01*
X133346308Y-114739683D02*
X133427120Y-114712746D01*
X133427120Y-114712746D02*
X133480995Y-114712746D01*
X133480995Y-114712746D02*
X133561807Y-114739683D01*
X133561807Y-114739683D02*
X133642619Y-114820495D01*
X133642619Y-114820495D02*
X133669557Y-114901307D01*
X133669557Y-114901307D02*
X133669557Y-114955182D01*
X133669557Y-114955182D02*
X133642619Y-115035994D01*
X133642619Y-115035994D02*
X133427120Y-115251494D01*
X133804244Y-114281747D02*
X133858119Y-114227872D01*
X133858119Y-114227872D02*
X133938931Y-114200935D01*
X133938931Y-114200935D02*
X133992806Y-114200935D01*
X133992806Y-114200935D02*
X134073618Y-114227872D01*
X134073618Y-114227872D02*
X134208305Y-114308685D01*
X134208305Y-114308685D02*
X134342992Y-114443372D01*
X134342992Y-114443372D02*
X134423804Y-114578059D01*
X134423804Y-114578059D02*
X134450741Y-114658871D01*
X134450741Y-114658871D02*
X134450741Y-114712746D01*
X134450741Y-114712746D02*
X134423804Y-114793558D01*
X134423804Y-114793558D02*
X134369929Y-114847433D01*
X134369929Y-114847433D02*
X134289117Y-114874370D01*
X134289117Y-114874370D02*
X134235242Y-114874370D01*
X134235242Y-114874370D02*
X134154430Y-114847433D01*
X134154430Y-114847433D02*
X134019743Y-114766620D01*
X134019743Y-114766620D02*
X133885056Y-114631933D01*
X133885056Y-114631933D02*
X133804244Y-114497246D01*
X133804244Y-114497246D02*
X133777306Y-114416434D01*
X133777306Y-114416434D02*
X133777306Y-114362559D01*
X133777306Y-114362559D02*
X133804244Y-114281747D01*
X132888372Y-105091494D02*
X132807560Y-105118431D01*
X132807560Y-105118431D02*
X132726748Y-105199243D01*
X132726748Y-105199243D02*
X132672873Y-105306993D01*
X132672873Y-105306993D02*
X132672873Y-105414742D01*
X132672873Y-105414742D02*
X132699810Y-105495555D01*
X132699810Y-105495555D02*
X132780623Y-105630242D01*
X132780623Y-105630242D02*
X132861435Y-105711054D01*
X132861435Y-105711054D02*
X132996122Y-105791866D01*
X132996122Y-105791866D02*
X133076934Y-105818803D01*
X133076934Y-105818803D02*
X133184684Y-105818803D01*
X133184684Y-105818803D02*
X133292433Y-105764929D01*
X133292433Y-105764929D02*
X133346308Y-105711054D01*
X133346308Y-105711054D02*
X133400183Y-105603304D01*
X133400183Y-105603304D02*
X133400183Y-105549429D01*
X133400183Y-105549429D02*
X133211621Y-105360868D01*
X133211621Y-105360868D02*
X133103871Y-105468617D01*
X133696494Y-105360868D02*
X133130809Y-104795182D01*
X133130809Y-104795182D02*
X133346308Y-104579683D01*
X133346308Y-104579683D02*
X133427120Y-104552746D01*
X133427120Y-104552746D02*
X133480995Y-104552746D01*
X133480995Y-104552746D02*
X133561807Y-104579683D01*
X133561807Y-104579683D02*
X133642619Y-104660495D01*
X133642619Y-104660495D02*
X133669557Y-104741307D01*
X133669557Y-104741307D02*
X133669557Y-104795182D01*
X133669557Y-104795182D02*
X133642619Y-104875994D01*
X133642619Y-104875994D02*
X133427120Y-105091494D01*
X133642619Y-104283372D02*
X133992806Y-103933185D01*
X133992806Y-103933185D02*
X134019743Y-104337246D01*
X134019743Y-104337246D02*
X134100555Y-104256434D01*
X134100555Y-104256434D02*
X134181367Y-104229497D01*
X134181367Y-104229497D02*
X134235242Y-104229497D01*
X134235242Y-104229497D02*
X134316054Y-104256434D01*
X134316054Y-104256434D02*
X134450741Y-104391121D01*
X134450741Y-104391121D02*
X134477679Y-104471933D01*
X134477679Y-104471933D02*
X134477679Y-104525808D01*
X134477679Y-104525808D02*
X134450741Y-104606620D01*
X134450741Y-104606620D02*
X134289117Y-104768245D01*
X134289117Y-104768245D02*
X134208305Y-104795182D01*
X134208305Y-104795182D02*
X134154430Y-104795182D01*
X132861435Y-72098431D02*
X132780623Y-72125368D01*
X132780623Y-72125368D02*
X132699811Y-72206180D01*
X132699811Y-72206180D02*
X132645936Y-72313930D01*
X132645936Y-72313930D02*
X132645936Y-72421680D01*
X132645936Y-72421680D02*
X132672873Y-72502492D01*
X132672873Y-72502492D02*
X132753685Y-72637179D01*
X132753685Y-72637179D02*
X132834498Y-72717991D01*
X132834498Y-72717991D02*
X132969185Y-72798803D01*
X132969185Y-72798803D02*
X133049997Y-72825741D01*
X133049997Y-72825741D02*
X133157746Y-72825741D01*
X133157746Y-72825741D02*
X133265496Y-72771866D01*
X133265496Y-72771866D02*
X133319371Y-72717991D01*
X133319371Y-72717991D02*
X133373246Y-72610241D01*
X133373246Y-72610241D02*
X133373246Y-72556367D01*
X133373246Y-72556367D02*
X133184684Y-72367805D01*
X133184684Y-72367805D02*
X133076934Y-72475554D01*
X133669557Y-72367805D02*
X133103872Y-71802119D01*
X133103872Y-71802119D02*
X133992806Y-72044556D01*
X133992806Y-72044556D02*
X133427120Y-71478871D01*
X134262180Y-71775182D02*
X133696494Y-71209497D01*
X133696494Y-71209497D02*
X133831181Y-71074810D01*
X133831181Y-71074810D02*
X133938931Y-71020935D01*
X133938931Y-71020935D02*
X134046680Y-71020935D01*
X134046680Y-71020935D02*
X134127493Y-71047872D01*
X134127493Y-71047872D02*
X134262180Y-71128685D01*
X134262180Y-71128685D02*
X134342992Y-71209497D01*
X134342992Y-71209497D02*
X134423804Y-71344184D01*
X134423804Y-71344184D02*
X134450741Y-71424996D01*
X134450741Y-71424996D02*
X134450741Y-71532746D01*
X134450741Y-71532746D02*
X134396867Y-71640495D01*
X134396867Y-71640495D02*
X134262180Y-71775182D01*
X132861435Y-110198431D02*
X132780623Y-110225368D01*
X132780623Y-110225368D02*
X132699811Y-110306180D01*
X132699811Y-110306180D02*
X132645936Y-110413930D01*
X132645936Y-110413930D02*
X132645936Y-110521680D01*
X132645936Y-110521680D02*
X132672873Y-110602492D01*
X132672873Y-110602492D02*
X132753685Y-110737179D01*
X132753685Y-110737179D02*
X132834498Y-110817991D01*
X132834498Y-110817991D02*
X132969185Y-110898803D01*
X132969185Y-110898803D02*
X133049997Y-110925741D01*
X133049997Y-110925741D02*
X133157746Y-110925741D01*
X133157746Y-110925741D02*
X133265496Y-110871866D01*
X133265496Y-110871866D02*
X133319371Y-110817991D01*
X133319371Y-110817991D02*
X133373246Y-110710241D01*
X133373246Y-110710241D02*
X133373246Y-110656367D01*
X133373246Y-110656367D02*
X133184684Y-110467805D01*
X133184684Y-110467805D02*
X133076934Y-110575554D01*
X133669557Y-110467805D02*
X133103872Y-109902119D01*
X133103872Y-109902119D02*
X133992806Y-110144556D01*
X133992806Y-110144556D02*
X133427120Y-109578871D01*
X134262180Y-109875182D02*
X133696494Y-109309497D01*
X133696494Y-109309497D02*
X133831181Y-109174810D01*
X133831181Y-109174810D02*
X133938931Y-109120935D01*
X133938931Y-109120935D02*
X134046680Y-109120935D01*
X134046680Y-109120935D02*
X134127493Y-109147872D01*
X134127493Y-109147872D02*
X134262180Y-109228685D01*
X134262180Y-109228685D02*
X134342992Y-109309497D01*
X134342992Y-109309497D02*
X134423804Y-109444184D01*
X134423804Y-109444184D02*
X134450741Y-109524996D01*
X134450741Y-109524996D02*
X134450741Y-109632746D01*
X134450741Y-109632746D02*
X134396867Y-109740495D01*
X134396867Y-109740495D02*
X134262180Y-109875182D01*
X106764998Y-79960868D02*
X106684185Y-79987805D01*
X106684185Y-79987805D02*
X106603373Y-80068618D01*
X106603373Y-80068618D02*
X106549498Y-80176367D01*
X106549498Y-80176367D02*
X106549498Y-80284117D01*
X106549498Y-80284117D02*
X106576436Y-80364929D01*
X106576436Y-80364929D02*
X106657248Y-80499616D01*
X106657248Y-80499616D02*
X106738060Y-80580428D01*
X106738060Y-80580428D02*
X106872747Y-80661241D01*
X106872747Y-80661241D02*
X106953560Y-80688178D01*
X106953560Y-80688178D02*
X107061309Y-80688178D01*
X107061309Y-80688178D02*
X107169059Y-80634303D01*
X107169059Y-80634303D02*
X107222934Y-80580428D01*
X107222934Y-80580428D02*
X107276808Y-80472679D01*
X107276808Y-80472679D02*
X107276808Y-80418804D01*
X107276808Y-80418804D02*
X107088247Y-80230242D01*
X107088247Y-80230242D02*
X106980497Y-80337992D01*
X107573120Y-80230242D02*
X107007434Y-79664557D01*
X107007434Y-79664557D02*
X107222934Y-79449057D01*
X107222934Y-79449057D02*
X107303746Y-79422120D01*
X107303746Y-79422120D02*
X107357621Y-79422120D01*
X107357621Y-79422120D02*
X107438433Y-79449057D01*
X107438433Y-79449057D02*
X107519245Y-79529870D01*
X107519245Y-79529870D02*
X107546182Y-79610682D01*
X107546182Y-79610682D02*
X107546182Y-79664557D01*
X107546182Y-79664557D02*
X107519245Y-79745369D01*
X107519245Y-79745369D02*
X107303746Y-79960868D01*
X107600057Y-79179683D02*
X107600057Y-79125809D01*
X107600057Y-79125809D02*
X107626995Y-79044996D01*
X107626995Y-79044996D02*
X107761682Y-78910309D01*
X107761682Y-78910309D02*
X107842494Y-78883372D01*
X107842494Y-78883372D02*
X107896369Y-78883372D01*
X107896369Y-78883372D02*
X107977181Y-78910309D01*
X107977181Y-78910309D02*
X108031056Y-78964184D01*
X108031056Y-78964184D02*
X108084930Y-79071934D01*
X108084930Y-79071934D02*
X108084930Y-79718431D01*
X108084930Y-79718431D02*
X108435117Y-79368245D01*
X108219618Y-78452373D02*
X108273492Y-78398499D01*
X108273492Y-78398499D02*
X108354305Y-78371561D01*
X108354305Y-78371561D02*
X108408179Y-78371561D01*
X108408179Y-78371561D02*
X108488992Y-78398499D01*
X108488992Y-78398499D02*
X108623679Y-78479311D01*
X108623679Y-78479311D02*
X108758366Y-78613998D01*
X108758366Y-78613998D02*
X108839178Y-78748685D01*
X108839178Y-78748685D02*
X108866115Y-78829497D01*
X108866115Y-78829497D02*
X108866115Y-78883372D01*
X108866115Y-78883372D02*
X108839178Y-78964184D01*
X108839178Y-78964184D02*
X108785303Y-79018059D01*
X108785303Y-79018059D02*
X108704491Y-79044996D01*
X108704491Y-79044996D02*
X108650616Y-79044996D01*
X108650616Y-79044996D02*
X108569804Y-79018059D01*
X108569804Y-79018059D02*
X108435117Y-78937247D01*
X108435117Y-78937247D02*
X108300430Y-78802560D01*
X108300430Y-78802560D02*
X108219618Y-78667873D01*
X108219618Y-78667873D02*
X108192680Y-78587060D01*
X108192680Y-78587060D02*
X108192680Y-78533186D01*
X108192680Y-78533186D02*
X108219618Y-78452373D01*
X106764998Y-77420868D02*
X106684185Y-77447805D01*
X106684185Y-77447805D02*
X106603373Y-77528618D01*
X106603373Y-77528618D02*
X106549498Y-77636367D01*
X106549498Y-77636367D02*
X106549498Y-77744117D01*
X106549498Y-77744117D02*
X106576436Y-77824929D01*
X106576436Y-77824929D02*
X106657248Y-77959616D01*
X106657248Y-77959616D02*
X106738060Y-78040428D01*
X106738060Y-78040428D02*
X106872747Y-78121241D01*
X106872747Y-78121241D02*
X106953560Y-78148178D01*
X106953560Y-78148178D02*
X107061309Y-78148178D01*
X107061309Y-78148178D02*
X107169059Y-78094303D01*
X107169059Y-78094303D02*
X107222934Y-78040428D01*
X107222934Y-78040428D02*
X107276808Y-77932679D01*
X107276808Y-77932679D02*
X107276808Y-77878804D01*
X107276808Y-77878804D02*
X107088247Y-77690242D01*
X107088247Y-77690242D02*
X106980497Y-77797992D01*
X107573120Y-77690242D02*
X107007434Y-77124557D01*
X107007434Y-77124557D02*
X107222934Y-76909057D01*
X107222934Y-76909057D02*
X107303746Y-76882120D01*
X107303746Y-76882120D02*
X107357621Y-76882120D01*
X107357621Y-76882120D02*
X107438433Y-76909057D01*
X107438433Y-76909057D02*
X107519245Y-76989870D01*
X107519245Y-76989870D02*
X107546182Y-77070682D01*
X107546182Y-77070682D02*
X107546182Y-77124557D01*
X107546182Y-77124557D02*
X107519245Y-77205369D01*
X107519245Y-77205369D02*
X107303746Y-77420868D01*
X108435117Y-76828245D02*
X108111868Y-77151494D01*
X108273492Y-76989870D02*
X107707807Y-76424184D01*
X107707807Y-76424184D02*
X107734744Y-76558871D01*
X107734744Y-76558871D02*
X107734744Y-76666621D01*
X107734744Y-76666621D02*
X107707807Y-76747433D01*
X108704491Y-76558871D02*
X108812240Y-76451121D01*
X108812240Y-76451121D02*
X108839178Y-76370309D01*
X108839178Y-76370309D02*
X108839178Y-76316434D01*
X108839178Y-76316434D02*
X108812240Y-76181747D01*
X108812240Y-76181747D02*
X108731428Y-76047060D01*
X108731428Y-76047060D02*
X108515929Y-75831561D01*
X108515929Y-75831561D02*
X108435117Y-75804624D01*
X108435117Y-75804624D02*
X108381242Y-75804624D01*
X108381242Y-75804624D02*
X108300430Y-75831561D01*
X108300430Y-75831561D02*
X108192680Y-75939311D01*
X108192680Y-75939311D02*
X108165743Y-76020123D01*
X108165743Y-76020123D02*
X108165743Y-76073998D01*
X108165743Y-76073998D02*
X108192680Y-76154810D01*
X108192680Y-76154810D02*
X108327367Y-76289497D01*
X108327367Y-76289497D02*
X108408179Y-76316434D01*
X108408179Y-76316434D02*
X108462054Y-76316434D01*
X108462054Y-76316434D02*
X108542866Y-76289497D01*
X108542866Y-76289497D02*
X108650616Y-76181747D01*
X108650616Y-76181747D02*
X108677553Y-76100935D01*
X108677553Y-76100935D02*
X108677553Y-76047060D01*
X108677553Y-76047060D02*
X108650616Y-75966248D01*
X132988372Y-107631494D02*
X132907560Y-107658431D01*
X132907560Y-107658431D02*
X132826748Y-107739243D01*
X132826748Y-107739243D02*
X132772873Y-107846993D01*
X132772873Y-107846993D02*
X132772873Y-107954742D01*
X132772873Y-107954742D02*
X132799810Y-108035555D01*
X132799810Y-108035555D02*
X132880623Y-108170242D01*
X132880623Y-108170242D02*
X132961435Y-108251054D01*
X132961435Y-108251054D02*
X133096122Y-108331866D01*
X133096122Y-108331866D02*
X133176934Y-108358803D01*
X133176934Y-108358803D02*
X133284684Y-108358803D01*
X133284684Y-108358803D02*
X133392433Y-108304929D01*
X133392433Y-108304929D02*
X133446308Y-108251054D01*
X133446308Y-108251054D02*
X133500183Y-108143304D01*
X133500183Y-108143304D02*
X133500183Y-108089429D01*
X133500183Y-108089429D02*
X133311621Y-107900868D01*
X133311621Y-107900868D02*
X133203871Y-108008617D01*
X133796494Y-107900868D02*
X133230809Y-107335182D01*
X133230809Y-107335182D02*
X133446308Y-107119683D01*
X133446308Y-107119683D02*
X133527120Y-107092746D01*
X133527120Y-107092746D02*
X133580995Y-107092746D01*
X133580995Y-107092746D02*
X133661807Y-107119683D01*
X133661807Y-107119683D02*
X133742619Y-107200495D01*
X133742619Y-107200495D02*
X133769557Y-107281307D01*
X133769557Y-107281307D02*
X133769557Y-107335182D01*
X133769557Y-107335182D02*
X133742619Y-107415994D01*
X133742619Y-107415994D02*
X133527120Y-107631494D01*
X133823432Y-106850309D02*
X133823432Y-106796434D01*
X133823432Y-106796434D02*
X133850369Y-106715622D01*
X133850369Y-106715622D02*
X133985056Y-106580935D01*
X133985056Y-106580935D02*
X134065868Y-106553998D01*
X134065868Y-106553998D02*
X134119743Y-106553998D01*
X134119743Y-106553998D02*
X134200555Y-106580935D01*
X134200555Y-106580935D02*
X134254430Y-106634810D01*
X134254430Y-106634810D02*
X134308305Y-106742559D01*
X134308305Y-106742559D02*
X134308305Y-107389057D01*
X134308305Y-107389057D02*
X134658491Y-107038871D01*
X106764998Y-74880868D02*
X106684185Y-74907805D01*
X106684185Y-74907805D02*
X106603373Y-74988618D01*
X106603373Y-74988618D02*
X106549498Y-75096367D01*
X106549498Y-75096367D02*
X106549498Y-75204117D01*
X106549498Y-75204117D02*
X106576436Y-75284929D01*
X106576436Y-75284929D02*
X106657248Y-75419616D01*
X106657248Y-75419616D02*
X106738060Y-75500428D01*
X106738060Y-75500428D02*
X106872747Y-75581241D01*
X106872747Y-75581241D02*
X106953560Y-75608178D01*
X106953560Y-75608178D02*
X107061309Y-75608178D01*
X107061309Y-75608178D02*
X107169059Y-75554303D01*
X107169059Y-75554303D02*
X107222934Y-75500428D01*
X107222934Y-75500428D02*
X107276808Y-75392679D01*
X107276808Y-75392679D02*
X107276808Y-75338804D01*
X107276808Y-75338804D02*
X107088247Y-75150242D01*
X107088247Y-75150242D02*
X106980497Y-75257992D01*
X107573120Y-75150242D02*
X107007434Y-74584557D01*
X107007434Y-74584557D02*
X107222934Y-74369057D01*
X107222934Y-74369057D02*
X107303746Y-74342120D01*
X107303746Y-74342120D02*
X107357621Y-74342120D01*
X107357621Y-74342120D02*
X107438433Y-74369057D01*
X107438433Y-74369057D02*
X107519245Y-74449870D01*
X107519245Y-74449870D02*
X107546182Y-74530682D01*
X107546182Y-74530682D02*
X107546182Y-74584557D01*
X107546182Y-74584557D02*
X107519245Y-74665369D01*
X107519245Y-74665369D02*
X107303746Y-74880868D01*
X108435117Y-74288245D02*
X108111868Y-74611494D01*
X108273492Y-74449870D02*
X107707807Y-73884184D01*
X107707807Y-73884184D02*
X107734744Y-74018871D01*
X107734744Y-74018871D02*
X107734744Y-74126621D01*
X107734744Y-74126621D02*
X107707807Y-74207433D01*
X108435117Y-73641747D02*
X108354305Y-73668685D01*
X108354305Y-73668685D02*
X108300430Y-73668685D01*
X108300430Y-73668685D02*
X108219618Y-73641747D01*
X108219618Y-73641747D02*
X108192680Y-73614810D01*
X108192680Y-73614810D02*
X108165743Y-73533998D01*
X108165743Y-73533998D02*
X108165743Y-73480123D01*
X108165743Y-73480123D02*
X108192680Y-73399311D01*
X108192680Y-73399311D02*
X108300430Y-73291561D01*
X108300430Y-73291561D02*
X108381242Y-73264624D01*
X108381242Y-73264624D02*
X108435117Y-73264624D01*
X108435117Y-73264624D02*
X108515929Y-73291561D01*
X108515929Y-73291561D02*
X108542866Y-73318499D01*
X108542866Y-73318499D02*
X108569804Y-73399311D01*
X108569804Y-73399311D02*
X108569804Y-73453186D01*
X108569804Y-73453186D02*
X108542866Y-73533998D01*
X108542866Y-73533998D02*
X108435117Y-73641747D01*
X108435117Y-73641747D02*
X108408179Y-73722560D01*
X108408179Y-73722560D02*
X108408179Y-73776434D01*
X108408179Y-73776434D02*
X108435117Y-73857247D01*
X108435117Y-73857247D02*
X108542866Y-73964996D01*
X108542866Y-73964996D02*
X108623679Y-73991934D01*
X108623679Y-73991934D02*
X108677553Y-73991934D01*
X108677553Y-73991934D02*
X108758366Y-73964996D01*
X108758366Y-73964996D02*
X108866115Y-73857247D01*
X108866115Y-73857247D02*
X108893053Y-73776434D01*
X108893053Y-73776434D02*
X108893053Y-73722560D01*
X108893053Y-73722560D02*
X108866115Y-73641747D01*
X108866115Y-73641747D02*
X108758366Y-73533998D01*
X108758366Y-73533998D02*
X108677553Y-73507060D01*
X108677553Y-73507060D02*
X108623679Y-73507060D01*
X108623679Y-73507060D02*
X108542866Y-73533998D01*
X132888372Y-94931494D02*
X132807560Y-94958431D01*
X132807560Y-94958431D02*
X132726748Y-95039243D01*
X132726748Y-95039243D02*
X132672873Y-95146993D01*
X132672873Y-95146993D02*
X132672873Y-95254742D01*
X132672873Y-95254742D02*
X132699810Y-95335555D01*
X132699810Y-95335555D02*
X132780623Y-95470242D01*
X132780623Y-95470242D02*
X132861435Y-95551054D01*
X132861435Y-95551054D02*
X132996122Y-95631866D01*
X132996122Y-95631866D02*
X133076934Y-95658803D01*
X133076934Y-95658803D02*
X133184684Y-95658803D01*
X133184684Y-95658803D02*
X133292433Y-95604929D01*
X133292433Y-95604929D02*
X133346308Y-95551054D01*
X133346308Y-95551054D02*
X133400183Y-95443304D01*
X133400183Y-95443304D02*
X133400183Y-95389429D01*
X133400183Y-95389429D02*
X133211621Y-95200868D01*
X133211621Y-95200868D02*
X133103871Y-95308617D01*
X133696494Y-95200868D02*
X133130809Y-94635182D01*
X133130809Y-94635182D02*
X133346308Y-94419683D01*
X133346308Y-94419683D02*
X133427120Y-94392746D01*
X133427120Y-94392746D02*
X133480995Y-94392746D01*
X133480995Y-94392746D02*
X133561807Y-94419683D01*
X133561807Y-94419683D02*
X133642619Y-94500495D01*
X133642619Y-94500495D02*
X133669557Y-94581307D01*
X133669557Y-94581307D02*
X133669557Y-94635182D01*
X133669557Y-94635182D02*
X133642619Y-94715994D01*
X133642619Y-94715994D02*
X133427120Y-94931494D01*
X133938931Y-93827060D02*
X133831181Y-93934810D01*
X133831181Y-93934810D02*
X133804244Y-94015622D01*
X133804244Y-94015622D02*
X133804244Y-94069497D01*
X133804244Y-94069497D02*
X133831181Y-94204184D01*
X133831181Y-94204184D02*
X133911993Y-94338871D01*
X133911993Y-94338871D02*
X134127493Y-94554370D01*
X134127493Y-94554370D02*
X134208305Y-94581307D01*
X134208305Y-94581307D02*
X134262180Y-94581307D01*
X134262180Y-94581307D02*
X134342992Y-94554370D01*
X134342992Y-94554370D02*
X134450741Y-94446620D01*
X134450741Y-94446620D02*
X134477679Y-94365808D01*
X134477679Y-94365808D02*
X134477679Y-94311933D01*
X134477679Y-94311933D02*
X134450741Y-94231121D01*
X134450741Y-94231121D02*
X134316054Y-94096434D01*
X134316054Y-94096434D02*
X134235242Y-94069497D01*
X134235242Y-94069497D02*
X134181367Y-94069497D01*
X134181367Y-94069497D02*
X134100555Y-94096434D01*
X134100555Y-94096434D02*
X133992806Y-94204184D01*
X133992806Y-94204184D02*
X133965868Y-94284996D01*
X133965868Y-94284996D02*
X133965868Y-94338871D01*
X133965868Y-94338871D02*
X133992806Y-94419683D01*
X106764998Y-82490868D02*
X106684185Y-82517805D01*
X106684185Y-82517805D02*
X106603373Y-82598618D01*
X106603373Y-82598618D02*
X106549498Y-82706367D01*
X106549498Y-82706367D02*
X106549498Y-82814117D01*
X106549498Y-82814117D02*
X106576436Y-82894929D01*
X106576436Y-82894929D02*
X106657248Y-83029616D01*
X106657248Y-83029616D02*
X106738060Y-83110428D01*
X106738060Y-83110428D02*
X106872747Y-83191241D01*
X106872747Y-83191241D02*
X106953560Y-83218178D01*
X106953560Y-83218178D02*
X107061309Y-83218178D01*
X107061309Y-83218178D02*
X107169059Y-83164303D01*
X107169059Y-83164303D02*
X107222934Y-83110428D01*
X107222934Y-83110428D02*
X107276808Y-83002679D01*
X107276808Y-83002679D02*
X107276808Y-82948804D01*
X107276808Y-82948804D02*
X107088247Y-82760242D01*
X107088247Y-82760242D02*
X106980497Y-82867992D01*
X107573120Y-82760242D02*
X107007434Y-82194557D01*
X107007434Y-82194557D02*
X107222934Y-81979057D01*
X107222934Y-81979057D02*
X107303746Y-81952120D01*
X107303746Y-81952120D02*
X107357621Y-81952120D01*
X107357621Y-81952120D02*
X107438433Y-81979057D01*
X107438433Y-81979057D02*
X107519245Y-82059870D01*
X107519245Y-82059870D02*
X107546182Y-82140682D01*
X107546182Y-82140682D02*
X107546182Y-82194557D01*
X107546182Y-82194557D02*
X107519245Y-82275369D01*
X107519245Y-82275369D02*
X107303746Y-82490868D01*
X107600057Y-81709683D02*
X107600057Y-81655809D01*
X107600057Y-81655809D02*
X107626995Y-81574996D01*
X107626995Y-81574996D02*
X107761682Y-81440309D01*
X107761682Y-81440309D02*
X107842494Y-81413372D01*
X107842494Y-81413372D02*
X107896369Y-81413372D01*
X107896369Y-81413372D02*
X107977181Y-81440309D01*
X107977181Y-81440309D02*
X108031056Y-81494184D01*
X108031056Y-81494184D02*
X108084930Y-81601934D01*
X108084930Y-81601934D02*
X108084930Y-82248431D01*
X108084930Y-82248431D02*
X108435117Y-81898245D01*
X108973865Y-81359497D02*
X108650616Y-81682746D01*
X108812240Y-81521121D02*
X108246555Y-80955436D01*
X108246555Y-80955436D02*
X108273492Y-81090123D01*
X108273492Y-81090123D02*
X108273492Y-81197873D01*
X108273492Y-81197873D02*
X108246555Y-81278685D01*
X106764998Y-87580868D02*
X106684185Y-87607805D01*
X106684185Y-87607805D02*
X106603373Y-87688618D01*
X106603373Y-87688618D02*
X106549498Y-87796367D01*
X106549498Y-87796367D02*
X106549498Y-87904117D01*
X106549498Y-87904117D02*
X106576436Y-87984929D01*
X106576436Y-87984929D02*
X106657248Y-88119616D01*
X106657248Y-88119616D02*
X106738060Y-88200428D01*
X106738060Y-88200428D02*
X106872747Y-88281241D01*
X106872747Y-88281241D02*
X106953560Y-88308178D01*
X106953560Y-88308178D02*
X107061309Y-88308178D01*
X107061309Y-88308178D02*
X107169059Y-88254303D01*
X107169059Y-88254303D02*
X107222934Y-88200428D01*
X107222934Y-88200428D02*
X107276808Y-88092679D01*
X107276808Y-88092679D02*
X107276808Y-88038804D01*
X107276808Y-88038804D02*
X107088247Y-87850242D01*
X107088247Y-87850242D02*
X106980497Y-87957992D01*
X107573120Y-87850242D02*
X107007434Y-87284557D01*
X107007434Y-87284557D02*
X107222934Y-87069057D01*
X107222934Y-87069057D02*
X107303746Y-87042120D01*
X107303746Y-87042120D02*
X107357621Y-87042120D01*
X107357621Y-87042120D02*
X107438433Y-87069057D01*
X107438433Y-87069057D02*
X107519245Y-87149870D01*
X107519245Y-87149870D02*
X107546182Y-87230682D01*
X107546182Y-87230682D02*
X107546182Y-87284557D01*
X107546182Y-87284557D02*
X107519245Y-87365369D01*
X107519245Y-87365369D02*
X107303746Y-87580868D01*
X107600057Y-86799683D02*
X107600057Y-86745809D01*
X107600057Y-86745809D02*
X107626995Y-86664996D01*
X107626995Y-86664996D02*
X107761682Y-86530309D01*
X107761682Y-86530309D02*
X107842494Y-86503372D01*
X107842494Y-86503372D02*
X107896369Y-86503372D01*
X107896369Y-86503372D02*
X107977181Y-86530309D01*
X107977181Y-86530309D02*
X108031056Y-86584184D01*
X108031056Y-86584184D02*
X108084930Y-86691934D01*
X108084930Y-86691934D02*
X108084930Y-87338431D01*
X108084930Y-87338431D02*
X108435117Y-86988245D01*
X108138805Y-86260935D02*
X108138805Y-86207060D01*
X108138805Y-86207060D02*
X108165743Y-86126248D01*
X108165743Y-86126248D02*
X108300430Y-85991561D01*
X108300430Y-85991561D02*
X108381242Y-85964624D01*
X108381242Y-85964624D02*
X108435117Y-85964624D01*
X108435117Y-85964624D02*
X108515929Y-85991561D01*
X108515929Y-85991561D02*
X108569804Y-86045436D01*
X108569804Y-86045436D02*
X108623679Y-86153186D01*
X108623679Y-86153186D02*
X108623679Y-86799683D01*
X108623679Y-86799683D02*
X108973865Y-86449497D01*
X132861435Y-84798431D02*
X132780623Y-84825368D01*
X132780623Y-84825368D02*
X132699811Y-84906180D01*
X132699811Y-84906180D02*
X132645936Y-85013930D01*
X132645936Y-85013930D02*
X132645936Y-85121680D01*
X132645936Y-85121680D02*
X132672873Y-85202492D01*
X132672873Y-85202492D02*
X132753685Y-85337179D01*
X132753685Y-85337179D02*
X132834498Y-85417991D01*
X132834498Y-85417991D02*
X132969185Y-85498803D01*
X132969185Y-85498803D02*
X133049997Y-85525741D01*
X133049997Y-85525741D02*
X133157746Y-85525741D01*
X133157746Y-85525741D02*
X133265496Y-85471866D01*
X133265496Y-85471866D02*
X133319371Y-85417991D01*
X133319371Y-85417991D02*
X133373246Y-85310241D01*
X133373246Y-85310241D02*
X133373246Y-85256367D01*
X133373246Y-85256367D02*
X133184684Y-85067805D01*
X133184684Y-85067805D02*
X133076934Y-85175554D01*
X133669557Y-85067805D02*
X133103872Y-84502119D01*
X133103872Y-84502119D02*
X133992806Y-84744556D01*
X133992806Y-84744556D02*
X133427120Y-84178871D01*
X134262180Y-84475182D02*
X133696494Y-83909497D01*
X133696494Y-83909497D02*
X133831181Y-83774810D01*
X133831181Y-83774810D02*
X133938931Y-83720935D01*
X133938931Y-83720935D02*
X134046680Y-83720935D01*
X134046680Y-83720935D02*
X134127493Y-83747872D01*
X134127493Y-83747872D02*
X134262180Y-83828685D01*
X134262180Y-83828685D02*
X134342992Y-83909497D01*
X134342992Y-83909497D02*
X134423804Y-84044184D01*
X134423804Y-84044184D02*
X134450741Y-84124996D01*
X134450741Y-84124996D02*
X134450741Y-84232746D01*
X134450741Y-84232746D02*
X134396867Y-84340495D01*
X134396867Y-84340495D02*
X134262180Y-84475182D01*
X132918998Y-69800868D02*
X132838185Y-69827805D01*
X132838185Y-69827805D02*
X132757373Y-69908618D01*
X132757373Y-69908618D02*
X132703498Y-70016367D01*
X132703498Y-70016367D02*
X132703498Y-70124117D01*
X132703498Y-70124117D02*
X132730436Y-70204929D01*
X132730436Y-70204929D02*
X132811248Y-70339616D01*
X132811248Y-70339616D02*
X132892060Y-70420428D01*
X132892060Y-70420428D02*
X133026747Y-70501241D01*
X133026747Y-70501241D02*
X133107560Y-70528178D01*
X133107560Y-70528178D02*
X133215309Y-70528178D01*
X133215309Y-70528178D02*
X133323059Y-70474303D01*
X133323059Y-70474303D02*
X133376934Y-70420428D01*
X133376934Y-70420428D02*
X133430808Y-70312679D01*
X133430808Y-70312679D02*
X133430808Y-70258804D01*
X133430808Y-70258804D02*
X133242247Y-70070242D01*
X133242247Y-70070242D02*
X133134497Y-70177992D01*
X133727120Y-70070242D02*
X133161434Y-69504557D01*
X133161434Y-69504557D02*
X133376934Y-69289057D01*
X133376934Y-69289057D02*
X133457746Y-69262120D01*
X133457746Y-69262120D02*
X133511621Y-69262120D01*
X133511621Y-69262120D02*
X133592433Y-69289057D01*
X133592433Y-69289057D02*
X133673245Y-69369870D01*
X133673245Y-69369870D02*
X133700182Y-69450682D01*
X133700182Y-69450682D02*
X133700182Y-69504557D01*
X133700182Y-69504557D02*
X133673245Y-69585369D01*
X133673245Y-69585369D02*
X133457746Y-69800868D01*
X134589117Y-69208245D02*
X134265868Y-69531494D01*
X134427492Y-69369870D02*
X133861807Y-68804184D01*
X133861807Y-68804184D02*
X133888744Y-68938871D01*
X133888744Y-68938871D02*
X133888744Y-69046621D01*
X133888744Y-69046621D02*
X133861807Y-69127433D01*
X134696866Y-68346248D02*
X135073990Y-68723372D01*
X134346680Y-68265436D02*
X134616054Y-68804184D01*
X134616054Y-68804184D02*
X134966240Y-68453998D01*
X106295749Y-113250242D02*
X107049996Y-113627366D01*
X107049996Y-113627366D02*
X106672873Y-112873118D01*
X107373245Y-113250242D02*
X107480995Y-113196367D01*
X107480995Y-113196367D02*
X107615682Y-113061680D01*
X107615682Y-113061680D02*
X107642619Y-112980868D01*
X107642619Y-112980868D02*
X107642619Y-112926993D01*
X107642619Y-112926993D02*
X107615682Y-112846181D01*
X107615682Y-112846181D02*
X107561807Y-112792306D01*
X107561807Y-112792306D02*
X107480995Y-112765369D01*
X107480995Y-112765369D02*
X107427120Y-112765369D01*
X107427120Y-112765369D02*
X107346308Y-112792306D01*
X107346308Y-112792306D02*
X107211621Y-112873118D01*
X107211621Y-112873118D02*
X107130808Y-112900056D01*
X107130808Y-112900056D02*
X107076934Y-112900056D01*
X107076934Y-112900056D02*
X106996121Y-112873118D01*
X106996121Y-112873118D02*
X106942247Y-112819244D01*
X106942247Y-112819244D02*
X106915309Y-112738431D01*
X106915309Y-112738431D02*
X106915309Y-112684557D01*
X106915309Y-112684557D02*
X106942247Y-112603744D01*
X106942247Y-112603744D02*
X107076934Y-112469057D01*
X107076934Y-112469057D02*
X107184683Y-112415183D01*
X107804244Y-112334370D02*
X108073618Y-112603744D01*
X107319370Y-112226621D02*
X107804244Y-112334370D01*
X107804244Y-112334370D02*
X107696494Y-111849497D01*
X108396866Y-112226621D02*
X108504616Y-112172746D01*
X108504616Y-112172746D02*
X108639303Y-112038059D01*
X108639303Y-112038059D02*
X108666240Y-111957247D01*
X108666240Y-111957247D02*
X108666240Y-111903372D01*
X108666240Y-111903372D02*
X108639303Y-111822560D01*
X108639303Y-111822560D02*
X108585428Y-111768685D01*
X108585428Y-111768685D02*
X108504616Y-111741748D01*
X108504616Y-111741748D02*
X108450741Y-111741748D01*
X108450741Y-111741748D02*
X108369929Y-111768685D01*
X108369929Y-111768685D02*
X108235242Y-111849497D01*
X108235242Y-111849497D02*
X108154430Y-111876435D01*
X108154430Y-111876435D02*
X108100555Y-111876435D01*
X108100555Y-111876435D02*
X108019743Y-111849497D01*
X108019743Y-111849497D02*
X107965868Y-111795622D01*
X107965868Y-111795622D02*
X107938930Y-111714810D01*
X107938930Y-111714810D02*
X107938930Y-111660935D01*
X107938930Y-111660935D02*
X107965868Y-111580123D01*
X107965868Y-111580123D02*
X108100555Y-111445436D01*
X108100555Y-111445436D02*
X108208304Y-111391561D01*
X133018998Y-77420868D02*
X132938185Y-77447805D01*
X132938185Y-77447805D02*
X132857373Y-77528618D01*
X132857373Y-77528618D02*
X132803498Y-77636367D01*
X132803498Y-77636367D02*
X132803498Y-77744117D01*
X132803498Y-77744117D02*
X132830436Y-77824929D01*
X132830436Y-77824929D02*
X132911248Y-77959616D01*
X132911248Y-77959616D02*
X132992060Y-78040428D01*
X132992060Y-78040428D02*
X133126747Y-78121241D01*
X133126747Y-78121241D02*
X133207560Y-78148178D01*
X133207560Y-78148178D02*
X133315309Y-78148178D01*
X133315309Y-78148178D02*
X133423059Y-78094303D01*
X133423059Y-78094303D02*
X133476934Y-78040428D01*
X133476934Y-78040428D02*
X133530808Y-77932679D01*
X133530808Y-77932679D02*
X133530808Y-77878804D01*
X133530808Y-77878804D02*
X133342247Y-77690242D01*
X133342247Y-77690242D02*
X133234497Y-77797992D01*
X133827120Y-77690242D02*
X133261434Y-77124557D01*
X133261434Y-77124557D02*
X133476934Y-76909057D01*
X133476934Y-76909057D02*
X133557746Y-76882120D01*
X133557746Y-76882120D02*
X133611621Y-76882120D01*
X133611621Y-76882120D02*
X133692433Y-76909057D01*
X133692433Y-76909057D02*
X133773245Y-76989870D01*
X133773245Y-76989870D02*
X133800182Y-77070682D01*
X133800182Y-77070682D02*
X133800182Y-77124557D01*
X133800182Y-77124557D02*
X133773245Y-77205369D01*
X133773245Y-77205369D02*
X133557746Y-77420868D01*
X134689117Y-76828245D02*
X134365868Y-77151494D01*
X134527492Y-76989870D02*
X133961807Y-76424184D01*
X133961807Y-76424184D02*
X133988744Y-76558871D01*
X133988744Y-76558871D02*
X133988744Y-76666621D01*
X133988744Y-76666621D02*
X133961807Y-76747433D01*
X134392805Y-76100935D02*
X134392805Y-76047060D01*
X134392805Y-76047060D02*
X134419743Y-75966248D01*
X134419743Y-75966248D02*
X134554430Y-75831561D01*
X134554430Y-75831561D02*
X134635242Y-75804624D01*
X134635242Y-75804624D02*
X134689117Y-75804624D01*
X134689117Y-75804624D02*
X134769929Y-75831561D01*
X134769929Y-75831561D02*
X134823804Y-75885436D01*
X134823804Y-75885436D02*
X134877679Y-75993186D01*
X134877679Y-75993186D02*
X134877679Y-76639683D01*
X134877679Y-76639683D02*
X135227865Y-76289497D01*
X132988372Y-112721494D02*
X132907560Y-112748431D01*
X132907560Y-112748431D02*
X132826748Y-112829243D01*
X132826748Y-112829243D02*
X132772873Y-112936993D01*
X132772873Y-112936993D02*
X132772873Y-113044742D01*
X132772873Y-113044742D02*
X132799810Y-113125555D01*
X132799810Y-113125555D02*
X132880623Y-113260242D01*
X132880623Y-113260242D02*
X132961435Y-113341054D01*
X132961435Y-113341054D02*
X133096122Y-113421866D01*
X133096122Y-113421866D02*
X133176934Y-113448803D01*
X133176934Y-113448803D02*
X133284684Y-113448803D01*
X133284684Y-113448803D02*
X133392433Y-113394929D01*
X133392433Y-113394929D02*
X133446308Y-113341054D01*
X133446308Y-113341054D02*
X133500183Y-113233304D01*
X133500183Y-113233304D02*
X133500183Y-113179429D01*
X133500183Y-113179429D02*
X133311621Y-112990868D01*
X133311621Y-112990868D02*
X133203871Y-113098617D01*
X133796494Y-112990868D02*
X133230809Y-112425182D01*
X133230809Y-112425182D02*
X133446308Y-112209683D01*
X133446308Y-112209683D02*
X133527120Y-112182746D01*
X133527120Y-112182746D02*
X133580995Y-112182746D01*
X133580995Y-112182746D02*
X133661807Y-112209683D01*
X133661807Y-112209683D02*
X133742619Y-112290495D01*
X133742619Y-112290495D02*
X133769557Y-112371307D01*
X133769557Y-112371307D02*
X133769557Y-112425182D01*
X133769557Y-112425182D02*
X133742619Y-112505994D01*
X133742619Y-112505994D02*
X133527120Y-112721494D01*
X134658491Y-112128871D02*
X134335242Y-112452120D01*
X134496867Y-112290495D02*
X133931181Y-111724810D01*
X133931181Y-111724810D02*
X133958119Y-111859497D01*
X133958119Y-111859497D02*
X133958119Y-111967246D01*
X133958119Y-111967246D02*
X133931181Y-112048059D01*
X132872998Y-82500868D02*
X132792185Y-82527805D01*
X132792185Y-82527805D02*
X132711373Y-82608618D01*
X132711373Y-82608618D02*
X132657498Y-82716367D01*
X132657498Y-82716367D02*
X132657498Y-82824117D01*
X132657498Y-82824117D02*
X132684436Y-82904929D01*
X132684436Y-82904929D02*
X132765248Y-83039616D01*
X132765248Y-83039616D02*
X132846060Y-83120428D01*
X132846060Y-83120428D02*
X132980747Y-83201241D01*
X132980747Y-83201241D02*
X133061560Y-83228178D01*
X133061560Y-83228178D02*
X133169309Y-83228178D01*
X133169309Y-83228178D02*
X133277059Y-83174303D01*
X133277059Y-83174303D02*
X133330934Y-83120428D01*
X133330934Y-83120428D02*
X133384808Y-83012679D01*
X133384808Y-83012679D02*
X133384808Y-82958804D01*
X133384808Y-82958804D02*
X133196247Y-82770242D01*
X133196247Y-82770242D02*
X133088497Y-82877992D01*
X133681120Y-82770242D02*
X133115434Y-82204557D01*
X133115434Y-82204557D02*
X133330934Y-81989057D01*
X133330934Y-81989057D02*
X133411746Y-81962120D01*
X133411746Y-81962120D02*
X133465621Y-81962120D01*
X133465621Y-81962120D02*
X133546433Y-81989057D01*
X133546433Y-81989057D02*
X133627245Y-82069870D01*
X133627245Y-82069870D02*
X133654182Y-82150682D01*
X133654182Y-82150682D02*
X133654182Y-82204557D01*
X133654182Y-82204557D02*
X133627245Y-82285369D01*
X133627245Y-82285369D02*
X133411746Y-82500868D01*
X134543117Y-81908245D02*
X134219868Y-82231494D01*
X134381492Y-82069870D02*
X133815807Y-81504184D01*
X133815807Y-81504184D02*
X133842744Y-81638871D01*
X133842744Y-81638871D02*
X133842744Y-81746621D01*
X133842744Y-81746621D02*
X133815807Y-81827433D01*
X134327618Y-80992373D02*
X134381492Y-80938499D01*
X134381492Y-80938499D02*
X134462305Y-80911561D01*
X134462305Y-80911561D02*
X134516179Y-80911561D01*
X134516179Y-80911561D02*
X134596992Y-80938499D01*
X134596992Y-80938499D02*
X134731679Y-81019311D01*
X134731679Y-81019311D02*
X134866366Y-81153998D01*
X134866366Y-81153998D02*
X134947178Y-81288685D01*
X134947178Y-81288685D02*
X134974115Y-81369497D01*
X134974115Y-81369497D02*
X134974115Y-81423372D01*
X134974115Y-81423372D02*
X134947178Y-81504184D01*
X134947178Y-81504184D02*
X134893303Y-81558059D01*
X134893303Y-81558059D02*
X134812491Y-81584996D01*
X134812491Y-81584996D02*
X134758616Y-81584996D01*
X134758616Y-81584996D02*
X134677804Y-81558059D01*
X134677804Y-81558059D02*
X134543117Y-81477247D01*
X134543117Y-81477247D02*
X134408430Y-81342560D01*
X134408430Y-81342560D02*
X134327618Y-81207873D01*
X134327618Y-81207873D02*
X134300680Y-81127060D01*
X134300680Y-81127060D02*
X134300680Y-81073186D01*
X134300680Y-81073186D02*
X134327618Y-80992373D01*
X107613651Y-90403710D02*
X107155716Y-90322898D01*
X107290403Y-90726959D02*
X106724717Y-90161274D01*
X106724717Y-90161274D02*
X106940216Y-89945775D01*
X106940216Y-89945775D02*
X107021029Y-89918837D01*
X107021029Y-89918837D02*
X107074903Y-89918837D01*
X107074903Y-89918837D02*
X107155716Y-89945775D01*
X107155716Y-89945775D02*
X107236528Y-90026587D01*
X107236528Y-90026587D02*
X107263465Y-90107399D01*
X107263465Y-90107399D02*
X107263465Y-90161274D01*
X107263465Y-90161274D02*
X107236528Y-90242086D01*
X107236528Y-90242086D02*
X107021029Y-90457585D01*
X107290403Y-89595588D02*
X107748338Y-90053524D01*
X107748338Y-90053524D02*
X107829151Y-90080462D01*
X107829151Y-90080462D02*
X107883025Y-90080462D01*
X107883025Y-90080462D02*
X107963838Y-90053524D01*
X107963838Y-90053524D02*
X108071587Y-89945775D01*
X108071587Y-89945775D02*
X108098525Y-89864962D01*
X108098525Y-89864962D02*
X108098525Y-89811088D01*
X108098525Y-89811088D02*
X108071587Y-89730275D01*
X108071587Y-89730275D02*
X107613651Y-89272340D01*
X108448711Y-89568651D02*
X107883025Y-89002966D01*
X107883025Y-89002966D02*
X108771959Y-89245402D01*
X108771959Y-89245402D02*
X108206274Y-88679717D01*
X106764998Y-95190868D02*
X106684185Y-95217805D01*
X106684185Y-95217805D02*
X106603373Y-95298618D01*
X106603373Y-95298618D02*
X106549498Y-95406367D01*
X106549498Y-95406367D02*
X106549498Y-95514117D01*
X106549498Y-95514117D02*
X106576436Y-95594929D01*
X106576436Y-95594929D02*
X106657248Y-95729616D01*
X106657248Y-95729616D02*
X106738060Y-95810428D01*
X106738060Y-95810428D02*
X106872747Y-95891241D01*
X106872747Y-95891241D02*
X106953560Y-95918178D01*
X106953560Y-95918178D02*
X107061309Y-95918178D01*
X107061309Y-95918178D02*
X107169059Y-95864303D01*
X107169059Y-95864303D02*
X107222934Y-95810428D01*
X107222934Y-95810428D02*
X107276808Y-95702679D01*
X107276808Y-95702679D02*
X107276808Y-95648804D01*
X107276808Y-95648804D02*
X107088247Y-95460242D01*
X107088247Y-95460242D02*
X106980497Y-95567992D01*
X107573120Y-95460242D02*
X107007434Y-94894557D01*
X107007434Y-94894557D02*
X107222934Y-94679057D01*
X107222934Y-94679057D02*
X107303746Y-94652120D01*
X107303746Y-94652120D02*
X107357621Y-94652120D01*
X107357621Y-94652120D02*
X107438433Y-94679057D01*
X107438433Y-94679057D02*
X107519245Y-94759870D01*
X107519245Y-94759870D02*
X107546182Y-94840682D01*
X107546182Y-94840682D02*
X107546182Y-94894557D01*
X107546182Y-94894557D02*
X107519245Y-94975369D01*
X107519245Y-94975369D02*
X107303746Y-95190868D01*
X107600057Y-94409683D02*
X107600057Y-94355809D01*
X107600057Y-94355809D02*
X107626995Y-94274996D01*
X107626995Y-94274996D02*
X107761682Y-94140309D01*
X107761682Y-94140309D02*
X107842494Y-94113372D01*
X107842494Y-94113372D02*
X107896369Y-94113372D01*
X107896369Y-94113372D02*
X107977181Y-94140309D01*
X107977181Y-94140309D02*
X108031056Y-94194184D01*
X108031056Y-94194184D02*
X108084930Y-94301934D01*
X108084930Y-94301934D02*
X108084930Y-94948431D01*
X108084930Y-94948431D02*
X108435117Y-94598245D01*
X108057993Y-93843998D02*
X108435117Y-93466874D01*
X108435117Y-93466874D02*
X108758366Y-94274996D01*
X151547142Y-80324819D02*
X151213809Y-79848628D01*
X150975714Y-80324819D02*
X150975714Y-79324819D01*
X150975714Y-79324819D02*
X151356666Y-79324819D01*
X151356666Y-79324819D02*
X151451904Y-79372438D01*
X151451904Y-79372438D02*
X151499523Y-79420057D01*
X151499523Y-79420057D02*
X151547142Y-79515295D01*
X151547142Y-79515295D02*
X151547142Y-79658152D01*
X151547142Y-79658152D02*
X151499523Y-79753390D01*
X151499523Y-79753390D02*
X151451904Y-79801009D01*
X151451904Y-79801009D02*
X151356666Y-79848628D01*
X151356666Y-79848628D02*
X150975714Y-79848628D01*
X152499523Y-80324819D02*
X151928095Y-80324819D01*
X152213809Y-80324819D02*
X152213809Y-79324819D01*
X152213809Y-79324819D02*
X152118571Y-79467676D01*
X152118571Y-79467676D02*
X152023333Y-79562914D01*
X152023333Y-79562914D02*
X151928095Y-79610533D01*
X152975714Y-80324819D02*
X153166190Y-80324819D01*
X153166190Y-80324819D02*
X153261428Y-80277200D01*
X153261428Y-80277200D02*
X153309047Y-80229580D01*
X153309047Y-80229580D02*
X153404285Y-80086723D01*
X153404285Y-80086723D02*
X153451904Y-79896247D01*
X153451904Y-79896247D02*
X153451904Y-79515295D01*
X153451904Y-79515295D02*
X153404285Y-79420057D01*
X153404285Y-79420057D02*
X153356666Y-79372438D01*
X153356666Y-79372438D02*
X153261428Y-79324819D01*
X153261428Y-79324819D02*
X153070952Y-79324819D01*
X153070952Y-79324819D02*
X152975714Y-79372438D01*
X152975714Y-79372438D02*
X152928095Y-79420057D01*
X152928095Y-79420057D02*
X152880476Y-79515295D01*
X152880476Y-79515295D02*
X152880476Y-79753390D01*
X152880476Y-79753390D02*
X152928095Y-79848628D01*
X152928095Y-79848628D02*
X152975714Y-79896247D01*
X152975714Y-79896247D02*
X153070952Y-79943866D01*
X153070952Y-79943866D02*
X153261428Y-79943866D01*
X153261428Y-79943866D02*
X153356666Y-79896247D01*
X153356666Y-79896247D02*
X153404285Y-79848628D01*
X153404285Y-79848628D02*
X153451904Y-79753390D01*
X166166666Y-71084819D02*
X166166666Y-71799104D01*
X166166666Y-71799104D02*
X166119047Y-71941961D01*
X166119047Y-71941961D02*
X166023809Y-72037200D01*
X166023809Y-72037200D02*
X165880952Y-72084819D01*
X165880952Y-72084819D02*
X165785714Y-72084819D01*
X167071428Y-71418152D02*
X167071428Y-72084819D01*
X166833333Y-71037200D02*
X166595238Y-71751485D01*
X166595238Y-71751485D02*
X167214285Y-71751485D01*
X174166666Y-74304819D02*
X174166666Y-75019104D01*
X174166666Y-75019104D02*
X174119047Y-75161961D01*
X174119047Y-75161961D02*
X174023809Y-75257200D01*
X174023809Y-75257200D02*
X173880952Y-75304819D01*
X173880952Y-75304819D02*
X173785714Y-75304819D01*
X174547619Y-74304819D02*
X175166666Y-74304819D01*
X175166666Y-74304819D02*
X174833333Y-74685771D01*
X174833333Y-74685771D02*
X174976190Y-74685771D01*
X174976190Y-74685771D02*
X175071428Y-74733390D01*
X175071428Y-74733390D02*
X175119047Y-74781009D01*
X175119047Y-74781009D02*
X175166666Y-74876247D01*
X175166666Y-74876247D02*
X175166666Y-75114342D01*
X175166666Y-75114342D02*
X175119047Y-75209580D01*
X175119047Y-75209580D02*
X175071428Y-75257200D01*
X175071428Y-75257200D02*
X174976190Y-75304819D01*
X174976190Y-75304819D02*
X174690476Y-75304819D01*
X174690476Y-75304819D02*
X174595238Y-75257200D01*
X174595238Y-75257200D02*
X174547619Y-75209580D01*
X153666666Y-74309819D02*
X153666666Y-75024104D01*
X153666666Y-75024104D02*
X153619047Y-75166961D01*
X153619047Y-75166961D02*
X153523809Y-75262200D01*
X153523809Y-75262200D02*
X153380952Y-75309819D01*
X153380952Y-75309819D02*
X153285714Y-75309819D01*
X154095238Y-74405057D02*
X154142857Y-74357438D01*
X154142857Y-74357438D02*
X154238095Y-74309819D01*
X154238095Y-74309819D02*
X154476190Y-74309819D01*
X154476190Y-74309819D02*
X154571428Y-74357438D01*
X154571428Y-74357438D02*
X154619047Y-74405057D01*
X154619047Y-74405057D02*
X154666666Y-74500295D01*
X154666666Y-74500295D02*
X154666666Y-74595533D01*
X154666666Y-74595533D02*
X154619047Y-74738390D01*
X154619047Y-74738390D02*
X154047619Y-75309819D01*
X154047619Y-75309819D02*
X154666666Y-75309819D01*
X160544819Y-66833333D02*
X161259104Y-66833333D01*
X161259104Y-66833333D02*
X161401961Y-66880952D01*
X161401961Y-66880952D02*
X161497200Y-66976190D01*
X161497200Y-66976190D02*
X161544819Y-67119047D01*
X161544819Y-67119047D02*
X161544819Y-67214285D01*
X161544819Y-65833333D02*
X161544819Y-66404761D01*
X161544819Y-66119047D02*
X160544819Y-66119047D01*
X160544819Y-66119047D02*
X160687676Y-66214285D01*
X160687676Y-66214285D02*
X160782914Y-66309523D01*
X160782914Y-66309523D02*
X160830533Y-66404761D01*
X151859580Y-70166666D02*
X151907200Y-70214285D01*
X151907200Y-70214285D02*
X151954819Y-70357142D01*
X151954819Y-70357142D02*
X151954819Y-70452380D01*
X151954819Y-70452380D02*
X151907200Y-70595237D01*
X151907200Y-70595237D02*
X151811961Y-70690475D01*
X151811961Y-70690475D02*
X151716723Y-70738094D01*
X151716723Y-70738094D02*
X151526247Y-70785713D01*
X151526247Y-70785713D02*
X151383390Y-70785713D01*
X151383390Y-70785713D02*
X151192914Y-70738094D01*
X151192914Y-70738094D02*
X151097676Y-70690475D01*
X151097676Y-70690475D02*
X151002438Y-70595237D01*
X151002438Y-70595237D02*
X150954819Y-70452380D01*
X150954819Y-70452380D02*
X150954819Y-70357142D01*
X150954819Y-70357142D02*
X151002438Y-70214285D01*
X151002438Y-70214285D02*
X151050057Y-70166666D01*
X151050057Y-69785713D02*
X151002438Y-69738094D01*
X151002438Y-69738094D02*
X150954819Y-69642856D01*
X150954819Y-69642856D02*
X150954819Y-69404761D01*
X150954819Y-69404761D02*
X151002438Y-69309523D01*
X151002438Y-69309523D02*
X151050057Y-69261904D01*
X151050057Y-69261904D02*
X151145295Y-69214285D01*
X151145295Y-69214285D02*
X151240533Y-69214285D01*
X151240533Y-69214285D02*
X151383390Y-69261904D01*
X151383390Y-69261904D02*
X151954819Y-69833332D01*
X151954819Y-69833332D02*
X151954819Y-69214285D01*
X171359580Y-103166666D02*
X171407200Y-103214285D01*
X171407200Y-103214285D02*
X171454819Y-103357142D01*
X171454819Y-103357142D02*
X171454819Y-103452380D01*
X171454819Y-103452380D02*
X171407200Y-103595237D01*
X171407200Y-103595237D02*
X171311961Y-103690475D01*
X171311961Y-103690475D02*
X171216723Y-103738094D01*
X171216723Y-103738094D02*
X171026247Y-103785713D01*
X171026247Y-103785713D02*
X170883390Y-103785713D01*
X170883390Y-103785713D02*
X170692914Y-103738094D01*
X170692914Y-103738094D02*
X170597676Y-103690475D01*
X170597676Y-103690475D02*
X170502438Y-103595237D01*
X170502438Y-103595237D02*
X170454819Y-103452380D01*
X170454819Y-103452380D02*
X170454819Y-103357142D01*
X170454819Y-103357142D02*
X170502438Y-103214285D01*
X170502438Y-103214285D02*
X170550057Y-103166666D01*
X171454819Y-102214285D02*
X171454819Y-102785713D01*
X171454819Y-102499999D02*
X170454819Y-102499999D01*
X170454819Y-102499999D02*
X170597676Y-102595237D01*
X170597676Y-102595237D02*
X170692914Y-102690475D01*
X170692914Y-102690475D02*
X170740533Y-102785713D01*
X154618095Y-79604819D02*
X154618095Y-80414342D01*
X154618095Y-80414342D02*
X154665714Y-80509580D01*
X154665714Y-80509580D02*
X154713333Y-80557200D01*
X154713333Y-80557200D02*
X154808571Y-80604819D01*
X154808571Y-80604819D02*
X154999047Y-80604819D01*
X154999047Y-80604819D02*
X155094285Y-80557200D01*
X155094285Y-80557200D02*
X155141904Y-80509580D01*
X155141904Y-80509580D02*
X155189523Y-80414342D01*
X155189523Y-80414342D02*
X155189523Y-79604819D01*
X155570476Y-79604819D02*
X156189523Y-79604819D01*
X156189523Y-79604819D02*
X155856190Y-79985771D01*
X155856190Y-79985771D02*
X155999047Y-79985771D01*
X155999047Y-79985771D02*
X156094285Y-80033390D01*
X156094285Y-80033390D02*
X156141904Y-80081009D01*
X156141904Y-80081009D02*
X156189523Y-80176247D01*
X156189523Y-80176247D02*
X156189523Y-80414342D01*
X156189523Y-80414342D02*
X156141904Y-80509580D01*
X156141904Y-80509580D02*
X156094285Y-80557200D01*
X156094285Y-80557200D02*
X155999047Y-80604819D01*
X155999047Y-80604819D02*
X155713333Y-80604819D01*
X155713333Y-80604819D02*
X155618095Y-80557200D01*
X155618095Y-80557200D02*
X155570476Y-80509580D01*
D12*
%TO.C,U2*%
X136060000Y-65030000D02*
X136060000Y-75430000D01*
X136060000Y-75430000D02*
X146560000Y-75430000D01*
X139060000Y-65090000D02*
X139060000Y-75370000D01*
X139060000Y-75370000D02*
X143560000Y-75370000D01*
X140310000Y-65090000D02*
X139060000Y-65090000D01*
X143560000Y-65090000D02*
X142310000Y-65090000D01*
X143560000Y-75370000D02*
X143560000Y-65090000D01*
X146560000Y-65030000D02*
X136060000Y-65030000D01*
X146560000Y-75430000D02*
X146560000Y-65030000D01*
X142310000Y-65090000D02*
G75*
G02*
X140310000Y-65090000I-1000000J0D01*
G01*
%TO.C,U1*%
X110275000Y-86100000D02*
X110275000Y-85700000D01*
X131275000Y-114100000D02*
X131275000Y-113700000D01*
X131275000Y-111500000D02*
X131275000Y-111100000D01*
X110275000Y-81000000D02*
X110275000Y-80600000D01*
X124475000Y-65500000D02*
X131275000Y-65500000D01*
X110275000Y-91200000D02*
X110275000Y-90800000D01*
X110275000Y-68300000D02*
X110275000Y-67900000D01*
X110275000Y-114100000D02*
X110275000Y-113700000D01*
X128268000Y-113833000D02*
X128268000Y-116500000D01*
X110275000Y-96300000D02*
X110275000Y-95900000D01*
X131275000Y-116500000D02*
X110275000Y-116500000D01*
X131275000Y-70900000D02*
X131275000Y-70500000D01*
X131275000Y-93700000D02*
X131275000Y-93300000D01*
X131275000Y-68300000D02*
X131275000Y-67900000D01*
X131275000Y-106400000D02*
X131275000Y-106000000D01*
X131275000Y-96300000D02*
X131275000Y-95900000D01*
X110275000Y-93700000D02*
X110275000Y-93300000D01*
X110275000Y-65500000D02*
X117075000Y-65500000D01*
X110275000Y-106400000D02*
X110275000Y-106000000D01*
X131275000Y-83600000D02*
X131275000Y-83200000D01*
X131275000Y-113833000D02*
X128268000Y-113833000D01*
X131275000Y-98800000D02*
X131275000Y-98400000D01*
X131275000Y-86100000D02*
X131275000Y-85700000D01*
X122275000Y-65500000D02*
X121875000Y-65500000D01*
X131275000Y-103900000D02*
X131275000Y-103500000D01*
X110275000Y-111500000D02*
X110275000Y-111100000D01*
X131275000Y-75900000D02*
X131275000Y-75500000D01*
X119675000Y-65500000D02*
X119275000Y-65500000D01*
X110275000Y-103900000D02*
X110275000Y-103500000D01*
X131275000Y-81000000D02*
X131275000Y-80600000D01*
X110275000Y-88700000D02*
X110275000Y-88300000D01*
X131275000Y-101400000D02*
X131275000Y-101000000D01*
X131275000Y-91200000D02*
X131275000Y-90800000D01*
X131275000Y-73400000D02*
X131275000Y-73000000D01*
X131275000Y-78500000D02*
X131275000Y-78100000D01*
X110275000Y-83600000D02*
X110275000Y-83200000D01*
X110275000Y-101400000D02*
X110275000Y-101000000D01*
X110275000Y-73400000D02*
X110275000Y-73000000D01*
X110275000Y-98800000D02*
X110275000Y-98400000D01*
X131275000Y-116500000D02*
X131275000Y-116200000D01*
X110275000Y-70900000D02*
X110275000Y-70500000D01*
X110275000Y-78500000D02*
X110275000Y-78100000D01*
X110275000Y-109000000D02*
X110275000Y-108600000D01*
X131275000Y-88700000D02*
X131275000Y-88300000D01*
X110275000Y-116500000D02*
X110275000Y-116200000D01*
X131275000Y-109000000D02*
X131275000Y-108600000D01*
X110275000Y-75900000D02*
X110275000Y-75500000D01*
%TO.C,R19*%
X155460000Y-78870000D02*
X148920000Y-78870000D01*
X155460000Y-78540000D02*
X155460000Y-78870000D01*
X155460000Y-76460000D02*
X155460000Y-76130000D01*
X155460000Y-76130000D02*
X148920000Y-76130000D01*
X148920000Y-78870000D02*
X148920000Y-78540000D01*
X148920000Y-76130000D02*
X148920000Y-76460000D01*
%TO.C,R18*%
X143422500Y-77987742D02*
X143422500Y-78462258D01*
X142377500Y-77987742D02*
X142377500Y-78462258D01*
%TO.C,R17*%
X143422500Y-81993992D02*
X143422500Y-82468508D01*
X142377500Y-81993992D02*
X142377500Y-82468508D01*
%TO.C,R16*%
X143422500Y-86000242D02*
X143422500Y-86474758D01*
X142377500Y-86000242D02*
X142377500Y-86474758D01*
%TO.C,R15*%
X137297500Y-78987742D02*
X137297500Y-79462258D01*
X136252500Y-78987742D02*
X136252500Y-79462258D01*
%TO.C,R14*%
X137297500Y-82987742D02*
X137297500Y-83462258D01*
X136252500Y-82987742D02*
X136252500Y-83462258D01*
%TO.C,R13*%
X137297500Y-86987742D02*
X137297500Y-87462258D01*
X136252500Y-86987742D02*
X136252500Y-87462258D01*
%TO.C,R12*%
X143422500Y-90006492D02*
X143422500Y-90481008D01*
X142377500Y-90006492D02*
X142377500Y-90481008D01*
%TO.C,R11*%
X137297500Y-90987742D02*
X137297500Y-91462258D01*
X136252500Y-90987742D02*
X136252500Y-91462258D01*
%TO.C,R10*%
X143422500Y-94012742D02*
X143422500Y-94487258D01*
X142377500Y-94012742D02*
X142377500Y-94487258D01*
%TO.C,R9*%
X137297500Y-94987742D02*
X137297500Y-95462258D01*
X136252500Y-94987742D02*
X136252500Y-95462258D01*
%TO.C,R8*%
X143422500Y-98018992D02*
X143422500Y-98493508D01*
X142377500Y-98018992D02*
X142377500Y-98493508D01*
%TO.C,R7*%
X137297500Y-98987742D02*
X137297500Y-99462258D01*
X136252500Y-98987742D02*
X136252500Y-99462258D01*
%TO.C,R6*%
X143422500Y-102025242D02*
X143422500Y-102499758D01*
X142377500Y-102025242D02*
X142377500Y-102499758D01*
%TO.C,R5*%
X137297500Y-102987742D02*
X137297500Y-103462258D01*
X136252500Y-102987742D02*
X136252500Y-103462258D01*
%TO.C,R4*%
X143422500Y-106031492D02*
X143422500Y-106506008D01*
X142377500Y-106031492D02*
X142377500Y-106506008D01*
%TO.C,R3*%
X137297500Y-106987742D02*
X137297500Y-107462258D01*
X136252500Y-106987742D02*
X136252500Y-107462258D01*
%TO.C,R2*%
X143422500Y-110037742D02*
X143422500Y-110512258D01*
X142377500Y-110037742D02*
X142377500Y-110512258D01*
%TO.C,R1*%
X137297500Y-111037742D02*
X137297500Y-111512258D01*
X136252500Y-111037742D02*
X136252500Y-111512258D01*
%TO.C,Q2*%
X139837500Y-105715000D02*
X139187500Y-105715000D01*
X139837500Y-105715000D02*
X140487500Y-105715000D01*
X139837500Y-108835000D02*
X139187500Y-108835000D01*
X139837500Y-108835000D02*
X140487500Y-108835000D01*
X138675000Y-105765000D02*
X138435000Y-105435000D01*
X138915000Y-105435000D01*
X138675000Y-105765000D01*
G36*
X138675000Y-105765000D02*
G01*
X138435000Y-105435000D01*
X138915000Y-105435000D01*
X138675000Y-105765000D01*
G37*
%TO.C,Q1*%
X139837500Y-109665000D02*
X139187500Y-109665000D01*
X139837500Y-109665000D02*
X140487500Y-109665000D01*
X139837500Y-112785000D02*
X139187500Y-112785000D01*
X139837500Y-112785000D02*
X140487500Y-112785000D01*
X138675000Y-109715000D02*
X138435000Y-109385000D01*
X138915000Y-109385000D01*
X138675000Y-109715000D01*
G36*
X138675000Y-109715000D02*
G01*
X138435000Y-109385000D01*
X138915000Y-109385000D01*
X138675000Y-109715000D01*
G37*
%TO.C,J4*%
X165170000Y-72630000D02*
X166500000Y-72630000D01*
X165170000Y-73960000D02*
X165170000Y-72630000D01*
X165170000Y-75230000D02*
X165170000Y-77830000D01*
X165170000Y-75230000D02*
X167830000Y-75230000D01*
X165170000Y-77830000D02*
X167830000Y-77830000D01*
X167830000Y-75230000D02*
X167830000Y-77830000D01*
%TO.C,J3*%
X173170000Y-75850000D02*
X174500000Y-75850000D01*
X173170000Y-77180000D02*
X173170000Y-75850000D01*
X173170000Y-78450000D02*
X173170000Y-116610000D01*
X173170000Y-78450000D02*
X175830000Y-78450000D01*
X173170000Y-116610000D02*
X175830000Y-116610000D01*
X175830000Y-78450000D02*
X175830000Y-116610000D01*
%TO.C,J2*%
X155330000Y-73855000D02*
X154000000Y-73855000D01*
X155330000Y-72525000D02*
X155330000Y-73855000D01*
X155330000Y-71255000D02*
X155330000Y-66115000D01*
X155330000Y-71255000D02*
X152670000Y-71255000D01*
X155330000Y-66115000D02*
X152670000Y-66115000D01*
X152670000Y-71255000D02*
X152670000Y-66115000D01*
%TO.C,J1*%
X162090000Y-67830000D02*
X162090000Y-66500000D01*
X163420000Y-67830000D02*
X162090000Y-67830000D01*
X164690000Y-67830000D02*
X172370000Y-67830000D01*
X164690000Y-67830000D02*
X164690000Y-65170000D01*
X172370000Y-67830000D02*
X172370000Y-65170000D01*
X164690000Y-65170000D02*
X172370000Y-65170000D01*
%TO.C,C2*%
X150370000Y-66880000D02*
X149925000Y-66880000D01*
X150370000Y-66880000D02*
X150370000Y-73120000D01*
X148075000Y-66880000D02*
X147630000Y-66880000D01*
X147630000Y-66880000D02*
X147630000Y-73120000D01*
X150370000Y-73120000D02*
X149925000Y-73120000D01*
X148075000Y-73120000D02*
X147630000Y-73120000D01*
%TO.C,C1*%
X169870000Y-99880000D02*
X169425000Y-99880000D01*
X169870000Y-99880000D02*
X169870000Y-106120000D01*
X167575000Y-99880000D02*
X167130000Y-99880000D01*
X167130000Y-99880000D02*
X167130000Y-106120000D01*
X169870000Y-106120000D02*
X169425000Y-106120000D01*
X167575000Y-106120000D02*
X167130000Y-106120000D01*
%TO.C,Q5*%
X139837500Y-93615000D02*
X139187500Y-93615000D01*
X139837500Y-93615000D02*
X140487500Y-93615000D01*
X139837500Y-96735000D02*
X139187500Y-96735000D01*
X139837500Y-96735000D02*
X140487500Y-96735000D01*
X138675000Y-93665000D02*
X138435000Y-93335000D01*
X138915000Y-93335000D01*
X138675000Y-93665000D01*
G36*
X138675000Y-93665000D02*
G01*
X138435000Y-93335000D01*
X138915000Y-93335000D01*
X138675000Y-93665000D01*
G37*
%TO.C,Q3*%
X139837500Y-101665000D02*
X139187500Y-101665000D01*
X139837500Y-101665000D02*
X140487500Y-101665000D01*
X139837500Y-104785000D02*
X139187500Y-104785000D01*
X139837500Y-104785000D02*
X140487500Y-104785000D01*
X138675000Y-101715000D02*
X138435000Y-101385000D01*
X138915000Y-101385000D01*
X138675000Y-101715000D01*
G36*
X138675000Y-101715000D02*
G01*
X138435000Y-101385000D01*
X138915000Y-101385000D01*
X138675000Y-101715000D01*
G37*
%TO.C,Q4*%
X139837500Y-97665000D02*
X139187500Y-97665000D01*
X139837500Y-97665000D02*
X140487500Y-97665000D01*
X139837500Y-100785000D02*
X139187500Y-100785000D01*
X139837500Y-100785000D02*
X140487500Y-100785000D01*
X138675000Y-97715000D02*
X138435000Y-97385000D01*
X138915000Y-97385000D01*
X138675000Y-97715000D01*
G36*
X138675000Y-97715000D02*
G01*
X138435000Y-97385000D01*
X138915000Y-97385000D01*
X138675000Y-97715000D01*
G37*
%TO.C,Q6*%
X139837500Y-89615000D02*
X139187500Y-89615000D01*
X139837500Y-89615000D02*
X140487500Y-89615000D01*
X139837500Y-92735000D02*
X139187500Y-92735000D01*
X139837500Y-92735000D02*
X140487500Y-92735000D01*
X138675000Y-89665000D02*
X138435000Y-89335000D01*
X138915000Y-89335000D01*
X138675000Y-89665000D01*
G36*
X138675000Y-89665000D02*
G01*
X138435000Y-89335000D01*
X138915000Y-89335000D01*
X138675000Y-89665000D01*
G37*
%TO.C,Q7*%
X139837500Y-85615000D02*
X139187500Y-85615000D01*
X139837500Y-85615000D02*
X140487500Y-85615000D01*
X139837500Y-88735000D02*
X139187500Y-88735000D01*
X139837500Y-88735000D02*
X140487500Y-88735000D01*
X138675000Y-85665000D02*
X138435000Y-85335000D01*
X138915000Y-85335000D01*
X138675000Y-85665000D01*
G36*
X138675000Y-85665000D02*
G01*
X138435000Y-85335000D01*
X138915000Y-85335000D01*
X138675000Y-85665000D01*
G37*
%TO.C,Q8*%
X139837500Y-81615000D02*
X139187500Y-81615000D01*
X139837500Y-81615000D02*
X140487500Y-81615000D01*
X139837500Y-84735000D02*
X139187500Y-84735000D01*
X139837500Y-84735000D02*
X140487500Y-84735000D01*
X138675000Y-81665000D02*
X138435000Y-81335000D01*
X138915000Y-81335000D01*
X138675000Y-81665000D01*
G36*
X138675000Y-81665000D02*
G01*
X138435000Y-81335000D01*
X138915000Y-81335000D01*
X138675000Y-81665000D01*
G37*
%TO.C,Q9*%
X139837500Y-77615000D02*
X139187500Y-77615000D01*
X139837500Y-77615000D02*
X140487500Y-77615000D01*
X139837500Y-80735000D02*
X139187500Y-80735000D01*
X139837500Y-80735000D02*
X140487500Y-80735000D01*
X138675000Y-77665000D02*
X138435000Y-77335000D01*
X138915000Y-77335000D01*
X138675000Y-77665000D01*
G36*
X138675000Y-77665000D02*
G01*
X138435000Y-77335000D01*
X138915000Y-77335000D01*
X138675000Y-77665000D01*
G37*
%TO.C,U3*%
X146320000Y-81090000D02*
X146320000Y-116890000D01*
X146320000Y-116890000D02*
X164440000Y-116890000D01*
X149320000Y-81150000D02*
X149320000Y-116830000D01*
X149320000Y-116830000D02*
X161440000Y-116830000D01*
X154380000Y-81150000D02*
X149320000Y-81150000D01*
X161440000Y-81150000D02*
X156380000Y-81150000D01*
X161440000Y-116830000D02*
X161440000Y-81150000D01*
X164440000Y-81090000D02*
X146320000Y-81090000D01*
X164440000Y-116890000D02*
X164440000Y-81090000D01*
X156380000Y-81150000D02*
G75*
G02*
X154380000Y-81150000I-1000000J0D01*
G01*
%TD*%
M02*
