%TF.GenerationSoftware,KiCad,Pcbnew,8.0.5*%
%TF.CreationDate,2024-11-23T18:11:23-05:00*%
%TF.ProjectId,kb-flat-jumper,6b622d66-6c61-4742-9d6a-756d7065722e,rev?*%
%TF.SameCoordinates,Original*%
%TF.FileFunction,Copper,L1,Top*%
%TF.FilePolarity,Positive*%
%FSLAX46Y46*%
G04 Gerber Fmt 4.6, Leading zero omitted, Abs format (unit mm)*
G04 Created by KiCad (PCBNEW 8.0.5) date 2024-11-23 18:11:23*
%MOMM*%
%LPD*%
G01*
G04 APERTURE LIST*
G04 Aperture macros list*
%AMRoundRect*
0 Rectangle with rounded corners*
0 $1 Rounding radius*
0 $2 $3 $4 $5 $6 $7 $8 $9 X,Y pos of 4 corners*
0 Add a 4 corners polygon primitive as box body*
4,1,4,$2,$3,$4,$5,$6,$7,$8,$9,$2,$3,0*
0 Add four circle primitives for the rounded corners*
1,1,$1+$1,$2,$3*
1,1,$1+$1,$4,$5*
1,1,$1+$1,$6,$7*
1,1,$1+$1,$8,$9*
0 Add four rect primitives between the rounded corners*
20,1,$1+$1,$2,$3,$4,$5,0*
20,1,$1+$1,$4,$5,$6,$7,0*
20,1,$1+$1,$6,$7,$8,$9,0*
20,1,$1+$1,$8,$9,$2,$3,0*%
G04 Aperture macros list end*
%TA.AperFunction,SMDPad,CuDef*%
%ADD10RoundRect,0.317500X-2.476500X-0.317500X2.476500X-0.317500X2.476500X0.317500X-2.476500X0.317500X0*%
%TD*%
%TA.AperFunction,Conductor*%
%ADD11C,1.270000*%
%TD*%
G04 APERTURE END LIST*
D10*
%TO.P,J32,1,Pin_1*%
%TO.N,Net-(J24-Pin_1)*%
X197104000Y-90662000D03*
%TD*%
%TO.P,J31,1,Pin_1*%
%TO.N,Net-(J23-Pin_1)*%
X197104000Y-88122000D03*
%TD*%
%TO.P,J30,1,Pin_1*%
%TO.N,Net-(J22-Pin_1)*%
X197104000Y-85582000D03*
%TD*%
%TO.P,J29,1,Pin_1*%
%TO.N,Net-(J21-Pin_1)*%
X197104000Y-83042000D03*
%TD*%
%TO.P,J28,1,Pin_1*%
%TO.N,Net-(J20-Pin_1)*%
X197104000Y-80502000D03*
%TD*%
%TO.P,J27,1,Pin_1*%
%TO.N,Net-(J19-Pin_1)*%
X197104000Y-77962000D03*
%TD*%
%TO.P,J26,1,Pin_1*%
%TO.N,Net-(J18-Pin_1)*%
X197104000Y-75422000D03*
%TD*%
%TO.P,J25,1,Pin_1*%
%TO.N,Net-(J17-Pin_1)*%
X197104000Y-72898000D03*
%TD*%
%TO.P,J24,1,Pin_1*%
%TO.N,Net-(J24-Pin_1)*%
X104394000Y-90678000D03*
%TD*%
%TO.P,J23,1,Pin_1*%
%TO.N,Net-(J23-Pin_1)*%
X104394000Y-88138000D03*
%TD*%
%TO.P,J22,1,Pin_1*%
%TO.N,Net-(J22-Pin_1)*%
X104394000Y-85598000D03*
%TD*%
%TO.P,J21,1,Pin_1*%
%TO.N,Net-(J21-Pin_1)*%
X104394000Y-83058000D03*
%TD*%
%TO.P,J20,1,Pin_1*%
%TO.N,Net-(J20-Pin_1)*%
X104394000Y-80518000D03*
%TD*%
%TO.P,J19,1,Pin_1*%
%TO.N,Net-(J19-Pin_1)*%
X104394000Y-77978000D03*
%TD*%
%TO.P,J18,1,Pin_1*%
%TO.N,Net-(J18-Pin_1)*%
X104394000Y-75438000D03*
%TD*%
%TO.P,J17,1,Pin_1*%
%TO.N,Net-(J17-Pin_1)*%
X104394000Y-72898000D03*
%TD*%
%TO.P,J16,1,Pin_1*%
%TO.N,Net-(J12-Pin_1)*%
X197104000Y-70342000D03*
%TD*%
%TO.P,J15,1,Pin_1*%
%TO.N,Net-(J11-Pin_1)*%
X197104000Y-67802000D03*
%TD*%
%TO.P,J14,1,Pin_1*%
%TO.N,Net-(J10-Pin_1)*%
X197104000Y-65262000D03*
%TD*%
%TO.P,J13,1,Pin_1*%
%TO.N,Net-(J13-Pin_1)*%
X197104000Y-62722000D03*
%TD*%
%TO.P,J12,1,Pin_1*%
%TO.N,Net-(J12-Pin_1)*%
X104394000Y-70358000D03*
%TD*%
%TO.P,J11,1,Pin_1*%
%TO.N,Net-(J11-Pin_1)*%
X104394000Y-67818000D03*
%TD*%
%TO.P,J10,1,Pin_1*%
%TO.N,Net-(J10-Pin_1)*%
X104394000Y-65278000D03*
%TD*%
%TO.P,J9,1,Pin_1*%
%TO.N,Net-(J13-Pin_1)*%
X104394000Y-62738000D03*
%TD*%
%TO.P,J8,1,Pin_1*%
%TO.N,Net-(J6-Pin_1)*%
X197104000Y-60182000D03*
%TD*%
%TO.P,J7,1,Pin_1*%
%TO.N,Net-(J5-Pin_1)*%
X197104000Y-57642000D03*
%TD*%
%TO.P,J6,1,Pin_1*%
%TO.N,Net-(J6-Pin_1)*%
X104394000Y-60198000D03*
%TD*%
%TO.P,J5,1,Pin_1*%
%TO.N,Net-(J5-Pin_1)*%
X104394000Y-57658000D03*
%TD*%
%TO.P,J4,1,Pin_1*%
%TO.N,Net-(J3-Pin_1)*%
X197104000Y-55102000D03*
%TD*%
%TO.P,J3,1,Pin_1*%
%TO.N,Net-(J3-Pin_1)*%
X104394000Y-55118000D03*
%TD*%
%TO.P,J1,1,Pin_1*%
%TO.N,Net-(J1-Pin_1)*%
X104394000Y-52578000D03*
%TD*%
%TO.P,J2,1,Pin_1*%
%TO.N,Net-(J1-Pin_1)*%
X197104000Y-52562000D03*
%TD*%
D11*
%TO.N,Net-(J24-Pin_1)*%
X104394000Y-90678000D02*
X197088000Y-90678000D01*
X197088000Y-90678000D02*
X197104000Y-90662000D01*
%TO.N,Net-(J23-Pin_1)*%
X197104000Y-88122000D02*
X104410000Y-88122000D01*
X104410000Y-88122000D02*
X104394000Y-88138000D01*
%TO.N,Net-(J22-Pin_1)*%
X104394000Y-85598000D02*
X197088000Y-85598000D01*
X197088000Y-85598000D02*
X197104000Y-85582000D01*
%TO.N,Net-(J21-Pin_1)*%
X197104000Y-83042000D02*
X104410000Y-83042000D01*
X104410000Y-83042000D02*
X104394000Y-83058000D01*
%TO.N,Net-(J20-Pin_1)*%
X104394000Y-80518000D02*
X197088000Y-80518000D01*
X197088000Y-80518000D02*
X197104000Y-80502000D01*
%TO.N,Net-(J19-Pin_1)*%
X197104000Y-77962000D02*
X104410000Y-77962000D01*
X104410000Y-77962000D02*
X104394000Y-77978000D01*
%TO.N,Net-(J18-Pin_1)*%
X104394000Y-75438000D02*
X197088000Y-75438000D01*
X197088000Y-75438000D02*
X197104000Y-75422000D01*
%TO.N,Net-(J17-Pin_1)*%
X197104000Y-72898000D02*
X104394000Y-72898000D01*
%TO.N,Net-(J12-Pin_1)*%
X104394000Y-70358000D02*
X197088000Y-70358000D01*
X197088000Y-70358000D02*
X197104000Y-70342000D01*
%TO.N,Net-(J11-Pin_1)*%
X197104000Y-67802000D02*
X104410000Y-67802000D01*
X104410000Y-67802000D02*
X104394000Y-67818000D01*
%TO.N,Net-(J10-Pin_1)*%
X104394000Y-65278000D02*
X197088000Y-65278000D01*
X197088000Y-65278000D02*
X197104000Y-65262000D01*
%TO.N,Net-(J13-Pin_1)*%
X197104000Y-62722000D02*
X104410000Y-62722000D01*
X104410000Y-62722000D02*
X104394000Y-62738000D01*
%TO.N,Net-(J6-Pin_1)*%
X104394000Y-60198000D02*
X104648000Y-60198000D01*
X104648000Y-60198000D02*
X104664000Y-60182000D01*
X104664000Y-60182000D02*
X197104000Y-60182000D01*
%TO.N,Net-(J5-Pin_1)*%
X197104000Y-57642000D02*
X104410000Y-57642000D01*
X104410000Y-57642000D02*
X104394000Y-57658000D01*
%TO.N,Net-(J3-Pin_1)*%
X104394000Y-55118000D02*
X197088000Y-55118000D01*
X197088000Y-55118000D02*
X197104000Y-55102000D01*
%TO.N,Net-(J1-Pin_1)*%
X104394000Y-52578000D02*
X197088000Y-52578000D01*
X197088000Y-52578000D02*
X197104000Y-52562000D01*
%TD*%
M02*
